<?xml version="1.0" standalone="no"?>
<!DOCTYPE svg PUBLIC "-//W3C//DTD SVG 20010904//EN"
 "http://www.w3.org/TR/2001/REC-SVG-20010904/DTD/svg10.dtd">
<svg version="1.0" xmlns="http://www.w3.org/2000/svg"
 width="500.000000pt" height="357.000000pt" viewBox="0 0 500.000000 357.000000"
 preserveAspectRatio="xMidYMid meet">
<metadata>
Created by potrace 1.12, written by Peter Selinger 2001-2015
</metadata>
<g transform="translate(0.000000,357.000000) scale(0.100000,-0.100000)"
fill="#000000" stroke="none">
<path d="M0 2965 c0 -691 -11 -627 98 -575 65 31 92 37 92 21 0 -5 -7 -14 -15
-21 -23 -19 -18 -30 13 -30 41 0 60 -15 46 -37 -12 -19 -22 -20 -151 -10 -79
7 -83 6 -83 -13 0 -14 7 -20 23 -20 39 0 50 -15 22 -30 -68 -36 4 -40 90 -5
68 28 105 32 105 11 0 -24 -24 -35 -101 -46 -40 -6 -89 -16 -107 -22 l-33 -10
3 -105 3 -106 50 -14 c28 -8 54 -19 60 -24 5 -5 17 -9 26 -9 14 0 16 -7 12
-39 -6 -46 12 -64 22 -21 4 17 17 37 30 46 33 22 402 117 418 107 30 -18 -24
-150 -71 -171 -15 -6 -52 -25 -82 -42 -77 -44 -136 -55 -183 -35 -20 8 -41 24
-47 35 -14 27 -52 21 -68 -11 -7 -14 -26 -40 -42 -58 -28 -30 -32 -31 -80 -25
l-50 7 0 -857 0 -856 565 0 565 0 -6 42 c-4 24 -16 62 -27 86 -16 35 -18 48
-8 68 18 41 13 105 -12 143 -40 62 -47 76 -47 98 0 13 9 27 21 34 18 9 20 17
15 53 -4 23 -2 65 4 92 12 58 7 73 -52 145 -25 31 -38 56 -38 76 0 37 -25 101
-51 129 -10 11 -22 42 -25 70 -4 27 -17 69 -30 94 -42 82 -41 92 10 113 56 23
86 49 86 74 0 27 -15 38 -81 57 -31 9 -69 23 -85 31 -37 19 -33 20 -109 -15
-81 -37 -115 -39 -115 -7 0 24 9 42 53 104 15 22 31 62 36 89 5 27 12 57 16
67 5 13 2 17 -14 17 -26 0 -38 26 -24 49 7 11 6 27 -3 54 -12 35 -12 38 4 35
12 -2 17 -13 18 -38 0 -26 5 -36 20 -39 10 -2 24 -7 30 -12 17 -14 34 12 34
53 0 21 -11 67 -25 104 -27 71 -31 109 -15 119 6 4 19 25 30 48 13 28 36 52
65 71 57 36 73 59 81 117 7 55 9 58 53 89 19 13 46 36 60 50 14 14 43 39 63
54 49 36 127 138 111 143 -7 3 -13 11 -13 19 0 9 -4 13 -9 9 -13 -7 -18 22
-11 70 3 22 3 56 0 75 l-6 35 -7 -28 c-4 -15 -5 -32 -2 -37 9 -15 -12 -21 -24
-6 -7 8 -8 23 -3 37 4 13 7 49 5 79 -2 30 -4 81 -5 112 -1 31 -6 54 -11 51 -4
-3 -5 12 -1 34 10 49 9 58 -8 118 -9 28 -30 100 -48 160 -17 61 -39 118 -48
128 -19 22 -88 23 -157 1 -31 -9 -66 -13 -92 -9 -70 10 -114 60 -82 92 9 9 9
20 -1 42 l-12 31 -230 0 c-215 0 -232 -1 -255 -20 -14 -11 -39 -20 -54 -20
-22 0 -29 5 -29 20 0 16 -7 20 -35 20 l-35 0 0 -605z m760 275 c0 -5 -4 -10
-10 -10 -5 0 -10 5 -10 10 0 6 5 10 10 10 6 0 10 -4 10 -10z m-577 -127 c16
-10 5 -33 -23 -48 -39 -20 -63 -19 -91 5 l-24 20 24 21 c20 16 32 19 65 13 23
-3 44 -8 49 -11z m-43 -629 c0 -28 -42 -61 -97 -78 -49 -15 -13 33 51 71 22
13 46 17 46 7z m190 -398 c28 -26 49 -53 47 -60 -3 -6 -16 -18 -31 -25 -24
-13 -28 -12 -49 10 -40 41 -66 59 -87 59 -17 0 -18 3 -9 19 13 19 60 52 71 48
3 -1 29 -24 58 -51z m174 -332 c22 -21 3 -56 -27 -52 -37 5 -33 67 5 68 4 0
14 -7 22 -16z m-124 -89 c0 -30 -20 -33 -37 -6 -13 22 -8 31 19 31 13 0 18 -7
18 -25z m145 -13 c13 -9 36 -69 42 -109 5 -32 4 -33 -28 -33 -27 0 -39 8 -59
35 -14 19 -28 35 -32 35 -4 0 -19 5 -34 10 -24 9 -26 13 -13 25 13 14 83 43
104 44 6 0 15 -3 20 -7z"/>
<path d="M3235 3560 c-4 -6 -1 -17 5 -25 10 -12 7 -17 -15 -25 -14 -5 -31 -10
-36 -10 -5 0 -9 -5 -9 -11 0 -5 -4 -8 -8 -5 -4 2 -6 -12 -5 -32 2 -20 3 -46 4
-56 0 -11 11 -43 24 -71 14 -29 25 -57 25 -63 0 -6 10 -18 22 -27 18 -12 25
-13 33 -3 5 7 28 26 50 42 22 16 67 58 100 93 51 54 67 65 102 70 35 5 43 2
53 -16 9 -18 17 -21 46 -15 29 5 33 4 28 -10 -4 -11 -1 -16 12 -16 19 0 76
-31 99 -53 7 -7 37 -35 67 -64 60 -56 72 -76 69 -111 -2 -12 7 -39 18 -58 12
-19 21 -43 21 -52 0 -10 6 -26 13 -37 7 -11 19 -40 26 -65 7 -25 17 -49 21
-55 4 -5 13 -36 20 -67 6 -32 16 -60 21 -63 5 -4 9 -18 9 -33 0 -15 7 -40 15
-56 8 -15 15 -40 15 -55 0 -15 7 -50 15 -78 8 -28 15 -61 14 -74 0 -13 1 -31
4 -39 2 -8 7 -27 11 -42 5 -17 18 -30 36 -37 25 -8 29 -16 35 -58 3 -26 10
-70 16 -98 6 -27 9 -70 7 -95 -3 -40 -6 -45 -30 -48 -19 -2 -28 -10 -30 -25
-2 -16 -11 -23 -31 -25 -20 -2 -27 -8 -23 -17 3 -8 1 -17 -4 -20 -6 -4 -10 -2
-10 3 0 5 -21 15 -46 22 -25 7 -48 19 -51 26 -2 7 -32 34 -66 60 -34 27 -69
56 -78 66 -9 10 -20 18 -25 18 -5 0 -24 14 -42 31 -18 17 -39 28 -47 25 -8 -3
-60 6 -114 19 -147 37 -141 39 -142 -47 0 -40 -3 -126 -5 -190 -5 -113 -4
-118 16 -119 11 -1 23 -2 28 -3 4 -1 22 -6 41 -10 43 -10 92 -38 171 -95 45
-33 60 -50 58 -65 -5 -36 -32 -47 -123 -48 -71 0 -93 3 -137 25 -29 13 -66 28
-82 32 -23 5 -27 8 -15 16 12 7 11 9 -3 9 -9 0 -20 -5 -23 -10 -4 -6 -10 -8
-15 -5 -5 3 -11 1 -15 -5 -4 -6 -11 -8 -16 -5 -5 4 -9 -5 -9 -19 0 -14 -4 -28
-10 -31 -5 -3 -10 -45 -10 -93 0 -96 -23 -381 -39 -482 -10 -61 -30 -145 -66
-270 -15 -51 -32 -127 -40 -175 -2 -11 -9 -45 -15 -75 -29 -139 -37 -217 -44
-432 l-4 -128 939 0 939 0 -2 532 -3 531 -70 29 c-38 16 -157 58 -264 93 -106
36 -200 70 -207 76 -7 5 -12 23 -12 39 1 16 -7 45 -16 65 -10 21 -16 54 -15
78 2 24 -1 48 -5 55 -4 7 -8 34 -9 60 -1 31 -10 58 -25 79 -12 17 -22 37 -22
45 0 7 -6 22 -14 33 -8 11 -15 54 -17 97 -4 75 -4 78 21 87 35 13 65 19 145
26 39 4 76 12 82 17 9 7 24 3 50 -12 53 -31 150 -50 204 -39 24 5 74 6 112 2
l67 -6 0 408 c0 353 -2 406 -15 402 -19 -8 -127 21 -137 36 -24 37 1 61 64 62
50 0 54 2 70 35 16 31 18 72 18 388 0 333 -1 352 -18 352 -20 0 -65 -44 -75
-72 -7 -20 -47 -16 -109 12 l-36 16 29 13 c16 7 29 17 29 22 0 5 -161 9 -390
9 l-390 0 -10 -25 c-7 -19 -17 -25 -40 -25 -17 0 -47 -7 -67 -15 -19 -8 -50
-15 -68 -15 -18 0 -37 -6 -43 -13 -6 -7 -23 -14 -38 -15 -15 -1 -35 -9 -44
-17 -21 -19 -30 -19 -30 0 0 18 -16 20 -24 3 -3 -7 -3 -3 -1 9 5 17 0 22 -23
27 -15 4 -39 3 -53 -3 -18 -7 -33 -4 -61 12 -34 18 -38 19 -53 3 -20 -20 -31
-20 -38 -2 -7 19 18 40 39 32 17 -6 111 21 120 35 3 5 -76 9 -180 9 -118 0
-187 -4 -191 -10z m175 -1870 c0 -5 -7 -10 -16 -10 -8 0 -12 5 -9 10 3 6 10
10 16 10 5 0 9 -4 9 -10z m275 -192 c19 -9 28 -9 37 0 17 17 83 15 98 -3 7 -8
16 -12 21 -9 5 3 9 1 9 -4 0 -10 38 -24 73 -28 11 -1 28 -11 40 -22 19 -20 20
-22 3 -28 -19 -7 -302 81 -312 97 -7 12 0 11 31 -3z"/>
<path d="M3648 3563 c7 -3 16 -2 19 1 4 3 -2 6 -13 5 -11 0 -14 -3 -6 -6z"/>
<path d="M1318 3545 c-6 -6 -83 -22 -173 -36 -38 -6 -76 -15 -82 -21 -33 -27
7 -129 49 -127 34 1 141 61 154 86 6 12 22 34 37 49 15 15 27 33 27 40 0 15
-3 17 -12 9z"/>
<path d="M3710 3530 c0 -5 7 -10 16 -10 8 0 12 5 9 10 -3 6 -10 10 -16 10 -5
0 -9 -4 -9 -10z"/>
<path d="M3050 2670 c-83 -44 -206 -90 -240 -90 -16 0 -30 -5 -30 -11 0 -8 18
-10 58 -6 43 5 86 21 175 67 64 34 117 63 117 66 0 10 -29 1 -80 -26z"/>
<path d="M1920 2682 c0 -5 9 -43 19 -85 18 -69 43 -123 64 -138 13 -10 -31
-42 -62 -44 -21 -2 -31 2 -34 14 -3 12 -7 10 -15 -9 -9 -21 -11 -22 -11 -5 -1
15 -4 16 -13 7 -18 -18 -28 -14 -28 11 -1 20 -2 21 -14 5 -7 -10 -18 -18 -23
-18 -21 0 -65 -28 -51 -32 7 -3 -30 -8 -82 -12 -111 -8 -197 -20 -298 -42 -89
-19 -89 -29 -1 -15 117 18 139 20 139 10 0 -5 -5 -9 -11 -9 -20 0 -120 -91
-130 -118 -14 -36 4 -51 32 -26 18 16 37 19 116 20 76 1 93 -2 80 -11 -12 -9
-14 -14 -5 -23 7 -7 17 -12 24 -12 22 0 -9 -49 -42 -64 -16 -9 -39 -25 -50
-37 l-19 -22 32 17 c24 12 34 13 39 4 4 -6 2 -14 -4 -16 -7 -2 -12 -10 -12
-18 0 -20 60 19 133 87 43 41 58 62 61 87 4 34 21 61 32 50 3 -4 0 -16 -6 -28
-9 -17 -9 -29 1 -51 12 -32 22 -29 34 9 5 17 2 22 -12 23 -10 0 -13 3 -5 6 7
3 12 23 11 51 0 26 -3 40 -6 32 -10 -25 -43 -41 -43 -20 0 6 6 10 14 10 8 0
18 9 21 20 9 30 35 25 35 -7 l0 -26 26 24 c21 19 37 24 86 26 34 1 72 -3 85
-8 22 -8 23 -7 13 12 -24 43 -2 41 24 -3 15 -25 38 -54 51 -62 14 -9 25 -24
25 -34 0 -13 2 -14 9 -4 6 10 10 10 20 -1 9 -12 19 -13 45 -5 32 10 33 12 25
42 l-9 31 26 -29 c20 -21 23 -30 14 -36 -8 -5 -9 -10 -2 -14 6 -3 12 0 15 6 3
9 10 6 22 -9 9 -13 24 -23 33 -22 10 0 12 3 5 6 -7 2 -13 12 -13 21 0 14 2 14
9 3 7 -11 9 -11 14 0 4 10 8 11 14 3 18 -24 89 -31 184 -19 52 7 107 18 122
24 16 6 33 9 38 5 5 -3 9 0 9 6 0 8 -21 9 -72 4 -40 -4 -77 -6 -83 -6 -5 1
-44 6 -85 10 -82 9 -73 17 33 31 l52 7 -50 13 c-60 15 -72 30 -42 53 l22 18
-22 0 c-38 0 -35 19 4 25 21 4 61 13 90 21 64 18 88 17 138 -1 56 -20 71 -19
49 2 -27 27 -94 55 -154 65 -30 4 -86 14 -125 21 l-70 13 50 12 c65 14 104 20
194 28 41 4 86 10 100 14 24 7 24 8 7 16 -11 4 -74 2 -140 -5 -226 -22 -218
-22 -141 -2 39 10 63 20 55 24 -12 4 -12 6 -1 6 9 1 6 8 -9 21 -25 22 -79 27
-97 9 -9 -9 -16 -8 -28 5 -9 9 -22 16 -30 16 -7 0 -22 3 -32 6 -10 3 -7 -1 7
-10 l25 -16 -31 6 c-19 4 -43 0 -62 -10 -36 -18 -46 -20 -37 -6 3 6 -4 10 -16
10 -18 0 -19 -2 -9 -15 10 -12 9 -15 -4 -15 -9 0 -28 -11 -43 -24 -16 -15 -33
-22 -47 -19 -12 3 -17 1 -11 -4 23 -19 15 -32 -15 -26 -19 3 -30 1 -30 -6 0
-6 -7 -11 -15 -11 -30 0 -64 43 -90 116 -25 68 -35 87 -35 66z m457 -78 c-3
-3 -12 -4 -19 -1 -8 3 -5 6 6 6 11 1 17 -2 13 -5z m-86 -94 c-69 -18 -118 -36
-126 -46 -6 -9 -17 -14 -22 -11 -6 4 -25 0 -42 -9 -32 -16 -43 -28 -16 -18 8
4 15 1 15 -5 0 -6 -9 -11 -20 -11 -11 0 -20 5 -20 11 0 5 -4 7 -10 4 -5 -3
-10 -15 -10 -26 0 -10 -7 -19 -15 -19 -17 0 -20 23 -6 49 15 27 77 50 217 81
168 36 201 36 55 0z m-206 -120 c3 -5 1 -10 -4 -10 -6 0 -11 5 -11 10 0 6 2
10 4 10 3 0 8 -4 11 -10z m-155 -10 c24 -7 23 -7 -12 -15 -42 -8 -73 -1 -63
15 7 11 38 12 75 0z m493 -27 c-7 -2 -19 -2 -25 0 -7 3 -2 5 12 5 14 0 19 -2
13 -5z m-476 -29 c-3 -3 -12 -4 -19 -1 -8 3 -5 6 6 6 11 1 17 -2 13 -5z"/>
<path d="M3330 2660 c-26 -36 -40 -83 -31 -99 5 -7 12 -3 21 14 27 51 67 22
100 -74 23 -69 34 -65 43 19 7 60 5 81 -8 111 -29 63 -91 77 -125 29z"/>
<path d="M1161 2624 c0 -11 3 -14 6 -6 3 7 2 16 -1 19 -3 4 -6 -2 -5 -13z"/>
<path d="M1181 2584 c0 -11 3 -14 6 -6 3 7 2 16 -1 19 -3 4 -6 -2 -5 -13z"/>
<path d="M1465 2511 c-11 -5 -24 -6 -29 -3 -5 3 -6 0 -2 -6 4 -7 3 -12 -2 -12
-5 0 -19 -9 -31 -19 -13 -11 -28 -22 -34 -24 -19 -6 13 -58 32 -52 33 10 161
8 174 -3 9 -8 34 -9 78 -3 54 6 60 9 41 17 l-23 10 20 18 c12 11 21 24 21 30
0 6 -4 4 -10 -4 -5 -8 -19 -15 -32 -15 -13 -1 -30 -5 -36 -9 -17 -10 -93 28
-116 59 -20 27 -21 27 -51 16z"/>
<path d="M2630 2499 c0 -5 9 -9 20 -9 11 0 20 2 20 4 0 2 -9 6 -20 9 -11 3
-20 1 -20 -4z"/>
<path d="M3280 2424 c-15 -38 -12 -53 13 -84 12 -15 30 -42 39 -59 24 -44 41
-38 60 22 14 46 15 56 2 82 -15 32 -60 65 -88 65 -9 0 -21 -12 -26 -26z"/>
<path d="M1130 2322 c-81 -40 -100 -69 -43 -65 24 2 35 -2 44 -18 8 -15 8 -19
0 -15 -6 4 -11 0 -11 -8 0 -11 10 -16 34 -16 26 0 35 -5 40 -22 10 -40 6 -76
-10 -93 -9 -9 -13 -23 -9 -32 5 -14 8 -15 14 -4 6 10 10 9 15 -5 4 -10 2 -20
-4 -24 -6 -4 2 -18 19 -34 29 -28 30 -28 24 -5 -5 24 -5 24 11 4 17 -21 15
-16 -27 127 -16 50 -12 90 10 125 29 44 -7 79 -55 54 -9 -4 -33 -11 -52 -14
-30 -5 -26 -1 28 26 34 17 62 37 62 44 0 18 -6 17 -90 -25z"/>
<path d="M1970 2290 c0 -5 5 -10 10 -10 6 0 10 5 10 10 0 6 -4 10 -10 10 -5 0
-10 -4 -10 -10z"/>
<path d="M2271 1961 c-8 -5 -5 -16 10 -35 27 -35 49 -107 49 -163 0 -41 1 -43
30 -43 17 0 30 -5 30 -11 0 -6 14 -9 35 -6 30 4 34 3 24 -9 -9 -11 -8 -15 5
-20 9 -3 13 -11 9 -17 -4 -6 0 -8 11 -4 12 5 22 -2 36 -26 24 -41 112 -107
118 -88 3 8 8 7 18 -6 17 -23 17 -33 1 -33 -14 0 -47 -35 -47 -50 0 -6 -9 -10
-20 -10 -11 0 -20 -4 -20 -10 0 -5 -6 -10 -14 -10 -8 0 -27 -11 -43 -23 -27
-23 -77 -38 -136 -41 -15 0 -32 -8 -37 -16 -5 -8 -10 -10 -10 -4 0 11 -38 9
-70 -3 -22 -9 -22 -9 -62 -17 -20 -4 -39 -15 -42 -23 -4 -9 -11 -11 -18 -6
-19 12 -67 10 -72 -3 -3 -8 -34 -11 -90 -10 -47 0 -86 -2 -86 -5 0 -4 21 -12
48 -20 63 -17 148 -55 158 -70 5 -8 3 -10 -7 -5 -8 4 -5 1 5 -8 10 -8 23 -13
28 -10 6 4 29 6 51 6 53 -1 137 26 205 67 29 17 59 31 67 31 8 0 15 3 15 8 0
4 21 20 46 36 49 31 113 44 124 26 4 -6 13 -13 21 -14 8 -2 22 -6 32 -9 9 -4
24 -9 32 -12 8 -2 14 -12 13 -22 -3 -42 2 -56 15 -44 17 13 27 5 27 -24 0 -28
34 -59 88 -80 40 -16 53 -37 32 -50 -5 -3 -10 -15 -10 -26 0 -11 -6 -22 -14
-25 -8 -3 -13 -11 -10 -18 3 -7 -9 -31 -26 -54 -16 -23 -30 -45 -30 -48 0 -6
-23 -35 -69 -90 -9 -12 -33 -25 -52 -29 -41 -8 -89 -28 -89 -36 0 -3 -22 -4
-50 -1 -42 4 -50 2 -50 -12 0 -13 -5 -16 -19 -11 -11 3 -22 1 -25 -4 -7 -11
-36 -3 -36 10 0 4 8 6 18 3 13 -5 14 -4 3 4 -18 13 -67 -21 -75 -52 -6 -20 -7
-20 -17 -2 -10 16 -8 22 12 37 26 19 18 40 -8 23 -26 -16 -40 -46 -25 -51 19
-7 15 -35 -5 -31 -26 5 -26 54 -1 78 12 11 25 20 29 20 14 0 16 40 3 51 -11 9
-16 6 -23 -12 -7 -18 -10 -19 -10 -6 -1 18 -26 24 -35 8 -3 -5 -14 -7 -24 -5
-10 3 -22 -3 -29 -15 -10 -17 -10 -19 1 -15 11 4 11 -5 -2 -53 -8 -32 -18 -60
-22 -63 -4 -3 -9 -10 -11 -16 -3 -8 -17 -7 -51 2 -63 19 -133 89 -181 182 -26
48 -65 100 -118 154 -44 45 -90 94 -103 110 l-22 28 -73 -44 c-88 -52 -125
-85 -163 -146 -84 -133 -90 -332 -18 -644 10 -44 21 -108 25 -141 3 -33 11
-77 16 -97 l10 -38 406 0 406 0 -7 68 c-21 230 -21 221 3 219 13 -1 21 -8 21
-20 0 -10 5 -15 10 -12 6 3 10 -3 10 -15 0 -11 5 -29 10 -40 6 -11 15 -29 20
-40 6 -11 10 -25 10 -31 0 -7 7 -17 16 -24 14 -10 15 -15 4 -34 -8 -15 -8 -21
-1 -17 6 4 11 0 11 -9 0 -43 12 -45 348 -45 l320 0 17 91 c17 93 16 99 -7 103
-7 1 -40 14 -73 30 -33 15 -75 32 -93 38 -53 15 -295 134 -319 157 -12 12 -31
21 -42 21 -19 0 -18 2 5 25 14 14 28 25 32 25 4 0 28 20 52 45 24 24 46 42 49
40 2 -3 13 3 24 12 19 18 20 17 7 -7 -13 -24 -12 -24 5 -10 17 14 18 13 12 -5
-11 -31 24 16 84 113 28 45 53 82 55 82 3 0 3 -3 1 -7 -3 -5 -22 -37 -44 -73
-22 -36 -46 -76 -53 -90 -12 -23 -12 -24 3 -11 14 11 17 11 17 0 0 -8 19 14
42 49 44 67 66 79 28 15 -13 -21 -18 -33 -13 -28 6 6 41 59 78 119 77 128 87
146 81 146 -3 0 -13 -14 -21 -31 -9 -17 -18 -29 -21 -26 -7 7 87 180 107 197
9 8 29 44 43 79 28 70 33 89 12 52 -8 -15 -16 -20 -20 -12 -10 16 -26 14 -26
-4 0 -9 6 -12 15 -9 18 7 19 -3 3 -39 -15 -30 -37 -36 -39 -9 -1 17 -1 90 0
105 1 4 8 7 16 7 8 0 15 5 15 10 0 6 -9 10 -21 10 -12 0 -17 4 -14 11 4 6 13
8 21 5 17 -7 18 6 2 22 -9 9 -9 12 0 12 7 0 12 5 12 12 0 6 -3 8 -7 5 -3 -4
-12 -2 -20 4 -10 9 -13 8 -13 -5 0 -10 -5 -14 -10 -11 -6 4 -9 22 -8 41 1 22
-3 39 -12 44 -21 14 -30 12 -30 -4 0 -8 -6 -16 -14 -19 -9 -4 -12 0 -9 11 2
10 -3 31 -11 47 l-16 30 0 -55 -1 -55 -19 24 c-12 14 -20 18 -20 10 -1 -8 -8
-1 -16 14 -19 35 -28 30 -15 -7 8 -20 7 -26 -3 -26 -15 0 -26 21 -26 50 0 9
-7 23 -15 30 -17 14 -21 35 -4 24 8 -4 9 0 4 15 -7 24 10 29 19 6 3 -8 10 -15
16 -15 5 0 10 7 10 15 0 8 7 15 15 15 23 0 18 18 -7 22 -12 2 -23 10 -25 18
-4 12 -3 12 5 2 7 -11 10 -10 16 3 9 23 8 25 -9 25 -9 0 -21 12 -27 28 -15 32
-63 82 -80 82 -13 0 -38 44 -38 66 0 7 -13 17 -30 23 -17 5 -30 17 -30 26 0 9
-13 21 -30 26 -16 6 -28 16 -27 22 1 6 -8 13 -20 15 -13 2 -23 8 -23 13 0 6 4
8 9 4 5 -3 12 -1 16 5 3 6 -4 10 -17 10 -17 0 -19 3 -9 9 10 7 10 10 1 16 -7
4 -16 1 -21 -6 -8 -13 -13 -6 -10 14 0 4 -6 7 -14 7 -8 0 -15 5 -15 11 0 6
-10 10 -22 9 -47 -4 -77 0 -90 14 -8 7 -27 16 -43 18 -17 3 -44 10 -61 16 -17
5 -37 7 -43 3z m633 -677 c3 -8 2 -12 -4 -9 -6 3 -10 10 -10 16 0 14 7 11 14
-7z m56 -16 c0 -16 5 -19 25 -16 18 4 25 1 25 -10 0 -10 -7 -13 -22 -8 -13 3
-29 6 -35 6 -8 0 -13 13 -13 31 0 17 4 28 10 24 6 -3 10 -15 10 -27z m90 -18
c0 -5 -4 -10 -10 -10 -5 0 -10 5 -10 10 0 6 5 10 10 10 6 0 10 -4 10 -10z m20
-29 c0 -6 -4 -13 -10 -16 -5 -3 -10 1 -10 9 0 9 5 16 10 16 6 0 10 -4 10 -9z
m-959 -12 c15 -7 24 -7 35 2 11 9 14 7 14 -10 0 -17 -5 -21 -17 -17 -10 3 -30
8 -45 12 -16 3 -28 10 -28 15 0 12 17 11 41 -2z m876 -8 c3 -11 12 -22 19 -25
21 -8 -5 -34 -27 -29 -14 4 -17 -1 -15 -21 2 -14 -1 -26 -5 -26 -5 0 -9 6 -9
14 0 8 -5 16 -11 18 -7 2 -4 17 9 40 15 26 17 38 9 42 -7 2 -4 5 6 5 11 1 21
-8 24 -18z m43 4 c0 -8 -4 -15 -10 -15 -5 0 -10 7 -10 15 0 8 5 15 10 15 6 0
10 -7 10 -15z m-835 -5 c3 -5 -1 -10 -9 -10 -9 0 -16 5 -16 10 0 6 4 10 9 10
6 0 13 -4 16 -10z m865 -34 c0 -3 -4 -8 -10 -11 -5 -3 -10 -1 -10 4 0 6 5 11
10 11 6 0 10 -2 10 -4z m20 -30 c0 -3 -4 -8 -10 -11 -5 -3 -10 -1 -10 4 0 6 5
11 10 11 6 0 10 -2 10 -4z m-36 -51 c-4 -8 -8 -15 -10 -15 -2 0 -4 7 -4 15 0
8 4 15 10 15 5 0 7 -7 4 -15z m-28 -32 c-10 -10 -19 5 -10 18 6 11 8 11 12 0
2 -7 1 -15 -2 -18z m-48 -231 c-13 -20 -50 -81 -82 -135 -32 -54 -61 -96 -63
-93 -2 2 26 53 63 113 37 59 73 118 81 131 7 12 16 22 19 22 3 0 -5 -17 -18
-38z m-14 -71 c-20 -34 -39 -60 -41 -57 -3 3 12 32 32 66 21 33 40 59 42 56 2
-2 -13 -31 -33 -65z m-178 -153 c-9 -12 -16 -19 -16 -15 0 11 24 47 28 42 2
-2 -3 -14 -12 -27z m-410 -15 c4 -15 9 -20 14 -13 4 6 16 -13 29 -46 12 -31
20 -58 19 -59 -2 -1 -31 -12 -66 -25 -44 -16 -73 -34 -96 -62 l-33 -39 -12
113 c-7 62 -15 123 -18 134 -4 21 -1 22 76 22 78 0 81 -1 87 -25z m104 -8 c32
-16 38 -25 18 -25 -14 0 -68 39 -55 40 4 0 21 -7 37 -15z m5 -88 c19 -21 12
-36 -8 -19 -8 7 -17 9 -20 6 -8 -8 -27 40 -27 64 1 13 5 11 20 -8 10 -14 26
-33 35 -43z m59 21 c-3 -5 -12 -2 -20 6 -20 21 -17 28 5 14 11 -7 17 -16 15
-20z m-56 -13 c-3 -3 -9 2 -12 12 -6 14 -5 15 5 6 7 -7 10 -15 7 -18z m71 -26
c-18 -11 -39 -11 -39 0 0 11 31 20 44 13 4 -2 2 -8 -5 -13z m-9 -29 c0 -13
-11 -13 -30 0 -12 8 -11 10 8 10 12 0 22 -4 22 -10z m-140 -130 c0 -5 -4 -10
-10 -10 -5 0 -10 5 -10 10 0 6 5 10 10 10 6 0 10 -4 10 -10z m125 -10 c-3 -5
-10 -10 -16 -10 -5 0 -9 5 -9 10 0 6 7 10 16 10 8 0 12 -4 9 -10z m160 0 c3
-5 -3 -10 -15 -10 -12 0 -18 5 -15 10 3 6 10 10 15 10 5 0 12 -4 15 -10z
m-165 -110 c0 -5 -2 -10 -4 -10 -3 0 -8 5 -11 10 -3 6 -1 10 4 10 6 0 11 -4
11 -10z m20 -104 c0 -11 -19 -15 -25 -6 -3 5 1 10 9 10 9 0 16 -2 16 -4z m180
-36 c0 -13 -1 -13 -10 0 -5 8 -10 22 -10 30 0 13 1 13 10 0 5 -8 10 -22 10
-30z"/>
<path d="M500 1920 c0 -5 5 -10 10 -10 6 0 10 5 10 10 0 6 -4 10 -10 10 -5 0
-10 -4 -10 -10z"/>
<path d="M3257 1910 c-2 -10 -1 -53 4 -96 4 -44 8 -114 8 -156 1 -42 5 -79 10
-82 4 -3 14 44 21 104 l14 110 29 0 c29 0 87 34 87 51 0 5 -11 7 -23 4 -34 -9
-107 25 -113 52 -7 28 -31 37 -37 13z"/>
<path d="M1725 1832 c-15 -22 -33 -43 -40 -46 -8 -3 -26 -23 -40 -46 -14 -22
-32 -40 -41 -40 -11 0 -14 -5 -10 -17 4 -9 1 -20 -5 -24 -11 -6 -16 -25 -20
-79 -3 -25 7 -86 16 -100 4 -7 9 -31 11 -53 2 -36 19 -83 35 -97 3 -3 15 -27
28 -55 21 -45 24 -48 36 -31 12 16 15 13 32 -33 10 -28 22 -51 27 -51 16 0 -4
64 -35 114 -51 84 -56 119 -25 206 48 135 50 146 32 184 -23 48 -20 84 10 145
32 64 25 78 -11 23z"/>
<path d="M3405 1750 c3 -5 8 -10 11 -10 2 0 4 5 4 10 0 6 -5 10 -11 10 -5 0
-7 -4 -4 -10z"/>
<path d="M2231 1690 c-24 -11 -55 -31 -68 -44 -21 -21 -28 -23 -56 -14 -18 5
-54 11 -80 12 -43 3 -48 1 -44 -15 3 -12 0 -16 -10 -12 -8 3 -13 14 -10 24 3
12 0 19 -9 19 -8 0 -14 -4 -14 -9 0 -5 -9 -7 -19 -4 -16 4 -22 -2 -29 -28 -8
-28 -6 -38 10 -56 11 -12 31 -24 46 -28 14 -3 35 -14 47 -23 18 -15 20 -20 9
-30 -19 -17 -18 -33 1 -26 22 9 18 -5 -7 -27 -22 -18 -22 -19 -3 -17 37 2 55
-2 55 -13 0 -6 -6 -9 -14 -6 -8 3 -22 -1 -33 -8 -16 -12 -14 -14 25 -13 41 0
42 1 42 34 0 18 -4 35 -9 38 -12 8 -22 62 -15 81 8 21 17 19 48 -12 23 -23 30
-25 51 -15 13 6 27 22 30 34 3 13 21 34 40 47 38 26 56 51 73 99 13 39 6 40
-57 12z"/>
<path d="M3163 1537 c-11 -24 -31 -79 -43 -122 -12 -44 -24 -84 -27 -91 -8
-22 29 -24 55 -2 15 12 19 18 10 15 -14 -5 -18 -1 -18 17 0 14 -3 33 -7 43 -6
16 -5 16 10 4 10 -8 17 -9 17 -3 0 6 3 18 7 28 4 12 3 15 -5 10 -7 -4 -12 -3
-12 3 0 5 4 11 9 13 5 2 12 17 14 33 3 17 9 45 12 63 10 44 3 40 -22 -11z"/>
<path d="M2138 1413 c7 -3 16 -2 19 1 4 3 -2 6 -13 5 -11 0 -14 -3 -6 -6z"/>
<path d="M1745 1310 c-3 -10 1 -33 10 -50 9 -17 14 -34 11 -39 -3 -4 1 -20 9
-35 8 -14 12 -33 9 -40 -3 -7 2 -19 10 -26 9 -7 14 -16 11 -20 -3 -5 -1 -11 5
-15 12 -7 11 -15 14 105 2 83 0 98 -17 118 -25 27 -54 29 -62 2z"/>
<path d="M3185 1220 c-3 -5 -1 -10 4 -10 6 0 11 5 11 10 0 6 -2 10 -4 10 -3 0
-8 -4 -11 -10z"/>
<path d="M2233 1117 c-10 -17 -63 -31 -63 -17 0 5 -12 9 -27 9 -17 -1 -21 -3
-10 -6 9 -2 17 -9 17 -14 0 -5 9 -9 19 -9 25 0 31 -10 33 -57 1 -56 23 -76 73
-67 44 8 68 8 103 -1 18 -4 22 -2 16 7 -6 10 -3 9 9 -1 11 -9 17 -10 17 -2 0
6 12 11 26 11 14 0 23 4 19 10 -3 5 -12 7 -19 4 -7 -3 -16 1 -19 9 -4 11 2 14
22 13 23 -2 27 1 23 18 -3 12 -1 17 6 12 6 -3 13 -2 17 4 3 5 1 10 -5 10 -7 0
-10 6 -7 14 7 17 -20 30 -27 13 -3 -8 -8 -7 -16 5 -6 9 -19 15 -30 13 -13 -2
-20 2 -20 11 0 16 -31 19 -45 5 -6 -5 -32 -13 -59 -17 -47 -6 -49 -6 -43 15 6
24 2 27 -10 8z m10 -46 c7 -29 -17 -33 -30 -5 -10 21 -9 24 7 24 10 0 20 -9
23 -19z"/>
<path d="M2090 1040 c0 -5 5 -10 10 -10 6 0 10 5 10 10 0 6 -4 10 -10 10 -5 0
-10 -4 -10 -10z"/>
<path d="M3061 933 c-10 -26 -10 -27 4 -9 8 11 15 23 15 28 0 15 -7 8 -19 -19z"/>
<path d="M2240 930 c0 -12 37 -14 44 -2 2 4 -6 9 -20 10 -13 1 -24 -3 -24 -8z"/>
<path d="M2215 870 c-3 -5 1 -10 9 -10 9 0 16 5 16 10 0 6 -4 10 -9 10 -6 0
-13 -4 -16 -10z"/>
<path d="M2920 650 c-6 -11 -8 -20 -6 -20 3 0 10 9 16 20 6 11 8 20 6 20 -3 0
-10 -9 -16 -20z"/>
</g>
</svg>
