<?xml version="1.0" encoding="UTF-8" standalone="no"?>
<svg
   xmlns:dc="http://purl.org/dc/elements/1.1/"
   xmlns:cc="http://creativecommons.org/ns#"
   xmlns:rdf="http://www.w3.org/1999/02/22-rdf-syntax-ns#"
   xmlns:svg="http://www.w3.org/2000/svg"
   xmlns="http://www.w3.org/2000/svg"
   xmlns:sodipodi="http://sodipodi.sourceforge.net/DTD/sodipodi-0.dtd"
   xmlns:inkscape="http://www.inkscape.org/namespaces/inkscape"
   version="1.0"
   width="250"
   height="200"
   id="svg2985"
   inkscape:version="0.48.4 r9939"
   sodipodi:docname="all_off.svg">
  <metadata
     id="metadata3045">
    <rdf:RDF>
      <cc:Work
         rdf:about="">
        <dc:format>image/svg+xml</dc:format>
        <dc:type
           rdf:resource="http://purl.org/dc/dcmitype/StillImage" />
        <dc:title />
      </cc:Work>
    </rdf:RDF>
  </metadata>
  <sodipodi:namedview
     pagecolor="#ffffff"
     bordercolor="#666666"
     borderopacity="1"
     objecttolerance="10"
     gridtolerance="10"
     guidetolerance="10"
     inkscape:pageopacity="0"
     inkscape:pageshadow="2"
     inkscape:window-width="1280"
     inkscape:window-height="738"
     id="namedview3043"
     showgrid="false"
     inkscape:zoom="2"
     inkscape:cx="182.51575"
     inkscape:cy="143.3445"
     inkscape:window-x="-8"
     inkscape:window-y="-8"
     inkscape:window-maximized="1"
     inkscape:current-layer="svg2985" />
  <defs
     id="defs2987" />
  <g
     id="g2989"
     transform="matrix(0.5,0,0,0.5,46.2312,-2.1283002)">
    <path
       style="fill:none;stroke:#000000;stroke-width:0.62828153px;stroke-linecap:butt;stroke-linejoin:round;stroke-opacity:1;stroke-dasharray:none"
       d="m 153.63828,161.46835 c 0,-3.91973 3.17891,-7.08927 7.08926,-7.08927 3.91973,0 7.08927,3.16954 7.08927,7.08927 0,3.91035 -3.16954,7.08927 -7.08927,7.08927 -3.91035,0 -7.08926,-3.17892 -7.08926,-7.08927"
       id="path2991"
       inkscape:connector-curvature="0" />
    <path
       style="fill:#000000;fill-opacity:1;fill-rule:evenodd;stroke:none"
       d="m 158.47698,161.46835 c 0,-1.24718 1.01275,-2.25056 2.25056,-2.25056 1.24719,0 2.25056,1.00338 2.25056,2.25056 0,1.23781 -1.00337,2.25056 -2.25056,2.25056 -1.23781,0 -2.25056,-1.01275 -2.25056,-2.25056"
       id="path2993"
       inkscape:connector-curvature="0" />
    <path
       style="fill:none;stroke:#000000;stroke-width:0.62828153px;stroke-linecap:butt;stroke-linejoin:round;stroke-opacity:1;stroke-dasharray:none"
       d="m 158.47698,161.46835 c 0,-1.24718 1.01275,-2.25056 2.25056,-2.25056 1.24719,0 2.25056,1.00338 2.25056,2.25056 0,1.23781 -1.00337,2.25056 -2.25056,2.25056 -1.23781,0 -2.25056,-1.01275 -2.25056,-2.25056"
       id="path2995"
       inkscape:connector-curvature="0" />
    <path
       style="fill:#fac090;fill-opacity:1;fill-rule:evenodd;stroke:none"
       d="m 47.618113,210.38054 c -0.975243,-1.6973 -0.393848,-3.86347 1.30345,-4.83871 l 12.274933,-7.08927 c 1.697297,-0.98462 3.863462,-0.40322 4.848082,1.29408 l 14.178533,24.55924 c 0.975243,1.6973 0.393848,3.86346 -1.30345,4.83871 l -12.274933,7.08926 c -1.697298,0.98462 -3.863463,0.40323 -4.848083,-1.29407 z"
       id="path2997"
       inkscape:connector-curvature="0" />
    <path
       style="fill:none;stroke:#000000;stroke-width:0.30945209px;stroke-linecap:butt;stroke-linejoin:round;stroke-opacity:1;stroke-dasharray:none"
       d="m 47.618113,210.38054 c -0.975243,-1.6973 -0.393848,-3.86347 1.30345,-4.83871 l 12.274933,-7.08927 c 1.697297,-0.98462 3.863462,-0.40322 4.848082,1.29408 l 14.178533,24.55924 c 0.975243,1.6973 0.393848,3.86346 -1.30345,4.83871 l -12.274933,7.08926 c -1.697298,0.98462 -3.863463,0.40323 -4.848083,-1.29407 z"
       id="path2999"
       inkscape:connector-curvature="0" />
    <path
       style="fill:#fac090;fill-opacity:1;fill-rule:evenodd;stroke:none"
       d="m 61.796645,87.528055 c 0.98462,-1.697297 3.150785,-2.278692 4.848083,-1.303449 l 12.274933,7.089266 c 1.697298,0.98462 2.278693,3.150785 1.30345,4.848083 L 66.044578,122.7212 c -0.98462,1.68792 -3.150785,2.26931 -4.848082,1.29407 L 48.921563,116.926 c -1.697298,-0.97524 -2.278693,-3.15078 -1.30345,-4.8387 z"
       id="path3001"
       inkscape:connector-curvature="0" />
    <path
       style="fill:none;stroke:#000000;stroke-width:0.30945209px;stroke-linecap:butt;stroke-linejoin:round;stroke-opacity:1;stroke-dasharray:none"
       d="m 61.796645,87.528055 c 0.98462,-1.697297 3.150785,-2.278692 4.848083,-1.303449 l 12.274933,7.089266 c 1.697298,0.98462 2.278693,3.150785 1.30345,4.848083 L 66.044578,122.7212 c -0.98462,1.68792 -3.150785,2.26931 -4.848082,1.29407 L 48.921563,116.926 c -1.697298,-0.97524 -2.278693,-3.15078 -1.30345,-4.8387 z"
       id="path3003"
       inkscape:connector-curvature="0" />
    <path
       style="fill:#fac090;fill-opacity:1;fill-rule:evenodd;stroke:none"
       d="m 175.29054,38.372059 c 1.95049,0 3.54464,1.594148 3.54464,3.544633 l 0,14.178533 c 0,1.959863 -1.59415,3.544633 -3.54464,3.544633 l -28.35706,0 c -1.95986,0 -3.54463,-1.58477 -3.54463,-3.544633 l 0,-14.178533 c 0,-1.950485 1.58477,-3.544633 3.54463,-3.544633 z"
       id="path3005"
       inkscape:connector-curvature="0" />
    <path
       style="fill:none;stroke:#000000;stroke-width:0.30945209px;stroke-linecap:butt;stroke-linejoin:round;stroke-opacity:1;stroke-dasharray:none"
       d="m 175.29054,38.372059 c 1.95049,0 3.54464,1.594148 3.54464,3.544633 l 0,14.178533 c 0,1.959863 -1.59415,3.544633 -3.54464,3.544633 l -28.35706,0 c -1.95986,0 -3.54463,-1.58477 -3.54463,-3.544633 l 0,-14.178533 c 0,-1.950485 1.58477,-3.544633 3.54463,-3.544633 z"
       id="path3007"
       inkscape:connector-curvature="0" />
    <path
       style="fill:#fac090;fill-opacity:1;fill-rule:evenodd;stroke:none"
       d="m 174.90607,283.87072 c 1.95987,0 3.54464,-1.58477 3.54464,-3.54463 l 0,-14.17854 c 0,-1.95986 -1.58477,-3.54463 -3.54464,-3.54463 l -28.35706,0 c -1.95986,0 -3.54463,1.58477 -3.54463,3.54463 l 0,14.17854 c 0,1.95986 1.58477,3.54463 3.54463,3.54463 z"
       id="path3009"
       inkscape:connector-curvature="0" />
    <path
       style="fill:none;stroke:#000000;stroke-width:0.30945209px;stroke-linecap:butt;stroke-linejoin:round;stroke-opacity:1;stroke-dasharray:none"
       d="m 174.90607,283.87072 c 1.95987,0 3.54464,-1.58477 3.54464,-3.54463 l 0,-14.17854 c 0,-1.95986 -1.58477,-3.54463 -3.54464,-3.54463 l -28.35706,0 c -1.95986,0 -3.54463,1.58477 -3.54463,3.54463 l 0,14.17854 c 0,1.95986 1.58477,3.54463 3.54463,3.54463 z"
       id="path3011"
       inkscape:connector-curvature="0" />
    <path
       style="fill:#fac090;fill-opacity:1;fill-rule:evenodd;stroke:none"
       d="m 274.21206,210.16486 c 0.98462,-1.6973 0.40323,-3.86347 -1.29407,-4.84809 l -12.27493,-7.08926 c -1.6973,-0.97524 -3.86346,-0.39385 -4.84809,1.30345 l -14.17853,24.55924 c -0.97524,1.68792 -0.39385,3.86346 1.30345,4.83871 l 12.27494,7.08926 c 1.69729,0.97525 3.86346,0.39385 4.8387,-1.29407 z"
       id="path3013"
       inkscape:connector-curvature="0" />
    <path
       style="fill:none;stroke:#000000;stroke-width:0.30945209px;stroke-linecap:butt;stroke-linejoin:round;stroke-opacity:1;stroke-dasharray:none"
       d="m 274.21206,210.16486 c 0.98462,-1.6973 0.40323,-3.86347 -1.29407,-4.84809 l -12.27493,-7.08926 c -1.6973,-0.97524 -3.86346,-0.39385 -4.84809,1.30345 l -14.17853,24.55924 c -0.97524,1.68792 -0.39385,3.86346 1.30345,4.83871 l 12.27494,7.08926 c 1.69729,0.97525 3.86346,0.39385 4.8387,-1.29407 z"
       id="path3015"
       inkscape:connector-curvature="0" />
    <path
       style="fill:#fac090;fill-opacity:1;fill-rule:evenodd;stroke:none"
       d="m 260.03353,87.302999 c -0.97524,-1.68792 -3.14141,-2.269315 -4.8387,-1.294072 l -12.27494,7.089266 c -1.6973,0.975243 -2.27869,3.150785 -1.30345,4.838706 l 14.17853,24.559241 c 0.98463,1.6973 3.15079,2.27869 4.84809,1.30345 l 12.27493,-7.08926 c 1.6973,-0.98462 2.27869,-3.15079 1.29407,-4.84809 z"
       id="path3017"
       inkscape:connector-curvature="0" />
    <path
       style="fill:none;stroke:#000000;stroke-width:0.30945209px;stroke-linecap:butt;stroke-linejoin:round;stroke-opacity:1;stroke-dasharray:none"
       d="m 260.03353,87.302999 c -0.97524,-1.68792 -3.14141,-2.269315 -4.8387,-1.294072 l -12.27494,7.089266 c -1.6973,0.975243 -2.27869,3.150785 -1.30345,4.838706 l 14.17853,24.559241 c 0.98463,1.6973 3.15079,2.27869 4.84809,1.30345 l 12.27493,-7.08926 c 1.6973,-0.98462 2.27869,-3.15079 1.29407,-4.84809 z"
       id="path3019"
       inkscape:connector-curvature="0" />
    <text
       xml:space="preserve"
       x="256.33069"
       y="138.07928"
       style="font-size:13.20328903px;font-style:normal;font-weight:normal;text-align:start;text-anchor:start;fill:#000000;font-family:Calibri"
       id="text3021">L1</text>
    <text
       xml:space="preserve"
       x="180.82555"
       y="56.513092"
       style="font-size:13.20328903px;font-style:normal;font-weight:normal;text-align:start;text-anchor:start;fill:#000000;font-family:Calibri"
       id="text3023">L2</text>
    <text
       xml:space="preserve"
       x="75.503456"
       y="88.233986"
       style="font-size:13.20328903px;font-style:normal;font-weight:normal;text-align:start;text-anchor:start;fill:#000000;font-family:Calibri"
       id="text3025">L3</text>
    <text
       xml:space="preserve"
       x="50.7337"
       y="193.24046"
       style="font-size:13.20328903px;font-style:normal;font-weight:normal;text-align:start;text-anchor:start;fill:#000000;font-family:Calibri"
       id="text3027">L4</text>
    <text
       xml:space="preserve"
       x="127.15815"
       y="269.08368"
       style="font-size:13.20328903px;font-style:normal;font-weight:normal;text-align:start;text-anchor:start;fill:#000000;font-family:Calibri"
       id="text3029">L5</text>
    <text
       xml:space="preserve"
       x="231.85815"
       y="241.78722"
       style="font-size:13.20328903px;font-style:normal;font-weight:normal;text-align:start;text-anchor:start;fill:#000000;font-family:Calibri"
       id="text3031">L6</text>
    <text
       xml:space="preserve"
       x="324.4202"
       y="152.64275"
       style="font-size:13.20328903px;font-style:normal;font-weight:normal;text-align:start;text-anchor:start;fill:#000000;font-family:Calibri"
       id="text3033">PS V+</text>
    <text
       xml:space="preserve"
       x="324.42029"
       y="184.50581"
       style="font-size:13.20328903px;font-style:normal;font-weight:normal;text-align:start;text-anchor:start;fill:#000000;font-family:Calibri"
       id="text3035">PS V</text>
    <text
       xml:space="preserve"
       x="347.67609"
       y="184.50581"
       style="font-size:13.20328903px;font-style:normal;font-weight:normal;text-align:start;text-anchor:start;fill:#000000;font-family:Calibri"
       id="text3037">-</text>
    <text
       xml:space="preserve"
       x="167.55128"
       y="176.08894"
       style="font-size:13.20328903px;font-style:italic;font-weight:normal;text-align:start;text-anchor:start;fill:#000000;font-family:Calibri"
       id="text3039">e</text>
    <text
       xml:space="preserve"
       x="173.85286"
       y="172.18797"
       style="font-size:8.70216751px;font-style:italic;font-weight:normal;text-align:start;text-anchor:start;fill:#000000;font-family:Calibri"
       id="text3041">-</text>
  </g>
</svg>
