<?xml version="1.0" encoding="UTF-8" standalone="no"?>
<svg
   xmlns:dc="http://purl.org/dc/elements/1.1/"
   xmlns:cc="http://creativecommons.org/ns#"
   xmlns:rdf="http://www.w3.org/1999/02/22-rdf-syntax-ns#"
   xmlns:svg="http://www.w3.org/2000/svg"
   xmlns="http://www.w3.org/2000/svg"
   xmlns:sodipodi="http://sodipodi.sourceforge.net/DTD/sodipodi-0.dtd"
   xmlns:inkscape="http://www.inkscape.org/namespaces/inkscape"
   version="1.0"
   width="250"
   height="200"
   id="svg3648"
   inkscape:version="0.48.4 r9939"
   sodipodi:docname="horizontal_steerer.svg">
  <metadata
     id="metadata3774">
    <rdf:RDF>
      <cc:Work
         rdf:about="">
        <dc:format>image/svg+xml</dc:format>
        <dc:type
           rdf:resource="http://purl.org/dc/dcmitype/StillImage" />
        <dc:title />
      </cc:Work>
    </rdf:RDF>
  </metadata>
  <sodipodi:namedview
     pagecolor="#ffffff"
     bordercolor="#666666"
     borderopacity="1"
     objecttolerance="10"
     gridtolerance="10"
     guidetolerance="10"
     inkscape:pageopacity="0"
     inkscape:pageshadow="2"
     inkscape:window-width="1216"
     inkscape:window-height="800"
     id="namedview3772"
     showgrid="false"
     inkscape:zoom="2.1074597"
     inkscape:cx="101.62562"
     inkscape:cy="52.453745"
     inkscape:window-x="173"
     inkscape:window-y="91"
     inkscape:window-maximized="0"
     inkscape:current-layer="svg3648" />
  <defs
     id="defs3650" />
  <g
     id="g3652"
     transform="matrix(0.5,0,0,0.5,45.803124,1.629905)">
    <path
       style="fill:none;stroke:#000000;stroke-width:0.62828153px;stroke-linecap:butt;stroke-linejoin:round;stroke-opacity:1;stroke-dasharray:none"
       d="m 153.63828,161.46835 c 0,-3.91973 3.17891,-7.08927 7.08926,-7.08927 3.91973,0 7.08927,3.16954 7.08927,7.08927 0,3.91035 -3.16954,7.08927 -7.08927,7.08927 -3.91035,0 -7.08926,-3.17892 -7.08926,-7.08927"
       id="path3654"
       inkscape:connector-curvature="0" />
    <path
       style="fill:#000000;fill-opacity:1;fill-rule:evenodd;stroke:none"
       d="m 158.47698,161.46835 c 0,-1.24718 1.01275,-2.25056 2.25056,-2.25056 1.24719,0 2.25056,1.00338 2.25056,2.25056 0,1.23781 -1.00337,2.25056 -2.25056,2.25056 -1.23781,0 -2.25056,-1.01275 -2.25056,-2.25056"
       id="path3656"
       inkscape:connector-curvature="0" />
    <path
       style="fill:none;stroke:#000000;stroke-width:0.62828153px;stroke-linecap:butt;stroke-linejoin:round;stroke-opacity:1;stroke-dasharray:none"
       d="m 158.47698,161.46835 c 0,-1.24718 1.01275,-2.25056 2.25056,-2.25056 1.24719,0 2.25056,1.00338 2.25056,2.25056 0,1.23781 -1.00337,2.25056 -2.25056,2.25056 -1.23781,0 -2.25056,-1.01275 -2.25056,-2.25056"
       id="path3658"
       inkscape:connector-curvature="0" />
    <path
       style="fill:#bfbfbf;fill-opacity:1;fill-rule:evenodd;stroke:none"
       d="m 67.816895,202.81303 30.692021,-17.71379 c 16.954224,-9.78994 33.073864,-13.60652 36.018344,-8.51462 2.93511,5.08251 -8.43022,17.14177 -25.38444,26.93171 l -30.692026,17.72316 z"
       id="path3660"
       inkscape:connector-curvature="0" />
    <path
       style="fill:none;stroke:#000000;stroke-width:0.30945209px;stroke-linecap:butt;stroke-linejoin:round;stroke-opacity:1;stroke-dasharray:none"
       d="m 67.816895,202.81303 30.692021,-17.71379 c 16.954224,-9.78994 33.073864,-13.60652 36.018344,-8.51462 2.93511,5.08251 -8.43022,17.14177 -25.38444,26.93171 l -30.692026,17.72316 z"
       id="path3662"
       inkscape:connector-curvature="0" />
    <path
       style="fill:#fac090;fill-opacity:1;fill-rule:evenodd;stroke:none"
       d="m 47.618113,210.38054 c -0.975243,-1.6973 -0.393848,-3.86347 1.30345,-4.83871 l 12.274933,-7.08927 c 1.697297,-0.98462 3.863462,-0.40322 4.848082,1.29408 l 14.178533,24.55924 c 0.975243,1.6973 0.393848,3.86346 -1.30345,4.83871 l -12.274933,7.08926 c -1.697298,0.98462 -3.863463,0.40323 -4.848083,-1.29407 z"
       id="path3664"
       inkscape:connector-curvature="0" />
    <path
       style="fill:none;stroke:#000000;stroke-width:0.30945209px;stroke-linecap:butt;stroke-linejoin:round;stroke-opacity:1;stroke-dasharray:none"
       d="m 47.618113,210.38054 c -0.975243,-1.6973 -0.393848,-3.86347 1.30345,-4.83871 l 12.274933,-7.08927 c 1.697297,-0.98462 3.863462,-0.40322 4.848082,1.29408 l 14.178533,24.55924 c 0.975243,1.6973 0.393848,3.86346 -1.30345,4.83871 l -12.274933,7.08926 c -1.697298,0.98462 -3.863463,0.40323 -4.848083,-1.29407 z"
       id="path3666"
       inkscape:connector-curvature="0" />
    <path
       style="fill:#bfbfbf;fill-opacity:1;fill-rule:evenodd;stroke:none"
       d="m 78.450794,101.22834 30.692026,17.72317 c 16.95422,9.78994 28.31955,21.84919 25.38444,26.93171 -2.94448,5.08251 -19.06412,1.27532 -36.018344,-8.51462 L 67.816895,119.64543 z"
       id="path3668"
       inkscape:connector-curvature="0" />
    <path
       style="fill:none;stroke:#000000;stroke-width:0.30945209px;stroke-linecap:butt;stroke-linejoin:round;stroke-opacity:1;stroke-dasharray:none"
       d="m 78.450794,101.22834 30.692026,17.72317 c 16.95422,9.78994 28.31955,21.84919 25.38444,26.93171 -2.94448,5.08251 -19.06412,1.27532 -36.018344,-8.51462 L 67.816895,119.64543 z"
       id="path3670"
       inkscape:connector-curvature="0" />
    <path
       style="fill:#fac090;fill-opacity:1;fill-rule:evenodd;stroke:none"
       d="m 61.796645,87.528055 c 0.98462,-1.697297 3.150785,-2.278692 4.848083,-1.303449 l 12.274933,7.089266 c 1.697298,0.98462 2.278693,3.150785 1.30345,4.848083 L 66.044578,122.7212 c -0.98462,1.68792 -3.150785,2.26931 -4.848082,1.29407 L 48.921563,116.926 c -1.697298,-0.97524 -2.278693,-3.15078 -1.30345,-4.8387 z"
       id="path3672"
       inkscape:connector-curvature="0" />
    <path
       style="fill:none;stroke:#000000;stroke-width:0.30945209px;stroke-linecap:butt;stroke-linejoin:round;stroke-opacity:1;stroke-dasharray:none"
       d="m 61.796645,87.528055 c 0.98462,-1.697297 3.150785,-2.278692 4.848083,-1.303449 l 12.274933,7.089266 c 1.697298,0.98462 2.278693,3.150785 1.30345,4.848083 L 66.044578,122.7212 c -0.98462,1.68792 -3.150785,2.26931 -4.848082,1.29407 L 48.921563,116.926 c -1.697298,-0.97524 -2.278693,-3.15078 -1.30345,-4.8387 z"
       id="path3674"
       inkscape:connector-curvature="0" />
    <path
       style="fill:#bfbfbf;fill-opacity:1;fill-rule:evenodd;stroke:none"
       d="m 171.74591,59.639858 0,35.44633 c 0,19.579882 -4.76369,35.446332 -10.6339,35.446332 -5.87959,0 -10.6339,-15.86645 -10.6339,-35.446332 l 0,-35.44633 z"
       id="path3676"
       inkscape:connector-curvature="0" />
    <path
       style="fill:none;stroke:#000000;stroke-width:0.30945209px;stroke-linecap:butt;stroke-linejoin:round;stroke-opacity:1;stroke-dasharray:none"
       d="m 171.74591,59.639858 0,35.44633 c 0,19.579882 -4.76369,35.446332 -10.6339,35.446332 -5.87959,0 -10.6339,-15.86645 -10.6339,-35.446332 l 0,-35.44633 z"
       id="path3678"
       inkscape:connector-curvature="0" />
    <path
       style="fill:#fac090;fill-opacity:1;fill-rule:evenodd;stroke:none"
       d="m 175.29054,38.372059 c 1.95049,0 3.54464,1.594148 3.54464,3.544633 l 0,14.178533 c 0,1.959863 -1.59415,3.544633 -3.54464,3.544633 l -28.35706,0 c -1.95986,0 -3.54463,-1.58477 -3.54463,-3.544633 l 0,-14.178533 c 0,-1.950485 1.58477,-3.544633 3.54463,-3.544633 z"
       id="path3680"
       inkscape:connector-curvature="0" />
    <path
       style="fill:none;stroke:#000000;stroke-width:0.30945209px;stroke-linecap:butt;stroke-linejoin:round;stroke-opacity:1;stroke-dasharray:none"
       d="m 175.29054,38.372059 c 1.95049,0 3.54464,1.594148 3.54464,3.544633 l 0,14.178533 c 0,1.959863 -1.59415,3.544633 -3.54464,3.544633 l -28.35706,0 c -1.95986,0 -3.54463,-1.58477 -3.54463,-3.544633 l 0,-14.178533 c 0,-1.950485 1.58477,-3.544633 3.54463,-3.544633 z"
       id="path3682"
       inkscape:connector-curvature="0" />
    <path
       style="fill:#bfbfbf;fill-opacity:1;fill-rule:evenodd;stroke:none"
       d="m 171.36144,262.60292 0,-35.44633 c 0,-19.57988 -4.76369,-35.44633 -10.6339,-35.44633 -5.87021,0 -10.6339,15.86645 -10.6339,35.44633 l 0,35.44633 z"
       id="path3684"
       inkscape:connector-curvature="0" />
    <path
       style="fill:none;stroke:#000000;stroke-width:0.30945209px;stroke-linecap:butt;stroke-linejoin:round;stroke-opacity:1;stroke-dasharray:none"
       d="m 171.36144,262.60292 0,-35.44633 c 0,-19.57988 -4.76369,-35.44633 -10.6339,-35.44633 -5.87021,0 -10.6339,15.86645 -10.6339,35.44633 l 0,35.44633 z"
       id="path3686"
       inkscape:connector-curvature="0" />
    <path
       style="fill:#fac090;fill-opacity:1;fill-rule:evenodd;stroke:none"
       d="m 174.90607,283.87072 c 1.95987,0 3.54464,-1.58477 3.54464,-3.54463 l 0,-14.17854 c 0,-1.95986 -1.58477,-3.54463 -3.54464,-3.54463 l -28.35706,0 c -1.95986,0 -3.54463,1.58477 -3.54463,3.54463 l 0,14.17854 c 0,1.95986 1.58477,3.54463 3.54463,3.54463 z"
       id="path3688"
       inkscape:connector-curvature="0" />
    <path
       style="fill:none;stroke:#000000;stroke-width:0.30945209px;stroke-linecap:butt;stroke-linejoin:round;stroke-opacity:1;stroke-dasharray:none"
       d="m 174.90607,283.87072 c 1.95987,0 3.54464,-1.58477 3.54464,-3.54463 l 0,-14.17854 c 0,-1.95986 -1.58477,-3.54463 -3.54464,-3.54463 l -28.35706,0 c -1.95986,0 -3.54463,1.58477 -3.54463,3.54463 l 0,14.17854 c 0,1.95986 1.58477,3.54463 3.54463,3.54463 z"
       id="path3690"
       inkscape:connector-curvature="0" />
    <path
       style="fill:#bfbfbf;fill-opacity:1;fill-rule:evenodd;stroke:none"
       d="m 254.02266,202.59735 -30.69202,-17.72317 c -16.95423,-9.78994 -33.08324,-13.59714 -36.01835,-8.51462 -2.93511,5.09189 8.43022,17.14177 25.38445,26.93171 l 30.69202,17.72317 z"
       id="path3692"
       inkscape:connector-curvature="0" />
    <path
       style="fill:none;stroke:#000000;stroke-width:0.30945209px;stroke-linecap:butt;stroke-linejoin:round;stroke-opacity:1;stroke-dasharray:none"
       d="m 254.02266,202.59735 -30.69202,-17.72317 c -16.95423,-9.78994 -33.08324,-13.59714 -36.01835,-8.51462 -2.93511,5.09189 8.43022,17.14177 25.38445,26.93171 l 30.69202,17.72317 z"
       id="path3694"
       inkscape:connector-curvature="0" />
    <path
       style="fill:#fac090;fill-opacity:1;fill-rule:evenodd;stroke:none"
       d="m 274.21206,210.16486 c 0.98462,-1.6973 0.40323,-3.86347 -1.29407,-4.84809 l -12.27493,-7.08926 c -1.6973,-0.97524 -3.86346,-0.39385 -4.84809,1.30345 l -14.17853,24.55924 c -0.97524,1.68792 -0.39385,3.86346 1.30345,4.83871 l 12.27494,7.08926 c 1.69729,0.97525 3.86346,0.39385 4.8387,-1.29407 z"
       id="path3696"
       inkscape:connector-curvature="0" />
    <path
       style="fill:none;stroke:#000000;stroke-width:0.30945209px;stroke-linecap:butt;stroke-linejoin:round;stroke-opacity:1;stroke-dasharray:none"
       d="m 274.21206,210.16486 c 0.98462,-1.6973 0.40323,-3.86347 -1.29407,-4.84809 l -12.27493,-7.08926 c -1.6973,-0.97524 -3.86346,-0.39385 -4.84809,1.30345 l -14.17853,24.55924 c -0.97524,1.68792 -0.39385,3.86346 1.30345,4.83871 l 12.27494,7.08926 c 1.69729,0.97525 3.86346,0.39385 4.8387,-1.29407 z"
       id="path3698"
       inkscape:connector-curvature="0" />
    <path
       style="fill:#bfbfbf;fill-opacity:1;fill-rule:evenodd;stroke:none"
       d="m 243.38876,101.01266 -30.69202,17.72317 c -16.95423,9.78056 -28.31956,21.83982 -25.38445,26.93171 2.93511,5.08252 19.06412,1.27532 36.01835,-8.51462 l 30.69202,-17.72317 z"
       id="path3700"
       inkscape:connector-curvature="0" />
    <path
       style="fill:none;stroke:#000000;stroke-width:0.30945209px;stroke-linecap:butt;stroke-linejoin:round;stroke-opacity:1;stroke-dasharray:none"
       d="m 243.38876,101.01266 -30.69202,17.72317 c -16.95423,9.78056 -28.31956,21.83982 -25.38445,26.93171 2.93511,5.08252 19.06412,1.27532 36.01835,-8.51462 l 30.69202,-17.72317 z"
       id="path3702"
       inkscape:connector-curvature="0" />
    <path
       style="fill:#fac090;fill-opacity:1;fill-rule:evenodd;stroke:none"
       d="m 260.03353,87.302999 c -0.97524,-1.68792 -3.14141,-2.269315 -4.8387,-1.294072 l -12.27494,7.089266 c -1.6973,0.975243 -2.27869,3.150785 -1.30345,4.838706 l 14.17853,24.559241 c 0.98463,1.6973 3.15079,2.27869 4.84809,1.30345 l 12.27493,-7.08926 c 1.6973,-0.98462 2.27869,-3.15079 1.29407,-4.84809 z"
       id="path3704"
       inkscape:connector-curvature="0" />
    <path
       style="fill:none;stroke:#000000;stroke-width:0.30945209px;stroke-linecap:butt;stroke-linejoin:round;stroke-opacity:1;stroke-dasharray:none"
       d="m 260.03353,87.302999 c -0.97524,-1.68792 -3.14141,-2.269315 -4.8387,-1.294072 l -12.27494,7.089266 c -1.6973,0.975243 -2.27869,3.150785 -1.30345,4.838706 l 14.17853,24.559241 c 0.98463,1.6973 3.15079,2.27869 4.84809,1.30345 l 12.27493,-7.08926 c 1.6973,-0.98462 2.27869,-3.15079 1.29407,-4.84809 z"
       id="path3706"
       inkscape:connector-curvature="0" />
    <path
       style="fill:#4a7ebb;fill-opacity:1;fill-rule:nonzero;stroke:#4a7ebb;stroke-width:0.00937734px;stroke-linecap:butt;stroke-linejoin:round;stroke-opacity:1;stroke-dasharray:none"
       d="m 73.443297,109.893 60.324403,34.82743 -0.62828,1.08777 -60.324405,-34.82743 z m 56.245263,27.52248 4.8387,8.46774 -9.7618,0.0469 c -0.33759,0 -0.61891,-0.28132 -0.62828,-0.6189 0,-0.34696 0.28132,-0.62828 0.62828,-0.62828 l 8.68341,-0.0469 -0.54389,0.93774 -4.30419,-7.53938 c -0.16879,-0.30008 -0.0656,-0.68455 0.23443,-0.85334 0.30008,-0.16879 0.67517,-0.0656 0.85334,0.23443 z"
       id="path3708"
       inkscape:connector-curvature="0" />
    <path
       style="fill:#ff0000;fill-opacity:1;fill-rule:nonzero;stroke:#ff0000;stroke-width:0.00937734px;stroke-linecap:butt;stroke-linejoin:round;stroke-opacity:1;stroke-dasharray:none"
       d="m 72.242998,89.459787 -17.104262,29.623003 1.078394,0.62828 17.104261,-29.623002 z m -17.226167,21.258423 0.03751,9.75243 8.477112,-4.83871 c 0.300075,-0.16879 0.403226,-0.55326 0.234434,-0.85334 -0.17817,-0.30007 -0.553263,-0.40322 -0.853338,-0.23443 l -7.548755,4.31358 0.937733,0.5345 -0.03751,-8.68341 c 0,-0.34696 -0.28132,-0.6189 -0.628282,-0.6189 -0.346961,0 -0.618904,0.28132 -0.618904,0.62828 z"
       id="path3710"
       inkscape:connector-curvature="0" />
    <path
       style="fill:#4a7ebb;fill-opacity:1;fill-rule:nonzero;stroke:#4a7ebb;stroke-width:0.00937734px;stroke-linecap:butt;stroke-linejoin:round;stroke-opacity:1;stroke-dasharray:none"
       d="m 74.512313,211.94655 60.324407,-34.82743 -0.62829,-1.07839 -60.315021,34.82743 z m 3.45086,-8.39271 -4.838706,8.47711 9.761807,0.0375 c 0.346961,0.009 0.628282,-0.27195 0.628282,-0.61891 0,-0.34696 -0.281321,-0.62828 -0.628282,-0.62828 l -8.683413,-0.0375 0.543885,0.93774 4.304198,-7.54876 c 0.168792,-0.2907 0.06564,-0.67517 -0.234434,-0.84396 -0.300075,-0.17817 -0.675168,-0.075 -0.853337,0.22506 z"
       id="path3712"
       inkscape:connector-curvature="0" />
    <path
       style="fill:#4a7ebb;fill-opacity:1;fill-rule:nonzero;stroke:#4a7ebb;stroke-width:0.00937734px;stroke-linecap:butt;stroke-linejoin:round;stroke-opacity:1;stroke-dasharray:none"
       d="m 248.39626,109.67732 -60.32441,34.82743 0.62828,1.07839 60.32441,-34.81805 z m -56.24527,27.52248 -4.8387,8.46774 9.75243,0.0469 c 0.34696,0 0.62828,-0.28132 0.62828,-0.62829 0,-0.34696 -0.27194,-0.62828 -0.6189,-0.62828 l -8.68342,-0.0375 0.53451,0.93774 4.31358,-7.53938 c 0.16879,-0.30008 0.0656,-0.68455 -0.23444,-0.85334 -0.30007,-0.17817 -0.68454,-0.0656 -0.85334,0.23443 z"
       id="path3714"
       inkscape:connector-curvature="0" />
    <path
       style="fill:#4a7ebb;fill-opacity:1;fill-rule:nonzero;stroke:#4a7ebb;stroke-width:0.00937734px;stroke-linecap:butt;stroke-linejoin:round;stroke-opacity:1;stroke-dasharray:none"
       d="m 247.32724,211.73087 -60.3244,-34.82742 0.6189,-1.0784 60.3244,34.81805 z m -3.46024,-8.39271 4.83871,8.46773 -9.75243,0.0469 c -0.34696,0 -0.62828,-0.28132 -0.62828,-0.61891 0,-0.34696 0.28132,-0.62828 0.6189,-0.62828 l 8.69279,-0.0375 -0.54388,0.92836 -4.31358,-7.53938 c -0.16879,-0.30007 -0.0656,-0.68454 0.23444,-0.85334 0.30007,-0.16879 0.68454,-0.0656 0.85333,0.23444 z"
       id="path3716"
       inkscape:connector-curvature="0" />
    <path
       style="fill:#4a7ebb;fill-opacity:1;fill-rule:nonzero;stroke:#4a7ebb;stroke-width:0.00937734px;stroke-linecap:butt;stroke-linejoin:round;stroke-opacity:1;stroke-dasharray:none"
       d="m 162.51861,127.74745 0,-68.107592 -2.8132,0 0,68.107592 z m -7.54875,-7.72692 6.14215,10.52137 6.13278,-10.52137 c 0.39385,-0.67517 0.16879,-1.53789 -0.50638,-1.92236 -0.66579,-0.39385 -1.5285,-0.16879 -1.92235,0.50638 l -4.9231,8.4396 2.42873,0 -4.9231,-8.4396 c -0.39385,-0.67517 -1.24719,-0.90023 -1.92236,-0.50638 -0.67517,0.38447 -0.90022,1.24719 -0.50637,1.92236 z"
       id="path3718"
       inkscape:connector-curvature="0" />
    <path
       style="fill:#4a7ebb;fill-opacity:1;fill-rule:nonzero;stroke:#4a7ebb;stroke-width:0.00937734px;stroke-linecap:butt;stroke-linejoin:round;stroke-opacity:1;stroke-dasharray:none"
       d="m 159.32094,259.81785 0,-68.10759 2.8132,0 0,68.10759 z m 7.54876,-7.7363 -6.14216,10.53075 -6.13278,-10.53075 c -0.39384,-0.66579 -0.16879,-1.52851 0.50638,-1.92235 0.66579,-0.38447 1.52851,-0.15942 1.92235,0.50637 l 4.9231,8.4396 -2.42873,0 4.92311,-8.4396 c 0.38447,-0.66579 1.24718,-0.89084 1.92235,-0.50637 0.66579,0.39384 0.89085,1.25656 0.50638,1.92235 z"
       id="path3720"
       inkscape:connector-curvature="0" />
    <path
       style="fill:#ff0000;fill-opacity:1;fill-rule:nonzero;stroke:#ff0000;stroke-width:0.00937734px;stroke-linecap:butt;stroke-linejoin:round;stroke-opacity:1;stroke-dasharray:none"
       d="m 56.21713,202.75676 17.104261,29.62301 -1.078393,0.62828 -17.104262,-29.63238 z m -1.200299,8.99287 0.03751,-9.76181 8.477112,4.84808 c 0.300075,0.1688 0.403226,0.55327 0.234434,0.85334 -0.17817,0.30008 -0.553263,0.40323 -0.853338,0.22506 l -7.548755,-4.3042 0.937733,-0.54389 -0.03751,8.69279 c 0,0.33759 -0.28132,0.61891 -0.628282,0.61891 -0.346961,0 -0.618904,-0.28132 -0.618904,-0.62828 z"
       id="path3722"
       inkscape:connector-curvature="0" />
    <path
       style="fill:#ff0000;fill-opacity:1;fill-rule:nonzero;stroke:#ff0000;stroke-width:0.00937734px;stroke-linecap:butt;stroke-linejoin:round;stroke-opacity:1;stroke-dasharray:none"
       d="m 145.78944,274.64342 32.66127,0 0,-2.8132 -32.66127,0 z m 7.73631,-7.54876 -10.53075,6.14216 10.53075,6.13278 c 0.66579,0.39385 1.5285,0.16879 1.92235,-0.50638 0.38447,-0.66579 0.15942,-1.5285 -0.50638,-1.92235 l -8.4396,-4.9231 0,2.42873 8.4396,-4.9231 c 0.6658,-0.38448 0.89085,-1.24719 0.50638,-1.92236 -0.39385,-0.66579 -1.25656,-0.89085 -1.92235,-0.50638 z"
       id="path3724"
       inkscape:connector-curvature="0" />
    <path
       style="fill:#ff0000;fill-opacity:1;fill-rule:nonzero;stroke:#ff0000;stroke-width:0.00937734px;stroke-linecap:butt;stroke-linejoin:round;stroke-opacity:1;stroke-dasharray:none"
       d="m 146.17392,47.599358 32.66126,0 0,2.813201 -32.66126,0 z m 7.72692,7.548756 -10.52137,-6.142155 10.52137,-6.132778 c 0.67517,-0.393848 1.52851,-0.168792 1.92235,0.506376 0.39385,0.665791 0.1688,1.528506 -0.50637,1.922354 l -8.4396,4.923101 0,-2.42873 8.4396,4.923102 c 0.67517,0.393848 0.90022,1.247185 0.50637,1.922354 -0.39384,0.675168 -1.24718,0.900224 -1.92235,0.506376 z"
       id="path3726"
       inkscape:connector-curvature="0" />
    <path
       style="fill:#ff0000;fill-opacity:1;fill-rule:nonzero;stroke:#ff0000;stroke-width:0.00937734px;stroke-linecap:butt;stroke-linejoin:round;stroke-opacity:1;stroke-dasharray:none"
       d="m 266.23195,120.56441 -17.10426,-29.623004 1.08777,-0.628282 17.10426,29.623006 z m -17.22617,-21.25842 0.0469,-9.75243 8.46773,4.838705 c 0.30008,0.168793 0.41261,0.553263 0.23444,0.853338 -0.16879,0.300075 -0.55326,0.403226 -0.85334,0.234433 l -7.53938,-4.313574 0.93774,-0.534508 -0.0375,8.683413 c 0,0.346961 -0.28132,0.618904 -0.62828,0.618904 -0.34697,0 -0.62829,-0.28132 -0.62829,-0.628281 z"
       id="path3728"
       inkscape:connector-curvature="0" />
    <path
       style="fill:#ff0000;fill-opacity:1;fill-rule:nonzero;stroke:#ff0000;stroke-width:0.00937734px;stroke-linecap:butt;stroke-linejoin:round;stroke-opacity:1;stroke-dasharray:none"
       d="m 250.21546,231.71398 17.10426,-29.62301 -1.08777,-0.62828 -17.10426,29.623 z m -1.20968,-8.99287 0.0469,9.75243 8.46773,-4.83871 c 0.30008,-0.16879 0.41261,-0.55326 0.23444,-0.85333 -0.16879,-0.30008 -0.55326,-0.40323 -0.85334,-0.23444 l -7.53938,4.31358 0.93774,0.53451 -0.0375,-8.68342 c 0,-0.34696 -0.28132,-0.6189 -0.62828,-0.6189 -0.34697,0 -0.62829,0.28132 -0.62829,0.62828 z"
       id="path3730"
       inkscape:connector-curvature="0" />
    <text
       xml:space="preserve"
       x="256.33069"
       y="138.07928"
       style="font-size:13.20328903px;font-style:normal;font-weight:normal;text-align:start;text-anchor:start;fill:#000000;font-family:Calibri"
       id="text3732">L1</text>
    <text
       xml:space="preserve"
       x="180.82555"
       y="56.513092"
       style="font-size:13.20328903px;font-style:normal;font-weight:normal;text-align:start;text-anchor:start;fill:#000000;font-family:Calibri"
       id="text3734">L2</text>
    <text
       xml:space="preserve"
       x="75.503456"
       y="88.233986"
       style="font-size:13.20328903px;font-style:normal;font-weight:normal;text-align:start;text-anchor:start;fill:#000000;font-family:Calibri"
       id="text3736">L3</text>
    <text
       xml:space="preserve"
       x="50.7337"
       y="193.24046"
       style="font-size:13.20328903px;font-style:normal;font-weight:normal;text-align:start;text-anchor:start;fill:#000000;font-family:Calibri"
       id="text3738">L4</text>
    <text
       xml:space="preserve"
       x="127.15815"
       y="269.08368"
       style="font-size:13.20328903px;font-style:normal;font-weight:normal;text-align:start;text-anchor:start;fill:#000000;font-family:Calibri"
       id="text3740">L5</text>
    <text
       xml:space="preserve"
       x="231.85815"
       y="241.78722"
       style="font-size:13.20328903px;font-style:normal;font-weight:normal;text-align:start;text-anchor:start;fill:#000000;font-family:Calibri"
       id="text3742">L6</text>
    <text
       xml:space="preserve"
       x="324.4202"
       y="152.64275"
       style="font-size:13.20328903px;font-style:normal;font-weight:normal;text-align:start;text-anchor:start;fill:#000000;font-family:Calibri"
       id="text3744">PS V+</text>
    <path
       style="fill:none;stroke:#4a7ebb;stroke-width:0.93773359px;stroke-linecap:butt;stroke-linejoin:round;stroke-opacity:1;stroke-dasharray:none"
       d="m 178.45071,273.23682 c 1.95048,0 3.91035,4.89497 3.91035,9.78994 0,4.88559 -42.16051,9.78056 -84.311633,9.78056 -42.151126,0 -84.302252,-60.95268 -84.302252,-121.89599 0,-60.95269 64.816147,-121.905371 129.641675,-121.905371"
       id="path3746"
       inkscape:connector-curvature="0" />
    <path
       style="fill:none;stroke:#4a7ebb;stroke-width:0.93773359px;stroke-linecap:butt;stroke-linejoin:round;stroke-opacity:1;stroke-dasharray:none"
       d="m 315.35981,148.27444 c -24.2873,0 -48.5746,-14.00974 -48.5746,-28.01948"
       id="path3748"
       inkscape:connector-curvature="0" />
    <path
       style="fill:none;stroke:#4a7ebb;stroke-width:0.93773359px;stroke-linecap:butt;stroke-linejoin:round;stroke-opacity:1;stroke-dasharray:none"
       d="m 266.77584,120.25496 c 0,1.95048 5.34508,3.90097 10.68078,3.90097 5.34508,0 10.68079,-28.544611 10.68079,-57.089222 0,-28.544611 -53.83529,-57.0892224 -107.67995,-57.0892224 -53.83529,0 -107.679954,39.9005654 -107.679954,79.7917534"
       id="path3750"
       inkscape:connector-curvature="0" />
    <path
       style="fill:none;stroke:#4a7ebb;stroke-width:0.93773359px;stroke-linecap:butt;stroke-linejoin:round;stroke-opacity:1;stroke-dasharray:none"
       d="m 143.00438,273.23682 c -35.10875,0 -70.226874,-20.2738 -70.226874,-40.5476"
       id="path3752"
       inkscape:connector-curvature="0" />
    <path
       style="fill:none;stroke:#4a7ebb;stroke-width:0.93773359px;stroke-linecap:butt;stroke-linejoin:round;stroke-opacity:1;stroke-dasharray:none"
       d="m 266.77584,201.77214 c 7.70817,0 15.41634,24.09038 15.41634,48.17138 0,24.09037 -34.7993,48.17137 -69.58922,48.17137 -34.79929,0 -69.59858,-12.43434 -69.59858,-24.87807"
       id="path3754"
       inkscape:connector-curvature="0" />
    <path
       style="fill:none;stroke:#4a7ebb;stroke-width:0.93773359px;stroke-linecap:butt;stroke-linejoin:round;stroke-opacity:1;stroke-dasharray:none"
       d="m 55.05434,120.47064 c 0,-56.751641 34.799295,-113.5032793 69.59859,-113.5032793 34.79929,0 69.59859,10.5119943 69.59859,21.0239873 0,10.511994 -7.70817,21.014611 -15.41634,21.014611"
       id="path3756"
       inkscape:connector-curvature="0" />
    <text
       xml:space="preserve"
       x="324.42029"
       y="184.50581"
       style="font-size:13.20328903px;font-style:normal;font-weight:normal;text-align:start;text-anchor:start;fill:#000000;font-family:Calibri"
       id="text3758">PS V</text>
    <text
       xml:space="preserve"
       x="347.67609"
       y="184.50581"
       style="font-size:13.20328903px;font-style:normal;font-weight:normal;text-align:start;text-anchor:start;fill:#000000;font-family:Calibri"
       id="text3760">-</text>
    <path
       style="fill:none;stroke:#4a7ebb;stroke-width:0.93773359px;stroke-linecap:butt;stroke-linejoin:round;stroke-opacity:1;stroke-dasharray:none"
       d="m 249.06205,232.48292 c 0,11.2528 10.72767,22.5056 21.43659,22.5056 10.72767,0 21.45534,-18.71716 21.45534,-37.43432 0,-18.69841 11.70292,-37.41557 23.40583,-37.41557"
       id="path3762"
       inkscape:connector-curvature="0" />
    <text
       xml:space="preserve"
       x="167.55128"
       y="176.08894"
       style="font-size:13.20328903px;font-style:italic;font-weight:normal;text-align:start;text-anchor:start;fill:#000000;font-family:Calibri"
       id="text3764">e</text>
    <text
       xml:space="preserve"
       x="173.85286"
       y="172.18797"
       style="font-size:8.70216751px;font-style:italic;font-weight:normal;text-align:start;text-anchor:start;fill:#000000;font-family:Calibri"
       id="text3766">-</text>
    <path
       style="fill:none;stroke:#4a7ebb;stroke-width:0.93773359px;stroke-linecap:butt;stroke-linejoin:round;stroke-opacity:1;stroke-dasharray:none"
       d="m 55.063718,202.00657 c 0,-4.93247 -4.782442,-9.86495 -9.564883,-9.86495 -4.782442,0 -9.564883,30.58887 -9.564883,61.17774 0,30.58887 53.282024,61.17774 106.564048,61.17774 53.28202,0 106.56405,-41.01647 106.56405,-82.01418"
       id="path3768"
       inkscape:connector-curvature="0" />
    <path
       style="fill:none;stroke:#4a7ebb;stroke-width:0.93773359px;stroke-linecap:butt;stroke-linejoin:round;stroke-opacity:1;stroke-dasharray:none"
       d="m 249.05267,89.55356 c 0,-20.273801 -35.10875,-40.547601 -70.21749,-40.547601"
       id="path3770"
       inkscape:connector-curvature="0" />
  </g>
  <g
     style="font-size:40px;font-style:normal;font-weight:normal;line-height:125%;letter-spacing:0px;word-spacing:0px;fill:#000000;fill-opacity:1;stroke:none;font-family:Sans"
     id="text3375">
    <path
       d="m 77.005859,172.82025 0,-8.58984 1.136719,0 0,3.52734 4.464844,0 0,-3.52734 1.136719,0 0,8.58984 -1.136719,0 0,-4.04883 -4.464844,0 0,4.04883 z"
       style="font-size:12px;text-align:center;text-anchor:middle"
       id="path4145" />
    <path
       d="m 85.115234,169.70892 c 0,-1.15234 0.320312,-2.00585 0.960938,-2.56054 0.535154,-0.46093 1.187497,-0.6914 1.957031,-0.69141 0.855465,10e-6 1.554683,0.28028 2.097656,0.84082 0.542963,0.56055 0.814447,1.33497 0.814453,2.32324 -6e-6,0.80079 -0.120123,1.43067 -0.360351,1.88965 -0.24024,0.45899 -0.589849,0.81543 -1.048828,1.06934 -0.458989,0.2539 -0.959965,0.38086 -1.50293,0.38086 -0.871096,0 -1.575197,-0.2793 -2.112305,-0.83789 -0.53711,-0.5586 -0.805664,-1.36328 -0.805664,-2.41407 z m 1.083985,0 c -2e-6,0.79688 0.173826,1.39356 0.521484,1.79004 0.347654,0.39649 0.785154,0.59473 1.3125,0.59473 0.523434,0 0.95898,-0.19922 1.306641,-0.59766 0.347651,-0.39843 0.521479,-1.00585 0.521484,-1.82226 -5e-6,-0.76953 -0.17481,-1.35254 -0.524414,-1.74903 -0.349614,-0.39648 -0.784183,-0.59472 -1.303711,-0.59472 -0.527346,0 -0.964846,0.19727 -1.3125,0.59179 -0.347658,0.39454 -0.521486,0.99024 -0.521484,1.78711 z"
       style="font-size:12px;text-align:center;text-anchor:middle"
       id="path4147" />
    <path
       d="m 92.175781,172.82025 0,-6.22265 0.949219,0 0,0.94335 c 0.242186,-0.4414 0.465818,-0.73241 0.670898,-0.87304 0.205076,-0.14062 0.430662,-0.21093 0.676758,-0.21094 0.355466,10e-6 0.716793,0.11329 1.083985,0.33984 l -0.363282,0.97852 c -0.257816,-0.15234 -0.515628,-0.22851 -0.773437,-0.22852 -0.230472,1e-5 -0.437503,0.0694 -0.621094,0.20801 -0.183596,0.13868 -0.314455,0.33106 -0.392578,0.57715 -0.117189,0.375 -0.175783,0.78516 -0.175781,1.23047 l 0,3.25781 z"
       style="font-size:12px;text-align:center;text-anchor:middle"
       id="path4149" />
    <path
       d="m 96.201172,165.4433 0,-1.21289 1.054687,0 0,1.21289 z m 0,7.37695 0,-6.22265 1.054687,0 0,6.22265 z"
       style="font-size:12px;text-align:center;text-anchor:middle"
       id="path4151" />
    <path
       d="m 98.310547,172.82025 0,-0.85547 3.960933,-4.54687 c -0.44922,0.0234 -0.8457,0.0352 -1.18945,0.0351 l -2.537108,0 0,-0.85546 5.085938,0 0,0.69726 -3.36914,3.94922 -0.650392,0.7207 c 0.472652,-0.0351 0.916012,-0.0527 1.330082,-0.0527 l 2.87695,0 0,0.9082 z"
       style="font-size:12px;text-align:center;text-anchor:middle"
       id="path4153" />
    <path
       d="m 104.47461,169.70892 c 0,-1.15234 0.32031,-2.00585 0.96094,-2.56054 0.53515,-0.46093 1.18749,-0.6914 1.95703,-0.69141 0.85546,10e-6 1.55468,0.28028 2.09765,0.84082 0.54297,0.56055 0.81445,1.33497 0.81446,2.32324 -10e-6,0.80079 -0.12013,1.43067 -0.36035,1.88965 -0.24024,0.45899 -0.58985,0.81543 -1.04883,1.06934 -0.45899,0.2539 -0.95997,0.38086 -1.50293,0.38086 -0.8711,0 -1.5752,-0.2793 -2.11231,-0.83789 -0.53711,-0.5586 -0.80566,-1.36328 -0.80566,-2.41407 z m 1.08398,0 c 0,0.79688 0.17383,1.39356 0.52149,1.79004 0.34765,0.39649 0.78515,0.59473 1.3125,0.59473 0.52343,0 0.95898,-0.19922 1.30664,-0.59766 0.34765,-0.39843 0.52148,-1.00585 0.52148,-1.82226 0,-0.76953 -0.17481,-1.35254 -0.52441,-1.74903 -0.34961,-0.39648 -0.78418,-0.59472 -1.30371,-0.59472 -0.52735,0 -0.96485,0.19727 -1.3125,0.59179 -0.34766,0.39454 -0.52149,0.99024 -0.52149,1.78711 z"
       style="font-size:12px;text-align:center;text-anchor:middle"
       id="path4155" />
    <path
       d="m 111.54688,172.82025 0,-6.22265 0.94921,0 0,0.88476 c 0.45703,-0.68359 1.11719,-1.02538 1.98047,-1.02539 0.375,10e-6 0.71972,0.0674 1.03418,0.20215 0.31445,0.13477 0.5498,0.31153 0.70606,0.53027 0.15624,0.21876 0.26562,0.47852 0.32812,0.7793 0.0391,0.19532 0.0586,0.53711 0.0586,1.02539 l 0,3.82617 -1.05469,0 0,-3.78515 c -10e-6,-0.42969 -0.041,-0.75098 -0.12305,-0.96387 -0.082,-0.21289 -0.22754,-0.38281 -0.43652,-0.50977 -0.20899,-0.12695 -0.45411,-0.19042 -0.73535,-0.19043 -0.44923,1e-5 -0.83692,0.14259 -1.16309,0.42774 -0.32617,0.28516 -0.48926,0.82617 -0.48926,1.62304 l 0,3.39844 z"
       style="font-size:12px;text-align:center;text-anchor:middle"
       id="path4157" />
    <path
       d="m 120.5293,171.87689 0.15234,0.93164 c -0.29688,0.0625 -0.5625,0.0937 -0.79687,0.0937 -0.38282,0 -0.67969,-0.0605 -0.89063,-0.18164 -0.21094,-0.12109 -0.35938,-0.28027 -0.44531,-0.47754 -0.0859,-0.19726 -0.12891,-0.6123 -0.12891,-1.24511 l 0,-3.58008 -0.77344,0 0,-0.82031 0.77344,0 0,-1.54102 1.04883,-0.63281 0,2.17383 1.06055,0 0,0.82031 -1.06055,0 0,3.63867 c 0,0.30078 0.0186,0.49414 0.0557,0.58008 0.0371,0.0859 0.0977,0.1543 0.18164,0.20508 0.084,0.0508 0.2041,0.0762 0.36036,0.0762 0.11718,0 0.27148,-0.0137 0.46289,-0.041 z"
       style="font-size:12px;text-align:center;text-anchor:middle"
       id="path4159" />
    <path
       d="m 125.61523,172.05267 c -0.39063,0.33204 -0.7666,0.56641 -1.12793,0.70313 -0.36133,0.13672 -0.74902,0.20508 -1.16308,0.20508 -0.6836,0 -1.20899,-0.167 -1.57617,-0.50098 -0.36719,-0.33398 -0.55078,-0.76074 -0.55078,-1.28027 0,-0.30469 0.0693,-0.58301 0.208,-0.83496 0.13867,-0.25195 0.32031,-0.4541 0.54493,-0.60645 0.2246,-0.15234 0.47753,-0.26757 0.75878,-0.3457 0.20703,-0.0547 0.51953,-0.10742 0.9375,-0.15821 0.85156,-0.10155 1.47852,-0.22265 1.88086,-0.36328 0.004,-0.14452 0.006,-0.23632 0.006,-0.27539 0,-0.42968 -0.0996,-0.73241 -0.29882,-0.9082 -0.26954,-0.23828 -0.66993,-0.35742 -1.20118,-0.35742 -0.49609,0 -0.8623,0.0869 -1.09863,0.26074 -0.23633,0.17383 -0.41113,0.48145 -0.52441,0.92285 l -1.03125,-0.14062 c 0.0937,-0.44141 0.24804,-0.79785 0.46289,-1.06934 0.21484,-0.27148 0.52539,-0.48046 0.93164,-0.62695 0.40625,-0.14648 0.87695,-0.21972 1.41211,-0.21973 0.53124,10e-6 0.96288,0.0625 1.29492,0.1875 0.33202,0.12501 0.57617,0.28223 0.73242,0.47168 0.15625,0.18946 0.26562,0.42872 0.32813,0.71777 0.0352,0.1797 0.0527,0.50391 0.0527,0.97266 l 0,1.40625 c -1e-5,0.98047 0.0225,1.60059 0.0674,1.86035 0.0449,0.25977 0.13379,0.50879 0.2666,0.74707 l -1.10156,0 c -0.10938,-0.21875 -0.17969,-0.47461 -0.21094,-0.76758 z m -0.0879,-2.35547 c -0.38281,0.15626 -0.95703,0.28907 -1.72265,0.39844 -0.4336,0.0625 -0.74024,0.13282 -0.91992,0.21094 -0.17969,0.0781 -0.31837,0.19238 -0.41602,0.34277 -0.0977,0.1504 -0.14649,0.31739 -0.14648,0.50098 -1e-5,0.28125 0.10644,0.51563 0.31933,0.70312 0.21289,0.18751 0.52441,0.28126 0.93457,0.28125 0.40625,1e-5 0.76758,-0.0889 1.08399,-0.2666 0.3164,-0.17773 0.54882,-0.42089 0.69726,-0.72949 0.11328,-0.23828 0.16992,-0.58984 0.16992,-1.05469 z"
       style="font-size:12px;text-align:center;text-anchor:middle"
       id="path4161" />
    <path
       d="m 128.21094,172.82025 0,-8.58984 1.05468,0 0,8.58984 z"
       style="font-size:12px;text-align:center;text-anchor:middle"
       id="path4163" />
    <path
       d="m 133.98242,170.06049 1.07227,-0.0937 c 0.0508,0.42969 0.16894,0.78222 0.35449,1.05761 0.18554,0.2754 0.47363,0.49805 0.86426,0.66797 0.39062,0.16992 0.83007,0.25489 1.31836,0.25488 0.43359,1e-5 0.8164,-0.0645 1.14843,-0.19335 0.33203,-0.12891 0.5791,-0.30567 0.74122,-0.53028 0.1621,-0.22461 0.24315,-0.46972 0.24316,-0.73535 -1e-5,-0.26953 -0.0781,-0.50488 -0.23438,-0.70605 -0.15625,-0.20117 -0.41406,-0.37012 -0.77343,-0.50684 -0.23048,-0.0898 -0.74024,-0.22949 -1.5293,-0.41895 -0.78907,-0.18944 -1.3418,-0.36816 -1.6582,-0.53613 -0.41016,-0.21484 -0.71582,-0.48144 -0.917,-0.7998 -0.20117,-0.31836 -0.30175,-0.6748 -0.30175,-1.06934 0,-0.43359 0.12304,-0.83886 0.36914,-1.21582 0.24609,-0.37694 0.60546,-0.66308 1.07812,-0.8584 0.47266,-0.1953 0.99805,-0.29296 1.57617,-0.29297 0.63672,1e-5 1.19824,0.10255 1.68457,0.30762 0.48633,0.20509 0.86035,0.50684 1.12207,0.90527 0.26172,0.39845 0.40234,0.84962 0.42188,1.35352 l -1.08984,0.082 c -0.0586,-0.54296 -0.25685,-0.95312 -0.59473,-1.23047 -0.3379,-0.27733 -0.83692,-0.41601 -1.49707,-0.41601 -0.6875,0 -1.18848,0.12598 -1.50293,0.37793 -0.31446,0.25196 -0.47168,0.55567 -0.47168,0.91113 0,0.3086 0.11133,0.5625 0.33398,0.76172 0.21875,0.19922 0.79004,0.40332 1.71387,0.6123 0.92382,0.20899 1.55761,0.39161 1.90137,0.54785 0.49999,0.23048 0.86913,0.52247 1.10742,0.87598 0.23827,0.35352 0.35742,0.76075 0.35742,1.22168 0,0.45703 -0.13086,0.8877 -0.39258,1.29199 -0.26172,0.4043 -0.6377,0.71875 -1.12793,0.94336 -0.49024,0.22461 -1.04199,0.33692 -1.65527,0.33692 -0.77735,0 -1.42871,-0.11329 -1.9541,-0.33985 -0.52539,-0.22656 -0.9375,-0.56738 -1.23633,-1.02246 -0.29883,-0.45508 -0.45605,-0.96972 -0.47168,-1.54394 z"
       style="font-size:12px;text-align:center;text-anchor:middle"
       id="path4165" />
    <path
       d="m 144.55273,171.87689 0.15235,0.93164 c -0.29688,0.0625 -0.5625,0.0937 -0.79688,0.0937 -0.38281,0 -0.67969,-0.0605 -0.89062,-0.18164 -0.21094,-0.12109 -0.35938,-0.28027 -0.44531,-0.47754 -0.0859,-0.19726 -0.12891,-0.6123 -0.12891,-1.24511 l 0,-3.58008 -0.77344,0 0,-0.82031 0.77344,0 0,-1.54102 1.04883,-0.63281 0,2.17383 1.06054,0 0,0.82031 -1.06054,0 0,3.63867 c 0,0.30078 0.0186,0.49414 0.0557,0.58008 0.0371,0.0859 0.0977,0.1543 0.18164,0.20508 0.084,0.0508 0.2041,0.0762 0.36035,0.0762 0.11719,0 0.27149,-0.0137 0.46289,-0.041 z"
       style="font-size:12px;text-align:center;text-anchor:middle"
       id="path4167" />
    <path
       d="m 149.83789,170.81635 1.08984,0.13476 c -0.17188,0.63672 -0.49024,1.13086 -0.95507,1.48242 -0.46485,0.35157 -1.0586,0.52735 -1.78125,0.52735 -0.91016,0 -1.63184,-0.28028 -2.16504,-0.84082 -0.53321,-0.56055 -0.79981,-1.34668 -0.79981,-2.3584 0,-1.04687 0.26953,-1.85937 0.8086,-2.4375 0.53906,-0.57812 1.23828,-0.86718 2.09765,-0.86719 0.83203,10e-6 1.51172,0.28321 2.03906,0.84961 0.52734,0.56641 0.79101,1.36328 0.79102,2.39062 -10e-6,0.0625 -0.002,0.15626 -0.006,0.28125 l -4.64062,0 c 0.0391,0.6836 0.23242,1.20704 0.58007,1.57032 0.34766,0.36328 0.78125,0.54492 1.30079,0.54492 0.38671,0 0.71679,-0.10156 0.99023,-0.30469 0.27343,-0.20312 0.49023,-0.52734 0.65039,-0.97265 z m -3.46289,-1.70508 3.47461,0 c -0.0469,-0.52344 -0.17969,-0.91601 -0.39844,-1.17774 -0.33594,-0.40624 -0.77149,-0.60937 -1.30664,-0.60937 -0.48438,0 -0.8916,0.16211 -1.22168,0.48633 -0.33008,0.32422 -0.5127,0.75781 -0.54785,1.30078 z"
       style="font-size:12px;text-align:center;text-anchor:middle"
       id="path4169" />
    <path
       d="m 156.51758,170.81635 1.08984,0.13476 c -0.17188,0.63672 -0.49024,1.13086 -0.95508,1.48242 -0.46484,0.35157 -1.05859,0.52735 -1.78125,0.52735 -0.91015,0 -1.63183,-0.28028 -2.16504,-0.84082 -0.5332,-0.56055 -0.7998,-1.34668 -0.7998,-2.3584 0,-1.04687 0.26953,-1.85937 0.80859,-2.4375 0.53906,-0.57812 1.23828,-0.86718 2.09766,-0.86719 0.83203,10e-6 1.51171,0.28321 2.03906,0.84961 0.52734,0.56641 0.79101,1.36328 0.79102,2.39062 -1e-5,0.0625 -0.002,0.15626 -0.006,0.28125 l -4.64063,0 c 0.0391,0.6836 0.23242,1.20704 0.58008,1.57032 0.34766,0.36328 0.78125,0.54492 1.30078,0.54492 0.38672,0 0.7168,-0.10156 0.99024,-0.30469 0.27343,-0.20312 0.49023,-0.52734 0.65039,-0.97265 z m -3.46289,-1.70508 3.47461,0 c -0.0469,-0.52344 -0.1797,-0.91601 -0.39844,-1.17774 -0.33594,-0.40624 -0.77149,-0.60937 -1.30664,-0.60937 -0.48438,0 -0.89161,0.16211 -1.22168,0.48633 -0.33008,0.32422 -0.5127,0.75781 -0.54785,1.30078 z"
       style="font-size:12px;text-align:center;text-anchor:middle"
       id="path4171" />
    <path
       d="m 158.92578,172.82025 0,-6.22265 0.94922,0 0,0.94335 c 0.24219,-0.4414 0.46582,-0.73241 0.6709,-0.87304 0.20507,-0.14062 0.43066,-0.21093 0.67676,-0.21094 0.35546,10e-6 0.71679,0.11329 1.08398,0.33984 l -0.36328,0.97852 c -0.25782,-0.15234 -0.51563,-0.22851 -0.77344,-0.22852 -0.23047,1e-5 -0.4375,0.0694 -0.62109,0.20801 -0.1836,0.13868 -0.31446,0.33106 -0.39258,0.57715 -0.11719,0.375 -0.17578,0.78516 -0.17578,1.23047 l 0,3.25781 z"
       style="font-size:12px;text-align:center;text-anchor:middle"
       id="path4173" />
    <path
       d="m 167.20508,170.81635 1.08984,0.13476 c -0.17188,0.63672 -0.49024,1.13086 -0.95508,1.48242 -0.46484,0.35157 -1.05859,0.52735 -1.78125,0.52735 -0.91015,0 -1.63183,-0.28028 -2.16504,-0.84082 -0.5332,-0.56055 -0.7998,-1.34668 -0.7998,-2.3584 0,-1.04687 0.26953,-1.85937 0.80859,-2.4375 0.53906,-0.57812 1.23828,-0.86718 2.09766,-0.86719 0.83203,10e-6 1.51171,0.28321 2.03906,0.84961 0.52734,0.56641 0.79101,1.36328 0.79102,2.39062 -1e-5,0.0625 -0.002,0.15626 -0.006,0.28125 l -4.64063,0 c 0.0391,0.6836 0.23242,1.20704 0.58008,1.57032 0.34766,0.36328 0.78125,0.54492 1.30078,0.54492 0.38672,0 0.7168,-0.10156 0.99024,-0.30469 0.27343,-0.20312 0.49023,-0.52734 0.65039,-0.97265 z m -3.46289,-1.70508 3.47461,0 c -0.0469,-0.52344 -0.1797,-0.91601 -0.39844,-1.17774 -0.33594,-0.40624 -0.77149,-0.60937 -1.30664,-0.60937 -0.48438,0 -0.89161,0.16211 -1.22168,0.48633 -0.33008,0.32422 -0.5127,0.75781 -0.54785,1.30078 z"
       style="font-size:12px;text-align:center;text-anchor:middle"
       id="path4175" />
    <path
       d="m 169.61328,172.82025 0,-6.22265 0.94922,0 0,0.94335 c 0.24219,-0.4414 0.46582,-0.73241 0.6709,-0.87304 0.20507,-0.14062 0.43066,-0.21093 0.67676,-0.21094 0.35546,10e-6 0.71679,0.11329 1.08398,0.33984 l -0.36328,0.97852 c -0.25782,-0.15234 -0.51563,-0.22851 -0.77344,-0.22852 -0.23047,1e-5 -0.4375,0.0694 -0.62109,0.20801 -0.1836,0.13868 -0.31446,0.33106 -0.39258,0.57715 -0.11719,0.375 -0.17578,0.78516 -0.17578,1.23047 l 0,3.25781 z"
       style="font-size:12px;text-align:center;text-anchor:middle"
       id="path4177" />
    <path
       d="m 93.419113,187.3832 0,0.2168 -3.404297,0 0,-0.2168 0.28125,0 c 0.328124,0 0.566405,-0.0957 0.714844,-0.28711 0.09375,-0.125 0.140624,-0.42578 0.140625,-0.90234 l 0,-5.13281 c -10e-7,-0.40234 -0.02539,-0.66796 -0.07617,-0.79688 -0.03906,-0.0976 -0.119142,-0.18163 -0.240234,-0.25195 -0.171876,-0.0937 -0.351563,-0.14062 -0.539063,-0.14063 l -0.28125,0 0,-0.21679 3.404297,0 0,0.21679 -0.287109,0 c -0.324222,1e-5 -0.56055,0.0957 -0.708985,0.28711 -0.09766,0.12501 -0.146487,0.42579 -0.146484,0.90235 l 0,5.13281 c -3e-6,0.40234 0.02539,0.66797 0.07617,0.79687 0.03906,0.0977 0.121091,0.18165 0.246094,0.25196 0.167965,0.0937 0.3457,0.14062 0.533203,0.14062 z"
       style="font-size:12px;font-variant:normal;font-stretch:normal;text-align:center;text-anchor:middle;font-family:Serif;-inkscape-font-specification:Serif"
       id="path4179" />
    <path
       d="m 103.24529,183.77383 -6.304692,2.73047 0,-0.50391 5.431642,-2.35547 -5.431642,-2.3789 0,-0.53321 6.304692,2.75391 z"
       style="font-size:12px;font-variant:normal;font-stretch:normal;text-align:center;text-anchor:middle;font-family:Serif;-inkscape-font-specification:Serif"
       id="path4181" />
    <path
       d="m 106.93083,183.67422 c 0,-0.90625 0.13672,-1.68652 0.41016,-2.34082 0.27343,-0.65429 0.63672,-1.1416 1.08984,-1.46192 0.35156,-0.25389 0.71484,-0.38085 1.08985,-0.38086 0.60937,1e-5 1.15624,0.31056 1.64062,0.93165 0.60546,0.76953 0.9082,1.8125 0.9082,3.1289 0,0.92188 -0.13281,1.70508 -0.39843,2.34961 -0.26563,0.64453 -0.6045,1.11231 -1.01661,1.40332 -0.41211,0.29102 -0.80957,0.43652 -1.19238,0.43652 -0.75781,0 -1.38867,-0.44726 -1.89258,-1.34179 -0.42578,-0.75391 -0.63867,-1.66211 -0.63867,-2.72461 z m 1.14844,0.14648 c 0,1.09376 0.13476,1.98633 0.4043,2.67774 0.22265,0.58203 0.55468,0.87304 0.99609,0.87304 0.21093,0 0.42968,-0.0947 0.65625,-0.28418 0.22656,-0.18945 0.39843,-0.50683 0.51563,-0.95214 0.17968,-0.67188 0.26952,-1.61914 0.26953,-2.8418 -1e-5,-0.90625 -0.0938,-1.6621 -0.28125,-2.26758 -0.14063,-0.44921 -0.32227,-0.76757 -0.54493,-0.95508 -0.16016,-0.1289 -0.35351,-0.19335 -0.58007,-0.19336 -0.26563,1e-5 -0.50196,0.11915 -0.70899,0.35743 -0.28125,0.32422 -0.47266,0.83399 -0.57422,1.52929 -0.10156,0.69532 -0.15234,1.38087 -0.15234,2.05664 z"
       style="font-size:12px;font-variant:normal;font-stretch:normal;text-align:center;text-anchor:middle;font-family:Serif;-inkscape-font-specification:Serif"
       id="path4183" />
    <path
       d="m 124.60857,182.46719 c 0.51952,0.56641 0.96874,0.99707 1.34765,1.29199 0.3789,0.29492 0.73632,0.51465 1.07227,0.65918 l 0,0.26367 c -0.38673,0.1875 -0.76173,0.42676 -1.125,0.71777 -0.36329,0.29102 -0.79689,0.71778 -1.30078,1.28028 l -0.45117,0 c 0.36717,-0.78516 0.75194,-1.38867 1.15429,-1.81055 l -9.3457,0 0,-0.5918 9.3457,0 c -0.29688,-0.3789 -0.50391,-0.66015 -0.62109,-0.84375 -0.1172,-0.18359 -0.29103,-0.50585 -0.52149,-0.96679 z"
       style="font-size:12px;font-variant:normal;font-stretch:normal;text-align:center;text-anchor:middle;font-family:Serif;-inkscape-font-specification:Serif"
       id="path4185" />
    <path
       d="m 132.34294,183.15859 c 0.51953,-0.72265 1.08008,-1.08398 1.68164,-1.08398 0.55078,0 1.03125,0.23536 1.44141,0.70605 0.41015,0.47071 0.61523,1.11427 0.61523,1.93067 0,0.95312 -0.31641,1.7207 -0.94922,2.30273 -0.54297,0.5 -1.14844,0.75 -1.8164,0.75 -0.3125,0 -0.62989,-0.0566 -0.95215,-0.16992 -0.32227,-0.11328 -0.65137,-0.2832 -0.98731,-0.50977 l 0,-5.56054 c 0,-0.60937 -0.0146,-0.98437 -0.0439,-1.125 -0.0293,-0.14062 -0.0752,-0.23632 -0.1377,-0.28711 -0.0625,-0.0508 -0.14062,-0.0762 -0.23437,-0.0762 -0.10938,0 -0.2461,0.0312 -0.41016,0.0937 l -0.082,-0.20508 1.61133,-0.65625 0.26367,0 z m 0,0.375 0,3.21094 c 0.19922,0.19531 0.40527,0.34277 0.61817,0.44238 0.21288,0.0996 0.43066,0.14942 0.65332,0.14942 0.35546,0 0.68652,-0.19531 0.99316,-0.58594 0.30664,-0.39062 0.45996,-0.95898 0.45996,-1.70508 0,-0.68749 -0.15332,-1.21581 -0.45996,-1.58496 -0.30664,-0.36913 -0.65528,-0.55371 -1.0459,-0.55371 -0.20703,0 -0.41406,0.0527 -0.62109,0.1582 -0.15625,0.0781 -0.35547,0.23438 -0.59766,0.46875 z"
       style="font-size:12px;font-variant:normal;font-stretch:normal;text-align:center;text-anchor:middle;font-family:Serif;-inkscape-font-specification:Serif"
       id="path4187" />
    <path
       d="m 137.41131,185.34202 1.25686,-0.61319 0.12568,0 0,4.3609 c 0,0.28946 0.0121,0.46974 0.0362,0.54083 0.0241,0.0711 0.0743,0.12569 0.15045,0.16377 0.0762,0.0381 0.23105,0.0597 0.46465,0.0648 l 0,0.14092 -1.94241,0 0,-0.14092 c 0.24375,-0.005 0.40118,-0.026 0.47227,-0.0628 0.0711,-0.0368 0.12061,-0.0863 0.14854,-0.14854 0.0279,-0.0622 0.0419,-0.2482 0.0419,-0.55797 l 0,-2.78793 c -10e-6,-0.37578 -0.0127,-0.61699 -0.0381,-0.72364 -0.0178,-0.0812 -0.0502,-0.14092 -0.0971,-0.17901 -0.047,-0.0381 -0.10347,-0.0571 -0.16949,-0.0571 -0.0939,1e-5 -0.22471,0.0394 -0.39229,0.11807 z"
       style="font-size:65.00091553%;baseline-shift:sub"
       id="path4189" />
    <path
       d="m 143.61409,183.46328 6.30469,-2.73047 0,0.50977 -5.42578,2.35547 5.42578,2.3789 0,0.52735 -6.30469,-2.75391 z"
       style="font-size:12px;font-variant:normal;font-stretch:normal;text-align:center;text-anchor:middle;font-family:Serif;-inkscape-font-specification:Serif"
       id="path4191" />
    <path
       d="m 153.60432,183.67422 c 0,-0.90625 0.13672,-1.68652 0.41016,-2.34082 0.27344,-0.65429 0.63672,-1.1416 1.08984,-1.46192 0.35156,-0.25389 0.71485,-0.38085 1.08985,-0.38086 0.60937,1e-5 1.15624,0.31056 1.64062,0.93165 0.60547,0.76953 0.9082,1.8125 0.90821,3.1289 -1e-5,0.92188 -0.13282,1.70508 -0.39844,2.34961 -0.26563,0.64453 -0.6045,1.11231 -1.0166,1.40332 -0.41212,0.29102 -0.80958,0.43652 -1.19239,0.43652 -0.75781,0 -1.38867,-0.44726 -1.89257,-1.34179 -0.42579,-0.75391 -0.63868,-1.66211 -0.63868,-2.72461 z m 1.14844,0.14648 c 0,1.09376 0.13477,1.98633 0.4043,2.67774 0.22265,0.58203 0.55468,0.87304 0.99609,0.87304 0.21094,0 0.42969,-0.0947 0.65625,-0.28418 0.22656,-0.18945 0.39844,-0.50683 0.51563,-0.95214 0.17968,-0.67188 0.26952,-1.61914 0.26953,-2.8418 -1e-5,-0.90625 -0.0938,-1.6621 -0.28125,-2.26758 -0.14063,-0.44921 -0.32227,-0.76757 -0.54492,-0.95508 -0.16016,-0.1289 -0.35352,-0.19335 -0.58008,-0.19336 -0.26563,1e-5 -0.50196,0.11915 -0.70899,0.35743 -0.28125,0.32422 -0.47265,0.83399 -0.57421,1.52929 -0.10157,0.69532 -0.15235,1.38087 -0.15235,2.05664 z"
       style="font-size:12px;font-variant:normal;font-stretch:normal;text-align:center;text-anchor:middle;font-family:Serif;-inkscape-font-specification:Serif"
       id="path4193" />
  </g>
</svg>
