<?xml version="1.0" encoding="UTF-8" standalone="no"?>
<svg
   xmlns:dc="http://purl.org/dc/elements/1.1/"
   xmlns:cc="http://creativecommons.org/ns#"
   xmlns:rdf="http://www.w3.org/1999/02/22-rdf-syntax-ns#"
   xmlns:svg="http://www.w3.org/2000/svg"
   xmlns="http://www.w3.org/2000/svg"
   xmlns:sodipodi="http://sodipodi.sourceforge.net/DTD/sodipodi-0.dtd"
   xmlns:inkscape="http://www.inkscape.org/namespaces/inkscape"
   version="1.0"
   width="250"
   height="200"
   id="svg3109"
   inkscape:version="0.48.4 r9939"
   sodipodi:docname="quadrupole.svg">
  <metadata
     id="metadata3219">
    <rdf:RDF>
      <cc:Work
         rdf:about="">
        <dc:format>image/svg+xml</dc:format>
        <dc:type
           rdf:resource="http://purl.org/dc/dcmitype/StillImage" />
        <dc:title />
      </cc:Work>
    </rdf:RDF>
  </metadata>
  <sodipodi:namedview
     pagecolor="#ffffff"
     bordercolor="#666666"
     borderopacity="1"
     objecttolerance="10"
     gridtolerance="10"
     guidetolerance="10"
     inkscape:pageopacity="0"
     inkscape:pageshadow="2"
     inkscape:window-width="1280"
     inkscape:window-height="738"
     id="namedview3217"
     showgrid="false"
     inkscape:zoom="2"
     inkscape:cx="85.094489"
     inkscape:cy="103.56395"
     inkscape:window-x="-8"
     inkscape:window-y="-8"
     inkscape:window-maximized="1"
     inkscape:current-layer="svg3109" />
  <defs
     id="defs3111" />
  <g
     id="g3113"
     transform="matrix(0.5,0,0,0.5,45.67362,0.484015)">
    <path
       style="fill:none;stroke:#000000;stroke-width:0.62828153px;stroke-linecap:butt;stroke-linejoin:round;stroke-opacity:1;stroke-dasharray:none"
       d="m 153.63828,161.46835 c 0,-3.91973 3.17891,-7.08927 7.08926,-7.08927 3.91973,0 7.08927,3.16954 7.08927,7.08927 0,3.91035 -3.16954,7.08927 -7.08927,7.08927 -3.91035,0 -7.08926,-3.17892 -7.08926,-7.08927"
       id="path3115"
       inkscape:connector-curvature="0" />
    <path
       style="fill:#000000;fill-opacity:1;fill-rule:evenodd;stroke:none"
       d="m 158.47698,161.46835 c 0,-1.24718 1.01275,-2.25056 2.25056,-2.25056 1.24719,0 2.25056,1.00338 2.25056,2.25056 0,1.23781 -1.00337,2.25056 -2.25056,2.25056 -1.23781,0 -2.25056,-1.01275 -2.25056,-2.25056"
       id="path3117"
       inkscape:connector-curvature="0" />
    <path
       style="fill:none;stroke:#000000;stroke-width:0.62828153px;stroke-linecap:butt;stroke-linejoin:round;stroke-opacity:1;stroke-dasharray:none"
       d="m 158.47698,161.46835 c 0,-1.24718 1.01275,-2.25056 2.25056,-2.25056 1.24719,0 2.25056,1.00338 2.25056,2.25056 0,1.23781 -1.00337,2.25056 -2.25056,2.25056 -1.23781,0 -2.25056,-1.01275 -2.25056,-2.25056"
       id="path3119"
       inkscape:connector-curvature="0" />
    <path
       style="fill:#bfbfbf;fill-opacity:1;fill-rule:evenodd;stroke:none"
       d="m 67.816895,202.81303 30.692021,-17.71379 c 16.954224,-9.78994 33.073864,-13.60652 36.018344,-8.51462 2.93511,5.08251 -8.43022,17.14177 -25.38444,26.93171 l -30.692026,17.72316 z"
       id="path3121"
       inkscape:connector-curvature="0" />
    <path
       style="fill:none;stroke:#000000;stroke-width:0.30945209px;stroke-linecap:butt;stroke-linejoin:round;stroke-opacity:1;stroke-dasharray:none"
       d="m 67.816895,202.81303 30.692021,-17.71379 c 16.954224,-9.78994 33.073864,-13.60652 36.018344,-8.51462 2.93511,5.08251 -8.43022,17.14177 -25.38444,26.93171 l -30.692026,17.72316 z"
       id="path3123"
       inkscape:connector-curvature="0" />
    <path
       style="fill:#fac090;fill-opacity:1;fill-rule:evenodd;stroke:none"
       d="m 47.618113,210.38054 c -0.975243,-1.6973 -0.393848,-3.86347 1.30345,-4.83871 l 12.274933,-7.08927 c 1.697297,-0.98462 3.863462,-0.40322 4.848082,1.29408 l 14.178533,24.55924 c 0.975243,1.6973 0.393848,3.86346 -1.30345,4.83871 l -12.274933,7.08926 c -1.697298,0.98462 -3.863463,0.40323 -4.848083,-1.29407 z"
       id="path3125"
       inkscape:connector-curvature="0" />
    <path
       style="fill:none;stroke:#000000;stroke-width:0.30945209px;stroke-linecap:butt;stroke-linejoin:round;stroke-opacity:1;stroke-dasharray:none"
       d="m 47.618113,210.38054 c -0.975243,-1.6973 -0.393848,-3.86347 1.30345,-4.83871 l 12.274933,-7.08927 c 1.697297,-0.98462 3.863462,-0.40322 4.848082,1.29408 l 14.178533,24.55924 c 0.975243,1.6973 0.393848,3.86346 -1.30345,4.83871 l -12.274933,7.08926 c -1.697298,0.98462 -3.863463,0.40323 -4.848083,-1.29407 z"
       id="path3127"
       inkscape:connector-curvature="0" />
    <path
       style="fill:#bfbfbf;fill-opacity:1;fill-rule:evenodd;stroke:none"
       d="m 78.450794,101.22834 30.692026,17.72317 c 16.95422,9.78994 28.31955,21.84919 25.38444,26.93171 -2.94448,5.08251 -19.06412,1.27532 -36.018344,-8.51462 L 67.816895,119.64543 z"
       id="path3129"
       inkscape:connector-curvature="0" />
    <path
       style="fill:none;stroke:#000000;stroke-width:0.30945209px;stroke-linecap:butt;stroke-linejoin:round;stroke-opacity:1;stroke-dasharray:none"
       d="m 78.450794,101.22834 30.692026,17.72317 c 16.95422,9.78994 28.31955,21.84919 25.38444,26.93171 -2.94448,5.08251 -19.06412,1.27532 -36.018344,-8.51462 L 67.816895,119.64543 z"
       id="path3131"
       inkscape:connector-curvature="0" />
    <path
       style="fill:#fac090;fill-opacity:1;fill-rule:evenodd;stroke:none"
       d="m 61.796645,87.528055 c 0.98462,-1.697297 3.150785,-2.278692 4.848083,-1.303449 l 12.274933,7.089266 c 1.697298,0.98462 2.278693,3.150785 1.30345,4.848083 L 66.044578,122.7212 c -0.98462,1.68792 -3.150785,2.26931 -4.848082,1.29407 L 48.921563,116.926 c -1.697298,-0.97524 -2.278693,-3.15078 -1.30345,-4.8387 z"
       id="path3133"
       inkscape:connector-curvature="0" />
    <path
       style="fill:none;stroke:#000000;stroke-width:0.30945209px;stroke-linecap:butt;stroke-linejoin:round;stroke-opacity:1;stroke-dasharray:none"
       d="m 61.796645,87.528055 c 0.98462,-1.697297 3.150785,-2.278692 4.848083,-1.303449 l 12.274933,7.089266 c 1.697298,0.98462 2.278693,3.150785 1.30345,4.848083 L 66.044578,122.7212 c -0.98462,1.68792 -3.150785,2.26931 -4.848082,1.29407 L 48.921563,116.926 c -1.697298,-0.97524 -2.278693,-3.15078 -1.30345,-4.8387 z"
       id="path3135"
       inkscape:connector-curvature="0" />
    <path
       style="fill:#bfbfbf;fill-opacity:1;fill-rule:evenodd;stroke:none"
       d="m 171.74591,59.639858 0,35.44633 c 0,19.579882 -4.76369,35.446332 -10.6339,35.446332 -5.87959,0 -10.6339,-15.86645 -10.6339,-35.446332 l 0,-35.44633 z"
       id="path3137"
       inkscape:connector-curvature="0" />
    <path
       style="fill:none;stroke:#000000;stroke-width:0.30945209px;stroke-linecap:butt;stroke-linejoin:round;stroke-opacity:1;stroke-dasharray:none"
       d="m 171.74591,59.639858 0,35.44633 c 0,19.579882 -4.76369,35.446332 -10.6339,35.446332 -5.87959,0 -10.6339,-15.86645 -10.6339,-35.446332 l 0,-35.44633 z"
       id="path3139"
       inkscape:connector-curvature="0" />
    <path
       style="fill:#fac090;fill-opacity:1;fill-rule:evenodd;stroke:none"
       d="m 175.29054,38.372059 c 1.95049,0 3.54464,1.594148 3.54464,3.544633 l 0,14.178533 c 0,1.959863 -1.59415,3.544633 -3.54464,3.544633 l -28.35706,0 c -1.95986,0 -3.54463,-1.58477 -3.54463,-3.544633 l 0,-14.178533 c 0,-1.950485 1.58477,-3.544633 3.54463,-3.544633 z"
       id="path3141"
       inkscape:connector-curvature="0" />
    <path
       style="fill:none;stroke:#000000;stroke-width:0.30945209px;stroke-linecap:butt;stroke-linejoin:round;stroke-opacity:1;stroke-dasharray:none"
       d="m 175.29054,38.372059 c 1.95049,0 3.54464,1.594148 3.54464,3.544633 l 0,14.178533 c 0,1.959863 -1.59415,3.544633 -3.54464,3.544633 l -28.35706,0 c -1.95986,0 -3.54463,-1.58477 -3.54463,-3.544633 l 0,-14.178533 c 0,-1.950485 1.58477,-3.544633 3.54463,-3.544633 z"
       id="path3143"
       inkscape:connector-curvature="0" />
    <path
       style="fill:#bfbfbf;fill-opacity:1;fill-rule:evenodd;stroke:none"
       d="m 171.36144,262.60292 0,-35.44633 c 0,-19.57988 -4.76369,-35.44633 -10.6339,-35.44633 -5.87021,0 -10.6339,15.86645 -10.6339,35.44633 l 0,35.44633 z"
       id="path3145"
       inkscape:connector-curvature="0" />
    <path
       style="fill:none;stroke:#000000;stroke-width:0.30945209px;stroke-linecap:butt;stroke-linejoin:round;stroke-opacity:1;stroke-dasharray:none"
       d="m 171.36144,262.60292 0,-35.44633 c 0,-19.57988 -4.76369,-35.44633 -10.6339,-35.44633 -5.87021,0 -10.6339,15.86645 -10.6339,35.44633 l 0,35.44633 z"
       id="path3147"
       inkscape:connector-curvature="0" />
    <path
       style="fill:#fac090;fill-opacity:1;fill-rule:evenodd;stroke:none"
       d="m 174.90607,283.87072 c 1.95987,0 3.54464,-1.58477 3.54464,-3.54463 l 0,-14.17854 c 0,-1.95986 -1.58477,-3.54463 -3.54464,-3.54463 l -28.35706,0 c -1.95986,0 -3.54463,1.58477 -3.54463,3.54463 l 0,14.17854 c 0,1.95986 1.58477,3.54463 3.54463,3.54463 z"
       id="path3149"
       inkscape:connector-curvature="0" />
    <path
       style="fill:none;stroke:#000000;stroke-width:0.30945209px;stroke-linecap:butt;stroke-linejoin:round;stroke-opacity:1;stroke-dasharray:none"
       d="m 174.90607,283.87072 c 1.95987,0 3.54464,-1.58477 3.54464,-3.54463 l 0,-14.17854 c 0,-1.95986 -1.58477,-3.54463 -3.54464,-3.54463 l -28.35706,0 c -1.95986,0 -3.54463,1.58477 -3.54463,3.54463 l 0,14.17854 c 0,1.95986 1.58477,3.54463 3.54463,3.54463 z"
       id="path3151"
       inkscape:connector-curvature="0" />
    <path
       style="fill:#bfbfbf;fill-opacity:1;fill-rule:evenodd;stroke:none"
       d="m 254.02266,202.59735 -30.69202,-17.72317 c -16.95423,-9.78994 -33.08324,-13.59714 -36.01835,-8.51462 -2.93511,5.09189 8.43022,17.14177 25.38445,26.93171 l 30.69202,17.72317 z"
       id="path3153"
       inkscape:connector-curvature="0" />
    <path
       style="fill:none;stroke:#000000;stroke-width:0.30945209px;stroke-linecap:butt;stroke-linejoin:round;stroke-opacity:1;stroke-dasharray:none"
       d="m 254.02266,202.59735 -30.69202,-17.72317 c -16.95423,-9.78994 -33.08324,-13.59714 -36.01835,-8.51462 -2.93511,5.09189 8.43022,17.14177 25.38445,26.93171 l 30.69202,17.72317 z"
       id="path3155"
       inkscape:connector-curvature="0" />
    <path
       style="fill:#fac090;fill-opacity:1;fill-rule:evenodd;stroke:none"
       d="m 274.21206,210.16486 c 0.98462,-1.6973 0.40323,-3.86347 -1.29407,-4.84809 l -12.27493,-7.08926 c -1.6973,-0.97524 -3.86346,-0.39385 -4.84809,1.30345 l -14.17853,24.55924 c -0.97524,1.68792 -0.39385,3.86346 1.30345,4.83871 l 12.27494,7.08926 c 1.69729,0.97525 3.86346,0.39385 4.8387,-1.29407 z"
       id="path3157"
       inkscape:connector-curvature="0" />
    <path
       style="fill:none;stroke:#000000;stroke-width:0.30945209px;stroke-linecap:butt;stroke-linejoin:round;stroke-opacity:1;stroke-dasharray:none"
       d="m 274.21206,210.16486 c 0.98462,-1.6973 0.40323,-3.86347 -1.29407,-4.84809 l -12.27493,-7.08926 c -1.6973,-0.97524 -3.86346,-0.39385 -4.84809,1.30345 l -14.17853,24.55924 c -0.97524,1.68792 -0.39385,3.86346 1.30345,4.83871 l 12.27494,7.08926 c 1.69729,0.97525 3.86346,0.39385 4.8387,-1.29407 z"
       id="path3159"
       inkscape:connector-curvature="0" />
    <path
       style="fill:#bfbfbf;fill-opacity:1;fill-rule:evenodd;stroke:none"
       d="m 243.38876,101.01266 -30.69202,17.72317 c -16.95423,9.78056 -28.31956,21.83982 -25.38445,26.93171 2.93511,5.08252 19.06412,1.27532 36.01835,-8.51462 l 30.69202,-17.72317 z"
       id="path3161"
       inkscape:connector-curvature="0" />
    <path
       style="fill:none;stroke:#000000;stroke-width:0.30945209px;stroke-linecap:butt;stroke-linejoin:round;stroke-opacity:1;stroke-dasharray:none"
       d="m 243.38876,101.01266 -30.69202,17.72317 c -16.95423,9.78056 -28.31956,21.83982 -25.38445,26.93171 2.93511,5.08252 19.06412,1.27532 36.01835,-8.51462 l 30.69202,-17.72317 z"
       id="path3163"
       inkscape:connector-curvature="0" />
    <path
       style="fill:#fac090;fill-opacity:1;fill-rule:evenodd;stroke:none"
       d="m 260.03353,87.302999 c -0.97524,-1.68792 -3.14141,-2.269315 -4.8387,-1.294072 l -12.27494,7.089266 c -1.6973,0.975243 -2.27869,3.150785 -1.30345,4.838706 l 14.17853,24.559241 c 0.98463,1.6973 3.15079,2.27869 4.84809,1.30345 l 12.27493,-7.08926 c 1.6973,-0.98462 2.27869,-3.15079 1.29407,-4.84809 z"
       id="path3165"
       inkscape:connector-curvature="0" />
    <path
       style="fill:none;stroke:#000000;stroke-width:0.30945209px;stroke-linecap:butt;stroke-linejoin:round;stroke-opacity:1;stroke-dasharray:none"
       d="m 260.03353,87.302999 c -0.97524,-1.68792 -3.14141,-2.269315 -4.8387,-1.294072 l -12.27494,7.089266 c -1.6973,0.975243 -2.27869,3.150785 -1.30345,4.838706 l 14.17853,24.559241 c 0.98463,1.6973 3.15079,2.27869 4.84809,1.30345 l 12.27493,-7.08926 c 1.6973,-0.98462 2.27869,-3.15079 1.29407,-4.84809 z"
       id="path3167"
       inkscape:connector-curvature="0" />
    <path
       style="fill:#4a7ebb;fill-opacity:1;fill-rule:nonzero;stroke:#4a7ebb;stroke-width:0.00937734px;stroke-linecap:butt;stroke-linejoin:round;stroke-opacity:1;stroke-dasharray:none"
       d="m 133.82396,147.10227 -58.98344,-34.04911 1.4066,-2.4381 58.98344,34.0491 z m -54.660488,-26.08775 -6.039005,-10.57763 12.18116,-0.0563 c 0.778319,0 1.4066,0.61891 1.415978,1.39723 0,0.77832 -0.628282,1.41597 -1.406601,1.41597 l -9.771184,0.0469 1.219054,-2.1099 4.848082,8.48649 c 0.384471,0.67517 0.150038,1.52851 -0.52513,1.92235 -0.675169,0.38447 -1.528506,0.15004 -1.922354,-0.52513 z"
       id="path3169"
       inkscape:connector-curvature="0" />
    <path
       style="fill:#ff0000;fill-opacity:1;fill-rule:nonzero;stroke:#ff0000;stroke-width:0.00937734px;stroke-linecap:butt;stroke-linejoin:round;stroke-opacity:1;stroke-dasharray:none"
       d="M 56.273394,121.17394 72.608714,92.891892 70.170606,91.485291 53.844664,119.76734 z M 72.843147,101.9504 72.786883,89.769239 62.209248,95.808243 c -0.675168,0.384471 -0.909602,1.247186 -0.525131,1.922354 0.384471,0.675168 1.247186,0.909602 1.922354,0.525131 l 8.477112,-4.848083 -2.100523,-1.219054 0.04689,9.771189 c 0,0.77831 0.628282,1.4066 1.406601,1.4066 0.778319,-0.009 1.4066,-0.63766 1.4066,-1.41598 z"
       id="path3171"
       inkscape:connector-curvature="0" />
    <path
       style="fill:#4a7ebb;fill-opacity:1;fill-rule:nonzero;stroke:#4a7ebb;stroke-width:0.00937734px;stroke-linecap:butt;stroke-linejoin:round;stroke-opacity:1;stroke-dasharray:none"
       d="m 131.40461,176.75341 -58.974066,34.05848 1.406601,2.42873 58.974065,-34.0491 z m -2.91635,10.39946 6.039,-10.57763 -12.18116,-0.0563 c -0.77831,0 -1.4066,0.62828 -1.41597,1.4066 0,0.77831 0.62828,1.4066 1.4066,1.4066 l 0,0 9.77118,0.0469 -1.21905,-2.10052 -4.84809,8.47711 c -0.38447,0.67517 -0.15003,1.53788 0.52514,1.92236 0.67516,0.38447 1.53788,0.15003 1.92235,-0.52514 z"
       id="path3173"
       inkscape:connector-curvature="0" />
    <path
       style="fill:#4a7ebb;fill-opacity:1;fill-rule:nonzero;stroke:#4a7ebb;stroke-width:0.00937734px;stroke-linecap:butt;stroke-linejoin:round;stroke-opacity:1;stroke-dasharray:none"
       d="m 248.00241,109.00216 -58.98345,34.0491 1.4066,2.43811 58.98345,-34.04911 z m -54.65112,26.08774 -6.039,10.57764 12.18116,0.0563 c 0.76894,0 1.4066,-0.62828 1.4066,-1.39722 0.009,-0.77832 -0.6189,-1.41598 -1.39722,-1.41598 l -9.77119,-0.0469 1.21906,2.1099 4.8387,-8.48649 c 0.39385,-0.67517 0.15942,-1.53789 -0.51575,-1.92236 -0.67517,-0.38447 -1.53789,-0.15003 -1.92236,0.52513 z"
       id="path3175"
       inkscape:connector-curvature="0" />
    <path
       style="fill:#4a7ebb;fill-opacity:1;fill-rule:nonzero;stroke:#4a7ebb;stroke-width:0.00937734px;stroke-linecap:butt;stroke-linejoin:round;stroke-opacity:1;stroke-dasharray:none"
       d="m 245.59243,211.6371 -58.98344,-34.05849 1.4066,-2.4381 58.98344,34.05848 z m -2.92573,-10.39947 6.04839,10.57764 -12.18116,0.0469 0,0 c -0.77832,0.009 -1.41598,-0.61891 -1.41598,-1.39723 0,-0.77832 0.62828,-1.4066 1.39722,-1.41598 l 9.77119,-0.0375 -1.20968,2.10053 -4.84808,-8.48649 c -0.38447,-0.66579 -0.15004,-1.52851 0.52513,-1.91298 0.67517,-0.38447 1.5285,-0.15003 1.91297,0.52513 z"
       id="path3177"
       inkscape:connector-curvature="0" />
    <path
       style="fill:#ff0000;fill-opacity:1;fill-rule:nonzero;stroke:#ff0000;stroke-width:0.00937734px;stroke-linecap:butt;stroke-linejoin:round;stroke-opacity:1;stroke-dasharray:none"
       d="m 70.170606,230.98254 -16.325942,-28.28204 2.42873,-1.4066 16.33532,28.28204 z m 2.672541,-10.4651 -0.05626,12.18116 -10.577635,-6.04839 c -0.675168,-0.38447 -0.909602,-1.2378 -0.525131,-1.91297 0.384471,-0.67517 1.247186,-0.9096 1.922354,-0.52513 l 8.477112,4.84808 -2.100523,1.20968 0.04689,-9.76181 c 0,-0.77832 0.628282,-1.4066 1.406601,-1.4066 0.778319,0.009 1.4066,0.63766 1.4066,1.41598 z"
       id="path3179"
       inkscape:connector-curvature="0" />
    <path
       style="fill:#ff0000;fill-opacity:1;fill-rule:nonzero;stroke:#ff0000;stroke-width:0.00937734px;stroke-linecap:butt;stroke-linejoin:round;stroke-opacity:1;stroke-dasharray:none"
       d="m 265.55678,120.95826 -16.32594,-28.291424 2.43811,-1.406601 16.32594,28.291425 z m -16.56037,-19.23292 0.0563,-12.181157 10.57764,6.048382 c 0.67516,0.38447 0.9096,1.247185 0.52513,1.922353 -0.38447,0.675169 -1.24719,0.900225 -1.92236,0.515754 l 0,0 -8.48649,-4.848083 2.1099,-1.209676 -0.0469,9.771187 c 0,0.77832 -0.63766,1.4066 -1.41598,1.39722 -0.76894,0 -1.39722,-0.63766 -1.39722,-1.41598 z"
       id="path3181"
       inkscape:connector-curvature="0" />
    <path
       style="fill:#ff0000;fill-opacity:1;fill-rule:nonzero;stroke:#ff0000;stroke-width:0.00937734px;stroke-linecap:butt;stroke-linejoin:round;stroke-opacity:1;stroke-dasharray:none"
       d="m 251.66895,230.76686 16.32594,-28.29142 -2.43811,-1.4066 -16.32594,28.29142 z m -2.67254,-10.4651 0.0563,12.18116 10.57764,-6.04838 c 0.67516,-0.38448 0.9096,-1.24719 0.52513,-1.92236 -0.38447,-0.67517 -1.24719,-0.90022 -1.92236,-0.51575 l 0,0 -8.48649,4.84808 2.1099,1.20968 -0.0469,-9.77119 c 0,-0.77832 -0.63766,-1.4066 -1.41598,-1.39722 -0.76894,0 -1.39722,0.63766 -1.39722,1.41598 z"
       id="path3183"
       inkscape:connector-curvature="0" />
    <text
       xml:space="preserve"
       x="256.33069"
       y="138.07928"
       style="font-size:13.20328903px;font-style:normal;font-weight:normal;text-align:start;text-anchor:start;fill:#000000;font-family:Calibri"
       id="text3185">L1</text>
    <text
       xml:space="preserve"
       x="180.82555"
       y="56.513092"
       style="font-size:13.20328903px;font-style:normal;font-weight:normal;text-align:start;text-anchor:start;fill:#000000;font-family:Calibri"
       id="text3187">L2</text>
    <text
       xml:space="preserve"
       x="75.503456"
       y="88.233986"
       style="font-size:13.20328903px;font-style:normal;font-weight:normal;text-align:start;text-anchor:start;fill:#000000;font-family:Calibri"
       id="text3189">L3</text>
    <text
       xml:space="preserve"
       x="50.7337"
       y="193.24046"
       style="font-size:13.20328903px;font-style:normal;font-weight:normal;text-align:start;text-anchor:start;fill:#000000;font-family:Calibri"
       id="text3191">L4</text>
    <text
       xml:space="preserve"
       x="127.15815"
       y="269.08368"
       style="font-size:13.20328903px;font-style:normal;font-weight:normal;text-align:start;text-anchor:start;fill:#000000;font-family:Calibri"
       id="text3193">L5</text>
    <text
       xml:space="preserve"
       x="231.85815"
       y="241.78722"
       style="font-size:13.20328903px;font-style:normal;font-weight:normal;text-align:start;text-anchor:start;fill:#000000;font-family:Calibri"
       id="text3195">L6</text>
    <text
       xml:space="preserve"
       x="324.4202"
       y="152.64275"
       style="font-size:13.20328903px;font-style:normal;font-weight:normal;text-align:start;text-anchor:start;fill:#000000;font-family:Calibri"
       id="text3197">PS V+</text>
    <path
       style="fill:none;stroke:#4a7ebb;stroke-width:0.93773359px;stroke-linecap:butt;stroke-linejoin:round;stroke-opacity:1;stroke-dasharray:none"
       d="m 315.35981,148.27444 c -24.2873,0 -48.5746,-14.00974 -48.5746,-28.01948"
       id="path3199"
       inkscape:connector-curvature="0" />
    <path
       style="fill:none;stroke:#4a7ebb;stroke-width:0.93773359px;stroke-linecap:butt;stroke-linejoin:round;stroke-opacity:1;stroke-dasharray:none"
       d="m 72.777506,232.68922 c 0,33.57086 54.219754,67.1511 108.430134,67.1511 54.21038,0 108.42076,-24.00598 108.42076,-48.01196 0,-24.00598 -5.71079,-48.00258 -11.42159,-48.00258 -5.72018,0 -11.43097,-1.02213 -11.43097,-2.05364"
       id="path3201"
       inkscape:connector-curvature="0" />
    <text
       xml:space="preserve"
       x="324.42029"
       y="184.50581"
       style="font-size:13.20328903px;font-style:normal;font-weight:normal;text-align:start;text-anchor:start;fill:#000000;font-family:Calibri"
       id="text3203">PS V</text>
    <text
       xml:space="preserve"
       x="347.67609"
       y="184.50581"
       style="font-size:13.20328903px;font-style:normal;font-weight:normal;text-align:start;text-anchor:start;fill:#000000;font-family:Calibri"
       id="text3205">-</text>
    <path
       style="fill:none;stroke:#4a7ebb;stroke-width:0.93773359px;stroke-linecap:butt;stroke-linejoin:round;stroke-opacity:1;stroke-dasharray:none"
       d="m 249.06205,232.48292 c 0,11.2528 10.72767,22.5056 21.43659,22.5056 10.72767,0 21.45534,-18.71716 21.45534,-37.43432 0,-18.69841 11.70292,-37.41557 23.40583,-37.41557"
       id="path3207"
       inkscape:connector-curvature="0" />
    <text
       xml:space="preserve"
       x="167.55128"
       y="176.08894"
       style="font-size:13.20328903px;font-style:italic;font-weight:normal;text-align:start;text-anchor:start;fill:#000000;font-family:Calibri"
       id="text3209">e</text>
    <text
       xml:space="preserve"
       x="173.85286"
       y="172.18797"
       style="font-size:8.70216751px;font-style:italic;font-weight:normal;text-align:start;text-anchor:start;fill:#000000;font-family:Calibri"
       id="text3211">-</text>
    <path
       style="fill:none;stroke:#4a7ebb;stroke-width:0.93773359px;stroke-linecap:butt;stroke-linejoin:round;stroke-opacity:1;stroke-dasharray:none"
       d="m 55.063718,201.9972 c 0,-0.60015 -5.504497,-1.19092 -10.999616,-1.19092 -5.495118,0 -10.990237,-31.33906 -10.990237,-62.67812 0,-31.33906 9.930598,-62.678114 19.85182,-62.678114 9.930599,0 19.851821,7.164285 19.851821,14.319193"
       id="path3213"
       inkscape:connector-curvature="0" />
    <path
       style="fill:none;stroke:#4a7ebb;stroke-width:0.93773359px;stroke-linecap:butt;stroke-linejoin:round;stroke-opacity:1;stroke-dasharray:none"
       d="m 249.05267,89.55356 c 0,-36.177763 -54.95119,-72.355526 -109.91176,-72.355526 -54.951186,0 -109.911753,29.032233 -109.911753,58.055088 0,29.022858 6.460984,58.045708 12.912592,58.045708 6.460984,0 12.921969,-6.41409 12.921969,-12.82819"
       id="path3215"
       inkscape:connector-curvature="0" />
  </g>
  <g
     style="font-size:40px;font-style:normal;font-weight:normal;text-align:center;line-height:125%;letter-spacing:0px;word-spacing:0px;text-anchor:middle;fill:#000000;fill-opacity:1;stroke:none;font-family:Sans"
     id="text3347">
    <path
       d="m 101.11719,171.90033 c 0.52733,0.36328 1.01366,0.62891 1.45898,0.79687 l -0.33398,0.79102 c -0.6172,-0.22266 -1.23243,-0.57422 -1.84571,-1.05469 -0.63672,0.35547 -1.339845,0.53321 -2.109371,0.53321 -0.777347,0 -1.482425,-0.1875 -2.115234,-0.5625 -0.632814,-0.375 -1.120119,-0.90235 -1.461914,-1.58204 -0.341798,-0.67968 -0.512696,-1.4453 -0.512695,-2.29687 -10e-7,-0.84765 0.171874,-1.61914 0.515625,-2.31445 0.343748,-0.69531 0.833006,-1.22461 1.467773,-1.58789 0.634763,-0.36328 1.344723,-0.54492 2.129883,-0.54493 0.792963,1e-5 1.507806,0.18849 2.144533,0.56543 0.63671,0.37696 1.12206,0.90431 1.45605,1.58203 0.33398,0.67775 0.50097,1.44239 0.50098,2.29395 -1e-5,0.70704 -0.10743,1.34278 -0.32227,1.90723 -0.21485,0.56445 -0.53907,1.05566 -0.97265,1.47363 z m -2.501956,-1.45313 c 0.656245,0.1836 1.19726,0.45704 1.623046,0.82032 0.66796,-0.60938 1.00195,-1.52539 1.00195,-2.74805 0,-0.69531 -0.11817,-1.30273 -0.35449,-1.82227 -0.23633,-0.51952 -0.58204,-0.92284 -1.037107,-1.20996 -0.455084,-0.2871 -0.965826,-0.43065 -1.532227,-0.43066 -0.84766,1e-5 -1.550784,0.29005 -2.109375,0.87012 -0.558595,0.58008 -0.837892,1.44629 -0.83789,2.59863 -2e-6,1.11719 0.276365,1.97461 0.829101,2.57227 0.552731,0.59765 1.258785,0.89648 2.118164,0.89648 0.406245,0 0.789057,-0.0762 1.148438,-0.22852 -0.355474,-0.23046 -0.730474,-0.39453 -1.125,-0.49218 z"
       style="font-size:12px"
       id="path4200" />
    <path
       d="m 107.87891,172.82025 0,-0.91406 c -0.48438,0.70312 -1.14259,1.05469 -1.97461,1.05469 -0.36719,0 -0.70997,-0.0703 -1.02832,-0.21094 -0.31836,-0.14063 -0.55469,-0.31738 -0.70899,-0.53027 -0.1543,-0.21289 -0.26269,-0.47364 -0.32519,-0.78223 -0.043,-0.20703 -0.0645,-0.53516 -0.0645,-0.98438 l 0,-3.85546 1.05469,0 0,3.45117 c 0,0.55078 0.0215,0.92187 0.0644,1.11328 0.0664,0.27734 0.20703,0.49512 0.42188,0.65332 0.21484,0.1582 0.48047,0.2373 0.79687,0.2373 0.31641,0 0.61328,-0.0811 0.89063,-0.24316 0.27734,-0.16211 0.47363,-0.38281 0.58887,-0.66211 0.11523,-0.2793 0.17284,-0.68457 0.17285,-1.21582 l 0,-3.33398 1.05469,0 0,6.22265 z"
       style="font-size:12px"
       id="path4202" />
    <path
       d="m 114.54102,172.05267 c -0.39063,0.33204 -0.76661,0.56641 -1.12793,0.70313 -0.36134,0.13672 -0.74903,0.20508 -1.16309,0.20508 -0.6836,0 -1.20899,-0.167 -1.57617,-0.50098 -0.36719,-0.33398 -0.55078,-0.76074 -0.55078,-1.28027 0,-0.30469 0.0693,-0.58301 0.208,-0.83496 0.13868,-0.25195 0.32032,-0.4541 0.54493,-0.60645 0.2246,-0.15234 0.47753,-0.26757 0.75879,-0.3457 0.20702,-0.0547 0.51952,-0.10742 0.9375,-0.15821 0.85155,-0.10155 1.47851,-0.22265 1.88086,-0.36328 0.004,-0.14452 0.006,-0.23632 0.006,-0.27539 0,-0.42968 -0.0996,-0.73241 -0.29882,-0.9082 -0.26954,-0.23828 -0.66993,-0.35742 -1.20118,-0.35742 -0.49609,0 -0.8623,0.0869 -1.09863,0.26074 -0.23633,0.17383 -0.41113,0.48145 -0.52441,0.92285 l -1.03125,-0.14062 c 0.0937,-0.44141 0.24804,-0.79785 0.46289,-1.06934 0.21484,-0.27148 0.52539,-0.48046 0.93164,-0.62695 0.40625,-0.14648 0.87695,-0.21972 1.41211,-0.21973 0.53124,10e-6 0.96288,0.0625 1.29492,0.1875 0.33203,0.12501 0.57617,0.28223 0.73242,0.47168 0.15625,0.18946 0.26562,0.42872 0.32813,0.71777 0.0351,0.1797 0.0527,0.50391 0.0527,0.97266 l 0,1.40625 c 0,0.98047 0.0225,1.60059 0.0674,1.86035 0.0449,0.25977 0.13379,0.50879 0.26661,0.74707 l -1.10157,0 c -0.10938,-0.21875 -0.17969,-0.47461 -0.21093,-0.76758 z m -0.0879,-2.35547 c -0.38282,0.15626 -0.95704,0.28907 -1.72266,0.39844 -0.4336,0.0625 -0.74024,0.13282 -0.91992,0.21094 -0.17969,0.0781 -0.31836,0.19238 -0.41602,0.34277 -0.0977,0.1504 -0.14648,0.31739 -0.14648,0.50098 0,0.28125 0.10644,0.51563 0.31933,0.70312 0.21289,0.18751 0.52441,0.28126 0.93457,0.28125 0.40625,1e-5 0.76758,-0.0889 1.08399,-0.2666 0.3164,-0.17773 0.54882,-0.42089 0.69726,-0.72949 0.11328,-0.23828 0.16992,-0.58984 0.16993,-1.05469 z"
       style="font-size:12px"
       id="path4204" />
    <path
       d="m 121.19727,172.82025 0,-0.78515 c -0.39454,0.61718 -0.97462,0.92578 -1.74024,0.92578 -0.4961,0 -0.95215,-0.13672 -1.36816,-0.41016 -0.41602,-0.27344 -0.73829,-0.65527 -0.9668,-1.14551 -0.22852,-0.49023 -0.34277,-1.05371 -0.34277,-1.69043 0,-0.62109 0.10351,-1.18456 0.31054,-1.69043 0.20703,-0.50585 0.51758,-0.89355 0.93164,-1.16308 0.41406,-0.26953 0.87695,-0.40429 1.38868,-0.4043 0.37499,10e-6 0.70898,0.0791 1.00195,0.2373 0.29296,0.15821 0.53124,0.36427 0.71484,0.61817 l 0,-3.08203 1.04883,0 0,8.58984 z m -3.33399,-3.10547 c 0,0.79688 0.16797,1.39258 0.50391,1.78711 0.33593,0.39453 0.73242,0.5918 1.18945,0.5918 0.46093,0 0.85254,-0.18848 1.17481,-0.56543 0.32226,-0.37695 0.48339,-0.95215 0.48339,-1.72559 0,-0.85156 -0.16406,-1.47655 -0.49218,-1.875 -0.32813,-0.39843 -0.73243,-0.59765 -1.21289,-0.59765 -0.46876,0 -0.86036,0.19141 -1.17481,0.57422 -0.31445,0.38281 -0.47168,0.98633 -0.47168,1.81054 z"
       style="font-size:12px"
       id="path4206" />
    <path
       d="m 123.82813,172.82025 0,-6.22265 0.94921,0 0,0.94335 c 0.24219,-0.4414 0.46582,-0.73241 0.6709,-0.87304 0.20508,-0.14062 0.43066,-0.21093 0.67676,-0.21094 0.35547,10e-6 0.71679,0.11329 1.08398,0.33984 l -0.36328,0.97852 c -0.25781,-0.15234 -0.51563,-0.22851 -0.77343,-0.22852 -0.23048,1e-5 -0.43751,0.0694 -0.6211,0.20801 -0.18359,0.13868 -0.31445,0.33106 -0.39258,0.57715 -0.11719,0.375 -0.17578,0.78516 -0.17578,1.23047 l 0,3.25781 z"
       style="font-size:12px"
       id="path4208" />
    <path
       d="m 131.92578,172.82025 0,-0.91406 c -0.48438,0.70312 -1.14258,1.05469 -1.97461,1.05469 -0.36719,0 -0.70996,-0.0703 -1.02832,-0.21094 -0.31836,-0.14063 -0.55469,-0.31738 -0.70898,-0.53027 -0.1543,-0.21289 -0.2627,-0.47364 -0.3252,-0.78223 -0.043,-0.20703 -0.0645,-0.53516 -0.0645,-0.98438 l 0,-3.85546 1.05469,0 0,3.45117 c -1e-5,0.55078 0.0215,0.92187 0.0645,1.11328 0.0664,0.27734 0.20703,0.49512 0.42187,0.65332 0.21485,0.1582 0.48047,0.2373 0.79688,0.2373 0.3164,0 0.61328,-0.0811 0.89062,-0.24316 0.27734,-0.16211 0.47363,-0.38281 0.58887,-0.66211 0.11523,-0.2793 0.17285,-0.68457 0.17285,-1.21582 l 0,-3.33398 1.05469,0 0,6.22265 z"
       style="font-size:12px"
       id="path4210" />
    <path
       d="m 134.52734,175.20502 0,-8.60742 0.96094,0 0,0.80859 c 0.22656,-0.3164 0.48242,-0.55371 0.76758,-0.71192 0.28515,-0.15819 0.63086,-0.23729 1.03711,-0.2373 0.53124,10e-6 0.99999,0.13673 1.40625,0.41016 0.40624,0.27344 0.71288,0.65918 0.91992,1.15722 0.20703,0.49805 0.31054,1.04395 0.31055,1.6377 -1e-5,0.63672 -0.11427,1.20996 -0.34278,1.71972 -0.22852,0.50977 -0.56055,0.9004 -0.99609,1.17188 -0.43555,0.27148 -0.89356,0.40723 -1.37402,0.40723 -0.35157,0 -0.667,-0.0742 -0.94629,-0.22266 -0.2793,-0.14844 -0.50879,-0.33594 -0.68848,-0.5625 l 0,3.0293 z m 0.95508,-5.46094 c 0,0.80078 0.16211,1.39258 0.48633,1.77539 0.32422,0.38281 0.71679,0.57422 1.17773,0.57422 0.46875,0 0.87012,-0.19824 1.20411,-0.59473 0.33398,-0.39648 0.50097,-1.01074 0.50097,-1.84277 0,-0.79297 -0.16309,-1.38672 -0.48926,-1.78125 -0.32617,-0.39453 -0.71582,-0.59179 -1.16894,-0.5918 -0.44922,1e-5 -0.84668,0.20997 -1.19238,0.62988 -0.34571,0.41993 -0.51856,1.03028 -0.51856,1.83106 z"
       style="font-size:12px"
       id="path4212" />
    <path
       d="m 140.81445,169.70892 c 0,-1.15234 0.32031,-2.00585 0.96094,-2.56054 0.53515,-0.46093 1.1875,-0.6914 1.95703,-0.69141 0.85547,10e-6 1.55468,0.28028 2.09766,0.84082 0.54296,0.56055 0.81445,1.33497 0.81445,2.32324 0,0.80079 -0.12012,1.43067 -0.36035,1.88965 -0.24024,0.45899 -0.58985,0.81543 -1.04883,1.06934 -0.45899,0.2539 -0.95996,0.38086 -1.50293,0.38086 -0.87109,0 -1.5752,-0.2793 -2.1123,-0.83789 -0.53711,-0.5586 -0.80567,-1.36328 -0.80567,-2.41407 z m 1.08399,0 c 0,0.79688 0.17382,1.39356 0.52148,1.79004 0.34766,0.39649 0.78516,0.59473 1.3125,0.59473 0.52344,0 0.95898,-0.19922 1.30664,-0.59766 0.34765,-0.39843 0.52148,-1.00585 0.52149,-1.82226 -1e-5,-0.76953 -0.17481,-1.35254 -0.52442,-1.74903 -0.34961,-0.39648 -0.78418,-0.59472 -1.30371,-0.59472 -0.52734,0 -0.96484,0.19727 -1.3125,0.59179 -0.34766,0.39454 -0.52148,0.99024 -0.52148,1.78711 z"
       style="font-size:12px"
       id="path4214" />
    <path
       d="m 147.86328,172.82025 0,-8.58984 1.05469,0 0,8.58984 z"
       style="font-size:12px"
       id="path4216" />
    <path
       d="m 154.81836,170.81635 1.08984,0.13476 c -0.17188,0.63672 -0.49024,1.13086 -0.95508,1.48242 -0.46484,0.35157 -1.05859,0.52735 -1.78125,0.52735 -0.91015,0 -1.63183,-0.28028 -2.16503,-0.84082 -0.53321,-0.56055 -0.79981,-1.34668 -0.79981,-2.3584 0,-1.04687 0.26953,-1.85937 0.80859,-2.4375 0.53907,-0.57812 1.23828,-0.86718 2.09766,-0.86719 0.83203,10e-6 1.51172,0.28321 2.03906,0.84961 0.52734,0.56641 0.79101,1.36328 0.79102,2.39062 -1e-5,0.0625 -0.002,0.15626 -0.006,0.28125 l -4.64063,0 c 0.0391,0.6836 0.23243,1.20704 0.58008,1.57032 0.34766,0.36328 0.78125,0.54492 1.30078,0.54492 0.38672,0 0.7168,-0.10156 0.99024,-0.30469 0.27343,-0.20312 0.49023,-0.52734 0.65039,-0.97265 z m -3.46289,-1.70508 3.47461,0 c -0.0469,-0.52344 -0.17969,-0.91601 -0.39844,-1.17774 -0.33594,-0.40624 -0.77149,-0.60937 -1.30664,-0.60937 -0.48438,0 -0.8916,0.16211 -1.22168,0.48633 -0.33008,0.32422 -0.5127,0.75781 -0.54785,1.30078 z"
       style="font-size:12px"
       id="path4218" />
    <path
       d="m 94.040207,187.3832 0,0.2168 -3.404297,0 0,-0.2168 0.28125,0 c 0.328124,0 0.566405,-0.0957 0.714844,-0.28711 0.09375,-0.125 0.140623,-0.42578 0.140625,-0.90234 l 0,-5.13281 c -2e-6,-0.40234 -0.02539,-0.66796 -0.07617,-0.79688 -0.03906,-0.0976 -0.119142,-0.18163 -0.240234,-0.25195 -0.171876,-0.0937 -0.351564,-0.14062 -0.539063,-0.14063 l -0.28125,0 0,-0.21679 3.404297,0 0,0.21679 -0.287109,0 c -0.324222,1e-5 -0.56055,0.0957 -0.708985,0.28711 -0.09766,0.12501 -0.146487,0.42579 -0.146484,0.90235 l 0,5.13281 c -3e-6,0.40234 0.02539,0.66797 0.07617,0.79687 0.03906,0.0977 0.121091,0.18165 0.246093,0.25196 0.167966,0.0937 0.3457,0.14062 0.533204,0.14062 z"
       style="font-size:12px;font-variant:normal;font-stretch:normal;font-family:Serif;-inkscape-font-specification:Serif"
       id="path4220" />
    <path
       d="m 103.86638,183.77383 -6.304689,2.73047 0,-0.50391 5.431639,-2.35547 -5.431639,-2.3789 0,-0.53321 6.304689,2.75391 z"
       style="font-size:12px;font-variant:normal;font-stretch:normal;font-family:Serif;-inkscape-font-specification:Serif"
       id="path4222" />
    <path
       d="m 107.55193,183.67422 c 0,-0.90625 0.13671,-1.68652 0.41015,-2.34082 0.27344,-0.65429 0.63672,-1.1416 1.08985,-1.46192 0.35156,-0.25389 0.71484,-0.38085 1.08984,-0.38086 0.60937,1e-5 1.15625,0.31056 1.64062,0.93165 0.60547,0.76953 0.9082,1.8125 0.90821,3.1289 -1e-5,0.92188 -0.13282,1.70508 -0.39844,2.34961 -0.26563,0.64453 -0.6045,1.11231 -1.0166,1.40332 -0.41211,0.29102 -0.80958,0.43652 -1.19238,0.43652 -0.75782,0 -1.38868,-0.44726 -1.89258,-1.34179 -0.42578,-0.75391 -0.63867,-1.66211 -0.63867,-2.72461 z m 1.14843,0.14648 c 0,1.09376 0.13477,1.98633 0.4043,2.67774 0.22265,0.58203 0.55468,0.87304 0.99609,0.87304 0.21094,0 0.42969,-0.0947 0.65625,-0.28418 0.22656,-0.18945 0.39844,-0.50683 0.51563,-0.95214 0.17968,-0.67188 0.26953,-1.61914 0.26953,-2.8418 0,-0.90625 -0.0937,-1.6621 -0.28125,-2.26758 -0.14063,-0.44921 -0.32227,-0.76757 -0.54492,-0.95508 -0.16016,-0.1289 -0.35352,-0.19335 -0.58008,-0.19336 -0.26563,1e-5 -0.50196,0.11915 -0.70898,0.35743 -0.28126,0.32422 -0.47266,0.83399 -0.57422,1.52929 -0.10157,0.69532 -0.15235,1.38087 -0.15235,2.05664 z"
       style="font-size:12px;font-variant:normal;font-stretch:normal;font-family:Serif;-inkscape-font-specification:Serif"
       id="path4224" />
    <path
       d="m 125.22966,182.46719 c 0.51952,0.56641 0.96874,0.99707 1.34766,1.29199 0.37889,0.29492 0.73631,0.51465 1.07226,0.65918 l 0,0.26367 c -0.38673,0.1875 -0.76173,0.42676 -1.125,0.71777 -0.36329,0.29102 -0.79688,0.71778 -1.30078,1.28028 l -0.45117,0 c 0.36718,-0.78516 0.75194,-1.38867 1.1543,-1.81055 l -9.34571,0 0,-0.5918 9.34571,0 c -0.29689,-0.3789 -0.50392,-0.66015 -0.6211,-0.84375 -0.11719,-0.18359 -0.29102,-0.50585 -0.52148,-0.96679 z"
       style="font-size:12px;font-variant:normal;font-stretch:normal;font-family:Serif;-inkscape-font-specification:Serif"
       id="path4226" />
    <path
       d="m 132.96404,183.15859 c 0.51952,-0.72265 1.08007,-1.08398 1.68164,-1.08398 0.55077,0 1.03124,0.23536 1.4414,0.70605 0.41015,0.47071 0.61523,1.11427 0.61524,1.93067 -10e-6,0.95312 -0.31642,1.7207 -0.94922,2.30273 -0.54298,0.5 -1.14844,0.75 -1.81641,0.75 -0.3125,0 -0.62988,-0.0566 -0.95215,-0.16992 -0.32226,-0.11328 -0.65137,-0.2832 -0.9873,-0.50977 l 0,-5.56054 c 0,-0.60937 -0.0147,-0.98437 -0.0439,-1.125 -0.0293,-0.14062 -0.0752,-0.23632 -0.13769,-0.28711 -0.0625,-0.0508 -0.14063,-0.0762 -0.23438,-0.0762 -0.10937,0 -0.24609,0.0312 -0.41015,0.0937 l -0.082,-0.20508 1.61132,-0.65625 0.26368,0 z m 0,0.375 0,3.21094 c 0.19921,0.19531 0.40527,0.34277 0.61816,0.44238 0.21289,0.0996 0.43066,0.14942 0.65332,0.14942 0.35546,0 0.68652,-0.19531 0.99316,-0.58594 0.30664,-0.39062 0.45996,-0.95898 0.45996,-1.70508 0,-0.68749 -0.15332,-1.21581 -0.45996,-1.58496 -0.30664,-0.36913 -0.65527,-0.55371 -1.04589,-0.55371 -0.20704,0 -0.41407,0.0527 -0.6211,0.1582 -0.15625,0.0781 -0.35547,0.23438 -0.59765,0.46875 z"
       style="font-size:12px;font-variant:normal;font-stretch:normal;font-family:Serif;-inkscape-font-specification:Serif"
       id="path4228" />
    <path
       d="M 140.69465,189.00594 140.33283,190 l -3.04692,0 0,-0.14092 c 0.8963,-0.81759 1.52727,-1.48537 1.8929,-2.00335 0.36563,-0.51797 0.54844,-0.99151 0.54845,-1.42062 -1e-5,-0.32754 -0.1003,-0.59669 -0.30089,-0.80744 -0.20059,-0.21074 -0.44053,-0.31611 -0.71983,-0.31612 -0.25391,10e-6 -0.4818,0.0743 -0.68365,0.22281 -0.20186,0.14854 -0.35104,0.36627 -0.44752,0.65318 l -0.14092,0 c 0.0635,-0.46973 0.22661,-0.83028 0.48941,-1.08165 0.2628,-0.25137 0.59097,-0.37705 0.98454,-0.37706 0.41895,1e-5 0.76871,0.13458 1.04928,0.40372 0.28057,0.26915 0.42085,0.58653 0.42085,0.95216 0,0.26153 -0.0609,0.52306 -0.18281,0.78458 -0.1879,0.41134 -0.49259,0.84679 -0.91408,1.30637 -0.63223,0.69063 -1.02706,1.10705 -1.18449,1.24923 l 1.34827,0 c 0.27422,0 0.46655,-0.0102 0.57701,-0.0305 0.11044,-0.0203 0.2101,-0.0616 0.29897,-0.12378 0.0889,-0.0622 0.16631,-0.15044 0.23233,-0.2647 z"
       style="font-size:65.00091553%;baseline-shift:sub"
       id="path4230" />
    <path
       d="m 144.23518,183.46328 6.30469,-2.73047 0,0.50977 -5.42578,2.35547 5.42578,2.3789 0,0.52735 -6.30469,-2.75391 z"
       style="font-size:12px;font-variant:normal;font-stretch:normal;font-family:Serif;-inkscape-font-specification:Serif"
       id="path4232" />
    <path
       d="m 154.22542,183.67422 c 0,-0.90625 0.13672,-1.68652 0.41015,-2.34082 0.27344,-0.65429 0.63672,-1.1416 1.08985,-1.46192 0.35156,-0.25389 0.71484,-0.38085 1.08984,-0.38086 0.60937,1e-5 1.15625,0.31056 1.64063,0.93165 0.60546,0.76953 0.90819,1.8125 0.9082,3.1289 -1e-5,0.92188 -0.13282,1.70508 -0.39844,2.34961 -0.26563,0.64453 -0.60449,1.11231 -1.0166,1.40332 -0.41211,0.29102 -0.80957,0.43652 -1.19238,0.43652 -0.75782,0 -1.38868,-0.44726 -1.89258,-1.34179 -0.42578,-0.75391 -0.63867,-1.66211 -0.63867,-2.72461 z m 1.14844,0.14648 c -1e-5,1.09376 0.13476,1.98633 0.40429,2.67774 0.22266,0.58203 0.55469,0.87304 0.9961,0.87304 0.21093,0 0.42968,-0.0947 0.65625,-0.28418 0.22655,-0.18945 0.39843,-0.50683 0.51562,-0.95214 0.17968,-0.67188 0.26953,-1.61914 0.26953,-2.8418 0,-0.90625 -0.0937,-1.6621 -0.28125,-2.26758 -0.14063,-0.44921 -0.32227,-0.76757 -0.54492,-0.95508 -0.16016,-0.1289 -0.35352,-0.19335 -0.58008,-0.19336 -0.26563,1e-5 -0.50195,0.11915 -0.70898,0.35743 -0.28125,0.32422 -0.47266,0.83399 -0.57422,1.52929 -0.10156,0.69532 -0.15235,1.38087 -0.15234,2.05664 z"
       style="font-size:12px;font-variant:normal;font-stretch:normal;font-family:Serif;-inkscape-font-specification:Serif"
       id="path4234" />
  </g>
</svg>
