<?xml version="1.0" encoding="UTF-8" standalone="no"?>
<svg
   xmlns:dc="http://purl.org/dc/elements/1.1/"
   xmlns:cc="http://creativecommons.org/ns#"
   xmlns:rdf="http://www.w3.org/1999/02/22-rdf-syntax-ns#"
   xmlns:svg="http://www.w3.org/2000/svg"
   xmlns="http://www.w3.org/2000/svg"
   xmlns:sodipodi="http://sodipodi.sourceforge.net/DTD/sodipodi-0.dtd"
   xmlns:inkscape="http://www.inkscape.org/namespaces/inkscape"
   version="1.0"
   width="250"
   height="200"
   id="svg3221"
   inkscape:version="0.48.4 r9939"
   sodipodi:docname="sextupole.svg">
  <metadata
     id="metadata3343">
    <rdf:RDF>
      <cc:Work
         rdf:about="">
        <dc:format>image/svg+xml</dc:format>
        <dc:type
           rdf:resource="http://purl.org/dc/dcmitype/StillImage" />
        <dc:title />
      </cc:Work>
    </rdf:RDF>
  </metadata>
  <sodipodi:namedview
     pagecolor="#ffffff"
     bordercolor="#666666"
     borderopacity="1"
     objecttolerance="10"
     gridtolerance="10"
     guidetolerance="10"
     inkscape:pageopacity="0"
     inkscape:pageshadow="2"
     inkscape:window-width="1100"
     inkscape:window-height="800"
     id="namedview3341"
     showgrid="false"
     inkscape:zoom="2.3197368"
     inkscape:cx="135.9456"
     inkscape:cy="95.073823"
     inkscape:window-x="99"
     inkscape:window-y="46"
     inkscape:window-maximized="0"
     inkscape:current-layer="svg3221" />
  <defs
     id="defs3223" />
  <g
     id="g3225"
     transform="matrix(0.5,0,0,0.5,45.101885,0.826891)">
    <path
       style="fill:none;stroke:#000000;stroke-width:0.62828153px;stroke-linecap:butt;stroke-linejoin:round;stroke-opacity:1;stroke-dasharray:none"
       d="m 153.63828,161.46835 c 0,-3.91973 3.17891,-7.08927 7.08926,-7.08927 3.91973,0 7.08927,3.16954 7.08927,7.08927 0,3.91035 -3.16954,7.08927 -7.08927,7.08927 -3.91035,0 -7.08926,-3.17892 -7.08926,-7.08927"
       id="path3227"
       inkscape:connector-curvature="0" />
    <path
       style="fill:#000000;fill-opacity:1;fill-rule:evenodd;stroke:none"
       d="m 158.47698,161.46835 c 0,-1.24718 1.01275,-2.25056 2.25056,-2.25056 1.24719,0 2.25056,1.00338 2.25056,2.25056 0,1.23781 -1.00337,2.25056 -2.25056,2.25056 -1.23781,0 -2.25056,-1.01275 -2.25056,-2.25056"
       id="path3229"
       inkscape:connector-curvature="0" />
    <path
       style="fill:none;stroke:#000000;stroke-width:0.62828153px;stroke-linecap:butt;stroke-linejoin:round;stroke-opacity:1;stroke-dasharray:none"
       d="m 158.47698,161.46835 c 0,-1.24718 1.01275,-2.25056 2.25056,-2.25056 1.24719,0 2.25056,1.00338 2.25056,2.25056 0,1.23781 -1.00337,2.25056 -2.25056,2.25056 -1.23781,0 -2.25056,-1.01275 -2.25056,-2.25056"
       id="path3231"
       inkscape:connector-curvature="0" />
    <path
       style="fill:#bfbfbf;fill-opacity:1;fill-rule:evenodd;stroke:none"
       d="m 67.816895,202.81303 30.692021,-17.71379 c 16.954224,-9.78994 33.073864,-13.60652 36.018344,-8.51462 2.93511,5.08251 -8.43022,17.14177 -25.38444,26.93171 l -30.692026,17.72316 z"
       id="path3233"
       inkscape:connector-curvature="0" />
    <path
       style="fill:none;stroke:#000000;stroke-width:0.30945209px;stroke-linecap:butt;stroke-linejoin:round;stroke-opacity:1;stroke-dasharray:none"
       d="m 67.816895,202.81303 30.692021,-17.71379 c 16.954224,-9.78994 33.073864,-13.60652 36.018344,-8.51462 2.93511,5.08251 -8.43022,17.14177 -25.38444,26.93171 l -30.692026,17.72316 z"
       id="path3235"
       inkscape:connector-curvature="0" />
    <path
       style="fill:#fac090;fill-opacity:1;fill-rule:evenodd;stroke:none"
       d="m 47.618113,210.38054 c -0.975243,-1.6973 -0.393848,-3.86347 1.30345,-4.83871 l 12.274933,-7.08927 c 1.697297,-0.98462 3.863462,-0.40322 4.848082,1.29408 l 14.178533,24.55924 c 0.975243,1.6973 0.393848,3.86346 -1.30345,4.83871 l -12.274933,7.08926 c -1.697298,0.98462 -3.863463,0.40323 -4.848083,-1.29407 z"
       id="path3237"
       inkscape:connector-curvature="0" />
    <path
       style="fill:none;stroke:#000000;stroke-width:0.30945209px;stroke-linecap:butt;stroke-linejoin:round;stroke-opacity:1;stroke-dasharray:none"
       d="m 47.618113,210.38054 c -0.975243,-1.6973 -0.393848,-3.86347 1.30345,-4.83871 l 12.274933,-7.08927 c 1.697297,-0.98462 3.863462,-0.40322 4.848082,1.29408 l 14.178533,24.55924 c 0.975243,1.6973 0.393848,3.86346 -1.30345,4.83871 l -12.274933,7.08926 c -1.697298,0.98462 -3.863463,0.40323 -4.848083,-1.29407 z"
       id="path3239"
       inkscape:connector-curvature="0" />
    <path
       style="fill:#bfbfbf;fill-opacity:1;fill-rule:evenodd;stroke:none"
       d="m 78.450794,101.22834 30.692026,17.72317 c 16.95422,9.78994 28.31955,21.84919 25.38444,26.93171 -2.94448,5.08251 -19.06412,1.27532 -36.018344,-8.51462 L 67.816895,119.64543 z"
       id="path3241"
       inkscape:connector-curvature="0" />
    <path
       style="fill:none;stroke:#000000;stroke-width:0.30945209px;stroke-linecap:butt;stroke-linejoin:round;stroke-opacity:1;stroke-dasharray:none"
       d="m 78.450794,101.22834 30.692026,17.72317 c 16.95422,9.78994 28.31955,21.84919 25.38444,26.93171 -2.94448,5.08251 -19.06412,1.27532 -36.018344,-8.51462 L 67.816895,119.64543 z"
       id="path3243"
       inkscape:connector-curvature="0" />
    <path
       style="fill:#fac090;fill-opacity:1;fill-rule:evenodd;stroke:none"
       d="m 61.796645,87.528055 c 0.98462,-1.697297 3.150785,-2.278692 4.848083,-1.303449 l 12.274933,7.089266 c 1.697298,0.98462 2.278693,3.150785 1.30345,4.848083 L 66.044578,122.7212 c -0.98462,1.68792 -3.150785,2.26931 -4.848082,1.29407 L 48.921563,116.926 c -1.697298,-0.97524 -2.278693,-3.15078 -1.30345,-4.8387 z"
       id="path3245"
       inkscape:connector-curvature="0" />
    <path
       style="fill:none;stroke:#000000;stroke-width:0.30945209px;stroke-linecap:butt;stroke-linejoin:round;stroke-opacity:1;stroke-dasharray:none"
       d="m 61.796645,87.528055 c 0.98462,-1.697297 3.150785,-2.278692 4.848083,-1.303449 l 12.274933,7.089266 c 1.697298,0.98462 2.278693,3.150785 1.30345,4.848083 L 66.044578,122.7212 c -0.98462,1.68792 -3.150785,2.26931 -4.848082,1.29407 L 48.921563,116.926 c -1.697298,-0.97524 -2.278693,-3.15078 -1.30345,-4.8387 z"
       id="path3247"
       inkscape:connector-curvature="0" />
    <path
       style="fill:#bfbfbf;fill-opacity:1;fill-rule:evenodd;stroke:none"
       d="m 171.74591,59.639858 0,35.44633 c 0,19.579882 -4.76369,35.446332 -10.6339,35.446332 -5.87959,0 -10.6339,-15.86645 -10.6339,-35.446332 l 0,-35.44633 z"
       id="path3249"
       inkscape:connector-curvature="0" />
    <path
       style="fill:none;stroke:#000000;stroke-width:0.30945209px;stroke-linecap:butt;stroke-linejoin:round;stroke-opacity:1;stroke-dasharray:none"
       d="m 171.74591,59.639858 0,35.44633 c 0,19.579882 -4.76369,35.446332 -10.6339,35.446332 -5.87959,0 -10.6339,-15.86645 -10.6339,-35.446332 l 0,-35.44633 z"
       id="path3251"
       inkscape:connector-curvature="0" />
    <path
       style="fill:#fac090;fill-opacity:1;fill-rule:evenodd;stroke:none"
       d="m 175.29054,38.372059 c 1.95049,0 3.54464,1.594148 3.54464,3.544633 l 0,14.178533 c 0,1.959863 -1.59415,3.544633 -3.54464,3.544633 l -28.35706,0 c -1.95986,0 -3.54463,-1.58477 -3.54463,-3.544633 l 0,-14.178533 c 0,-1.950485 1.58477,-3.544633 3.54463,-3.544633 z"
       id="path3253"
       inkscape:connector-curvature="0" />
    <path
       style="fill:none;stroke:#000000;stroke-width:0.30945209px;stroke-linecap:butt;stroke-linejoin:round;stroke-opacity:1;stroke-dasharray:none"
       d="m 175.29054,38.372059 c 1.95049,0 3.54464,1.594148 3.54464,3.544633 l 0,14.178533 c 0,1.959863 -1.59415,3.544633 -3.54464,3.544633 l -28.35706,0 c -1.95986,0 -3.54463,-1.58477 -3.54463,-3.544633 l 0,-14.178533 c 0,-1.950485 1.58477,-3.544633 3.54463,-3.544633 z"
       id="path3255"
       inkscape:connector-curvature="0" />
    <path
       style="fill:#bfbfbf;fill-opacity:1;fill-rule:evenodd;stroke:none"
       d="m 171.36144,262.60292 0,-35.44633 c 0,-19.57988 -4.76369,-35.44633 -10.6339,-35.44633 -5.87021,0 -10.6339,15.86645 -10.6339,35.44633 l 0,35.44633 z"
       id="path3257"
       inkscape:connector-curvature="0" />
    <path
       style="fill:none;stroke:#000000;stroke-width:0.30945209px;stroke-linecap:butt;stroke-linejoin:round;stroke-opacity:1;stroke-dasharray:none"
       d="m 171.36144,262.60292 0,-35.44633 c 0,-19.57988 -4.76369,-35.44633 -10.6339,-35.44633 -5.87021,0 -10.6339,15.86645 -10.6339,35.44633 l 0,35.44633 z"
       id="path3259"
       inkscape:connector-curvature="0" />
    <path
       style="fill:#fac090;fill-opacity:1;fill-rule:evenodd;stroke:none"
       d="m 174.90607,283.87072 c 1.95987,0 3.54464,-1.58477 3.54464,-3.54463 l 0,-14.17854 c 0,-1.95986 -1.58477,-3.54463 -3.54464,-3.54463 l -28.35706,0 c -1.95986,0 -3.54463,1.58477 -3.54463,3.54463 l 0,14.17854 c 0,1.95986 1.58477,3.54463 3.54463,3.54463 z"
       id="path3261"
       inkscape:connector-curvature="0" />
    <path
       style="fill:none;stroke:#000000;stroke-width:0.30945209px;stroke-linecap:butt;stroke-linejoin:round;stroke-opacity:1;stroke-dasharray:none"
       d="m 174.90607,283.87072 c 1.95987,0 3.54464,-1.58477 3.54464,-3.54463 l 0,-14.17854 c 0,-1.95986 -1.58477,-3.54463 -3.54464,-3.54463 l -28.35706,0 c -1.95986,0 -3.54463,1.58477 -3.54463,3.54463 l 0,14.17854 c 0,1.95986 1.58477,3.54463 3.54463,3.54463 z"
       id="path3263"
       inkscape:connector-curvature="0" />
    <path
       style="fill:#bfbfbf;fill-opacity:1;fill-rule:evenodd;stroke:none"
       d="m 254.02266,202.59735 -30.69202,-17.72317 c -16.95423,-9.78994 -33.08324,-13.59714 -36.01835,-8.51462 -2.93511,5.09189 8.43022,17.14177 25.38445,26.93171 l 30.69202,17.72317 z"
       id="path3265"
       inkscape:connector-curvature="0" />
    <path
       style="fill:none;stroke:#000000;stroke-width:0.30945209px;stroke-linecap:butt;stroke-linejoin:round;stroke-opacity:1;stroke-dasharray:none"
       d="m 254.02266,202.59735 -30.69202,-17.72317 c -16.95423,-9.78994 -33.08324,-13.59714 -36.01835,-8.51462 -2.93511,5.09189 8.43022,17.14177 25.38445,26.93171 l 30.69202,17.72317 z"
       id="path3267"
       inkscape:connector-curvature="0" />
    <path
       style="fill:#fac090;fill-opacity:1;fill-rule:evenodd;stroke:none"
       d="m 274.21206,210.16486 c 0.98462,-1.6973 0.40323,-3.86347 -1.29407,-4.84809 l -12.27493,-7.08926 c -1.6973,-0.97524 -3.86346,-0.39385 -4.84809,1.30345 l -14.17853,24.55924 c -0.97524,1.68792 -0.39385,3.86346 1.30345,4.83871 l 12.27494,7.08926 c 1.69729,0.97525 3.86346,0.39385 4.8387,-1.29407 z"
       id="path3269"
       inkscape:connector-curvature="0" />
    <path
       style="fill:none;stroke:#000000;stroke-width:0.30945209px;stroke-linecap:butt;stroke-linejoin:round;stroke-opacity:1;stroke-dasharray:none"
       d="m 274.21206,210.16486 c 0.98462,-1.6973 0.40323,-3.86347 -1.29407,-4.84809 l -12.27493,-7.08926 c -1.6973,-0.97524 -3.86346,-0.39385 -4.84809,1.30345 l -14.17853,24.55924 c -0.97524,1.68792 -0.39385,3.86346 1.30345,4.83871 l 12.27494,7.08926 c 1.69729,0.97525 3.86346,0.39385 4.8387,-1.29407 z"
       id="path3271"
       inkscape:connector-curvature="0" />
    <path
       style="fill:#bfbfbf;fill-opacity:1;fill-rule:evenodd;stroke:none"
       d="m 243.38876,101.01266 -30.69202,17.72317 c -16.95423,9.78056 -28.31956,21.83982 -25.38445,26.93171 2.93511,5.08252 19.06412,1.27532 36.01835,-8.51462 l 30.69202,-17.72317 z"
       id="path3273"
       inkscape:connector-curvature="0" />
    <path
       style="fill:none;stroke:#000000;stroke-width:0.30945209px;stroke-linecap:butt;stroke-linejoin:round;stroke-opacity:1;stroke-dasharray:none"
       d="m 243.38876,101.01266 -30.69202,17.72317 c -16.95423,9.78056 -28.31956,21.83982 -25.38445,26.93171 2.93511,5.08252 19.06412,1.27532 36.01835,-8.51462 l 30.69202,-17.72317 z"
       id="path3275"
       inkscape:connector-curvature="0" />
    <path
       style="fill:#fac090;fill-opacity:1;fill-rule:evenodd;stroke:none"
       d="m 260.03353,87.302999 c -0.97524,-1.68792 -3.14141,-2.269315 -4.8387,-1.294072 l -12.27494,7.089266 c -1.6973,0.975243 -2.27869,3.150785 -1.30345,4.838706 l 14.17853,24.559241 c 0.98463,1.6973 3.15079,2.27869 4.84809,1.30345 l 12.27493,-7.08926 c 1.6973,-0.98462 2.27869,-3.15079 1.29407,-4.84809 z"
       id="path3277"
       inkscape:connector-curvature="0" />
    <path
       style="fill:none;stroke:#000000;stroke-width:0.30945209px;stroke-linecap:butt;stroke-linejoin:round;stroke-opacity:1;stroke-dasharray:none"
       d="m 260.03353,87.302999 c -0.97524,-1.68792 -3.14141,-2.269315 -4.8387,-1.294072 l -12.27494,7.089266 c -1.6973,0.975243 -2.27869,3.150785 -1.30345,4.838706 l 14.17853,24.559241 c 0.98463,1.6973 3.15079,2.27869 4.84809,1.30345 l 12.27493,-7.08926 c 1.6973,-0.98462 2.27869,-3.15079 1.29407,-4.84809 z"
       id="path3279"
       inkscape:connector-curvature="0" />
    <path
       style="fill:#4a7ebb;fill-opacity:1;fill-rule:nonzero;stroke:#4a7ebb;stroke-width:0.00937734px;stroke-linecap:butt;stroke-linejoin:round;stroke-opacity:1;stroke-dasharray:none"
       d="m 73.837145,109.21783 58.974065,34.05849 -1.4066,2.42873 -58.974066,-34.04911 z m 54.651115,26.08775 6.039,10.57764 -12.18116,0.0563 c -0.77831,0.009 -1.4066,-0.6189 -1.41597,-1.39722 0,-0.77832 0.62828,-1.4066 1.4066,-1.41598 l 9.77118,-0.0375 -1.21905,2.10053 -4.84809,-8.48649 c -0.38447,-0.67517 -0.15003,-1.52851 0.52514,-1.91298 0.67516,-0.38447 1.53788,-0.15004 1.92235,0.51575 z"
       id="path3281"
       inkscape:connector-curvature="0" />
    <path
       style="fill:#ff0000;fill-opacity:1;fill-rule:nonzero;stroke:#ff0000;stroke-width:0.00937734px;stroke-linecap:butt;stroke-linejoin:round;stroke-opacity:1;stroke-dasharray:none"
       d="m 71.567829,89.065939 -16.335319,28.291421 2.438107,1.4066 16.325942,-28.291421 z m -16.569753,19.223541 0.05626,12.19053 10.577636,-6.04838 c 0.675168,-0.38447 0.909601,-1.24718 0.52513,-1.92235 -0.38447,-0.67517 -1.247185,-0.9096 -1.922354,-0.51575 l 0,0 -8.477111,4.8387 2.100523,1.21905 -0.04689,-9.77118 c 0,-0.77832 -0.628281,-1.4066 -1.4066,-1.39722 -0.778319,0 -1.406601,0.63766 -1.406601,1.4066 z"
       id="path3283"
       inkscape:connector-curvature="0" />
    <path
       style="fill:#4a7ebb;fill-opacity:1;fill-rule:nonzero;stroke:#4a7ebb;stroke-width:0.00937734px;stroke-linecap:butt;stroke-linejoin:round;stroke-opacity:1;stroke-dasharray:none"
       d="m 76.24712,211.85278 58.98344,-34.04911 -1.4066,-2.43811 -58.98344,34.04911 z m 2.916352,-10.39947 -6.039005,10.57764 12.18116,0.0563 c 0.778319,0 1.4066,-0.62828 1.415978,-1.4066 0,-0.76894 -0.628282,-1.4066 -1.406601,-1.4066 l -9.771184,-0.0469 1.219054,2.10053 4.848082,-8.47711 c 0.384471,-0.67517 0.150038,-1.53789 -0.52513,-1.92236 -0.675169,-0.38447 -1.528506,-0.15004 -1.922354,0.52513 z"
       id="path3285"
       inkscape:connector-curvature="0" />
    <path
       style="fill:#4a7ebb;fill-opacity:1;fill-rule:nonzero;stroke:#4a7ebb;stroke-width:0.00937734px;stroke-linecap:butt;stroke-linejoin:round;stroke-opacity:1;stroke-dasharray:none"
       d="m 248.00241,109.00216 -58.98345,34.0491 1.4066,2.43811 58.98345,-34.04911 z m -54.65112,26.08774 -6.039,10.57764 12.18116,0.0563 c 0.76894,0 1.4066,-0.62828 1.4066,-1.39722 0.009,-0.77832 -0.6189,-1.41598 -1.39722,-1.41598 l -9.77119,-0.0469 1.21906,2.1099 4.8387,-8.48649 c 0.39385,-0.67517 0.15942,-1.53789 -0.51575,-1.92236 -0.67517,-0.38447 -1.53789,-0.15003 -1.92236,0.52513 z"
       id="path3287"
       inkscape:connector-curvature="0" />
    <path
       style="fill:#4a7ebb;fill-opacity:1;fill-rule:nonzero;stroke:#4a7ebb;stroke-width:0.00937734px;stroke-linecap:butt;stroke-linejoin:round;stroke-opacity:1;stroke-dasharray:none"
       d="m 245.59243,211.6371 -58.98344,-34.05849 1.4066,-2.4381 58.98344,34.05848 z m -2.92573,-10.39947 6.04839,10.57764 -12.18116,0.0469 0,0 c -0.77832,0.009 -1.41598,-0.61891 -1.41598,-1.39723 0,-0.77832 0.62828,-1.4066 1.39722,-1.41598 l 9.77119,-0.0375 -1.20968,2.10053 -4.84808,-8.48649 c -0.38447,-0.66579 -0.15004,-1.52851 0.52513,-1.91298 0.67517,-0.38447 1.5285,-0.15003 1.91297,0.52513 z"
       id="path3289"
       inkscape:connector-curvature="0" />
    <path
       style="fill:#4a7ebb;fill-opacity:1;fill-rule:nonzero;stroke:#4a7ebb;stroke-width:0.00937734px;stroke-linecap:butt;stroke-linejoin:round;stroke-opacity:1;stroke-dasharray:none"
       d="m 162.51861,130.53252 0,-68.107593 -2.8132,0 0,68.107593 z m 4.72618,-60.371291 -6.13278,-10.521371 -6.14215,10.521371 c -0.39385,0.665791 -0.1688,1.528506 0.50637,1.922354 0.67517,0.393848 1.52851,0.168792 1.92236,-0.506376 l 4.9231,-8.439603 -2.42873,0 4.9231,8.439603 c 0.39385,0.675168 1.25656,0.900224 1.92235,0.506376 0.67517,-0.393848 0.90023,-1.256563 0.50638,-1.922354 z"
       id="path3291"
       inkscape:connector-curvature="0" />
    <path
       style="fill:#4a7ebb;fill-opacity:1;fill-rule:nonzero;stroke:#4a7ebb;stroke-width:0.00937734px;stroke-linecap:butt;stroke-linejoin:round;stroke-opacity:1;stroke-dasharray:none"
       d="m 162.13414,194.49533 0,68.10759 -2.8132,0 0,-68.10759 z m -7.53938,7.72692 6.13278,-10.52137 6.14216,10.52137 c 0.38447,0.67517 0.15941,1.53789 -0.50638,1.93173 -0.67517,0.38448 -1.53788,0.15942 -1.92235,-0.50637 l -4.92311,-8.4396 2.42873,0 -4.9231,8.4396 c -0.39384,0.66579 -1.25656,0.89085 -1.92235,0.50637 -0.67517,-0.39384 -0.90022,-1.25656 -0.50638,-1.93173 z"
       id="path3293"
       inkscape:connector-curvature="0" />
    <path
       style="fill:#ff0000;fill-opacity:1;fill-rule:nonzero;stroke:#ff0000;stroke-width:0.00937734px;stroke-linecap:butt;stroke-linejoin:round;stroke-opacity:1;stroke-dasharray:none"
       d="m 57.670617,203.70387 16.325942,28.28205 -2.42873,1.4066 -16.335319,-28.28205 z m -2.672541,10.46511 0.05626,-12.18116 10.577636,6.04838 c 0.675168,0.38447 0.909601,1.23781 0.52513,1.91298 -0.38447,0.67517 -1.247185,0.9096 -1.922354,0.52513 l -8.477111,-4.84808 2.100523,-1.20968 -0.04689,9.77118 c 0,0.76895 -0.628281,1.39723 -1.4066,1.39723 -0.778319,0 -1.406601,-0.63766 -1.406601,-1.41598 z"
       id="path3295"
       inkscape:connector-curvature="0" />
    <path
       style="fill:#ff0000;fill-opacity:1;fill-rule:nonzero;stroke:#ff0000;stroke-width:0.00937734px;stroke-linecap:butt;stroke-linejoin:round;stroke-opacity:1;stroke-dasharray:none"
       d="m 175.66564,271.83022 -32.66126,0 0,2.8132 32.66126,0 z m -7.72693,7.53938 10.52137,-6.13278 -10.52137,-6.14216 c -0.67517,-0.38447 -1.53788,-0.15941 -1.92235,0.50638 -0.39385,0.67517 -0.16879,1.53788 0.50637,1.92236 l 8.43961,4.9231 0,-2.42873 -8.43961,4.9231 c -0.67516,0.39385 -0.90022,1.25656 -0.50637,1.92235 0.38447,0.67517 1.24718,0.90023 1.92235,0.50638 z"
       id="path3297"
       inkscape:connector-curvature="0" />
    <path
       style="fill:#ff0000;fill-opacity:1;fill-rule:nonzero;stroke:#ff0000;stroke-width:0.00937734px;stroke-linecap:butt;stroke-linejoin:round;stroke-opacity:1;stroke-dasharray:none"
       d="m 143.38885,47.599358 32.66126,0 0,2.813201 -32.66126,0 z m 24.92496,-4.726177 10.52137,6.132778 -10.52137,6.142155 c -0.66579,0.393848 -1.52851,0.168792 -1.92236,-0.506376 -0.39385,-0.675169 -0.16879,-1.528506 0.50638,-1.922354 l 8.4396,-4.923102 0,2.42873 -8.4396,-4.923101 c -0.67517,-0.393848 -0.90023,-1.256563 -0.50638,-1.922354 0.39385,-0.675168 1.25657,-0.900224 1.92236,-0.506376 z"
       id="path3299"
       inkscape:connector-curvature="0" />
    <path
       style="fill:#ff0000;fill-opacity:1;fill-rule:nonzero;stroke:#ff0000;stroke-width:0.00937734px;stroke-linecap:butt;stroke-linejoin:round;stroke-opacity:1;stroke-dasharray:none"
       d="m 265.55678,120.95826 -16.32594,-28.291424 2.43811,-1.406601 16.32594,28.291425 z m -16.56037,-19.23292 0.0563,-12.181157 10.57764,6.048382 c 0.67516,0.38447 0.9096,1.247185 0.52513,1.922353 -0.38447,0.675169 -1.24719,0.900225 -1.92236,0.515754 l 0,0 -8.48649,-4.848083 2.1099,-1.209676 -0.0469,9.771187 c 0,0.77832 -0.63766,1.4066 -1.41598,1.39722 -0.76894,0 -1.39722,-0.63766 -1.39722,-1.41598 z"
       id="path3301"
       inkscape:connector-curvature="0" />
    <path
       style="fill:#ff0000;fill-opacity:1;fill-rule:nonzero;stroke:#ff0000;stroke-width:0.00937734px;stroke-linecap:butt;stroke-linejoin:round;stroke-opacity:1;stroke-dasharray:none"
       d="m 251.66895,230.76686 16.32594,-28.29142 -2.43811,-1.4066 -16.32594,28.29142 z m -2.67254,-10.4651 0.0563,12.18116 10.57764,-6.04838 c 0.67516,-0.38448 0.9096,-1.24719 0.52513,-1.92236 -0.38447,-0.67517 -1.24719,-0.90022 -1.92236,-0.51575 l 0,0 -8.48649,4.84808 2.1099,1.20968 -0.0469,-9.77119 c 0,-0.77832 -0.63766,-1.4066 -1.41598,-1.39722 -0.76894,0 -1.39722,0.63766 -1.39722,1.41598 z"
       id="path3303"
       inkscape:connector-curvature="0" />
    <text
       xml:space="preserve"
       x="256.33069"
       y="138.07928"
       style="font-size:13.20328903px;font-style:normal;font-weight:normal;text-align:start;text-anchor:start;fill:#000000;font-family:Calibri"
       id="text3305">L1</text>
    <text
       xml:space="preserve"
       x="180.82555"
       y="56.513092"
       style="font-size:13.20328903px;font-style:normal;font-weight:normal;text-align:start;text-anchor:start;fill:#000000;font-family:Calibri"
       id="text3307">L2</text>
    <text
       xml:space="preserve"
       x="75.503456"
       y="88.233986"
       style="font-size:13.20328903px;font-style:normal;font-weight:normal;text-align:start;text-anchor:start;fill:#000000;font-family:Calibri"
       id="text3309">L3</text>
    <text
       xml:space="preserve"
       x="50.7337"
       y="193.24046"
       style="font-size:13.20328903px;font-style:normal;font-weight:normal;text-align:start;text-anchor:start;fill:#000000;font-family:Calibri"
       id="text3311">L4</text>
    <text
       xml:space="preserve"
       x="127.15815"
       y="269.08368"
       style="font-size:13.20328903px;font-style:normal;font-weight:normal;text-align:start;text-anchor:start;fill:#000000;font-family:Calibri"
       id="text3313">L5</text>
    <text
       xml:space="preserve"
       x="231.85815"
       y="241.78722"
       style="font-size:13.20328903px;font-style:normal;font-weight:normal;text-align:start;text-anchor:start;fill:#000000;font-family:Calibri"
       id="text3315">L6</text>
    <text
       xml:space="preserve"
       x="324.4202"
       y="152.64275"
       style="font-size:13.20328903px;font-style:normal;font-weight:normal;text-align:start;text-anchor:start;fill:#000000;font-family:Calibri"
       id="text3317">PS V+</text>
    <path
       style="fill:none;stroke:#4a7ebb;stroke-width:0.93773359px;stroke-linecap:butt;stroke-linejoin:round;stroke-opacity:1;stroke-dasharray:none"
       d="m 249.05267,89.55356 c 0,-32.642507 -30.27004,-65.275637 -60.54008,-65.275637 -30.27004,0 -60.54008,6.179665 -60.54008,12.368707 0,6.179664 7.70817,12.359329 15.41634,12.359329"
       id="path3319"
       inkscape:connector-curvature="0" />
    <path
       style="fill:none;stroke:#4a7ebb;stroke-width:0.93773359px;stroke-linecap:butt;stroke-linejoin:round;stroke-opacity:1;stroke-dasharray:none"
       d="m 315.35981,148.27444 c -24.2873,0 -48.5746,-14.00974 -48.5746,-28.01948"
       id="path3321"
       inkscape:connector-curvature="0" />
    <path
       style="fill:none;stroke:#4a7ebb;stroke-width:0.93773359px;stroke-linecap:butt;stroke-linejoin:round;stroke-opacity:1;stroke-dasharray:none"
       d="m 178.83518,49.005959 c 11.2528,0 22.5056,-6.564136 22.5056,-13.128271 0,-6.554758 -32.1455,-13.118893 -64.28164,-13.118893 -32.13613,0 -64.281634,33.505222 -64.281634,67.010444"
       id="path3323"
       inkscape:connector-curvature="0" />
    <path
       style="fill:none;stroke:#4a7ebb;stroke-width:0.93773359px;stroke-linecap:butt;stroke-linejoin:round;stroke-opacity:1;stroke-dasharray:none"
       d="m 143.00438,273.23682 c -53.478952,0 -106.9579,-19.34544 -106.9579,-38.69089 0,-19.34544 4.754309,-38.69089 9.508619,-38.69089 4.754309,0 9.508619,3.07577 9.508619,6.14216"
       id="path3325"
       inkscape:connector-curvature="0" />
    <path
       style="fill:none;stroke:#4a7ebb;stroke-width:0.93773359px;stroke-linecap:butt;stroke-linejoin:round;stroke-opacity:1;stroke-dasharray:none"
       d="m 178.45071,273.23682 c 50.6001,0 101.20021,-17.57313 101.20021,-35.14626 0,-17.5825 -3.21643,-35.15563 -6.43285,-35.15563 -3.22581,0 -6.44223,-0.58139 -6.44223,-1.16279"
       id="path3327"
       inkscape:connector-curvature="0" />
    <path
       style="fill:none;stroke:#4a7ebb;stroke-width:0.93773359px;stroke-linecap:butt;stroke-linejoin:round;stroke-opacity:1;stroke-dasharray:none"
       d="m 55.063718,120.47064 c 0,-0.52513 -9.030375,-1.04089 -18.06075,-1.04089 -9.030374,0 -18.060749,33.93658 -18.060749,67.88254 0,33.94596 13.456477,67.88254 26.922332,67.88254 13.456477,0 26.912955,-11.25281 26.912955,-22.50561"
       id="path3329"
       inkscape:connector-curvature="0" />
    <text
       xml:space="preserve"
       x="324.42029"
       y="184.50581"
       style="font-size:13.20328903px;font-style:normal;font-weight:normal;text-align:start;text-anchor:start;fill:#000000;font-family:Calibri"
       id="text3331">PS V</text>
    <text
       xml:space="preserve"
       x="347.67609"
       y="184.50581"
       style="font-size:13.20328903px;font-style:normal;font-weight:normal;text-align:start;text-anchor:start;fill:#000000;font-family:Calibri"
       id="text3333">-</text>
    <path
       style="fill:none;stroke:#4a7ebb;stroke-width:0.93773359px;stroke-linecap:butt;stroke-linejoin:round;stroke-opacity:1;stroke-dasharray:none"
       d="m 249.06205,232.48292 c 0,11.2528 10.72767,22.5056 21.43659,22.5056 10.72767,0 21.45534,-18.71716 21.45534,-37.43432 0,-18.69841 11.70292,-37.41557 23.40583,-37.41557"
       id="path3335"
       inkscape:connector-curvature="0" />
    <text
       xml:space="preserve"
       x="167.55128"
       y="176.08894"
       style="font-size:13.20328903px;font-style:italic;font-weight:normal;text-align:start;text-anchor:start;fill:#000000;font-family:Calibri"
       id="text3337">e</text>
    <text
       xml:space="preserve"
       x="173.85286"
       y="172.18797"
       style="font-size:8.70216751px;font-style:italic;font-weight:normal;text-align:start;text-anchor:start;fill:#000000;font-family:Calibri"
       id="text3339">-</text>
  </g>
  <g
     style="font-size:40px;font-style:normal;font-weight:normal;line-height:125%;letter-spacing:0px;word-spacing:0px;fill:#000000;fill-opacity:1;stroke:none;font-family:Sans"
     id="text3375">
    <path
       d="m 98.896484,169.96909 1.072266,-0.0937 c 0.05078,0.42969 0.16894,0.78222 0.35449,1.05761 0.18555,0.2754 0.47363,0.49805 0.86426,0.66797 0.39062,0.16992 0.83007,0.25489 1.31836,0.25488 0.43359,1e-5 0.8164,-0.0644 1.14844,-0.19335 0.33202,-0.12891 0.57909,-0.30567 0.74121,-0.53028 0.1621,-0.22461 0.24316,-0.46972 0.24316,-0.73535 0,-0.26953 -0.0781,-0.50488 -0.23437,-0.70605 -0.15626,-0.20117 -0.41407,-0.37012 -0.77344,-0.50684 -0.23047,-0.0898 -0.74024,-0.22949 -1.5293,-0.41895 -0.78906,-0.18944 -1.3418,-0.36816 -1.6582,-0.53613 -0.41016,-0.21484 -0.715822,-0.48144 -0.916993,-0.7998 -0.201173,-0.31836 -0.301758,-0.6748 -0.301758,-1.06934 0,-0.43359 0.123046,-0.83886 0.369141,-1.21582 0.246092,-0.37694 0.60547,-0.66308 1.07813,-0.8584 0.47265,-0.1953 0.99804,-0.29296 1.57617,-0.29297 0.63671,10e-6 1.19823,0.10255 1.68457,0.30762 0.48632,0.20509 0.86034,0.50684 1.12207,0.90527 0.26171,0.39845 0.40233,0.84962 0.42187,1.35352 l -1.08984,0.082 c -0.0586,-0.54296 -0.25684,-0.95312 -0.59473,-1.23047 -0.33789,-0.27733 -0.83692,-0.41601 -1.49707,-0.41601 -0.6875,0 -1.18848,0.12598 -1.50293,0.37793 -0.31445,0.25196 -0.47168,0.55567 -0.47168,0.91113 0,0.3086 0.11133,0.5625 0.33399,0.76172 0.21874,0.19922 0.79003,0.40332 1.71386,0.6123 0.92383,0.20899 1.55762,0.39161 1.90137,0.54785 0.49999,0.23048 0.86914,0.52247 1.10742,0.87598 0.23828,0.35352 0.35742,0.76075 0.35743,1.22168 -1e-5,0.45703 -0.13087,0.8877 -0.39258,1.29199 -0.26173,0.4043 -0.6377,0.71875 -1.12793,0.94336 -0.49024,0.22461 -1.042,0.33692 -1.65528,0.33692 -0.77734,0 -1.42871,-0.11329 -1.9541,-0.33985 -0.52539,-0.22656 -0.937499,-0.56738 -1.236326,-1.02246 -0.298829,-0.45508 -0.456055,-0.96972 -0.47168,-1.54394 z"
       style="font-size:12px;text-align:center;text-anchor:middle"
       id="path4290" />
    <path
       d="m 111.42383,170.72495 1.08984,0.13476 c -0.17188,0.63672 -0.49024,1.13086 -0.95508,1.48242 -0.46484,0.35157 -1.05859,0.52735 -1.78125,0.52735 -0.91015,0 -1.63183,-0.28028 -2.16504,-0.84082 -0.5332,-0.56055 -0.7998,-1.34668 -0.7998,-2.3584 0,-1.04687 0.26953,-1.85937 0.80859,-2.4375 0.53906,-0.57812 1.23828,-0.86718 2.09766,-0.86719 0.83203,1e-5 1.51171,0.28321 2.03906,0.84961 0.52734,0.56641 0.79101,1.36328 0.79102,2.39062 -10e-6,0.0625 -0.002,0.15626 -0.006,0.28125 l -4.64063,0 c 0.0391,0.6836 0.23242,1.20704 0.58008,1.57032 0.34766,0.36328 0.78125,0.54492 1.30078,0.54492 0.38672,0 0.7168,-0.10156 0.99024,-0.30469 0.27343,-0.20312 0.49023,-0.52734 0.65039,-0.97265 z m -3.46289,-1.70508 3.47461,0 c -0.0469,-0.52344 -0.1797,-0.91601 -0.39844,-1.17774 -0.33594,-0.40624 -0.77149,-0.60937 -1.30664,-0.60937 -0.48438,0 -0.89161,0.16211 -1.22168,0.48633 -0.33008,0.32422 -0.5127,0.75781 -0.54785,1.30078 z"
       style="font-size:12px;text-align:center;text-anchor:middle"
       id="path4292" />
    <path
       d="m 113.14063,172.72885 2.27343,-3.23437 -2.10351,-2.98828 1.31836,0 0.95507,1.45898 c 0.17969,0.27735 0.32422,0.50977 0.4336,0.69727 0.17187,-0.25781 0.33007,-0.48633 0.47461,-0.68555 l 1.04883,-1.4707 1.25976,0 -2.15039,2.92968 2.31445,3.29297 -1.29492,0 -1.27734,-1.93359 -0.33985,-0.52149 -1.63476,2.45508 z"
       style="font-size:12px;text-align:center;text-anchor:middle"
       id="path4294" />
    <path
       d="m 122.14648,171.78549 0.15235,0.93164 c -0.29688,0.0625 -0.5625,0.0937 -0.79688,0.0937 -0.38281,0 -0.67969,-0.0605 -0.89062,-0.18164 -0.21094,-0.12109 -0.35938,-0.28027 -0.44531,-0.47754 -0.0859,-0.19726 -0.12891,-0.6123 -0.12891,-1.24511 l 0,-3.58008 -0.77344,0 0,-0.82031 0.77344,0 0,-1.54102 1.04883,-0.63281 0,2.17383 1.06054,0 0,0.82031 -1.06054,0 0,3.63867 c 0,0.30078 0.0186,0.49414 0.0557,0.58008 0.0371,0.0859 0.0977,0.1543 0.18164,0.20508 0.084,0.0508 0.2041,0.0762 0.36035,0.0762 0.11719,0 0.27149,-0.0137 0.46289,-0.041 z"
       style="font-size:12px;text-align:center;text-anchor:middle"
       id="path4296" />
    <path
       d="m 127.25,172.72885 0,-0.91406 c -0.48438,0.70312 -1.14258,1.05469 -1.97461,1.05469 -0.36719,0 -0.70996,-0.0703 -1.02832,-0.21094 -0.31836,-0.14063 -0.55469,-0.31738 -0.70898,-0.53027 -0.1543,-0.21289 -0.2627,-0.47364 -0.3252,-0.78223 -0.043,-0.20703 -0.0645,-0.53516 -0.0645,-0.98438 l 0,-3.85546 1.05469,0 0,3.45117 c -1e-5,0.55078 0.0215,0.92187 0.0644,1.11328 0.0664,0.27734 0.20703,0.49512 0.42187,0.65332 0.21484,0.1582 0.48047,0.2373 0.79688,0.2373 0.3164,0 0.61328,-0.0811 0.89062,-0.24316 0.27734,-0.16211 0.47363,-0.38281 0.58887,-0.66211 0.11523,-0.2793 0.17285,-0.68457 0.17285,-1.21582 l 0,-3.33398 1.05469,0 0,6.22265 z"
       style="font-size:12px;text-align:center;text-anchor:middle"
       id="path4298" />
    <path
       d="m 129.85156,175.11362 0,-8.60742 0.96094,0 0,0.80859 c 0.22656,-0.3164 0.48242,-0.55371 0.76758,-0.71192 0.28515,-0.15819 0.63085,-0.23729 1.03711,-0.2373 0.53124,1e-5 0.99999,0.13673 1.40625,0.41016 0.40624,0.27344 0.71288,0.65918 0.91992,1.15722 0.20702,0.49805 0.31054,1.04395 0.31055,1.6377 -1e-5,0.63672 -0.11427,1.20996 -0.34278,1.71972 -0.22852,0.50977 -0.56055,0.9004 -0.99609,1.17188 -0.43555,0.27148 -0.89356,0.40723 -1.37402,0.40723 -0.35157,0 -0.667,-0.0742 -0.94629,-0.22266 -0.2793,-0.14844 -0.50879,-0.33594 -0.68848,-0.5625 l 0,3.0293 z m 0.95508,-5.46094 c 0,0.80078 0.16211,1.39258 0.48633,1.77539 0.32421,0.38281 0.71679,0.57422 1.17773,0.57422 0.46875,0 0.87012,-0.19824 1.2041,-0.59473 0.33398,-0.39648 0.50098,-1.01074 0.50098,-1.84277 0,-0.79297 -0.16309,-1.38672 -0.48926,-1.78125 -0.32617,-0.39453 -0.71582,-0.59179 -1.16894,-0.5918 -0.44922,1e-5 -0.84668,0.20997 -1.19238,0.62988 -0.34571,0.41993 -0.51856,1.03028 -0.51856,1.83106 z"
       style="font-size:12px;text-align:center;text-anchor:middle"
       id="path4300" />
    <path
       d="m 136.13867,169.61752 c 0,-1.15234 0.32031,-2.00585 0.96094,-2.56054 0.53515,-0.46094 1.1875,-0.6914 1.95703,-0.69141 0.85547,1e-5 1.55468,0.28028 2.09766,0.84082 0.54296,0.56055 0.81444,1.33497 0.81445,2.32324 -1e-5,0.80079 -0.12012,1.43067 -0.36035,1.88965 -0.24024,0.45899 -0.58985,0.81543 -1.04883,1.06934 -0.45899,0.2539 -0.95996,0.38086 -1.50293,0.38086 -0.8711,0 -1.5752,-0.2793 -2.1123,-0.83789 -0.53711,-0.5586 -0.80567,-1.36328 -0.80567,-2.41407 z m 1.08399,0 c -1e-5,0.79688 0.17382,1.39356 0.52148,1.79004 0.34765,0.39649 0.78515,0.59473 1.3125,0.59473 0.52343,0 0.95898,-0.19922 1.30664,-0.59766 0.34765,-0.39843 0.52148,-1.00585 0.52149,-1.82226 -1e-5,-0.76953 -0.17481,-1.35254 -0.52442,-1.74903 -0.34961,-0.39648 -0.78418,-0.59472 -1.30371,-0.59472 -0.52735,0 -0.96485,0.19727 -1.3125,0.59179 -0.34766,0.39454 -0.52149,0.99024 -0.52148,1.78711 z"
       style="font-size:12px;text-align:center;text-anchor:middle"
       id="path4302" />
    <path
       d="m 143.1875,172.72885 0,-8.58984 1.05469,0 0,8.58984 z"
       style="font-size:12px;text-align:center;text-anchor:middle"
       id="path4304" />
    <path
       d="m 150.14258,170.72495 1.08984,0.13476 c -0.17188,0.63672 -0.49024,1.13086 -0.95508,1.48242 -0.46484,0.35157 -1.05859,0.52735 -1.78125,0.52735 -0.91015,0 -1.63183,-0.28028 -2.16504,-0.84082 -0.5332,-0.56055 -0.7998,-1.34668 -0.7998,-2.3584 0,-1.04687 0.26953,-1.85937 0.80859,-2.4375 0.53906,-0.57812 1.23828,-0.86718 2.09766,-0.86719 0.83203,1e-5 1.51171,0.28321 2.03906,0.84961 0.52734,0.56641 0.79101,1.36328 0.79102,2.39062 -1e-5,0.0625 -0.002,0.15626 -0.006,0.28125 l -4.64063,0 c 0.0391,0.6836 0.23242,1.20704 0.58008,1.57032 0.34766,0.36328 0.78125,0.54492 1.30078,0.54492 0.38672,0 0.7168,-0.10156 0.99024,-0.30469 0.27343,-0.20312 0.49023,-0.52734 0.65039,-0.97265 z m -3.46289,-1.70508 3.47461,0 c -0.0469,-0.52344 -0.1797,-0.91601 -0.39844,-1.17774 -0.33594,-0.40624 -0.77149,-0.60937 -1.30664,-0.60937 -0.48438,0 -0.89161,0.16211 -1.22168,0.48633 -0.33008,0.32422 -0.5127,0.75781 -0.54785,1.30078 z"
       style="font-size:12px;text-align:center;text-anchor:middle"
       id="path4306" />
    <path
       d="m 94.040207,187.2918 0,0.2168 -3.404297,0 0,-0.2168 0.28125,0 c 0.328124,0 0.566405,-0.0957 0.714844,-0.28711 0.09375,-0.125 0.140623,-0.42578 0.140625,-0.90234 l 0,-5.13281 c -2e-6,-0.40234 -0.02539,-0.66796 -0.07617,-0.79688 -0.03906,-0.0977 -0.119142,-0.18163 -0.240234,-0.25195 -0.171876,-0.0937 -0.351564,-0.14062 -0.539063,-0.14063 l -0.28125,0 0,-0.21679 3.404297,0 0,0.21679 -0.287109,0 c -0.324222,1e-5 -0.56055,0.0957 -0.708985,0.28711 -0.09766,0.12501 -0.146487,0.42579 -0.146484,0.90235 l 0,5.13281 c -3e-6,0.40234 0.02539,0.66797 0.07617,0.79687 0.03906,0.0977 0.121091,0.18165 0.246093,0.25196 0.167966,0.0937 0.3457,0.14062 0.533204,0.14062 z"
       style="font-size:12px;font-variant:normal;font-stretch:normal;text-align:center;text-anchor:middle;font-family:Serif;-inkscape-font-specification:Serif"
       id="path4308" />
    <path
       d="m 103.86638,183.68243 -6.304689,2.73047 0,-0.50391 5.431639,-2.35547 -5.431639,-2.3789 0,-0.53321 6.304689,2.75391 z"
       style="font-size:12px;font-variant:normal;font-stretch:normal;text-align:center;text-anchor:middle;font-family:Serif;-inkscape-font-specification:Serif"
       id="path4310" />
    <path
       d="m 107.55193,183.58282 c 0,-0.90625 0.13671,-1.68652 0.41015,-2.34082 0.27344,-0.65429 0.63672,-1.1416 1.08985,-1.46192 0.35156,-0.25389 0.71484,-0.38085 1.08984,-0.38086 0.60937,10e-6 1.15625,0.31056 1.64062,0.93165 0.60547,0.76953 0.9082,1.8125 0.90821,3.1289 -1e-5,0.92188 -0.13282,1.70508 -0.39844,2.34961 -0.26563,0.64453 -0.6045,1.11231 -1.0166,1.40332 -0.41211,0.29102 -0.80958,0.43652 -1.19238,0.43652 -0.75782,0 -1.38868,-0.44726 -1.89258,-1.34179 -0.42578,-0.75391 -0.63867,-1.66211 -0.63867,-2.72461 z m 1.14843,0.14648 c 0,1.09376 0.13477,1.98633 0.4043,2.67774 0.22265,0.58203 0.55468,0.87304 0.99609,0.87304 0.21094,0 0.42969,-0.0947 0.65625,-0.28418 0.22656,-0.18945 0.39844,-0.50683 0.51563,-0.95214 0.17968,-0.67188 0.26953,-1.61914 0.26953,-2.8418 0,-0.90625 -0.0937,-1.6621 -0.28125,-2.26758 -0.14063,-0.44921 -0.32227,-0.76757 -0.54492,-0.95508 -0.16016,-0.1289 -0.35352,-0.19335 -0.58008,-0.19336 -0.26563,1e-5 -0.50196,0.11915 -0.70898,0.35743 -0.28126,0.32422 -0.47266,0.83399 -0.57422,1.52929 -0.10157,0.69532 -0.15235,1.38087 -0.15235,2.05664 z"
       style="font-size:12px;font-variant:normal;font-stretch:normal;text-align:center;text-anchor:middle;font-family:Serif;-inkscape-font-specification:Serif"
       id="path4312" />
    <path
       d="m 125.22966,182.37579 c 0.51952,0.56641 0.96874,0.99707 1.34766,1.29199 0.37889,0.29492 0.73631,0.51465 1.07226,0.65918 l 0,0.26367 c -0.38673,0.1875 -0.76173,0.42676 -1.125,0.71777 -0.36329,0.29102 -0.79688,0.71778 -1.30078,1.28028 l -0.45117,0 c 0.36718,-0.78516 0.75194,-1.38867 1.1543,-1.81055 l -9.34571,0 0,-0.5918 9.34571,0 c -0.29689,-0.3789 -0.50392,-0.66015 -0.6211,-0.84375 -0.11719,-0.18359 -0.29102,-0.50585 -0.52148,-0.96679 z"
       style="font-size:12px;font-variant:normal;font-stretch:normal;text-align:center;text-anchor:middle;font-family:Serif;-inkscape-font-specification:Serif"
       id="path4314" />
    <path
       d="m 132.96404,183.06719 c 0.51952,-0.72265 1.08007,-1.08398 1.68164,-1.08398 0.55077,0 1.03124,0.23536 1.4414,0.70605 0.41015,0.47071 0.61523,1.11427 0.61524,1.93067 -10e-6,0.95312 -0.31642,1.7207 -0.94922,2.30273 -0.54298,0.5 -1.14844,0.75 -1.81641,0.75 -0.3125,0 -0.62988,-0.0566 -0.95215,-0.16992 -0.32226,-0.11328 -0.65137,-0.2832 -0.9873,-0.50977 l 0,-5.56054 c 0,-0.60937 -0.0147,-0.98437 -0.0439,-1.125 -0.0293,-0.14062 -0.0752,-0.23632 -0.13769,-0.28711 -0.0625,-0.0508 -0.14063,-0.0762 -0.23438,-0.0762 -0.10937,0 -0.24609,0.0312 -0.41015,0.0937 l -0.082,-0.20508 1.61132,-0.65625 0.26368,0 z m 0,0.375 0,3.21094 c 0.19921,0.19531 0.40527,0.34277 0.61816,0.44238 0.21289,0.0996 0.43066,0.14942 0.65332,0.14942 0.35546,0 0.68652,-0.19531 0.99316,-0.58594 0.30664,-0.39062 0.45996,-0.95898 0.45996,-1.70508 0,-0.68749 -0.15332,-1.21581 -0.45996,-1.58496 -0.30664,-0.36914 -0.65527,-0.55371 -1.04589,-0.55371 -0.20704,0 -0.41407,0.0527 -0.6211,0.1582 -0.15625,0.0781 -0.35547,0.23438 -0.59765,0.46875 z"
       style="font-size:12px;font-variant:normal;font-stretch:normal;text-align:center;text-anchor:middle;font-family:Serif;-inkscape-font-specification:Serif"
       id="path4316" />
    <path
       d="m 137.51443,185.7267 c 0.14727,-0.34785 0.33326,-0.61636 0.55797,-0.80552 0.22471,-0.18916 0.50464,-0.28374 0.8398,-0.28375 0.41388,1e-5 0.73126,0.13458 0.95217,0.40372 0.16757,0.20059 0.25136,0.41515 0.25137,0.64366 -10e-6,0.37579 -0.23614,0.76427 -0.70841,1.16545 0.31738,0.12441 0.55733,0.30215 0.71983,0.53321 0.1625,0.23106 0.24375,0.50274 0.24376,0.81505 -1e-5,0.44688 -0.1422,0.83409 -0.42657,1.16163 -0.37071,0.42657 -0.90773,0.63986 -1.61106,0.63986 -0.34786,0 -0.58463,-0.0432 -0.71031,-0.1295 -0.12569,-0.0863 -0.18853,-0.179 -0.18853,-0.27803 0,-0.0736 0.0298,-0.13838 0.0895,-0.19424 0.0597,-0.0559 0.1314,-0.0838 0.21519,-0.0838 0.0635,0 0.12823,0.0102 0.19424,0.0305 0.0432,0.0127 0.14092,0.059 0.29327,0.13902 0.15234,0.08 0.25772,0.12759 0.31612,0.14282 0.0939,0.0279 0.19424,0.0419 0.30088,0.0419 0.25899,0 0.48433,-0.10029 0.67603,-0.30088 0.1917,-0.20059 0.28755,-0.43799 0.28756,-0.71222 -1e-5,-0.20058 -0.0444,-0.39609 -0.13331,-0.58653 -0.066,-0.14218 -0.13838,-0.2501 -0.21709,-0.32373 -0.10918,-0.10156 -0.25899,-0.19361 -0.44942,-0.27613 -0.19043,-0.0825 -0.38467,-0.12378 -0.58272,-0.12378 l -0.12188,0 0,-0.11426 c 0.20059,-0.0254 0.40181,-0.0977 0.60367,-0.21709 0.20186,-0.11934 0.34849,-0.2628 0.4399,-0.43038 0.0914,-0.16758 0.13711,-0.35166 0.13711,-0.55225 0,-0.26153 -0.0819,-0.47291 -0.24566,-0.63414 -0.16377,-0.16123 -0.36753,-0.24185 -0.61128,-0.24185 -0.39357,0 -0.72238,0.21075 -0.98644,0.63223 z"
       style="font-size:65.00091553%;baseline-shift:sub"
       id="path4318" />
    <path
       d="m 144.23518,183.37188 6.30469,-2.73047 0,0.50977 -5.42578,2.35547 5.42578,2.3789 0,0.52735 -6.30469,-2.75391 z"
       style="font-size:12px;font-variant:normal;font-stretch:normal;text-align:center;text-anchor:middle;font-family:Serif;-inkscape-font-specification:Serif"
       id="path4320" />
    <path
       d="m 154.22542,183.58282 c 0,-0.90625 0.13672,-1.68652 0.41015,-2.34082 0.27344,-0.65429 0.63672,-1.1416 1.08985,-1.46192 0.35156,-0.25389 0.71484,-0.38085 1.08984,-0.38086 0.60937,10e-6 1.15625,0.31056 1.64063,0.93165 0.60546,0.76953 0.90819,1.8125 0.9082,3.1289 -1e-5,0.92188 -0.13282,1.70508 -0.39844,2.34961 -0.26563,0.64453 -0.60449,1.11231 -1.0166,1.40332 -0.41211,0.29102 -0.80957,0.43652 -1.19238,0.43652 -0.75782,0 -1.38868,-0.44726 -1.89258,-1.34179 -0.42578,-0.75391 -0.63867,-1.66211 -0.63867,-2.72461 z m 1.14844,0.14648 c -1e-5,1.09376 0.13476,1.98633 0.40429,2.67774 0.22266,0.58203 0.55469,0.87304 0.9961,0.87304 0.21093,0 0.42968,-0.0947 0.65625,-0.28418 0.22655,-0.18945 0.39843,-0.50683 0.51562,-0.95214 0.17968,-0.67188 0.26953,-1.61914 0.26953,-2.8418 0,-0.90625 -0.0937,-1.6621 -0.28125,-2.26758 -0.14063,-0.44921 -0.32227,-0.76757 -0.54492,-0.95508 -0.16016,-0.1289 -0.35352,-0.19335 -0.58008,-0.19336 -0.26563,1e-5 -0.50195,0.11915 -0.70898,0.35743 -0.28125,0.32422 -0.47266,0.83399 -0.57422,1.52929 -0.10156,0.69532 -0.15235,1.38087 -0.15234,2.05664 z"
       style="font-size:12px;font-variant:normal;font-stretch:normal;text-align:center;text-anchor:middle;font-family:Serif;-inkscape-font-specification:Serif"
       id="path4322" />
  </g>
</svg>
