<?xml version="1.0" encoding="UTF-8" standalone="no"?>
<svg
   xmlns:dc="http://purl.org/dc/elements/1.1/"
   xmlns:cc="http://creativecommons.org/ns#"
   xmlns:rdf="http://www.w3.org/1999/02/22-rdf-syntax-ns#"
   xmlns:svg="http://www.w3.org/2000/svg"
   xmlns="http://www.w3.org/2000/svg"
   xmlns:sodipodi="http://sodipodi.sourceforge.net/DTD/sodipodi-0.dtd"
   xmlns:inkscape="http://www.inkscape.org/namespaces/inkscape"
   version="1.0"
   width="250"
   height="200"
   id="svg3838"
   inkscape:version="0.48.4 r9939"
   sodipodi:docname="vertical_steerer.svg">
  <metadata
     id="metadata3948">
    <rdf:RDF>
      <cc:Work
         rdf:about="">
        <dc:format>image/svg+xml</dc:format>
        <dc:type
           rdf:resource="http://purl.org/dc/dcmitype/StillImage" />
      </cc:Work>
    </rdf:RDF>
  </metadata>
  <sodipodi:namedview
     pagecolor="#ffffff"
     bordercolor="#666666"
     borderopacity="1"
     objecttolerance="10"
     gridtolerance="10"
     guidetolerance="10"
     inkscape:pageopacity="0"
     inkscape:pageshadow="2"
     inkscape:window-width="1280"
     inkscape:window-height="738"
     id="namedview3946"
     showgrid="false"
     inkscape:zoom="2.2123994"
     inkscape:cx="116.60822"
     inkscape:cy="76.551496"
     inkscape:window-x="-8"
     inkscape:window-y="-8"
     inkscape:window-maximized="1"
     inkscape:current-layer="svg3838" />
  <defs
     id="defs3840" />
  <g
     id="g3842"
     transform="matrix(0.5,0,0,0.5,46.138081,0.608953)">
    <path
       style="fill:none;stroke:#000000;stroke-width:0.62828153px;stroke-linecap:butt;stroke-linejoin:round;stroke-opacity:1;stroke-dasharray:none"
       d="m 153.63828,161.46835 c 0,-3.91973 3.17891,-7.08927 7.08926,-7.08927 3.91973,0 7.08927,3.16954 7.08927,7.08927 0,3.91035 -3.16954,7.08927 -7.08927,7.08927 -3.91035,0 -7.08926,-3.17892 -7.08926,-7.08927"
       id="path3844"
       inkscape:connector-curvature="0" />
    <path
       style="fill:#000000;fill-opacity:1;fill-rule:evenodd;stroke:none"
       d="m 158.47698,161.46835 c 0,-1.24718 1.01275,-2.25056 2.25056,-2.25056 1.24719,0 2.25056,1.00338 2.25056,2.25056 0,1.23781 -1.00337,2.25056 -2.25056,2.25056 -1.23781,0 -2.25056,-1.01275 -2.25056,-2.25056"
       id="path3846"
       inkscape:connector-curvature="0" />
    <path
       style="fill:none;stroke:#000000;stroke-width:0.62828153px;stroke-linecap:butt;stroke-linejoin:round;stroke-opacity:1;stroke-dasharray:none"
       d="m 158.47698,161.46835 c 0,-1.24718 1.01275,-2.25056 2.25056,-2.25056 1.24719,0 2.25056,1.00338 2.25056,2.25056 0,1.23781 -1.00337,2.25056 -2.25056,2.25056 -1.23781,0 -2.25056,-1.01275 -2.25056,-2.25056"
       id="path3848"
       inkscape:connector-curvature="0" />
    <path
       style="fill:#bfbfbf;fill-opacity:1;fill-rule:evenodd;stroke:none"
       d="m 67.816895,202.81303 30.692021,-17.71379 c 16.954224,-9.78994 33.073864,-13.60652 36.018344,-8.51462 2.93511,5.08251 -8.43022,17.14177 -25.38444,26.93171 l -30.692026,17.72316 z"
       id="path3850"
       inkscape:connector-curvature="0" />
    <path
       style="fill:none;stroke:#000000;stroke-width:0.30945209px;stroke-linecap:butt;stroke-linejoin:round;stroke-opacity:1;stroke-dasharray:none"
       d="m 67.816895,202.81303 30.692021,-17.71379 c 16.954224,-9.78994 33.073864,-13.60652 36.018344,-8.51462 2.93511,5.08251 -8.43022,17.14177 -25.38444,26.93171 l -30.692026,17.72316 z"
       id="path3852"
       inkscape:connector-curvature="0" />
    <path
       style="fill:#fac090;fill-opacity:1;fill-rule:evenodd;stroke:none"
       d="m 47.618113,210.38054 c -0.975243,-1.6973 -0.393848,-3.86347 1.30345,-4.83871 l 12.274933,-7.08927 c 1.697297,-0.98462 3.863462,-0.40322 4.848082,1.29408 l 14.178533,24.55924 c 0.975243,1.6973 0.393848,3.86346 -1.30345,4.83871 l -12.274933,7.08926 c -1.697298,0.98462 -3.863463,0.40323 -4.848083,-1.29407 z"
       id="path3854"
       inkscape:connector-curvature="0" />
    <path
       style="fill:none;stroke:#000000;stroke-width:0.30945209px;stroke-linecap:butt;stroke-linejoin:round;stroke-opacity:1;stroke-dasharray:none"
       d="m 47.618113,210.38054 c -0.975243,-1.6973 -0.393848,-3.86347 1.30345,-4.83871 l 12.274933,-7.08927 c 1.697297,-0.98462 3.863462,-0.40322 4.848082,1.29408 l 14.178533,24.55924 c 0.975243,1.6973 0.393848,3.86346 -1.30345,4.83871 l -12.274933,7.08926 c -1.697298,0.98462 -3.863463,0.40323 -4.848083,-1.29407 z"
       id="path3856"
       inkscape:connector-curvature="0" />
    <path
       style="fill:#bfbfbf;fill-opacity:1;fill-rule:evenodd;stroke:none"
       d="m 78.450794,101.22834 30.692026,17.72317 c 16.95422,9.78994 28.31955,21.84919 25.38444,26.93171 -2.94448,5.08251 -19.06412,1.27532 -36.018344,-8.51462 L 67.816895,119.64543 z"
       id="path3858"
       inkscape:connector-curvature="0" />
    <path
       style="fill:none;stroke:#000000;stroke-width:0.30945209px;stroke-linecap:butt;stroke-linejoin:round;stroke-opacity:1;stroke-dasharray:none"
       d="m 78.450794,101.22834 30.692026,17.72317 c 16.95422,9.78994 28.31955,21.84919 25.38444,26.93171 -2.94448,5.08251 -19.06412,1.27532 -36.018344,-8.51462 L 67.816895,119.64543 z"
       id="path3860"
       inkscape:connector-curvature="0" />
    <path
       style="fill:#fac090;fill-opacity:1;fill-rule:evenodd;stroke:none"
       d="m 61.796645,87.528055 c 0.98462,-1.697297 3.150785,-2.278692 4.848083,-1.303449 l 12.274933,7.089266 c 1.697298,0.98462 2.278693,3.150785 1.30345,4.848083 L 66.044578,122.7212 c -0.98462,1.68792 -3.150785,2.26931 -4.848082,1.29407 L 48.921563,116.926 c -1.697298,-0.97524 -2.278693,-3.15078 -1.30345,-4.8387 z"
       id="path3862"
       inkscape:connector-curvature="0" />
    <path
       style="fill:none;stroke:#000000;stroke-width:0.30945209px;stroke-linecap:butt;stroke-linejoin:round;stroke-opacity:1;stroke-dasharray:none"
       d="m 61.796645,87.528055 c 0.98462,-1.697297 3.150785,-2.278692 4.848083,-1.303449 l 12.274933,7.089266 c 1.697298,0.98462 2.278693,3.150785 1.30345,4.848083 L 66.044578,122.7212 c -0.98462,1.68792 -3.150785,2.26931 -4.848082,1.29407 L 48.921563,116.926 c -1.697298,-0.97524 -2.278693,-3.15078 -1.30345,-4.8387 z"
       id="path3864"
       inkscape:connector-curvature="0" />
    <path
       style="fill:#bfbfbf;fill-opacity:1;fill-rule:evenodd;stroke:none"
       d="m 171.74591,59.639858 0,35.44633 c 0,19.579882 -4.76369,35.446332 -10.6339,35.446332 -5.87959,0 -10.6339,-15.86645 -10.6339,-35.446332 l 0,-35.44633 z"
       id="path3866"
       inkscape:connector-curvature="0" />
    <path
       style="fill:none;stroke:#000000;stroke-width:0.30945209px;stroke-linecap:butt;stroke-linejoin:round;stroke-opacity:1;stroke-dasharray:none"
       d="m 171.74591,59.639858 0,35.44633 c 0,19.579882 -4.76369,35.446332 -10.6339,35.446332 -5.87959,0 -10.6339,-15.86645 -10.6339,-35.446332 l 0,-35.44633 z"
       id="path3868"
       inkscape:connector-curvature="0" />
    <path
       style="fill:#fac090;fill-opacity:1;fill-rule:evenodd;stroke:none"
       d="m 175.29054,38.372059 c 1.95049,0 3.54464,1.594148 3.54464,3.544633 l 0,14.178533 c 0,1.959863 -1.59415,3.544633 -3.54464,3.544633 l -28.35706,0 c -1.95986,0 -3.54463,-1.58477 -3.54463,-3.544633 l 0,-14.178533 c 0,-1.950485 1.58477,-3.544633 3.54463,-3.544633 z"
       id="path3870"
       inkscape:connector-curvature="0" />
    <path
       style="fill:none;stroke:#000000;stroke-width:0.30945209px;stroke-linecap:butt;stroke-linejoin:round;stroke-opacity:1;stroke-dasharray:none"
       d="m 175.29054,38.372059 c 1.95049,0 3.54464,1.594148 3.54464,3.544633 l 0,14.178533 c 0,1.959863 -1.59415,3.544633 -3.54464,3.544633 l -28.35706,0 c -1.95986,0 -3.54463,-1.58477 -3.54463,-3.544633 l 0,-14.178533 c 0,-1.950485 1.58477,-3.544633 3.54463,-3.544633 z"
       id="path3872"
       inkscape:connector-curvature="0" />
    <path
       style="fill:#bfbfbf;fill-opacity:1;fill-rule:evenodd;stroke:none"
       d="m 171.36144,262.60292 0,-35.44633 c 0,-19.57988 -4.76369,-35.44633 -10.6339,-35.44633 -5.87021,0 -10.6339,15.86645 -10.6339,35.44633 l 0,35.44633 z"
       id="path3874"
       inkscape:connector-curvature="0" />
    <path
       style="fill:none;stroke:#000000;stroke-width:0.30945209px;stroke-linecap:butt;stroke-linejoin:round;stroke-opacity:1;stroke-dasharray:none"
       d="m 171.36144,262.60292 0,-35.44633 c 0,-19.57988 -4.76369,-35.44633 -10.6339,-35.44633 -5.87021,0 -10.6339,15.86645 -10.6339,35.44633 l 0,35.44633 z"
       id="path3876"
       inkscape:connector-curvature="0" />
    <path
       style="fill:#fac090;fill-opacity:1;fill-rule:evenodd;stroke:none"
       d="m 174.90607,283.87072 c 1.95987,0 3.54464,-1.58477 3.54464,-3.54463 l 0,-14.17854 c 0,-1.95986 -1.58477,-3.54463 -3.54464,-3.54463 l -28.35706,0 c -1.95986,0 -3.54463,1.58477 -3.54463,3.54463 l 0,14.17854 c 0,1.95986 1.58477,3.54463 3.54463,3.54463 z"
       id="path3878"
       inkscape:connector-curvature="0" />
    <path
       style="fill:none;stroke:#000000;stroke-width:0.30945209px;stroke-linecap:butt;stroke-linejoin:round;stroke-opacity:1;stroke-dasharray:none"
       d="m 174.90607,283.87072 c 1.95987,0 3.54464,-1.58477 3.54464,-3.54463 l 0,-14.17854 c 0,-1.95986 -1.58477,-3.54463 -3.54464,-3.54463 l -28.35706,0 c -1.95986,0 -3.54463,1.58477 -3.54463,3.54463 l 0,14.17854 c 0,1.95986 1.58477,3.54463 3.54463,3.54463 z"
       id="path3880"
       inkscape:connector-curvature="0" />
    <path
       style="fill:#bfbfbf;fill-opacity:1;fill-rule:evenodd;stroke:none"
       d="m 254.02266,202.59735 -30.69202,-17.72317 c -16.95423,-9.78994 -33.08324,-13.59714 -36.01835,-8.51462 -2.93511,5.09189 8.43022,17.14177 25.38445,26.93171 l 30.69202,17.72317 z"
       id="path3882"
       inkscape:connector-curvature="0" />
    <path
       style="fill:none;stroke:#000000;stroke-width:0.30945209px;stroke-linecap:butt;stroke-linejoin:round;stroke-opacity:1;stroke-dasharray:none"
       d="m 254.02266,202.59735 -30.69202,-17.72317 c -16.95423,-9.78994 -33.08324,-13.59714 -36.01835,-8.51462 -2.93511,5.09189 8.43022,17.14177 25.38445,26.93171 l 30.69202,17.72317 z"
       id="path3884"
       inkscape:connector-curvature="0" />
    <path
       style="fill:#fac090;fill-opacity:1;fill-rule:evenodd;stroke:none"
       d="m 274.21206,210.16486 c 0.98462,-1.6973 0.40323,-3.86347 -1.29407,-4.84809 l -12.27493,-7.08926 c -1.6973,-0.97524 -3.86346,-0.39385 -4.84809,1.30345 l -14.17853,24.55924 c -0.97524,1.68792 -0.39385,3.86346 1.30345,4.83871 l 12.27494,7.08926 c 1.69729,0.97525 3.86346,0.39385 4.8387,-1.29407 z"
       id="path3886"
       inkscape:connector-curvature="0" />
    <path
       style="fill:none;stroke:#000000;stroke-width:0.30945209px;stroke-linecap:butt;stroke-linejoin:round;stroke-opacity:1;stroke-dasharray:none"
       d="m 274.21206,210.16486 c 0.98462,-1.6973 0.40323,-3.86347 -1.29407,-4.84809 l -12.27493,-7.08926 c -1.6973,-0.97524 -3.86346,-0.39385 -4.84809,1.30345 l -14.17853,24.55924 c -0.97524,1.68792 -0.39385,3.86346 1.30345,4.83871 l 12.27494,7.08926 c 1.69729,0.97525 3.86346,0.39385 4.8387,-1.29407 z"
       id="path3888"
       inkscape:connector-curvature="0" />
    <path
       style="fill:#bfbfbf;fill-opacity:1;fill-rule:evenodd;stroke:none"
       d="m 243.38876,101.01266 -30.69202,17.72317 c -16.95423,9.78056 -28.31956,21.83982 -25.38445,26.93171 2.93511,5.08252 19.06412,1.27532 36.01835,-8.51462 l 30.69202,-17.72317 z"
       id="path3890"
       inkscape:connector-curvature="0" />
    <path
       style="fill:none;stroke:#000000;stroke-width:0.30945209px;stroke-linecap:butt;stroke-linejoin:round;stroke-opacity:1;stroke-dasharray:none"
       d="m 243.38876,101.01266 -30.69202,17.72317 c -16.95423,9.78056 -28.31956,21.83982 -25.38445,26.93171 2.93511,5.08252 19.06412,1.27532 36.01835,-8.51462 l 30.69202,-17.72317 z"
       id="path3892"
       inkscape:connector-curvature="0" />
    <path
       style="fill:#fac090;fill-opacity:1;fill-rule:evenodd;stroke:none"
       d="m 260.03353,87.302999 c -0.97524,-1.68792 -3.14141,-2.269315 -4.8387,-1.294072 l -12.27494,7.089266 c -1.6973,0.975243 -2.27869,3.150785 -1.30345,4.838706 l 14.17853,24.559241 c 0.98463,1.6973 3.15079,2.27869 4.84809,1.30345 l 12.27493,-7.08926 c 1.6973,-0.98462 2.27869,-3.15079 1.29407,-4.84809 z"
       id="path3894"
       inkscape:connector-curvature="0" />
    <path
       style="fill:none;stroke:#000000;stroke-width:0.30945209px;stroke-linecap:butt;stroke-linejoin:round;stroke-opacity:1;stroke-dasharray:none"
       d="m 260.03353,87.302999 c -0.97524,-1.68792 -3.14141,-2.269315 -4.8387,-1.294072 l -12.27494,7.089266 c -1.6973,0.975243 -2.27869,3.150785 -1.30345,4.838706 l 14.17853,24.559241 c 0.98463,1.6973 3.15079,2.27869 4.84809,1.30345 l 12.27493,-7.08926 c 1.6973,-0.98462 2.27869,-3.15079 1.29407,-4.84809 z"
       id="path3896"
       inkscape:connector-curvature="0" />
    <path
       style="fill:#4a7ebb;fill-opacity:1;fill-rule:nonzero;stroke:#4a7ebb;stroke-width:0.00937734px;stroke-linecap:butt;stroke-linejoin:round;stroke-opacity:1;stroke-dasharray:none"
       d="m 76.24712,110.61506 58.98344,34.0491 -1.4066,2.43811 -58.98344,-34.04911 z m 2.916352,10.39946 -6.039005,-10.57763 12.18116,-0.0563 0,0 c 0.778319,0 1.4066,0.61891 1.415978,1.39723 0,0.77832 -0.628282,1.41597 -1.406601,1.41597 l -9.771184,0.0469 1.219054,-2.1099 4.848082,8.48649 c 0.384471,0.67517 0.150038,1.52851 -0.52513,1.92235 -0.675169,0.38447 -1.528506,0.15004 -1.922354,-0.52513 z"
       id="path3898"
       inkscape:connector-curvature="0" />
    <path
       style="fill:#ff0000;fill-opacity:1;fill-rule:nonzero;stroke:#ff0000;stroke-width:0.00937734px;stroke-linecap:butt;stroke-linejoin:round;stroke-opacity:1;stroke-dasharray:none"
       d="m 70.170606,91.485291 -16.325942,28.282049 2.42873,1.4066 16.33532,-28.282048 z m 2.672541,10.465109 -0.05626,-12.181161 -10.577635,6.039004 c -0.675168,0.384471 -0.909602,1.247186 -0.525131,1.922354 0.384471,0.675168 1.247186,0.909602 1.922354,0.525131 l 8.477112,-4.848083 -2.100523,-1.219054 0.04689,9.771189 c 0,0.77831 0.628282,1.4066 1.406601,1.39722 0.778319,0 1.4066,-0.62828 1.4066,-1.4066 z"
       id="path3900"
       inkscape:connector-curvature="0" />
    <path
       style="fill:#4a7ebb;fill-opacity:1;fill-rule:nonzero;stroke:#4a7ebb;stroke-width:0.00937734px;stroke-linecap:butt;stroke-linejoin:round;stroke-opacity:1;stroke-dasharray:none"
       d="m 76.24712,211.85278 58.98344,-34.04911 -1.4066,-2.43811 -58.98344,34.04911 z m 2.916352,-10.39947 -6.039005,10.57764 12.18116,0.0563 c 0.778319,0 1.4066,-0.62828 1.415978,-1.4066 0,-0.76894 -0.628282,-1.4066 -1.406601,-1.4066 l -9.771184,-0.0469 1.219054,2.10053 4.848082,-8.47711 c 0.384471,-0.67517 0.150038,-1.53789 -0.52513,-1.92236 -0.675169,-0.38447 -1.528506,-0.15004 -1.922354,0.52513 z"
       id="path3902"
       inkscape:connector-curvature="0" />
    <path
       style="fill:#4a7ebb;fill-opacity:1;fill-rule:nonzero;stroke:#4a7ebb;stroke-width:0.00937734px;stroke-linecap:butt;stroke-linejoin:round;stroke-opacity:1;stroke-dasharray:none"
       d="m 248.00241,109.00216 -58.98345,34.0491 1.4066,2.43811 58.98345,-34.04911 z m -54.65112,26.08774 -6.039,10.57764 12.18116,0.0563 c 0.76894,0 1.4066,-0.62828 1.4066,-1.39722 0.009,-0.77832 -0.6189,-1.41598 -1.39722,-1.41598 l -9.77119,-0.0469 1.21906,2.1099 4.8387,-8.48649 c 0.39385,-0.67517 0.15942,-1.53789 -0.51575,-1.92236 -0.67517,-0.38447 -1.53789,-0.15003 -1.92236,0.52513 z"
       id="path3904"
       inkscape:connector-curvature="0" />
    <path
       style="fill:#4a7ebb;fill-opacity:1;fill-rule:nonzero;stroke:#4a7ebb;stroke-width:0.00937734px;stroke-linecap:butt;stroke-linejoin:round;stroke-opacity:1;stroke-dasharray:none"
       d="m 248.00241,213.02494 -58.98345,-34.0491 1.4066,-2.43811 58.98345,34.04911 z m -54.65112,-26.08774 -6.039,-10.57764 12.18116,-0.0563 c 0.76894,0 1.4066,0.62828 1.4066,1.39722 0.009,0.77832 -0.6189,1.41598 -1.39722,1.41598 l -9.77119,0.0469 1.21906,-2.1099 4.8387,8.48649 c 0.39385,0.67517 0.15942,1.53789 -0.51575,1.92236 -0.67517,0.38447 -1.53789,0.15003 -1.92236,-0.52513 z"
       id="path3906"
       inkscape:connector-curvature="0" />
    <path
       style="fill:#ff0000;fill-opacity:1;fill-rule:nonzero;stroke:#ff0000;stroke-width:0.00937734px;stroke-linecap:butt;stroke-linejoin:round;stroke-opacity:1;stroke-dasharray:none"
       d="m 57.670617,203.70387 16.325942,28.28205 -2.42873,1.4066 -16.335319,-28.28205 z m -2.672541,10.46511 0.05626,-12.18116 10.577636,6.04838 c 0.675168,0.38447 0.909601,1.23781 0.52513,1.91298 -0.38447,0.67517 -1.247185,0.9096 -1.922354,0.52513 l -8.477111,-4.84808 2.100523,-1.20968 -0.04689,9.77118 c 0,0.76895 -0.628281,1.39723 -1.4066,1.39723 -0.778319,0 -1.406601,-0.63766 -1.406601,-1.41598 z"
       id="path3908"
       inkscape:connector-curvature="0" />
    <path
       style="fill:#ff0000;fill-opacity:1;fill-rule:nonzero;stroke:#ff0000;stroke-width:0.00937734px;stroke-linecap:butt;stroke-linejoin:round;stroke-opacity:1;stroke-dasharray:none"
       d="m 265.55678,120.95826 -16.32594,-28.291424 2.43811,-1.406601 16.32594,28.291425 z m -16.56037,-19.23292 0.0563,-12.181157 10.57764,6.048382 c 0.67516,0.38447 0.9096,1.247185 0.52513,1.922353 -0.38447,0.675169 -1.24719,0.900225 -1.92236,0.515754 l 0,0 -8.48649,-4.848083 2.1099,-1.209676 -0.0469,9.771187 c 0,0.77832 -0.63766,1.4066 -1.41598,1.39722 -0.76894,0 -1.39722,-0.63766 -1.39722,-1.41598 z"
       id="path3910"
       inkscape:connector-curvature="0" />
    <path
       style="fill:#ff0000;fill-opacity:1;fill-rule:nonzero;stroke:#ff0000;stroke-width:0.00937734px;stroke-linecap:butt;stroke-linejoin:round;stroke-opacity:1;stroke-dasharray:none"
       d="m 250.27172,233.17684 16.33532,-28.28205 -2.4381,-1.4066 -16.33532,28.28205 z m 16.56038,-19.22354 -0.0469,-12.18116 -10.57763,6.03901 c -0.67517,0.38447 -0.9096,1.24718 -0.52513,1.92235 0.38447,0.67517 1.24718,0.9096 1.91297,0.52513 l 8.48649,-4.84808 -2.10052,-1.21906 0.0375,9.77119 c 0.009,0.77832 0.63766,1.4066 1.41598,1.4066 0.77832,-0.009 1.4066,-0.63766 1.39722,-1.41598 z"
       id="path3912"
       inkscape:connector-curvature="0" />
    <text
       xml:space="preserve"
       x="256.33069"
       y="138.07928"
       style="font-size:13.20328903px;font-style:normal;font-weight:normal;text-align:start;text-anchor:start;fill:#000000;font-family:Calibri"
       id="text3914">L1</text>
    <text
       xml:space="preserve"
       x="180.82555"
       y="56.513092"
       style="font-size:13.20328903px;font-style:normal;font-weight:normal;text-align:start;text-anchor:start;fill:#000000;font-family:Calibri"
       id="text3916">L2</text>
    <text
       xml:space="preserve"
       x="75.503456"
       y="88.233986"
       style="font-size:13.20328903px;font-style:normal;font-weight:normal;text-align:start;text-anchor:start;fill:#000000;font-family:Calibri"
       id="text3918">L3</text>
    <text
       xml:space="preserve"
       x="50.7337"
       y="193.24046"
       style="font-size:13.20328903px;font-style:normal;font-weight:normal;text-align:start;text-anchor:start;fill:#000000;font-family:Calibri"
       id="text3920">L4</text>
    <text
       xml:space="preserve"
       x="127.15815"
       y="269.08368"
       style="font-size:13.20328903px;font-style:normal;font-weight:normal;text-align:start;text-anchor:start;fill:#000000;font-family:Calibri"
       id="text3922">L5</text>
    <text
       xml:space="preserve"
       x="231.85815"
       y="241.78722"
       style="font-size:13.20328903px;font-style:normal;font-weight:normal;text-align:start;text-anchor:start;fill:#000000;font-family:Calibri"
       id="text3924">L6</text>
    <text
       xml:space="preserve"
       x="324.4202"
       y="152.64275"
       style="font-size:13.20328903px;font-style:normal;font-weight:normal;text-align:start;text-anchor:start;fill:#000000;font-family:Calibri"
       id="text3926">PS V+</text>
    <path
       style="fill:none;stroke:#4a7ebb;stroke-width:0.93773359px;stroke-linecap:butt;stroke-linejoin:round;stroke-opacity:1;stroke-dasharray:none"
       d="m 249.05267,89.55356 c 0,-33.570863 -53.64774,-67.141727 -107.30486,-67.141727 -53.657114,0 -107.304854,24.18415 -107.304854,48.377677 0,24.18415 5.148157,48.37768 10.305692,48.37768 5.157535,0 10.31507,0.64703 10.31507,1.30345"
       id="path3928"
       inkscape:connector-curvature="0" />
    <path
       style="fill:none;stroke:#4a7ebb;stroke-width:0.93773359px;stroke-linecap:butt;stroke-linejoin:round;stroke-opacity:1;stroke-dasharray:none"
       d="m 315.35981,148.27444 c -24.2873,0 -48.5746,-14.00974 -48.5746,-28.01948"
       id="path3930"
       inkscape:connector-curvature="0" />
    <path
       style="fill:none;stroke:#4a7ebb;stroke-width:0.93773359px;stroke-linecap:butt;stroke-linejoin:round;stroke-opacity:1;stroke-dasharray:none"
       d="m 73.405787,233.3175 c 0,11.2528 -12.575008,22.50561 -25.159393,22.50561 -12.575007,0 -25.159392,-46.98046 -25.159392,-93.96091 0,-46.98983 12.265555,-93.970286 24.540488,-93.970286 12.265556,0 24.531112,11.252803 24.531112,22.505606"
       id="path3932"
       inkscape:connector-curvature="0" />
    <path
       style="fill:none;stroke:#4a7ebb;stroke-width:0.93773359px;stroke-linecap:butt;stroke-linejoin:round;stroke-opacity:1;stroke-dasharray:none"
       d="m 249.05267,232.47354 c 0,33.19577 -54.21038,66.40092 -108.42076,66.40092 -54.21038,0 -108.42076,-25.00936 -108.42076,-50.01871 0,-25.00936 5.710797,-50.01871 11.421595,-50.01871 5.710798,0 11.430973,1.57539 11.430973,3.16016"
       id="path3934"
       inkscape:connector-curvature="0" />
    <text
       xml:space="preserve"
       x="324.42029"
       y="184.50581"
       style="font-size:13.20328903px;font-style:normal;font-weight:normal;text-align:start;text-anchor:start;fill:#000000;font-family:Calibri"
       id="text3936">PS V</text>
    <text
       xml:space="preserve"
       x="347.67609"
       y="184.50581"
       style="font-size:13.20328903px;font-style:normal;font-weight:normal;text-align:start;text-anchor:start;fill:#000000;font-family:Calibri"
       id="text3938">-</text>
    <path
       style="fill:none;stroke:#4a7ebb;stroke-width:0.93773359px;stroke-linecap:butt;stroke-linejoin:round;stroke-opacity:1;stroke-dasharray:none"
       d="m 266.78521,201.78152 c 0,-10.82145 24.2873,-21.64289 48.5746,-21.64289"
       id="path3940"
       inkscape:connector-curvature="0" />
    <text
       xml:space="preserve"
       x="167.55128"
       y="176.08894"
       style="font-size:13.20328903px;font-style:italic;font-weight:normal;text-align:start;text-anchor:start;fill:#000000;font-family:Calibri"
       id="text3942">e</text>
    <text
       xml:space="preserve"
       x="173.85286"
       y="172.18797"
       style="font-size:8.70216751px;font-style:italic;font-weight:normal;text-align:start;text-anchor:start;fill:#000000;font-family:Calibri"
       id="text3944">-</text>
  </g>
  <g
     style="font-size:40px;font-style:normal;font-weight:normal;line-height:125%;letter-spacing:0px;word-spacing:0px;fill:#000000;fill-opacity:1;stroke:none;font-family:Sans"
     id="text3375">
    <g
       style="fill:#000000;font-family:Sans"
       id="text3066">
      <path
         d="m 86.887695,175.07962 -3.328125,-8.58984 1.230469,0 2.232422,6.24023 c 0.179684,0.5 0.330074,0.96875 0.451172,1.40625 0.132808,-0.46875 0.287105,-0.9375 0.46289,-1.40625 l 2.320313,-6.24023 1.160156,0 -3.363281,8.58984 z"
         style="font-size:12px;text-align:center;text-anchor:middle"
         id="path3075" />
      <path
         d="m 96.573242,173.07571 1.089844,0.13477 c -0.171881,0.63672 -0.49024,1.13086 -0.955078,1.48242 -0.464849,0.35156 -1.058598,0.52735 -1.78125,0.52735 -0.910159,0 -1.631838,-0.28028 -2.165039,-0.84082 -0.533204,-0.56055 -0.799805,-1.34668 -0.799805,-2.3584 0,-1.04687 0.269531,-1.85937 0.808594,-2.4375 0.539061,-0.57812 1.238279,-0.86718 2.097656,-0.86719 0.832027,1e-5 1.511714,0.28321 2.039063,0.84961 0.527337,0.56641 0.791009,1.36328 0.791015,2.39062 -6e-6,0.0625 -0.002,0.15626 -0.0059,0.28125 l -4.640625,0 c 0.03906,0.6836 0.23242,1.20704 0.580078,1.57032 0.347654,0.36328 0.781247,0.54492 1.300781,0.54492 0.386715,0 0.716793,-0.10156 0.990235,-0.30469 0.273432,-0.20312 0.490229,-0.52734 0.65039,-0.97266 z m -3.46289,-1.70507 3.474609,0 c -0.04688,-0.52344 -0.179692,-0.91602 -0.398438,-1.17774 -0.335941,-0.40624 -0.771488,-0.60937 -1.30664,-0.60937 -0.484378,0 -0.891604,0.16211 -1.22168,0.48632 -0.33008,0.32423 -0.512697,0.75782 -0.547851,1.30079 z"
         style="font-size:12px;text-align:center;text-anchor:middle"
         id="path3077" />
      <path
         d="m 98.981445,175.07962 0,-6.22266 0.949219,0 0,0.94336 c 0.242186,-0.4414 0.465816,-0.73241 0.670896,-0.87304 0.20508,-0.14062 0.43066,-0.21093 0.67676,-0.21094 0.35547,1e-5 0.71679,0.11329 1.08398,0.33984 l -0.36328,0.97852 c -0.25781,-0.15234 -0.51562,-0.22851 -0.77343,-0.22852 -0.23048,10e-6 -0.43751,0.0693 -0.6211,0.20801 -0.18359,0.13868 -0.31445,0.33106 -0.39258,0.57715 -0.11719,0.375 -0.17578,0.78516 -0.17578,1.23047 l 0,3.25781 z"
         style="font-size:12px;text-align:center;text-anchor:middle"
         id="path3079" />
      <path
         d="m 105.30371,174.13626 0.15234,0.93164 c -0.29687,0.0625 -0.5625,0.0937 -0.79687,0.0937 -0.38281,0 -0.67969,-0.0606 -0.89063,-0.18164 -0.21093,-0.12109 -0.35937,-0.28027 -0.44531,-0.47754 -0.0859,-0.19726 -0.12891,-0.6123 -0.1289,-1.24512 l 0,-3.58007 -0.77344,0 0,-0.82032 0.77344,0 0,-1.54101 1.04882,-0.63281 0,2.17382 1.06055,0 0,0.82032 -1.06055,0 0,3.63867 c 0,0.30078 0.0186,0.49414 0.0557,0.58008 0.0371,0.0859 0.0977,0.15429 0.18164,0.20507 0.084,0.0508 0.2041,0.0762 0.36035,0.0762 0.11719,0 0.27148,-0.0137 0.46289,-0.041 z"
         style="font-size:12px;text-align:center;text-anchor:middle"
         id="path3081" />
      <path
         d="m 106.33496,167.70267 0,-1.21289 1.05469,0 0,1.21289 z m 0,7.37695 0,-6.22266 1.05469,0 0,6.22266 z"
         style="font-size:12px;text-align:center;text-anchor:middle"
         id="path3083" />
      <path
         d="m 113.06152,172.80032 1.03711,0.13477 c -0.11328,0.71484 -0.40332,1.27441 -0.87011,1.67871 -0.46681,0.4043 -1.04005,0.60645 -1.71973,0.60645 -0.85157,0 -1.53614,-0.27832 -2.05371,-0.83497 -0.51758,-0.55663 -0.77637,-1.35449 -0.77637,-2.39355 0,-0.67187 0.11133,-1.25976 0.33399,-1.76367 0.22265,-0.5039 0.56152,-0.88183 1.0166,-1.13379 0.45507,-0.25195 0.95019,-0.37792 1.48535,-0.37793 0.67578,1e-5 1.22851,0.1709 1.6582,0.51269 0.42968,0.34181 0.70507,0.82716 0.82617,1.45606 l -1.02539,0.1582 c -0.0977,-0.41796 -0.27051,-0.73241 -0.51855,-0.94336 -0.24805,-0.21093 -0.54786,-0.3164 -0.89942,-0.3164 -0.53125,0 -0.96289,0.19043 -1.29492,0.57129 -0.33203,0.38086 -0.49805,0.9834 -0.49804,1.80761 -10e-6,0.83594 0.16015,1.44336 0.48046,1.82227 0.32031,0.37891 0.73828,0.56836 1.25391,0.56836 0.41406,0 0.75976,-0.12695 1.03711,-0.38086 0.27734,-0.25391 0.45312,-0.64453 0.52734,-1.17188 z"
         style="font-size:12px;text-align:center;text-anchor:middle"
         id="path3085" />
      <path
         d="m 119.06152,174.31204 c -0.39063,0.33203 -0.7666,0.56641 -1.12793,0.70313 -0.36133,0.13672 -0.74902,0.20508 -1.16308,0.20508 -0.6836,0 -1.20899,-0.167 -1.57617,-0.50098 -0.36719,-0.33398 -0.55079,-0.76074 -0.55079,-1.28027 0,-0.30469 0.0693,-0.58301 0.20801,-0.83497 0.13867,-0.25195 0.32031,-0.45409 0.54492,-0.60644 0.22461,-0.15234 0.47754,-0.26758 0.75879,-0.3457 0.20703,-0.0547 0.51953,-0.10742 0.9375,-0.15821 0.85156,-0.10156 1.47851,-0.22265 1.88086,-0.36328 0.004,-0.14453 0.006,-0.23632 0.006,-0.27539 0,-0.42968 -0.0996,-0.73242 -0.29883,-0.9082 -0.26953,-0.23828 -0.66992,-0.35742 -1.20117,-0.35742 -0.49609,0 -0.8623,0.0869 -1.09863,0.26074 -0.23633,0.17383 -0.41114,0.48145 -0.52441,0.92285 l -1.03125,-0.14063 c 0.0937,-0.4414 0.24804,-0.79784 0.46289,-1.06933 0.21484,-0.27148 0.52538,-0.48046 0.93164,-0.62695 0.40624,-0.14648 0.87695,-0.21972 1.41211,-0.21973 0.53124,1e-5 0.96288,0.0625 1.29492,0.1875 0.33202,0.12501 0.57616,0.28223 0.73242,0.47168 0.15624,0.18946 0.26562,0.42872 0.32812,0.71777 0.0352,0.17969 0.0527,0.50391 0.0527,0.97266 l 0,1.40625 c -1e-5,0.98047 0.0224,1.60059 0.0674,1.86035 0.0449,0.25977 0.13378,0.50879 0.2666,0.74707 l -1.10156,0 c -0.10938,-0.21875 -0.17969,-0.47461 -0.21094,-0.76758 z m -0.0879,-2.35547 c -0.38281,0.15626 -0.95703,0.28907 -1.72265,0.39844 -0.4336,0.0625 -0.74024,0.13282 -0.91993,0.21094 -0.17968,0.0781 -0.31836,0.19238 -0.41601,0.34277 -0.0977,0.15039 -0.14649,0.31739 -0.14649,0.50098 0,0.28125 0.10645,0.51562 0.31934,0.70312 0.21289,0.1875 0.52441,0.28125 0.93457,0.28125 0.40625,0 0.76758,-0.0889 1.08399,-0.2666 0.3164,-0.17773 0.54882,-0.4209 0.69726,-0.72949 0.11328,-0.23828 0.16992,-0.58984 0.16992,-1.05469 z"
         style="font-size:12px;text-align:center;text-anchor:middle"
         id="path3087" />
      <path
         d="m 121.65723,175.07962 0,-8.58984 1.05468,0 0,8.58984 z"
         style="font-size:12px;text-align:center;text-anchor:middle"
         id="path3089" />
      <path
         d="m 127.42871,172.31985 1.07227,-0.0937 c 0.0508,0.42969 0.16894,0.78223 0.35449,1.05762 0.18554,0.27539 0.47363,0.49805 0.86426,0.66797 0.39062,0.16992 0.83007,0.25488 1.31836,0.25488 0.43359,0 0.8164,-0.0644 1.14843,-0.19336 0.33203,-0.1289 0.5791,-0.30566 0.74121,-0.53027 0.16211,-0.22461 0.24316,-0.46972 0.24317,-0.73535 -10e-6,-0.26953 -0.0781,-0.50488 -0.23438,-0.70606 -0.15625,-0.20116 -0.41406,-0.37011 -0.77343,-0.50683 -0.23048,-0.0898 -0.74024,-0.22949 -1.5293,-0.41895 -0.78907,-0.18945 -1.3418,-0.36816 -1.6582,-0.53613 -0.41016,-0.21484 -0.71583,-0.48144 -0.917,-0.7998 -0.20117,-0.31836 -0.30175,-0.6748 -0.30175,-1.06934 0,-0.43359 0.12304,-0.83886 0.36914,-1.21582 0.24609,-0.37695 0.60546,-0.66308 1.07812,-0.8584 0.47266,-0.1953 0.99805,-0.29296 1.57617,-0.29297 0.63672,1e-5 1.19824,0.10255 1.68457,0.30762 0.48633,0.20509 0.86035,0.50684 1.12207,0.90527 0.26172,0.39845 0.40234,0.84962 0.42188,1.35352 l -1.08984,0.082 c -0.0586,-0.54296 -0.25685,-0.95312 -0.59473,-1.23047 -0.3379,-0.27734 -0.83692,-0.41601 -1.49707,-0.41601 -0.6875,0 -1.18848,0.12598 -1.50293,0.37793 -0.31446,0.25196 -0.47168,0.55567 -0.47168,0.91113 0,0.3086 0.11133,0.5625 0.33398,0.76172 0.21875,0.19922 0.79004,0.40332 1.71387,0.6123 0.92382,0.20899 1.55761,0.39161 1.90137,0.54785 0.49999,0.23048 0.86913,0.52247 1.10742,0.87598 0.23827,0.35352 0.35741,0.76074 0.35742,1.22168 -1e-5,0.45703 -0.13087,0.8877 -0.39258,1.29199 -0.26172,0.4043 -0.6377,0.71875 -1.12793,0.94336 -0.49024,0.22461 -1.04199,0.33691 -1.65527,0.33691 -0.77735,0 -1.42871,-0.11328 -1.9541,-0.33984 -0.52539,-0.22656 -0.9375,-0.56738 -1.23633,-1.02246 -0.29883,-0.45508 -0.45605,-0.96972 -0.47168,-1.54395 z"
         style="font-size:12px;text-align:center;text-anchor:middle"
         id="path3091" />
      <path
         d="m 137.99902,174.13626 0.15235,0.93164 c -0.29688,0.0625 -0.56251,0.0937 -0.79688,0.0937 -0.38281,0 -0.67969,-0.0606 -0.89062,-0.18164 -0.21094,-0.12109 -0.35938,-0.28027 -0.44532,-0.47754 -0.0859,-0.19726 -0.1289,-0.6123 -0.1289,-1.24512 l 0,-3.58007 -0.77344,0 0,-0.82032 0.77344,0 0,-1.54101 1.04883,-0.63281 0,2.17382 1.06054,0 0,0.82032 -1.06054,0 0,3.63867 c -1e-5,0.30078 0.0186,0.49414 0.0557,0.58008 0.0371,0.0859 0.0977,0.15429 0.18164,0.20507 0.084,0.0508 0.2041,0.0762 0.36035,0.0762 0.11719,0 0.27148,-0.0137 0.46289,-0.041 z"
         style="font-size:12px;text-align:center;text-anchor:middle"
         id="path3093" />
      <path
         d="m 143.28418,173.07571 1.08984,0.13477 c -0.17188,0.63672 -0.49024,1.13086 -0.95507,1.48242 -0.46485,0.35156 -1.0586,0.52735 -1.78125,0.52735 -0.91016,0 -1.63184,-0.28028 -2.16504,-0.84082 -0.53321,-0.56055 -0.79981,-1.34668 -0.79981,-2.3584 0,-1.04687 0.26953,-1.85937 0.8086,-2.4375 0.53906,-0.57812 1.23827,-0.86718 2.09765,-0.86719 0.83203,1e-5 1.51172,0.28321 2.03906,0.84961 0.52734,0.56641 0.79101,1.36328 0.79102,2.39062 -1e-5,0.0625 -0.002,0.15626 -0.006,0.28125 l -4.64062,0 c 0.0391,0.6836 0.23242,1.20704 0.58007,1.57032 0.34766,0.36328 0.78125,0.54492 1.30078,0.54492 0.38672,0 0.7168,-0.10156 0.99024,-0.30469 0.27343,-0.20312 0.49023,-0.52734 0.65039,-0.97266 z m -3.46289,-1.70507 3.47461,0 c -0.0469,-0.52344 -0.17969,-0.91602 -0.39844,-1.17774 -0.33594,-0.40624 -0.77149,-0.60937 -1.30664,-0.60937 -0.48438,0 -0.8916,0.16211 -1.22168,0.48632 -0.33008,0.32423 -0.5127,0.75782 -0.54785,1.30079 z"
         style="font-size:12px;text-align:center;text-anchor:middle"
         id="path3095" />
      <path
         d="m 149.96387,173.07571 1.08984,0.13477 c -0.17188,0.63672 -0.49024,1.13086 -0.95508,1.48242 -0.46485,0.35156 -1.0586,0.52735 -1.78125,0.52735 -0.91016,0 -1.63183,-0.28028 -2.16504,-0.84082 -0.5332,-0.56055 -0.7998,-1.34668 -0.7998,-2.3584 0,-1.04687 0.26953,-1.85937 0.80859,-2.4375 0.53906,-0.57812 1.23828,-0.86718 2.09766,-0.86719 0.83203,1e-5 1.51171,0.28321 2.03906,0.84961 0.52734,0.56641 0.79101,1.36328 0.79102,2.39062 -10e-6,0.0625 -0.002,0.15626 -0.006,0.28125 l -4.64063,0 c 0.0391,0.6836 0.23242,1.20704 0.58008,1.57032 0.34765,0.36328 0.78125,0.54492 1.30078,0.54492 0.38672,0 0.71679,-0.10156 0.99024,-0.30469 0.27343,-0.20312 0.49023,-0.52734 0.65039,-0.97266 z m -3.46289,-1.70507 3.47461,0 c -0.0469,-0.52344 -0.1797,-0.91602 -0.39844,-1.17774 -0.33594,-0.40624 -0.77149,-0.60937 -1.30664,-0.60937 -0.48438,0 -0.89161,0.16211 -1.22168,0.48632 -0.33008,0.32423 -0.5127,0.75782 -0.54785,1.30079 z"
         style="font-size:12px;text-align:center;text-anchor:middle"
         id="path3097" />
      <path
         d="m 152.37207,175.07962 0,-6.22266 0.94922,0 0,0.94336 c 0.24218,-0.4414 0.46582,-0.73241 0.6709,-0.87304 0.20507,-0.14062 0.43066,-0.21093 0.67676,-0.21094 0.35546,1e-5 0.71679,0.11329 1.08398,0.33984 l -0.36328,0.97852 c -0.25782,-0.15234 -0.51563,-0.22851 -0.77344,-0.22852 -0.23047,10e-6 -0.4375,0.0693 -0.62109,0.20801 -0.1836,0.13868 -0.31446,0.33106 -0.39258,0.57715 -0.11719,0.375 -0.17578,0.78516 -0.17578,1.23047 l 0,3.25781 z"
         style="font-size:12px;text-align:center;text-anchor:middle"
         id="path3099" />
      <path
         d="m 160.65137,173.07571 1.08984,0.13477 c -0.17188,0.63672 -0.49024,1.13086 -0.95508,1.48242 -0.46485,0.35156 -1.0586,0.52735 -1.78125,0.52735 -0.91016,0 -1.63183,-0.28028 -2.16504,-0.84082 -0.5332,-0.56055 -0.7998,-1.34668 -0.7998,-2.3584 0,-1.04687 0.26953,-1.85937 0.80859,-2.4375 0.53906,-0.57812 1.23828,-0.86718 2.09766,-0.86719 0.83203,1e-5 1.51171,0.28321 2.03906,0.84961 0.52734,0.56641 0.79101,1.36328 0.79102,2.39062 -10e-6,0.0625 -0.002,0.15626 -0.006,0.28125 l -4.64063,0 c 0.0391,0.6836 0.23242,1.20704 0.58008,1.57032 0.34765,0.36328 0.78125,0.54492 1.30078,0.54492 0.38672,0 0.71679,-0.10156 0.99024,-0.30469 0.27343,-0.20312 0.49023,-0.52734 0.65039,-0.97266 z m -3.46289,-1.70507 3.47461,0 c -0.0469,-0.52344 -0.1797,-0.91602 -0.39844,-1.17774 -0.33594,-0.40624 -0.77149,-0.60937 -1.30664,-0.60937 -0.48438,0 -0.89161,0.16211 -1.22168,0.48632 -0.33008,0.32423 -0.5127,0.75782 -0.54785,1.30079 z"
         style="font-size:12px;text-align:center;text-anchor:middle"
         id="path3101" />
      <path
         d="m 163.05957,175.07962 0,-6.22266 0.94922,0 0,0.94336 c 0.24218,-0.4414 0.46582,-0.73241 0.6709,-0.87304 0.20507,-0.14062 0.43066,-0.21093 0.67676,-0.21094 0.35546,1e-5 0.71679,0.11329 1.08398,0.33984 l -0.36328,0.97852 c -0.25782,-0.15234 -0.51563,-0.22851 -0.77344,-0.22852 -0.23047,10e-6 -0.4375,0.0693 -0.62109,0.20801 -0.1836,0.13868 -0.31446,0.33106 -0.39258,0.57715 -0.11719,0.375 -0.17578,0.78516 -0.17578,1.23047 l 0,3.25781 z"
         style="font-size:12px;text-align:center;text-anchor:middle"
         id="path3103" />
      <path
         d="m 94.213058,189.64257 0,0.2168 -3.404296,0 0,-0.2168 0.28125,0 c 0.328124,0 0.566405,-0.0957 0.714843,-0.28711 0.09375,-0.125 0.140624,-0.42578 0.140625,-0.90234 l 0,-5.13281 c -10e-7,-0.40234 -0.02539,-0.66797 -0.07617,-0.79688 -0.03906,-0.0976 -0.119141,-0.18163 -0.240234,-0.25195 -0.171876,-0.0937 -0.351563,-0.14062 -0.539062,-0.14063 l -0.28125,0 0,-0.21679 3.404296,0 0,0.21679 -0.287109,0 c -0.324222,1e-5 -0.56055,0.0957 -0.708984,0.28711 -0.09766,0.12501 -0.146487,0.42579 -0.146485,0.90235 l 0,5.13281 c -2e-6,0.40234 0.02539,0.66797 0.07617,0.79687 0.03906,0.0977 0.121091,0.18164 0.246094,0.25196 0.167966,0.0937 0.3457,0.14062 0.533203,0.14062 z"
         style="font-size:12px;font-variant:normal;font-stretch:normal;text-align:center;text-anchor:middle;font-family:Serif;-inkscape-font-specification:Serif"
         id="path3105" />
      <path
         d="m 104.03923,186.0332 -6.304687,2.73047 0,-0.50391 5.431637,-2.35547 -5.431637,-2.37891 0,-0.5332 6.304687,2.75391 z"
         style="font-size:12px;font-variant:normal;font-stretch:normal;text-align:center;text-anchor:middle;font-family:Serif;-inkscape-font-specification:Serif"
         id="path3107" />
      <path
         d="m 107.72478,185.93359 c 0,-0.90625 0.13672,-1.68652 0.41015,-2.34082 0.27344,-0.65429 0.63672,-1.1416 1.08985,-1.46192 0.35156,-0.2539 0.71484,-0.38085 1.08984,-0.38086 0.60937,1e-5 1.15625,0.31056 1.64063,0.93164 0.60546,0.76954 0.90819,1.81251 0.9082,3.12891 -1e-5,0.92188 -0.13282,1.70508 -0.39844,2.34961 -0.26563,0.64453 -0.6045,1.1123 -1.0166,1.40332 -0.41211,0.29102 -0.80957,0.43652 -1.19238,0.43652 -0.75782,0 -1.38868,-0.44726 -1.89258,-1.34179 -0.42578,-0.75391 -0.63867,-1.66211 -0.63867,-2.72461 z m 1.14843,0.14648 c 0,1.09375 0.13477,1.98633 0.4043,2.67774 0.22266,0.58203 0.55469,0.87304 0.9961,0.87304 0.21093,0 0.42968,-0.0947 0.65625,-0.28418 0.22655,-0.18945 0.39843,-0.50683 0.51562,-0.95215 0.17968,-0.67187 0.26953,-1.61913 0.26953,-2.84179 0,-0.90625 -0.0937,-1.66211 -0.28125,-2.26758 -0.14063,-0.44921 -0.32227,-0.76757 -0.54492,-0.95508 -0.16016,-0.1289 -0.35352,-0.19335 -0.58008,-0.19336 -0.26563,1e-5 -0.50195,0.11915 -0.70898,0.35742 -0.28125,0.32423 -0.47266,0.834 -0.57422,1.5293 -0.10157,0.69532 -0.15235,1.38086 -0.15235,2.05664 z"
         style="font-size:12px;font-variant:normal;font-stretch:normal;text-align:center;text-anchor:middle;font-family:Serif;-inkscape-font-specification:Serif"
         id="path3109" />
      <path
         d="m 125.40251,184.72656 c 0.51952,0.56641 0.96874,0.99707 1.34766,1.29199 0.37889,0.29492 0.73631,0.51465 1.07226,0.65918 l 0,0.26367 c -0.38673,0.1875 -0.76173,0.42676 -1.125,0.71777 -0.36329,0.29102 -0.79688,0.71778 -1.30078,1.28028 l -0.45117,0 c 0.36718,-0.78516 0.75194,-1.38867 1.1543,-1.81055 l -9.34571,0 0,-0.5918 9.34571,0 c -0.29689,-0.3789 -0.50392,-0.66015 -0.6211,-0.84375 -0.11719,-0.18359 -0.29102,-0.50585 -0.52148,-0.96679 z"
         style="font-size:12px;font-variant:normal;font-stretch:normal;text-align:center;text-anchor:middle;font-family:Serif;-inkscape-font-specification:Serif"
         id="path3111" />
      <path
         d="m 134.7072,189.08593 c -0.55079,0.42578 -0.89649,0.67188 -1.03711,0.73828 -0.21094,0.0977 -0.43555,0.14649 -0.67383,0.14649 -0.37109,0 -0.67676,-0.12696 -0.91699,-0.38086 -0.24024,-0.25391 -0.36035,-0.58789 -0.36035,-1.00196 0,-0.26171 0.0586,-0.48828 0.17578,-0.67968 0.16015,-0.26563 0.43847,-0.51563 0.83496,-0.75 0.39648,-0.23438 1.05566,-0.51953 1.97754,-0.85547 l 0,-0.21094 c 0,-0.53515 -0.085,-0.90234 -0.25488,-1.10156 -0.16993,-0.19922 -0.417,-0.29883 -0.74121,-0.29883 -0.2461,0 -0.44141,0.0664 -0.58594,0.19922 -0.14844,0.13282 -0.22266,0.28516 -0.22266,0.45703 l 0.0117,0.33984 c 0,0.17969 -0.0459,0.31837 -0.13769,0.41602 -0.0918,0.0977 -0.21192,0.14649 -0.36036,0.14648 -0.14453,1e-5 -0.26269,-0.0508 -0.35449,-0.15234 -0.0918,-0.10156 -0.13769,-0.24023 -0.13769,-0.41602 0,-0.33593 0.17187,-0.64452 0.51562,-0.92578 0.34375,-0.28124 0.82617,-0.42187 1.44727,-0.42187 0.47656,0 0.86718,0.0801 1.17187,0.24023 0.23047,0.1211 0.40039,0.31055 0.50977,0.56836 0.0703,0.16797 0.10546,0.51172 0.10547,1.03125 l 0,1.82227 c -1e-5,0.51172 0.01,0.82519 0.0293,0.94043 0.0195,0.11523 0.0518,0.19238 0.0967,0.23144 0.0449,0.0391 0.0967,0.0586 0.15528,0.0586 0.0625,0 0.11718,-0.0137 0.16406,-0.041 0.082,-0.0508 0.24023,-0.19336 0.47461,-0.42773 l 0,0.32812 c -0.43751,0.58594 -0.85548,0.87891 -1.25391,0.87891 -0.19141,0 -0.34375,-0.0664 -0.45703,-0.19922 -0.11328,-0.13281 -0.17188,-0.35938 -0.17578,-0.67969 z m 0,-0.38086 0,-2.04492 c -0.58985,0.23438 -0.97071,0.40039 -1.14258,0.49805 -0.30859,0.17187 -0.5293,0.35156 -0.66211,0.53906 -0.13281,0.1875 -0.19922,0.39258 -0.19922,0.61523 0,0.28125 0.084,0.51465 0.25196,0.7002 0.16796,0.18555 0.36132,0.27832 0.58007,0.27832 0.29688,0 0.6875,-0.19531 1.17188,-0.58594 z"
         style="font-size:12px;font-variant:normal;font-stretch:normal;text-align:center;text-anchor:middle;font-family:Serif;-inkscape-font-specification:Serif"
         id="path3113" />
      <path
         d="m 137.52557,187.60139 1.25685,-0.61319 0.12569,0 0,4.3609 c 0,0.28946 0.0121,0.46974 0.0362,0.54083 0.0241,0.0711 0.0743,0.12569 0.15044,0.16377 0.0762,0.0381 0.23106,0.0597 0.46466,0.0648 l 0,0.14092 -1.94241,0 0,-0.14092 c 0.24375,-0.005 0.40118,-0.026 0.47227,-0.0628 0.0711,-0.0368 0.12061,-0.0863 0.14854,-0.14854 0.0279,-0.0622 0.0419,-0.2482 0.0419,-0.55797 l 0,-2.78793 c 0,-0.37578 -0.0127,-0.61699 -0.0381,-0.72364 -0.0178,-0.0812 -0.0502,-0.14092 -0.0971,-0.17901 -0.047,-0.0381 -0.10347,-0.0571 -0.16949,-0.0571 -0.0939,1e-5 -0.22471,0.0394 -0.39229,0.11807 z"
         style="font-size:65.00091553%;baseline-shift:sub"
         id="path3115" />
      <path
         d="m 143.72835,185.72265 6.30469,-2.73047 0,0.50977 -5.42579,2.35547 5.42579,2.3789 0,0.52735 -6.30469,-2.75391 z"
         style="font-size:12px;font-variant:normal;font-stretch:normal;text-align:center;text-anchor:middle;font-family:Serif;-inkscape-font-specification:Serif"
         id="path3117" />
      <path
         d="m 153.71858,185.93359 c 0,-0.90625 0.13672,-1.68652 0.41016,-2.34082 0.27343,-0.65429 0.63672,-1.1416 1.08984,-1.46192 0.35156,-0.2539 0.71484,-0.38085 1.08985,-0.38086 0.60937,1e-5 1.15624,0.31056 1.64062,0.93164 0.60546,0.76954 0.9082,1.81251 0.9082,3.12891 0,0.92188 -0.13281,1.70508 -0.39843,2.34961 -0.26563,0.64453 -0.6045,1.1123 -1.01661,1.40332 -0.41211,0.29102 -0.80957,0.43652 -1.19238,0.43652 -0.75781,0 -1.38867,-0.44726 -1.89258,-1.34179 -0.42578,-0.75391 -0.63867,-1.66211 -0.63867,-2.72461 z m 1.14844,0.14648 c 0,1.09375 0.13476,1.98633 0.4043,2.67774 0.22265,0.58203 0.55468,0.87304 0.99609,0.87304 0.21093,0 0.42968,-0.0947 0.65625,-0.28418 0.22656,-0.18945 0.39843,-0.50683 0.51563,-0.95215 0.17968,-0.67187 0.26952,-1.61913 0.26953,-2.84179 -1e-5,-0.90625 -0.0938,-1.66211 -0.28125,-2.26758 -0.14063,-0.44921 -0.32227,-0.76757 -0.54493,-0.95508 -0.16016,-0.1289 -0.35351,-0.19335 -0.58007,-0.19336 -0.26563,1e-5 -0.50196,0.11915 -0.70899,0.35742 -0.28125,0.32423 -0.47266,0.834 -0.57422,1.5293 -0.10156,0.69532 -0.15234,1.38086 -0.15234,2.05664 z"
         style="font-size:12px;font-variant:normal;font-stretch:normal;text-align:center;text-anchor:middle;font-family:Serif;-inkscape-font-specification:Serif"
         id="path3119" />
    </g>
  </g>
</svg>
