<?xml version="1.0" encoding="UTF-8" standalone="no"?>
<svg
   xmlns:dc="http://purl.org/dc/elements/1.1/"
   xmlns:cc="http://creativecommons.org/ns#"
   xmlns:rdf="http://www.w3.org/1999/02/22-rdf-syntax-ns#"
   xmlns:svg="http://www.w3.org/2000/svg"
   xmlns="http://www.w3.org/2000/svg"
   xmlns:sodipodi="http://sodipodi.sourceforge.net/DTD/sodipodi-0.dtd"
   xmlns:inkscape="http://www.inkscape.org/namespaces/inkscape"
   version="1.0"
   width="250"
   height="200"
   id="svg3496"
   inkscape:version="0.48.4 r9939"
   sodipodi:docname="all_off.emf">
  <metadata
     id="metadata3552">
    <rdf:RDF>
      <cc:Work
         rdf:about="">
        <dc:format>image/svg+xml</dc:format>
        <dc:type
           rdf:resource="http://purl.org/dc/dcmitype/StillImage" />
        <dc:title></dc:title>
      </cc:Work>
    </rdf:RDF>
  </metadata>
  <sodipodi:namedview
     pagecolor="#ffffff"
     bordercolor="#666666"
     borderopacity="1"
     objecttolerance="10"
     gridtolerance="10"
     guidetolerance="10"
     inkscape:pageopacity="0"
     inkscape:pageshadow="2"
     inkscape:window-width="1280"
     inkscape:window-height="738"
     id="namedview3550"
     showgrid="false"
     inkscape:zoom="2"
     inkscape:cx="100.89376"
     inkscape:cy="135.83267"
     inkscape:window-x="-8"
     inkscape:window-y="-8"
     inkscape:window-maximized="1"
     inkscape:current-layer="svg3496" />
  <defs
     id="defs3498" />
  <g
     id="g3500"
     transform="matrix(0.5,0,0,0.5,36.02608,1.0416743)">
    <path
       style="fill:#fac090;fill-opacity:1;fill-rule:evenodd;stroke:none"
       d="m 123.04003,258.25184 c -1.81921,-0.74081 -2.6913,-2.80383 -1.95987,-4.62303 l 5.30758,-13.13765 c 0.74081,-1.8192 2.80382,-2.69129 4.61365,-1.95986 l 26.29405,10.62452 c 1.8192,0.73143 2.69129,2.79445 1.95986,4.61365 l -5.30757,13.13765 c -0.74081,1.8192 -2.80383,2.70067 -4.61365,1.95986 z"
       id="path3502"
       inkscape:connector-curvature="0" />
    <path
       style="fill:none;stroke:#000000;stroke-width:0.30945209px;stroke-linecap:butt;stroke-linejoin:round;stroke-opacity:1;stroke-dasharray:none"
       d="m 123.04003,258.25184 c -1.81921,-0.74081 -2.6913,-2.80383 -1.95987,-4.62303 l 5.30758,-13.13765 c 0.74081,-1.8192 2.80382,-2.69129 4.61365,-1.95986 l 26.29405,10.62452 c 1.8192,0.73143 2.69129,2.79445 1.95986,4.61365 l -5.30757,13.13765 c -0.74081,1.8192 -2.80383,2.70067 -4.61365,1.95986 z"
       id="path3504"
       inkscape:connector-curvature="0" />
    <path
       style="fill:#fac090;fill-opacity:1;fill-rule:evenodd;stroke:none"
       d="m 284.53651,189.69413 c 0.73143,-1.8192 -0.14066,-3.88221 -1.95986,-4.61365 L 269.439,179.77291 c -1.8192,-0.74081 -3.88222,0.14066 -4.62303,1.95049 l -10.61514,26.29405 c -0.74081,1.8192 0.14066,3.88221 1.95986,4.61365 l 13.13765,5.31695 c 1.8192,0.73143 3.88222,-0.15004 4.61365,-1.95987 z"
       id="path3506"
       inkscape:connector-curvature="0" />
    <path
       style="fill:none;stroke:#000000;stroke-width:0.30945209px;stroke-linecap:butt;stroke-linejoin:round;stroke-opacity:1;stroke-dasharray:none"
       d="m 284.53651,189.69413 c 0.73143,-1.8192 -0.14066,-3.88221 -1.95986,-4.61365 L 269.439,179.77291 c -1.8192,-0.74081 -3.88222,0.14066 -4.62303,1.95049 l -10.61514,26.29405 c -0.74081,1.8192 0.14066,3.88221 1.95986,4.61365 l 13.13765,5.31695 c 1.8192,0.73143 3.88222,-0.15004 4.61365,-1.95987 z"
       id="path3508"
       inkscape:connector-curvature="0" />
    <path
       style="fill:#fac090;fill-opacity:1;fill-rule:evenodd;stroke:none"
       d="m 80.776373,107.3705 c 0.731433,-1.8192 2.803824,-2.6913 4.61365,-1.95986 l 13.147025,5.30757 c 1.819202,0.74081 2.691292,2.80382 1.959862,4.61365 l -10.624521,26.29405 c -0.731432,1.8192 -2.794446,2.69129 -4.613649,1.95986 L 72.111715,138.2782 c -1.809826,-0.73143 -2.691296,-2.80382 -1.959863,-4.61365 z"
       id="path3510"
       inkscape:connector-curvature="0" />
    <path
       style="fill:none;stroke:#000000;stroke-width:0.30945209px;stroke-linecap:butt;stroke-linejoin:round;stroke-opacity:1;stroke-dasharray:none"
       d="m 80.776373,107.3705 c 0.731433,-1.8192 2.803824,-2.6913 4.61365,-1.95986 l 13.147025,5.30757 c 1.819202,0.74081 2.691292,2.80382 1.959862,4.61365 l -10.624521,26.29405 c -0.731432,1.8192 -2.794446,2.69129 -4.613649,1.95986 L 72.111715,138.2782 c -1.809826,-0.73143 -2.691296,-2.80382 -1.959863,-4.61365 z"
       id="path3512"
       inkscape:connector-curvature="0" />
    <path
       style="fill:#fac090;fill-opacity:1;fill-rule:evenodd;stroke:none"
       d="m 231.86401,64.581714 c 1.81921,0.731432 2.70068,2.794446 1.95987,4.613649 l -5.30758,13.147026 c -0.73143,1.809825 -2.80382,2.691295 -4.61365,1.959863 L 197.6086,73.67773 c -1.80982,-0.731432 -2.69129,-2.803824 -1.95986,-4.613649 l 5.31695,-13.147026 c 0.73143,-1.819203 2.79445,-2.691295 4.61365,-1.959863 z"
       id="path3514"
       inkscape:connector-curvature="0" />
    <path
       style="fill:none;stroke:#000000;stroke-width:0.30945209px;stroke-linecap:butt;stroke-linejoin:round;stroke-opacity:1;stroke-dasharray:none"
       d="m 231.86401,64.581714 c 1.81921,0.731432 2.70068,2.794446 1.95987,4.613649 l -5.30758,13.147026 c -0.73143,1.809825 -2.80382,2.691295 -4.61365,1.959863 L 197.6086,73.67773 c -1.80982,-0.731432 -2.69129,-2.803824 -1.95986,-4.613649 l 5.31695,-13.147026 c 0.73143,-1.819203 2.79445,-2.691295 4.61365,-1.959863 z"
       id="path3516"
       inkscape:connector-curvature="0" />
    <path
       style="fill:#fac090;fill-opacity:1;fill-rule:evenodd;stroke:none"
       d="m 70.50819,191.41019 c -0.768941,-1.80045 0.07502,-3.88222 1.875468,-4.65116 l 13.053251,-5.54201 c 1.800449,-0.75956 3.882218,0.075 4.641782,1.88485 l 11.084009,26.09712 c 0.75957,1.80045 -0.075,3.88222 -1.875465,4.65116 l -13.053252,5.54201 c -1.800448,0.75956 -3.882217,-0.075 -4.651159,-1.88485 z"
       id="path3518"
       inkscape:connector-curvature="0" />
    <path
       style="fill:none;stroke:#000000;stroke-width:0.30945209px;stroke-linecap:butt;stroke-linejoin:round;stroke-opacity:1;stroke-dasharray:none"
       d="m 70.50819,191.41019 c -0.768941,-1.80045 0.07502,-3.88222 1.875468,-4.65116 l 13.053251,-5.54201 c 1.800449,-0.75956 3.882218,0.075 4.641782,1.88485 l 11.084009,26.09712 c 0.75957,1.80045 -0.075,3.88222 -1.875465,4.65116 l -13.053252,5.54201 c -1.800448,0.75956 -3.882217,-0.075 -4.651159,-1.88485 z"
       id="path3520"
       inkscape:connector-curvature="0" />
    <path
       style="fill:#fac090;fill-opacity:1;fill-rule:evenodd;stroke:none"
       d="m 233.17684,257.13593 c 1.80045,-0.76894 2.64441,-2.85071 1.87547,-4.65115 l -5.53263,-13.05326 c -0.76894,-1.80045 -2.85071,-2.64441 -4.65116,-1.87546 l -26.1065,11.08401 c -1.80045,0.75956 -2.64441,2.84133 -1.87547,4.64178 l 5.54201,13.05325 c 0.75956,1.80045 2.84133,2.64441 4.64178,1.87547 z"
       id="path3522"
       inkscape:connector-curvature="0" />
    <path
       style="fill:none;stroke:#000000;stroke-width:0.30945209px;stroke-linecap:butt;stroke-linejoin:round;stroke-opacity:1;stroke-dasharray:none"
       d="m 233.17684,257.13593 c 1.80045,-0.76894 2.64441,-2.85071 1.87547,-4.65115 l -5.53263,-13.05326 c -0.76894,-1.80045 -2.85071,-2.64441 -4.65116,-1.87546 l -26.1065,11.08401 c -1.80045,0.75956 -2.64441,2.84133 -1.87547,4.64178 l 5.54201,13.05325 c 0.75956,1.80045 2.84133,2.64441 4.64178,1.87547 z"
       id="path3524"
       inkscape:connector-curvature="0" />
    <path
       style="fill:#fac090;fill-opacity:1;fill-rule:evenodd;stroke:none"
       d="m 147.30857,54.838662 c 1.80045,-0.768942 3.88222,0.07502 4.65116,1.875467 l 5.53263,13.053252 c 0.76894,1.800448 -0.075,3.882217 -1.87547,4.651159 l -26.09712,11.074633 c -1.80983,0.768942 -3.8916,-0.07502 -4.65116,-1.875467 L 119.3266,70.564454 c -0.75956,-1.800448 0.075,-3.882217 1.87547,-4.641781 z"
       id="path3526"
       inkscape:connector-curvature="0" />
    <path
       style="fill:none;stroke:#000000;stroke-width:0.30945209px;stroke-linecap:butt;stroke-linejoin:round;stroke-opacity:1;stroke-dasharray:none"
       d="m 147.30857,54.838662 c 1.80045,-0.768942 3.88222,0.07502 4.65116,1.875467 l 5.53263,13.053252 c 0.76894,1.800448 -0.075,3.882217 -1.87547,4.651159 l -26.09712,11.074633 c -1.80983,0.768942 -3.8916,-0.07502 -4.65116,-1.875467 L 119.3266,70.564454 c -0.75956,-1.800448 0.075,-3.882217 1.87547,-4.641781 z"
       id="path3528"
       inkscape:connector-curvature="0" />
    <path
       style="fill:#fac090;fill-opacity:1;fill-rule:evenodd;stroke:none"
       d="m 284.40523,131.42337 c 0.75956,1.80044 -0.075,3.88221 -1.88485,4.64178 l -13.04387,5.542 c -1.80045,0.76894 -3.88222,-0.075 -4.65116,-1.87546 l -11.08401,-26.10651 c -0.75957,-1.80045 0.0844,-3.88222 1.88484,-4.64178 l 13.05325,-5.54201 c 1.80045,-0.76894 3.88222,0.075 4.64179,1.87547 z"
       id="path3530"
       inkscape:connector-curvature="0" />
    <path
       style="fill:none;stroke:#000000;stroke-width:0.30945209px;stroke-linecap:butt;stroke-linejoin:round;stroke-opacity:1;stroke-dasharray:none"
       d="m 284.40523,131.42337 c 0.75956,1.80044 -0.075,3.88221 -1.88485,4.64178 l -13.04387,5.542 c -1.80045,0.76894 -3.88222,-0.075 -4.65116,-1.87546 l -11.08401,-26.10651 c -0.75957,-1.80045 0.0844,-3.88222 1.88484,-4.64178 l 13.05325,-5.54201 c 1.80045,-0.76894 3.88222,0.075 4.64179,1.87547 z"
       id="path3532"
       inkscape:connector-curvature="0" />
    <path
       style="fill:none;stroke:#000000;stroke-width:0.62828153px;stroke-linecap:butt;stroke-linejoin:round;stroke-opacity:1;stroke-dasharray:none"
       d="m 170.36744,161.70278 c 0,-3.91972 3.16954,-7.08926 7.08927,-7.08926 3.91035,0 7.08927,3.16954 7.08927,7.08926 0,3.91035 -3.17892,7.08927 -7.08927,7.08927 -3.91973,0 -7.08927,-3.17892 -7.08927,-7.08927"
       id="path3534"
       inkscape:connector-curvature="0" />
    <path
       style="fill:#000000;fill-opacity:1;fill-rule:evenodd;stroke:none"
       d="m 175.20615,161.70278 c 0,-1.24718 1.00337,-2.25056 2.25056,-2.25056 1.23781,0 2.25056,1.00338 2.25056,2.25056 0,1.23781 -1.01275,2.25056 -2.25056,2.25056 -1.24719,0 -2.25056,-1.01275 -2.25056,-2.25056"
       id="path3536"
       inkscape:connector-curvature="0" />
    <path
       style="fill:none;stroke:#000000;stroke-width:0.62828153px;stroke-linecap:butt;stroke-linejoin:round;stroke-opacity:1;stroke-dasharray:none"
       d="m 175.20615,161.70278 c 0,-1.24718 1.00337,-2.25056 2.25056,-2.25056 1.23781,0 2.25056,1.00338 2.25056,2.25056 0,1.23781 -1.01275,2.25056 -2.25056,2.25056 -1.24719,0 -2.25056,-1.01275 -2.25056,-2.25056"
       id="path3538"
       inkscape:connector-curvature="0" />
    <text
       xml:space="preserve"
       x="316.85059"
       y="150.53848"
       style="font-size:13.20328903px;font-style:normal;font-weight:normal;text-align:start;text-anchor:start;fill:#000000;font-family:Calibri"
       id="text3540">PS V+</text>
    <text
       xml:space="preserve"
       x="316.85071"
       y="182.40155"
       style="font-size:13.20328903px;font-style:normal;font-weight:normal;text-align:start;text-anchor:start;fill:#000000;font-family:Calibri"
       id="text3542">PS V</text>
    <text
       xml:space="preserve"
       x="340.10648"
       y="182.40155"
       style="font-size:13.20328903px;font-style:normal;font-weight:normal;text-align:start;text-anchor:start;fill:#000000;font-family:Calibri"
       id="text3544">-</text>
    <text
       xml:space="preserve"
       x="186.52631"
       y="168.3251"
       style="font-size:13.20328903px;font-style:italic;font-weight:normal;text-align:start;text-anchor:start;fill:#000000;font-family:Calibri"
       id="text3546">e</text>
    <text
       xml:space="preserve"
       x="192.82787"
       y="164.42413"
       style="font-size:8.70216751px;font-style:italic;font-weight:normal;text-align:start;text-anchor:start;fill:#000000;font-family:Calibri"
       id="text3548">-</text>
  </g>
</svg>
