<?xml version="1.0" encoding="UTF-8" standalone="no"?>
<svg
   xmlns:dc="http://purl.org/dc/elements/1.1/"
   xmlns:cc="http://creativecommons.org/ns#"
   xmlns:rdf="http://www.w3.org/1999/02/22-rdf-syntax-ns#"
   xmlns:svg="http://www.w3.org/2000/svg"
   xmlns="http://www.w3.org/2000/svg"
   xmlns:sodipodi="http://sodipodi.sourceforge.net/DTD/sodipodi-0.dtd"
   xmlns:inkscape="http://www.inkscape.org/namespaces/inkscape"
   version="1.0"
   width="250"
   height="200"
   id="svg3191"
   inkscape:version="0.48.4 r9939"
   sodipodi:docname="horizontal_steerer.svg">
  <metadata
     id="metadata3329">
    <rdf:RDF>
      <cc:Work
         rdf:about="">
        <dc:format>image/svg+xml</dc:format>
        <dc:type
           rdf:resource="http://purl.org/dc/dcmitype/StillImage" />
        <dc:title></dc:title>
      </cc:Work>
    </rdf:RDF>
  </metadata>
  <sodipodi:namedview
     pagecolor="#ffffff"
     bordercolor="#666666"
     borderopacity="1"
     objecttolerance="10"
     gridtolerance="10"
     guidetolerance="10"
     inkscape:pageopacity="0"
     inkscape:pageshadow="2"
     inkscape:window-width="1280"
     inkscape:window-height="738"
     id="namedview3327"
     showgrid="false"
     inkscape:zoom="2"
     inkscape:cx="181.65625"
     inkscape:cy="66.440635"
     inkscape:window-x="-8"
     inkscape:window-y="-8"
     inkscape:window-maximized="1"
     inkscape:current-layer="svg3191" />
  <defs
     id="defs3193" />
  <g
     id="g3195"
     transform="matrix(0.5,0,0,0.5,35.70975,-0.084533)">
    <path
       style="fill:#bfbfbf;fill-opacity:1;fill-rule:evenodd;stroke:none"
       d="m 134.29283,239.8535 13.27831,-32.85818 c 7.33308,-18.15453 17.69503,-31.08587 23.13389,-28.8822 5.44823,2.1943 3.91972,18.69841 -3.41335,36.84356 l -13.27831,32.86756 z"
       id="path3197"
       inkscape:connector-curvature="0" />
    <path
       style="fill:none;stroke:#000000;stroke-width:0.30945209px;stroke-linecap:butt;stroke-linejoin:round;stroke-opacity:1;stroke-dasharray:none"
       d="m 134.29283,239.8535 13.27831,-32.85818 c 7.33308,-18.15453 17.69503,-31.08587 23.13389,-28.8822 5.44823,2.1943 3.91972,18.69841 -3.41335,36.84356 l -13.27831,32.86756 z"
       id="path3199"
       inkscape:connector-curvature="0" />
    <path
       style="fill:#fac090;fill-opacity:1;fill-rule:evenodd;stroke:none"
       d="m 123.04003,258.25184 c -1.81921,-0.74081 -2.6913,-2.80383 -1.95987,-4.62303 l 5.30758,-13.13765 c 0.74081,-1.8192 2.80382,-2.69129 4.61365,-1.95986 l 26.29405,10.62452 c 1.8192,0.73143 2.69129,2.79445 1.95986,4.61365 l -5.30757,13.13765 c -0.74081,1.8192 -2.80383,2.70067 -4.61365,1.95986 z"
       id="path3201"
       inkscape:connector-curvature="0" />
    <path
       style="fill:none;stroke:#000000;stroke-width:0.30945209px;stroke-linecap:butt;stroke-linejoin:round;stroke-opacity:1;stroke-dasharray:none"
       d="m 123.04003,258.25184 c -1.81921,-0.74081 -2.6913,-2.80383 -1.95987,-4.62303 l 5.30758,-13.13765 c 0.74081,-1.8192 2.80382,-2.69129 4.61365,-1.95986 l 26.29405,10.62452 c 1.8192,0.73143 2.69129,2.79445 1.95986,4.61365 l -5.30757,13.13765 c -0.74081,1.8192 -2.80383,2.70067 -4.61365,1.95986 z"
       id="path3203"
       inkscape:connector-curvature="0" />
    <path
       style="fill:#bfbfbf;fill-opacity:1;fill-rule:evenodd;stroke:none"
       d="M 263.49377,185.01484 230.6262,171.73653 c -18.14514,-7.33307 -34.64925,-8.86158 -36.84355,-3.42272 -2.20367,5.44823 10.72767,15.81018 28.8822,23.14326 l 32.85818,13.27831 z"
       id="path3205"
       inkscape:connector-curvature="0" />
    <path
       style="fill:none;stroke:#000000;stroke-width:0.30945209px;stroke-linecap:butt;stroke-linejoin:round;stroke-opacity:1;stroke-dasharray:none"
       d="M 263.49377,185.01484 230.6262,171.73653 c -18.14514,-7.33307 -34.64925,-8.86158 -36.84355,-3.42272 -2.20367,5.44823 10.72767,15.81018 28.8822,23.14326 l 32.85818,13.27831 z"
       id="path3207"
       inkscape:connector-curvature="0" />
    <path
       style="fill:#fac090;fill-opacity:1;fill-rule:evenodd;stroke:none"
       d="m 284.53651,189.69413 c 0.73143,-1.8192 -0.14066,-3.88221 -1.95986,-4.61365 L 269.439,179.77291 c -1.8192,-0.74081 -3.88222,0.14066 -4.62303,1.95049 l -10.61514,26.29405 c -0.74081,1.8192 0.14066,3.88221 1.95986,4.61365 l 13.13765,5.31695 c 1.8192,0.73143 3.88222,-0.15004 4.61365,-1.95987 z"
       id="path3209"
       inkscape:connector-curvature="0" />
    <path
       style="fill:none;stroke:#000000;stroke-width:0.30945209px;stroke-linecap:butt;stroke-linejoin:round;stroke-opacity:1;stroke-dasharray:none"
       d="m 284.53651,189.69413 c 0.73143,-1.8192 -0.14066,-3.88221 -1.95986,-4.61365 L 269.439,179.77291 c -1.8192,-0.74081 -3.88222,0.14066 -4.62303,1.95049 l -10.61514,26.29405 c -0.74081,1.8192 0.14066,3.88221 1.95986,4.61365 l 13.13765,5.31695 c 1.8192,0.73143 3.88222,-0.15004 4.61365,-1.95987 z"
       id="path3211"
       inkscape:connector-curvature="0" />
    <path
       style="fill:#bfbfbf;fill-opacity:1;fill-rule:evenodd;stroke:none"
       d="m 99.16533,118.6233 32.86756,13.27831 c 18.15453,7.33308 31.08587,17.69503 28.8822,23.13389 -2.20368,5.44823 -18.69841,3.91972 -36.85293,-3.41335 L 91.203971,138.34384 z"
       id="path3213"
       inkscape:connector-curvature="0" />
    <path
       style="fill:none;stroke:#000000;stroke-width:0.30945209px;stroke-linecap:butt;stroke-linejoin:round;stroke-opacity:1;stroke-dasharray:none"
       d="m 99.16533,118.6233 32.86756,13.27831 c 18.15453,7.33308 31.08587,17.69503 28.8822,23.13389 -2.20368,5.44823 -18.69841,3.91972 -36.85293,-3.41335 L 91.203971,138.34384 z"
       id="path3215"
       inkscape:connector-curvature="0" />
    <path
       style="fill:#fac090;fill-opacity:1;fill-rule:evenodd;stroke:none"
       d="m 80.776373,107.3705 c 0.731433,-1.8192 2.803824,-2.6913 4.61365,-1.95986 l 13.147025,5.30757 c 1.819202,0.74081 2.691292,2.80382 1.959862,4.61365 l -10.624521,26.29405 c -0.731432,1.8192 -2.794446,2.69129 -4.613649,1.95986 L 72.111715,138.2782 c -1.809826,-0.73143 -2.691296,-2.80382 -1.959863,-4.61365 z"
       id="path3217"
       inkscape:connector-curvature="0" />
    <path
       style="fill:none;stroke:#000000;stroke-width:0.30945209px;stroke-linecap:butt;stroke-linejoin:round;stroke-opacity:1;stroke-dasharray:none"
       d="m 80.776373,107.3705 c 0.731433,-1.8192 2.803824,-2.6913 4.61365,-1.95986 l 13.147025,5.30757 c 1.819202,0.74081 2.691292,2.80382 1.959862,4.61365 l -10.624521,26.29405 c -0.731432,1.8192 -2.794446,2.69129 -4.613649,1.95986 L 72.111715,138.2782 c -1.809826,-0.73143 -2.691296,-2.80382 -1.959863,-4.61365 z"
       id="path3219"
       inkscape:connector-curvature="0" />
    <path
       style="fill:#bfbfbf;fill-opacity:1;fill-rule:evenodd;stroke:none"
       d="m 220.61121,82.97067 -13.27831,32.86756 c -7.33308,18.14515 -17.68565,31.0765 -23.13389,28.8822 -5.44823,-2.20368 -3.91035,-18.69841 3.42273,-36.85293 l 13.27831,-32.858188 z"
       id="path3221"
       inkscape:connector-curvature="0" />
    <path
       style="fill:none;stroke:#000000;stroke-width:0.30945209px;stroke-linecap:butt;stroke-linejoin:round;stroke-opacity:1;stroke-dasharray:none"
       d="m 220.61121,82.97067 -13.27831,32.86756 c -7.33308,18.14515 -17.68565,31.0765 -23.13389,28.8822 -5.44823,-2.20368 -3.91035,-18.69841 3.42273,-36.85293 l 13.27831,-32.858188 z"
       id="path3223"
       inkscape:connector-curvature="0" />
    <path
       style="fill:#fac090;fill-opacity:1;fill-rule:evenodd;stroke:none"
       d="m 231.86401,64.581714 c 1.81921,0.731432 2.70068,2.794446 1.95987,4.613649 l -5.30758,13.147026 c -0.73143,1.809825 -2.80382,2.691295 -4.61365,1.959863 L 197.6086,73.67773 c -1.80982,-0.731432 -2.69129,-2.803824 -1.95986,-4.613649 l 5.31695,-13.147026 c 0.73143,-1.819203 2.79445,-2.691295 4.61365,-1.959863 z"
       id="path3225"
       inkscape:connector-curvature="0" />
    <path
       style="fill:none;stroke:#000000;stroke-width:0.30945209px;stroke-linecap:butt;stroke-linejoin:round;stroke-opacity:1;stroke-dasharray:none"
       d="m 231.86401,64.581714 c 1.81921,0.731432 2.70068,2.794446 1.95987,4.613649 l -5.30758,13.147026 c -0.73143,1.809825 -2.80382,2.691295 -4.61365,1.959863 L 197.6086,73.67773 c -1.80982,-0.731432 -2.69129,-2.803824 -1.95986,-4.613649 l 5.31695,-13.147026 c 0.73143,-1.819203 2.79445,-2.691295 4.61365,-1.959863 z"
       id="path3227"
       inkscape:connector-curvature="0" />
    <path
       style="fill:#bfbfbf;fill-opacity:1;fill-rule:evenodd;stroke:none"
       d="m 91.466537,186.36518 32.623753,-13.85033 c 18.02324,-7.6519 34.48984,-9.47111 36.78729,-4.06038 2.29745,5.40134 -10.45573,15.98835 -28.46959,23.63088 l -32.633134,13.85033 z"
       id="path3229"
       inkscape:connector-curvature="0" />
    <path
       style="fill:none;stroke:#000000;stroke-width:0.30945209px;stroke-linecap:butt;stroke-linejoin:round;stroke-opacity:1;stroke-dasharray:none"
       d="m 91.466537,186.36518 32.623753,-13.85033 c 18.02324,-7.6519 34.48984,-9.47111 36.78729,-4.06038 2.29745,5.40134 -10.45573,15.98835 -28.46959,23.63088 l -32.633134,13.85033 z"
       id="path3231"
       inkscape:connector-curvature="0" />
    <path
       style="fill:#fac090;fill-opacity:1;fill-rule:evenodd;stroke:none"
       d="m 70.50819,191.41019 c -0.768941,-1.80045 0.07502,-3.88222 1.875468,-4.65116 l 13.053251,-5.54201 c 1.800449,-0.75956 3.882218,0.075 4.641782,1.88485 l 11.084009,26.09712 c 0.75957,1.80045 -0.075,3.88222 -1.875465,4.65116 l -13.053252,5.54201 c -1.800448,0.75956 -3.882217,-0.075 -4.651159,-1.88485 z"
       id="path3233"
       inkscape:connector-curvature="0" />
    <path
       style="fill:none;stroke:#000000;stroke-width:0.30945209px;stroke-linecap:butt;stroke-linejoin:round;stroke-opacity:1;stroke-dasharray:none"
       d="m 70.50819,191.41019 c -0.768941,-1.80045 0.07502,-3.88222 1.875468,-4.65116 l 13.053251,-5.54201 c 1.800449,-0.75956 3.882218,0.075 4.641782,1.88485 l 11.084009,26.09712 c 0.75957,1.80045 -0.075,3.88222 -1.875465,4.65116 l -13.053252,5.54201 c -1.800448,0.75956 -3.882217,-0.075 -4.651159,-1.88485 z"
       id="path3235"
       inkscape:connector-curvature="0" />
    <path
       style="fill:#bfbfbf;fill-opacity:1;fill-rule:evenodd;stroke:none"
       d="m 221.60521,238.9439 -13.85033,-32.63313 c -7.6519,-18.01386 -18.22954,-30.76704 -23.64026,-28.46959 -5.40135,2.29745 -3.58214,18.76405 4.06038,36.77791 l 13.85033,32.63313 z"
       id="path3237"
       inkscape:connector-curvature="0" />
    <path
       style="fill:none;stroke:#000000;stroke-width:0.30945209px;stroke-linecap:butt;stroke-linejoin:round;stroke-opacity:1;stroke-dasharray:none"
       d="m 221.60521,238.9439 -13.85033,-32.63313 c -7.6519,-18.01386 -18.22954,-30.76704 -23.64026,-28.46959 -5.40135,2.29745 -3.58214,18.76405 4.06038,36.77791 l 13.85033,32.63313 z"
       id="path3239"
       inkscape:connector-curvature="0" />
    <path
       style="fill:#fac090;fill-opacity:1;fill-rule:evenodd;stroke:none"
       d="m 233.17684,257.13593 c 1.80045,-0.76894 2.64441,-2.85071 1.87547,-4.65115 l -5.53263,-13.05326 c -0.76894,-1.80045 -2.85071,-2.64441 -4.65116,-1.87546 l -26.1065,11.08401 c -1.80045,0.75956 -2.64441,2.84133 -1.87547,4.64178 l 5.54201,13.05325 c 0.75956,1.80045 2.84133,2.64441 4.64178,1.87547 z"
       id="path3241"
       inkscape:connector-curvature="0" />
    <path
       style="fill:none;stroke:#000000;stroke-width:0.30945209px;stroke-linecap:butt;stroke-linejoin:round;stroke-opacity:1;stroke-dasharray:none"
       d="m 233.17684,257.13593 c 1.80045,-0.76894 2.64441,-2.85071 1.87547,-4.65115 l -5.53263,-13.05326 c -0.76894,-1.80045 -2.85071,-2.64441 -4.65116,-1.87546 l -26.1065,11.08401 c -1.80045,0.75956 -2.64441,2.84133 -1.87547,4.64178 l 5.54201,13.05325 c 0.75956,1.80045 2.84133,2.64441 4.64178,1.87547 z"
       id="path3243"
       inkscape:connector-curvature="0" />
    <path
       style="fill:#bfbfbf;fill-opacity:1;fill-rule:evenodd;stroke:none"
       d="m 152.35358,75.797008 13.85033,32.633132 c 7.6519,18.01386 9.47111,34.48984 4.06038,36.77791 -5.40134,2.29745 -15.98836,-10.44635 -23.64026,-28.46959 L 132.78308,84.105328 z"
       id="path3245"
       inkscape:connector-curvature="0" />
    <path
       style="fill:none;stroke:#000000;stroke-width:0.30945209px;stroke-linecap:butt;stroke-linejoin:round;stroke-opacity:1;stroke-dasharray:none"
       d="m 152.35358,75.797008 13.85033,32.633132 c 7.6519,18.01386 9.47111,34.48984 4.06038,36.77791 -5.40134,2.29745 -15.98836,-10.44635 -23.64026,-28.46959 L 132.78308,84.105328 z"
       id="path3247"
       inkscape:connector-curvature="0" />
    <path
       style="fill:#fac090;fill-opacity:1;fill-rule:evenodd;stroke:none"
       d="m 147.30857,54.838662 c 1.80045,-0.768942 3.88222,0.07502 4.65116,1.875467 l 5.53263,13.053252 c 0.76894,1.800448 -0.075,3.882217 -1.87547,4.651159 l -26.09712,11.074633 c -1.80983,0.768942 -3.8916,-0.07502 -4.65116,-1.875467 L 119.3266,70.564454 c -0.75956,-1.800448 0.075,-3.882217 1.87547,-4.641781 z"
       id="path3249"
       inkscape:connector-curvature="0" />
    <path
       style="fill:none;stroke:#000000;stroke-width:0.30945209px;stroke-linecap:butt;stroke-linejoin:round;stroke-opacity:1;stroke-dasharray:none"
       d="m 147.30857,54.838662 c 1.80045,-0.768942 3.88222,0.07502 4.65116,1.875467 l 5.53263,13.053252 c 0.76894,1.800448 -0.075,3.882217 -1.87547,4.651159 l -26.09712,11.074633 c -1.80983,0.768942 -3.8916,-0.07502 -4.65116,-1.875467 L 119.3266,70.564454 c -0.75956,-1.800448 0.075,-3.882217 1.87547,-4.641781 z"
       id="path3251"
       inkscape:connector-curvature="0" />
    <path
       style="fill:#bfbfbf;fill-opacity:1;fill-rule:evenodd;stroke:none"
       d="m 263.4375,136.46837 -32.62375,13.85033 c -18.02324,7.64253 -34.48984,9.46173 -36.78729,4.06038 -2.28807,-5.41072 10.45573,-15.98835 28.47897,-23.64026 l 32.62375,-13.85033 z"
       id="path3253"
       inkscape:connector-curvature="0" />
    <path
       style="fill:none;stroke:#000000;stroke-width:0.30945209px;stroke-linecap:butt;stroke-linejoin:round;stroke-opacity:1;stroke-dasharray:none"
       d="m 263.4375,136.46837 -32.62375,13.85033 c -18.02324,7.64253 -34.48984,9.46173 -36.78729,4.06038 -2.28807,-5.41072 10.45573,-15.98835 28.47897,-23.64026 l 32.62375,-13.85033 z"
       id="path3255"
       inkscape:connector-curvature="0" />
    <path
       style="fill:#fac090;fill-opacity:1;fill-rule:evenodd;stroke:none"
       d="m 284.40523,131.42337 c 0.75956,1.80044 -0.075,3.88221 -1.88485,4.64178 l -13.04387,5.542 c -1.80045,0.76894 -3.88222,-0.075 -4.65116,-1.87546 l -11.08401,-26.10651 c -0.75957,-1.80045 0.0844,-3.88222 1.88484,-4.64178 l 13.05325,-5.54201 c 1.80045,-0.76894 3.88222,0.075 4.64179,1.87547 z"
       id="path3257"
       inkscape:connector-curvature="0" />
    <path
       style="fill:none;stroke:#000000;stroke-width:0.30945209px;stroke-linecap:butt;stroke-linejoin:round;stroke-opacity:1;stroke-dasharray:none"
       d="m 284.40523,131.42337 c 0.75956,1.80044 -0.075,3.88221 -1.88485,4.64178 l -13.04387,5.542 c -1.80045,0.76894 -3.88222,-0.075 -4.65116,-1.87546 l -11.08401,-26.10651 c -0.75957,-1.80045 0.0844,-3.88222 1.88484,-4.64178 l 13.05325,-5.54201 c 1.80045,-0.76894 3.88222,0.075 4.64179,1.87547 z"
       id="path3259"
       inkscape:connector-curvature="0" />
    <path
       style="fill:none;stroke:#000000;stroke-width:0.62828153px;stroke-linecap:butt;stroke-linejoin:round;stroke-opacity:1;stroke-dasharray:none"
       d="m 170.36744,161.70278 c 0,-3.91972 3.16954,-7.08926 7.08927,-7.08926 3.91035,0 7.08927,3.16954 7.08927,7.08926 0,3.91035 -3.17892,7.08927 -7.08927,7.08927 -3.91973,0 -7.08927,-3.17892 -7.08927,-7.08927"
       id="path3261"
       inkscape:connector-curvature="0" />
    <path
       style="fill:#000000;fill-opacity:1;fill-rule:evenodd;stroke:none"
       d="m 175.20615,161.70278 c 0,-1.24718 1.00337,-2.25056 2.25056,-2.25056 1.23781,0 2.25056,1.00338 2.25056,2.25056 0,1.23781 -1.01275,2.25056 -2.25056,2.25056 -1.24719,0 -2.25056,-1.01275 -2.25056,-2.25056"
       id="path3263"
       inkscape:connector-curvature="0" />
    <path
       style="fill:none;stroke:#000000;stroke-width:0.62828153px;stroke-linecap:butt;stroke-linejoin:round;stroke-opacity:1;stroke-dasharray:none"
       d="m 175.20615,161.70278 c 0,-1.24718 1.00337,-2.25056 2.25056,-2.25056 1.23781,0 2.25056,1.00338 2.25056,2.25056 0,1.23781 -1.01275,2.25056 -2.25056,2.25056 -1.24719,0 -2.25056,-1.01275 -2.25056,-2.25056"
       id="path3265"
       inkscape:connector-curvature="0" />
    <text
       xml:space="preserve"
       x="316.85059"
       y="150.53848"
       style="font-size:13.20328903px;font-style:normal;font-weight:normal;text-align:start;text-anchor:start;fill:#000000;font-family:Calibri"
       id="text3267">PS V+</text>
    <text
       xml:space="preserve"
       x="316.85071"
       y="182.40155"
       style="font-size:13.20328903px;font-style:normal;font-weight:normal;text-align:start;text-anchor:start;fill:#000000;font-family:Calibri"
       id="text3269">PS V</text>
    <text
       xml:space="preserve"
       x="340.10648"
       y="182.40155"
       style="font-size:13.20328903px;font-style:normal;font-weight:normal;text-align:start;text-anchor:start;fill:#000000;font-family:Calibri"
       id="text3271">-</text>
    <path
       style="fill:#4a7ebb;fill-opacity:1;fill-rule:nonzero;stroke:#4a7ebb;stroke-width:0.00937734px;stroke-linecap:butt;stroke-linejoin:round;stroke-opacity:1;stroke-dasharray:none"
       d="m 258.73946,125.38436 -62.69687,26.61288 1.09715,2.58815 62.69687,-26.61288 z m -57.42681,19.23292 -7.28619,9.7618 12.07801,1.53789 c 0.77832,0.10315 1.48162,-0.44074 1.57539,-1.21906 0.10315,-0.76894 -0.45011,-1.47224 -1.21905,-1.56601 l -9.68679,-1.23781 0.94711,2.24118 5.84208,-7.83007 c 0.46887,-0.62828 0.33759,-1.50975 -0.28132,-1.96924 -0.62828,-0.46887 -1.50975,-0.33759 -1.96924,0.28132 z"
       id="path3273"
       inkscape:connector-curvature="0" />
    <path
       style="fill:#ff0000;fill-opacity:1;fill-rule:nonzero;stroke:#ff0000;stroke-width:0.00937734px;stroke-linecap:butt;stroke-linejoin:round;stroke-opacity:1;stroke-dasharray:none"
       d="m 274.69968,139.38472 -12.75317,-30.06374 2.58814,-1.09714 12.76256,30.06374 z m -14.09413,-21.099 1.53788,-12.07801 9.76181,7.28619 c 0.62828,0.45949 0.75019,1.34096 0.2907,1.96924 -0.46887,0.6189 -1.35034,0.75019 -1.96924,0.28132 l -7.83008,-5.84208 2.23181,-0.94711 -1.22844,9.68679 c -0.10315,0.76894 -0.80645,1.31282 -1.57539,1.21905 -0.76894,-0.10315 -1.31282,-0.80645 -1.21905,-1.57539 z"
       id="path3275"
       inkscape:connector-curvature="0" />
    <path
       style="fill:#4a7ebb;fill-opacity:1;fill-rule:nonzero;stroke:#4a7ebb;stroke-width:0.00937734px;stroke-linecap:butt;stroke-linejoin:round;stroke-opacity:1;stroke-dasharray:none"
       d="m 186.54335,142.66679 25.51573,-63.156357 -2.6069,-1.050262 -25.51573,63.146979 z m -4.0979,-9.99624 1.75356,12.04988 9.63053,-7.45498 c 0.6189,-0.47825 0.73143,-1.35972 0.25319,-1.96924 -0.47825,-0.61891 -1.35972,-0.73144 -1.97862,-0.25319 l -7.72693,5.98274 2.25994,0.9096 -1.4066,-9.66803 c -0.11253,-0.76895 -0.82521,-1.30345 -1.59415,-1.19093 -0.76894,0.11253 -1.30345,0.82521 -1.19092,1.59415 z"
       id="path3277"
       inkscape:connector-curvature="0" />
    <path
       style="fill:#ff0000;fill-opacity:1;fill-rule:nonzero;stroke:#ff0000;stroke-width:0.00937734px;stroke-linecap:butt;stroke-linejoin:round;stroke-opacity:1;stroke-dasharray:none"
       d="m 201.4158,62.228003 30.27942,12.237423 -1.05026,2.6069 -30.27942,-12.237424 z m 4.34171,9.893089 -7.45498,-9.630524 12.04987,-1.753562 c 0.76895,-0.112528 1.491,0.42198 1.59415,1.190922 0.11253,0.768941 -0.42198,1.481619 -1.18154,1.594147 l -9.67741,1.4066 0.9096,-2.259938 5.98274,7.726925 c 0.47824,0.618905 0.36571,1.500374 -0.25319,1.978618 -0.60953,0.468867 -1.491,0.356339 -1.96924,-0.253188 z"
       id="path3279"
       inkscape:connector-curvature="0" />
    <path
       style="fill:#4a7ebb;fill-opacity:1;fill-rule:nonzero;stroke:#4a7ebb;stroke-width:0.00937734px;stroke-linecap:butt;stroke-linejoin:round;stroke-opacity:1;stroke-dasharray:none"
       d="m 167.88245,143.2013 -26.61288,-62.696869 2.58814,-1.097149 26.61288,62.687488 z m 3.9291,-10.07126 -1.53788,12.08739 -9.76181,-7.28619 c -0.62828,-0.46887 -0.75018,-1.35034 -0.29069,-1.96924 0.46886,-0.61891 1.35033,-0.75019 1.96924,-0.2907 l 0,0 7.83007,5.85146 -2.24118,0.94711 1.23781,-9.69617 c 0.0938,-0.76894 0.80645,-1.31282 1.57539,-1.20967 0.76894,0.0938 1.31283,0.79707 1.21905,1.56601 z"
       id="path3281"
       inkscape:connector-curvature="0" />
    <path
       style="fill:#ff0000;fill-opacity:1;fill-rule:nonzero;stroke:#ff0000;stroke-width:0.00937734px;stroke-linecap:butt;stroke-linejoin:round;stroke-opacity:1;stroke-dasharray:none"
       d="m 125.21557,77.297382 30.06374,-12.762555 -1.10653,-2.588145 -30.06374,12.762555 z m 4.16354,-9.968109 -7.28619,9.761807 12.08738,1.537883 c 0.76894,0.103151 1.47224,-0.440734 1.56602,-1.209676 0.10315,-0.778319 -0.44074,-1.481619 -1.21906,-1.575392 l -9.68678,-1.237809 0.94711,2.241184 5.84208,-7.830076 c 0.46886,-0.628282 0.33758,-1.509751 -0.28132,-1.969241 -0.61891,-0.468866 -1.50038,-0.337584 -1.96924,0.28132 z"
       id="path3283"
       inkscape:connector-curvature="0" />
    <path
       style="fill:#4a7ebb;fill-opacity:1;fill-rule:nonzero;stroke:#4a7ebb;stroke-width:0.00937734px;stroke-linecap:butt;stroke-linejoin:round;stroke-opacity:1;stroke-dasharray:none"
       d="m 95.71447,127.17543 63.14698,25.51573 -1.05964,2.6069 -63.146979,-25.51573 z m 57.74564,18.22954 7.46436,9.63991 -12.05926,1.74418 c -0.76894,0.11253 -1.48162,-0.42198 -1.59415,-1.19092 -0.11252,-0.76894 0.42198,-1.48162 1.19093,-1.59415 l 9.66803,-1.39722 -0.9096,2.25056 -5.98274,-7.72693 c -0.47825,-0.6189 -0.36572,-1.50037 0.25319,-1.96924 0.60952,-0.47824 1.50037,-0.36571 1.96924,0.24381 z"
       id="path3285"
       inkscape:connector-curvature="0" />
    <path
       style="fill:#ff0000;fill-opacity:1;fill-rule:nonzero;stroke:#ff0000;stroke-width:0.00937734px;stroke-linecap:butt;stroke-linejoin:round;stroke-opacity:1;stroke-dasharray:none"
       d="m 90.660086,107.53929 -12.237424,30.27942 2.606899,1.05964 12.237424,-30.2888 z m -13.72842,21.34282 1.753561,12.05925 9.630525,-7.46436 c 0.618904,-0.46886 0.731432,-1.35971 0.253188,-1.96924 -0.478244,-0.6189 -1.359714,-0.73143 -1.978618,-0.25319 l -7.717548,5.98274 2.250561,0.90961 -1.406601,-9.66804 c -0.112528,-0.76894 -0.825205,-1.30345 -1.594147,-1.19092 -0.768941,0.11253 -1.303449,0.82521 -1.190921,1.59415 z"
       id="path3287"
       inkscape:connector-curvature="0" />
    <path
       style="fill:#4a7ebb;fill-opacity:1;fill-rule:nonzero;stroke:#4a7ebb;stroke-width:0.00937734px;stroke-linecap:butt;stroke-linejoin:round;stroke-opacity:1;stroke-dasharray:none"
       d="m 160.32432,167.15102 -62.687496,26.61288 1.097148,2.58814 62.696868,-26.6035 z m -57.41743,19.24229 -7.295571,9.76181 12.087391,1.53788 c 0.76894,0.0938 1.47224,-0.45011 1.57539,-1.21905 0.0938,-0.76894 -0.45011,-1.47225 -1.21906,-1.5754 l -9.696161,-1.22843 0.956488,2.23181 5.842083,-7.83008 c 0.46886,-0.6189 0.33758,-1.50037 -0.28132,-1.96924 -0.62828,-0.45949 -1.50975,-0.33758 -1.96924,0.2907 z"
       id="path3289"
       inkscape:connector-curvature="0" />
    <path
       style="fill:#ff0000;fill-opacity:1;fill-rule:nonzero;stroke:#ff0000;stroke-width:0.00937734px;stroke-linecap:butt;stroke-linejoin:round;stroke-opacity:1;stroke-dasharray:none"
       d="m 91.466537,217.16973 -12.762555,-30.06374 2.588145,-1.09715 12.762554,30.06374 z m -14.103514,-21.09901 1.537883,-12.08739 9.761807,7.2862 c 0.628282,0.46886 0.750187,1.35033 0.290698,1.96924 -0.468867,0.62828 -1.350337,0.75018 -1.969241,0.29069 l -7.830076,-5.85145 2.241184,-0.94712 -1.237809,9.69617 c -0.09377,0.76894 -0.806451,1.31283 -1.575392,1.21905 -0.768942,-0.10315 -1.312827,-0.80645 -1.219054,-1.57539 z"
       id="path3291"
       inkscape:connector-curvature="0" />
    <path
       style="fill:#4a7ebb;fill-opacity:1;fill-rule:nonzero;stroke:#4a7ebb;stroke-width:0.00937734px;stroke-linecap:butt;stroke-linejoin:round;stroke-opacity:1;stroke-dasharray:none"
       d="m 146.50212,241.78523 25.50636,-63.14698 -2.6069,-1.05026 -25.51573,63.14698 z m -4.10727,-9.99624 1.75356,12.05926 9.63053,-7.45498 c 0.6189,-0.47825 0.73143,-1.35972 0.25318,-1.97862 -0.47824,-0.60953 -1.35971,-0.72206 -1.96924,-0.25319 l -7.72692,5.98274 2.25056,0.9096 -1.4066,-9.66803 0,0 c -0.11253,-0.76894 -0.82521,-1.30345 -1.59415,-1.19092 -0.76894,0.11253 -1.29407,0.8252 -1.19092,1.59414 z"
       id="path3293"
       inkscape:connector-curvature="0" />
    <path
       style="fill:#ff0000;fill-opacity:1;fill-rule:nonzero;stroke:#ff0000;stroke-width:0.00937734px;stroke-linecap:butt;stroke-linejoin:round;stroke-opacity:1;stroke-dasharray:none"
       d="m 126.84723,246.80211 30.27941,12.22805 -1.05026,2.61627 -30.28879,-12.23742 z m 4.3417,9.89309 -7.46436,-9.6399 12.05926,-1.74419 c 0.76894,-0.11252 1.48162,0.42198 1.59414,1.19092 0.11253,0.76895 -0.42198,1.48162 -1.19092,1.59415 l 0,0 -9.66803,1.39723 0.9096,-2.25057 5.98274,7.72693 c 0.47825,0.60953 0.36572,1.50037 -0.25319,1.96924 -0.60952,0.47824 -1.50037,0.36572 -1.96924,-0.24381 z"
       id="path3295"
       inkscape:connector-curvature="0" />
    <path
       style="fill:#4a7ebb;fill-opacity:1;fill-rule:nonzero;stroke:#4a7ebb;stroke-width:0.00937734px;stroke-linecap:butt;stroke-linejoin:round;stroke-opacity:1;stroke-dasharray:none"
       d="m 194.30778,167.01036 63.14698,25.51573 -1.05964,2.6069 -63.14698,-25.51573 z m 57.74564,18.22954 7.46436,9.6399 -12.05926,1.74418 c -0.76894,0.11253 -1.48162,-0.42198 -1.59414,-1.19092 -0.11253,-0.76894 0.42198,-1.48162 1.19092,-1.59414 l 9.66803,-1.39723 -0.9096,2.25056 -5.98274,-7.72692 c -0.46887,-0.61891 -0.35634,-1.50038 0.25319,-1.96924 0.6189,-0.47825 1.50037,-0.36572 1.96924,0.24381 z"
       id="path3297"
       inkscape:connector-curvature="0" />
    <path
       style="fill:#ff0000;fill-opacity:1;fill-rule:nonzero;stroke:#ff0000;stroke-width:0.00937734px;stroke-linecap:butt;stroke-linejoin:round;stroke-opacity:1;stroke-dasharray:none"
       d="m 202.76614,260.01478 30.06374,-12.76256 -1.09715,-2.58814 -30.06374,12.76255 z m 4.17291,-9.96811 -7.28619,9.7618 12.07801,1.53789 c 0.77832,0.10315 1.48162,-0.44074 1.57539,-1.20968 0.10316,-0.77832 -0.44073,-1.48162 -1.21905,-1.57539 l 0,0 -9.68679,-1.23781 0.94711,2.24118 5.84208,-7.83007 c 0.46887,-0.62828 0.33759,-1.50975 -0.28132,-1.96924 -0.62828,-0.46887 -1.50037,-0.33759 -1.96924,0.28132 z"
       id="path3299"
       inkscape:connector-curvature="0" />
    <path
       style="fill:#4a7ebb;fill-opacity:1;fill-rule:nonzero;stroke:#4a7ebb;stroke-width:0.00937734px;stroke-linecap:butt;stroke-linejoin:round;stroke-opacity:1;stroke-dasharray:none"
       d="m 209.43343,241.08193 -26.61288,-62.69686 2.58814,-1.09715 26.61288,62.69687 z m 3.91972,-10.06188 -1.53788,12.07801 -9.76181,-7.28619 c -0.6189,-0.45949 -0.75019,-1.34096 -0.28132,-1.96924 0.45949,-0.6189 1.34096,-0.75019 1.96924,-0.28132 l 7.83008,5.84208 -2.24119,0.94711 1.23781,-9.68679 c 0.0938,-0.76894 0.79708,-1.3222 1.5754,-1.21905 0.76894,0.0938 1.31282,0.80645 1.20967,1.57539 z"
       id="path3301"
       inkscape:connector-curvature="0" />
    <path
       style="fill:#ff0000;fill-opacity:1;fill-rule:nonzero;stroke:#ff0000;stroke-width:0.00937734px;stroke-linecap:butt;stroke-linejoin:round;stroke-opacity:1;stroke-dasharray:none"
       d="m 274.69968,181.90157 -12.22804,30.27941 2.6069,1.05027 12.23742,-30.27942 z m -13.71904,21.34281 1.74419,12.04988 9.63052,-7.45498 c 0.6189,-0.47825 0.73143,-1.35972 0.25319,-1.97862 -0.46887,-0.60953 -1.35972,-0.72205 -1.96924,-0.24381 l -7.72693,5.97336 2.25056,0.91898 -1.39722,-9.67741 c -0.11253,-0.76894 -0.8252,-1.29407 -1.59415,-1.18154 -0.76894,0.10315 -1.30345,0.8252 -1.19092,1.59414 z"
       id="path3303"
       inkscape:connector-curvature="0" />
    <text
       xml:space="preserve"
       x="186.52631"
       y="168.3251"
       style="font-size:13.20328903px;font-style:italic;font-weight:normal;text-align:start;text-anchor:start;fill:#000000;font-family:Calibri"
       id="text3305">e</text>
    <text
       xml:space="preserve"
       x="192.82787"
       y="164.42413"
       style="font-size:8.70216751px;font-style:italic;font-weight:normal;text-align:start;text-anchor:start;fill:#000000;font-family:Calibri"
       id="text3307">-</text>
    <path
       style="fill:none;stroke:#4a7ebb;stroke-width:0.93773359px;stroke-linecap:butt;stroke-linejoin:round;stroke-opacity:1;stroke-dasharray:none"
       d="m 307.78293,146.17392 c -15.88521,0 -31.77042,-3.67592 -31.77042,-7.33308"
       id="path3309"
       inkscape:connector-curvature="0" />
    <path
       style="fill:none;stroke:#4a7ebb;stroke-width:0.93773359px;stroke-linecap:butt;stroke-linejoin:round;stroke-opacity:1;stroke-dasharray:none"
       d="m 262.7342,215.28488 c 0,11.25281 7.78319,22.50561 15.58514,22.50561 7.78319,0 15.56637,-14.92872 15.56637,-29.87619 0,-14.94748 6.95799,-29.8762 13.89722,-29.8762"
       id="path3311"
       inkscape:connector-curvature="0" />
    <path
       style="fill:none;stroke:#4a7ebb;stroke-width:0.93773359px;stroke-linecap:butt;stroke-linejoin:round;stroke-opacity:1;stroke-dasharray:none"
       d="m 262.15281,106.20771 c 0,-15.219418 -15.49136,-30.438834 -30.98272,-30.438834"
       id="path3313"
       inkscape:connector-curvature="0" />
    <path
       style="fill:none;stroke:#4a7ebb;stroke-width:0.93773359px;stroke-linecap:butt;stroke-linejoin:round;stroke-opacity:1;stroke-dasharray:none"
       d="m 122.10229,77.09108 c -15.06938,0 -30.138755,15.49136 -30.138755,30.97334"
       id="path3315"
       inkscape:connector-curvature="0" />
    <path
       style="fill:none;stroke:#4a7ebb;stroke-width:0.93773359px;stroke-linecap:butt;stroke-linejoin:round;stroke-opacity:1;stroke-dasharray:none"
       d="m 78.685227,140.93198 c 0,-0.3282 -4.43548,-0.65641 -8.87096,-0.65641 -4.43548,0 -8.870959,20.99586 -8.870959,41.98234 0,20.99585 7.951981,41.98233 15.903962,41.98233 7.951981,0 15.913339,-3.8072 15.913339,-7.62378"
       id="path3317"
       inkscape:connector-curvature="0" />
    <path
       style="fill:none;stroke:#4a7ebb;stroke-width:0.93773359px;stroke-linecap:butt;stroke-linejoin:round;stroke-opacity:1;stroke-dasharray:none"
       d="m 78.910284,183.99271 c 0,46.81166 23.593376,93.6327 47.196136,93.6327 23.60275,0 47.19613,-4.32295 47.19613,-8.6459 0,-4.32295 -8.34583,-8.63653 -16.70104,-8.63653"
       id="path3319"
       inkscape:connector-curvature="0" />
    <path
       style="fill:none;stroke:#4a7ebb;stroke-width:0.93773359px;stroke-linecap:butt;stroke-linejoin:round;stroke-opacity:1;stroke-dasharray:none"
       d="m 276.00313,182.4267 c 0,47.24302 -23.2933,94.49541 -46.5866,94.49541 -23.2933,0 -46.58661,-4.27606 -46.58661,-8.55213 0,-4.28544 8.41147,-8.56151 16.82294,-8.56151"
       id="path3321"
       inkscape:connector-curvature="0" />
    <path
       style="fill:none;stroke:#4a7ebb;stroke-width:0.93773359px;stroke-linecap:butt;stroke-linejoin:round;stroke-opacity:1;stroke-dasharray:none"
       d="m 232.28599,245.95815 c 11.25281,0 22.50561,11.99361 22.50561,23.98723 0,11.99361 -38.39081,23.98722 -76.78163,23.98722 -38.39081,0 -76.78163,-11.72167 -76.78163,-23.43396 0,-11.72167 11.25281,-23.43396 22.50561,-23.43396"
       id="path3323"
       inkscape:connector-curvature="0" />
    <path
       style="fill:none;stroke:#4a7ebb;stroke-width:0.93773359px;stroke-linecap:butt;stroke-linejoin:round;stroke-opacity:1;stroke-dasharray:none"
       d="m 198.30253,62.490568 c -10.88709,0 -21.78355,0.187547 -21.78355,0.375093 0,0.187547 -10.89647,0.375094 -21.79293,0.375094"
       id="path3325"
       inkscape:connector-curvature="0" />
  </g>
  <g
     style="font-size:40px;font-style:normal;font-weight:normal;line-height:125%;letter-spacing:0px;word-spacing:0px;fill:#000000;fill-opacity:1;stroke:none;font-family:Sans"
     id="text3351">
    <path
       d="m 77.005859,174.85352 0,-8.58985 1.136719,0 0,3.52735 4.464844,0 0,-3.52735 1.136719,0 0,8.58985 -1.136719,0 0,-4.04883 -4.464844,0 0,4.04883 z"
       style="font-size:12px;text-align:center;text-anchor:middle"
       id="path3360" />
    <path
       d="m 85.115234,171.74219 c 0,-1.15234 0.320312,-2.00586 0.960938,-2.56055 0.535154,-0.46093 1.187497,-0.6914 1.957031,-0.69141 0.855465,1e-5 1.554683,0.28028 2.097656,0.84082 0.542963,0.56056 0.814447,1.33497 0.814453,2.32325 -6e-6,0.80078 -0.120123,1.43066 -0.360351,1.88965 -0.24024,0.45898 -0.589849,0.81543 -1.048828,1.06933 -0.458989,0.25391 -0.959965,0.38086 -1.50293,0.38086 -0.871096,0 -1.575197,-0.2793 -2.112305,-0.83789 -0.53711,-0.55859 -0.805664,-1.36328 -0.805664,-2.41406 z m 1.083985,0 c -2e-6,0.79687 0.173826,1.39355 0.521484,1.79004 0.347654,0.39648 0.785154,0.59472 1.3125,0.59472 0.523434,0 0.95898,-0.19921 1.306641,-0.59765 0.347651,-0.39844 0.521479,-1.00586 0.521484,-1.82227 -5e-6,-0.76953 -0.17481,-1.35253 -0.524414,-1.74902 -0.349614,-0.39648 -0.784183,-0.59472 -1.303711,-0.59473 -0.527346,1e-5 -0.964846,0.19727 -1.3125,0.5918 -0.347658,0.39453 -0.521486,0.99024 -0.521484,1.78711 z"
       style="font-size:12px;text-align:center;text-anchor:middle"
       id="path3362" />
    <path
       d="m 92.175781,174.85352 0,-6.22266 0.949219,0 0,0.94336 c 0.242186,-0.4414 0.465818,-0.73242 0.670898,-0.87305 0.205076,-0.14062 0.430662,-0.21093 0.676758,-0.21094 0.355466,1e-5 0.716793,0.11329 1.083985,0.33985 l -0.363282,0.97851 c -0.257816,-0.15233 -0.515628,-0.22851 -0.773437,-0.22851 -0.230472,0 -0.437503,0.0693 -0.621094,0.20801 -0.183596,0.13867 -0.314455,0.33106 -0.392578,0.57714 -0.117189,0.37501 -0.175783,0.78516 -0.175781,1.23047 l 0,3.25782 z"
       style="font-size:12px;text-align:center;text-anchor:middle"
       id="path3364" />
    <path
       d="m 96.201172,167.47656 0,-1.21289 1.054687,0 0,1.21289 z m 0,7.37696 0,-6.22266 1.054687,0 0,6.22266 z"
       style="font-size:12px;text-align:center;text-anchor:middle"
       id="path3366" />
    <path
       d="m 98.310547,174.85352 0,-0.85547 3.960933,-4.54688 c -0.44922,0.0234 -0.8457,0.0352 -1.18945,0.0352 l -2.537108,0 0,-0.85547 5.085938,0 0,0.69726 -3.36914,3.94922 -0.650392,0.72071 c 0.472652,-0.0352 0.916012,-0.0527 1.330082,-0.0527 l 2.87695,0 0,0.90821 z"
       style="font-size:12px;text-align:center;text-anchor:middle"
       id="path3368" />
    <path
       d="m 104.47461,171.74219 c 0,-1.15234 0.32031,-2.00586 0.96094,-2.56055 0.53515,-0.46093 1.18749,-0.6914 1.95703,-0.69141 0.85546,1e-5 1.55468,0.28028 2.09765,0.84082 0.54297,0.56056 0.81445,1.33497 0.81446,2.32325 -10e-6,0.80078 -0.12013,1.43066 -0.36035,1.88965 -0.24024,0.45898 -0.58985,0.81543 -1.04883,1.06933 -0.45899,0.25391 -0.95997,0.38086 -1.50293,0.38086 -0.8711,0 -1.5752,-0.2793 -2.11231,-0.83789 -0.53711,-0.55859 -0.80566,-1.36328 -0.80566,-2.41406 z m 1.08398,0 c 0,0.79687 0.17383,1.39355 0.52149,1.79004 0.34765,0.39648 0.78515,0.59472 1.3125,0.59472 0.52343,0 0.95898,-0.19921 1.30664,-0.59765 0.34765,-0.39844 0.52148,-1.00586 0.52148,-1.82227 0,-0.76953 -0.17481,-1.35253 -0.52441,-1.74902 -0.34961,-0.39648 -0.78418,-0.59472 -1.30371,-0.59473 -0.52735,1e-5 -0.96485,0.19727 -1.3125,0.5918 -0.34766,0.39453 -0.52149,0.99024 -0.52149,1.78711 z"
       style="font-size:12px;text-align:center;text-anchor:middle"
       id="path3370" />
    <path
       d="m 111.54688,174.85352 0,-6.22266 0.94921,0 0,0.88476 c 0.45703,-0.68358 1.11719,-1.02538 1.98047,-1.02539 0.375,1e-5 0.71972,0.0674 1.03418,0.20215 0.31445,0.13477 0.5498,0.31153 0.70606,0.53028 0.15624,0.21875 0.26562,0.47852 0.32812,0.77929 0.0391,0.19532 0.0586,0.53712 0.0586,1.02539 l 0,3.82618 -1.05469,0 0,-3.78516 c -10e-6,-0.42968 -0.041,-0.75097 -0.12305,-0.96387 -0.082,-0.21288 -0.22754,-0.38281 -0.43652,-0.50976 -0.20899,-0.12695 -0.45411,-0.19043 -0.73535,-0.19043 -0.44923,0 -0.83692,0.14258 -1.16309,0.42773 -0.32617,0.28516 -0.48926,0.82618 -0.48926,1.62305 l 0,3.39844 z"
       style="font-size:12px;text-align:center;text-anchor:middle"
       id="path3372" />
    <path
       d="m 120.5293,173.91016 0.15234,0.93164 c -0.29688,0.0625 -0.5625,0.0937 -0.79687,0.0937 -0.38282,0 -0.67969,-0.0606 -0.89063,-0.18164 -0.21094,-0.1211 -0.35938,-0.28028 -0.44531,-0.47754 -0.0859,-0.19727 -0.12891,-0.61231 -0.12891,-1.24512 l 0,-3.58008 -0.77344,0 0,-0.82031 0.77344,0 0,-1.54102 1.04883,-0.63281 0,2.17383 1.06055,0 0,0.82031 -1.06055,0 0,3.63867 c 0,0.30079 0.0186,0.49415 0.0557,0.58008 0.0371,0.0859 0.0977,0.1543 0.18164,0.20508 0.084,0.0508 0.2041,0.0762 0.36036,0.0762 0.11718,0 0.27148,-0.0137 0.46289,-0.041 z"
       style="font-size:12px;text-align:center;text-anchor:middle"
       id="path3374" />
    <path
       d="m 125.61523,174.08594 c -0.39063,0.33203 -0.7666,0.5664 -1.12793,0.70312 -0.36133,0.13672 -0.74902,0.20508 -1.16308,0.20508 -0.6836,0 -1.20899,-0.16699 -1.57617,-0.50098 -0.36719,-0.33398 -0.55078,-0.76074 -0.55078,-1.28027 0,-0.30468 0.0693,-0.583 0.208,-0.83496 0.13867,-0.25195 0.32031,-0.4541 0.54493,-0.60645 0.2246,-0.15234 0.47753,-0.26757 0.75878,-0.3457 0.20703,-0.0547 0.51953,-0.10742 0.9375,-0.1582 0.85156,-0.10156 1.47852,-0.22265 1.88086,-0.36328 0.004,-0.14453 0.006,-0.23633 0.006,-0.27539 0,-0.42969 -0.0996,-0.73242 -0.29882,-0.90821 -0.26954,-0.23827 -0.66993,-0.35741 -1.20118,-0.35742 -0.49609,1e-5 -0.8623,0.0869 -1.09863,0.26074 -0.23633,0.17384 -0.41113,0.48145 -0.52441,0.92285 l -1.03125,-0.14062 c 0.0937,-0.4414 0.24804,-0.79785 0.46289,-1.06934 0.21484,-0.27147 0.52539,-0.48046 0.93164,-0.62695 0.40625,-0.14648 0.87695,-0.21972 1.41211,-0.21973 0.53124,1e-5 0.96288,0.0625 1.29492,0.1875 0.33202,0.12501 0.57617,0.28224 0.73242,0.47168 0.15625,0.18946 0.26562,0.42872 0.32813,0.71778 0.0352,0.17969 0.0527,0.50391 0.0527,0.97265 l 0,1.40625 c -1e-5,0.98047 0.0225,1.60059 0.0674,1.86036 0.0449,0.25976 0.13379,0.50878 0.2666,0.74707 l -1.10156,0 c -0.10938,-0.21875 -0.17969,-0.47461 -0.21094,-0.76758 z m -0.0879,-2.35547 c -0.38281,0.15625 -0.95703,0.28906 -1.72265,0.39844 -0.4336,0.0625 -0.74024,0.13281 -0.91992,0.21093 -0.17969,0.0781 -0.31837,0.19239 -0.41602,0.34278 -0.0977,0.15039 -0.14649,0.31738 -0.14648,0.50097 -1e-5,0.28126 0.10644,0.51563 0.31933,0.70313 0.21289,0.1875 0.52441,0.28125 0.93457,0.28125 0.40625,0 0.76758,-0.0889 1.08399,-0.2666 0.3164,-0.17774 0.54882,-0.4209 0.69726,-0.7295 0.11328,-0.23827 0.16992,-0.58984 0.16992,-1.05468 z"
       style="font-size:12px;text-align:center;text-anchor:middle"
       id="path3376" />
    <path
       d="m 128.21094,174.85352 0,-8.58985 1.05468,0 0,8.58985 z"
       style="font-size:12px;text-align:center;text-anchor:middle"
       id="path3378" />
    <path
       d="M 133.98242,172.09375 135.05469,172 c 0.0508,0.42969 0.16894,0.78223 0.35449,1.05762 0.18554,0.27539 0.47363,0.49805 0.86426,0.66797 0.39062,0.16992 0.83007,0.25488 1.31836,0.25488 0.43359,0 0.8164,-0.0644 1.14843,-0.19336 0.33203,-0.12891 0.5791,-0.30566 0.74122,-0.53027 0.1621,-0.22461 0.24315,-0.46973 0.24316,-0.73536 -1e-5,-0.26952 -0.0781,-0.50488 -0.23438,-0.70605 -0.15625,-0.20117 -0.41406,-0.37011 -0.77343,-0.50684 -0.23048,-0.0898 -0.74024,-0.22948 -1.5293,-0.41894 -0.78907,-0.18945 -1.3418,-0.36816 -1.6582,-0.53613 -0.41016,-0.21484 -0.71582,-0.48144 -0.917,-0.79981 -0.20117,-0.31835 -0.30175,-0.6748 -0.30175,-1.06934 0,-0.43358 0.12304,-0.83885 0.36914,-1.21582 0.24609,-0.37694 0.60546,-0.66307 1.07812,-0.85839 0.47266,-0.19531 0.99805,-0.29296 1.57617,-0.29297 0.63672,1e-5 1.19824,0.10255 1.68457,0.30761 0.48633,0.20509 0.86035,0.50685 1.12207,0.90528 0.26172,0.39844 0.40234,0.84961 0.42188,1.35351 l -1.08984,0.082 c -0.0586,-0.54296 -0.25685,-0.95311 -0.59473,-1.23046 -0.3379,-0.27734 -0.83692,-0.41601 -1.49707,-0.41602 -0.6875,1e-5 -1.18848,0.12598 -1.50293,0.37793 -0.31446,0.25196 -0.47168,0.55567 -0.47168,0.91113 0,0.3086 0.11133,0.56251 0.33398,0.76172 0.21875,0.19923 0.79004,0.40333 1.71387,0.61231 0.92382,0.20899 1.55761,0.3916 1.90137,0.54785 0.49999,0.23047 0.86913,0.52246 1.10742,0.87597 0.23827,0.35352 0.35742,0.76075 0.35742,1.22168 0,0.45704 -0.13086,0.8877 -0.39258,1.292 -0.26172,0.40429 -0.6377,0.71875 -1.12793,0.94336 -0.49024,0.22461 -1.04199,0.33691 -1.65527,0.33691 -0.77735,0 -1.42871,-0.11328 -1.9541,-0.33984 -0.52539,-0.22657 -0.9375,-0.56739 -1.23633,-1.02246 -0.29883,-0.45508 -0.45605,-0.96973 -0.47168,-1.54395 z"
       style="font-size:12px;text-align:center;text-anchor:middle"
       id="path3380" />
    <path
       d="m 144.55273,173.91016 0.15235,0.93164 c -0.29688,0.0625 -0.5625,0.0937 -0.79688,0.0937 -0.38281,0 -0.67969,-0.0606 -0.89062,-0.18164 -0.21094,-0.1211 -0.35938,-0.28028 -0.44531,-0.47754 -0.0859,-0.19727 -0.12891,-0.61231 -0.12891,-1.24512 l 0,-3.58008 -0.77344,0 0,-0.82031 0.77344,0 0,-1.54102 1.04883,-0.63281 0,2.17383 1.06054,0 0,0.82031 -1.06054,0 0,3.63867 c 0,0.30079 0.0186,0.49415 0.0557,0.58008 0.0371,0.0859 0.0977,0.1543 0.18164,0.20508 0.084,0.0508 0.2041,0.0762 0.36035,0.0762 0.11719,0 0.27149,-0.0137 0.46289,-0.041 z"
       style="font-size:12px;text-align:center;text-anchor:middle"
       id="path3382" />
    <path
       d="m 149.83789,172.84961 1.08984,0.13476 c -0.17188,0.63672 -0.49024,1.13087 -0.95507,1.48243 -0.46485,0.35156 -1.0586,0.52734 -1.78125,0.52734 -0.91016,0 -1.63184,-0.28027 -2.16504,-0.84082 -0.53321,-0.56055 -0.79981,-1.34668 -0.79981,-2.3584 0,-1.04687 0.26953,-1.85937 0.8086,-2.4375 0.53906,-0.57812 1.23828,-0.86718 2.09765,-0.86719 0.83203,1e-5 1.51172,0.28321 2.03906,0.84961 0.52734,0.56641 0.79101,1.36329 0.79102,2.39063 -10e-6,0.0625 -0.002,0.15625 -0.006,0.28125 l -4.64062,0 c 0.0391,0.68359 0.23242,1.20703 0.58007,1.57031 0.34766,0.36328 0.78125,0.54492 1.30079,0.54492 0.38671,0 0.71679,-0.10156 0.99023,-0.30468 0.27343,-0.20313 0.49023,-0.52735 0.65039,-0.97266 z m -3.46289,-1.70508 3.47461,0 c -0.0469,-0.52343 -0.17969,-0.91601 -0.39844,-1.17773 -0.33594,-0.40625 -0.77149,-0.60937 -1.30664,-0.60938 -0.48438,1e-5 -0.8916,0.16212 -1.22168,0.48633 -0.33008,0.32422 -0.5127,0.75782 -0.54785,1.30078 z"
       style="font-size:12px;text-align:center;text-anchor:middle"
       id="path3384" />
    <path
       d="m 156.51758,172.84961 1.08984,0.13476 c -0.17188,0.63672 -0.49024,1.13087 -0.95508,1.48243 -0.46484,0.35156 -1.05859,0.52734 -1.78125,0.52734 -0.91015,0 -1.63183,-0.28027 -2.16504,-0.84082 -0.5332,-0.56055 -0.7998,-1.34668 -0.7998,-2.3584 0,-1.04687 0.26953,-1.85937 0.80859,-2.4375 0.53906,-0.57812 1.23828,-0.86718 2.09766,-0.86719 0.83203,1e-5 1.51171,0.28321 2.03906,0.84961 0.52734,0.56641 0.79101,1.36329 0.79102,2.39063 -1e-5,0.0625 -0.002,0.15625 -0.006,0.28125 l -4.64063,0 c 0.0391,0.68359 0.23242,1.20703 0.58008,1.57031 0.34766,0.36328 0.78125,0.54492 1.30078,0.54492 0.38672,0 0.7168,-0.10156 0.99024,-0.30468 0.27343,-0.20313 0.49023,-0.52735 0.65039,-0.97266 z m -3.46289,-1.70508 3.47461,0 c -0.0469,-0.52343 -0.1797,-0.91601 -0.39844,-1.17773 -0.33594,-0.40625 -0.77149,-0.60937 -1.30664,-0.60938 -0.48438,1e-5 -0.89161,0.16212 -1.22168,0.48633 -0.33008,0.32422 -0.5127,0.75782 -0.54785,1.30078 z"
       style="font-size:12px;text-align:center;text-anchor:middle"
       id="path3386" />
    <path
       d="m 158.92578,174.85352 0,-6.22266 0.94922,0 0,0.94336 c 0.24219,-0.4414 0.46582,-0.73242 0.6709,-0.87305 0.20507,-0.14062 0.43066,-0.21093 0.67676,-0.21094 0.35546,1e-5 0.71679,0.11329 1.08398,0.33985 l -0.36328,0.97851 c -0.25782,-0.15233 -0.51563,-0.22851 -0.77344,-0.22851 -0.23047,0 -0.4375,0.0693 -0.62109,0.20801 -0.1836,0.13867 -0.31446,0.33106 -0.39258,0.57714 -0.11719,0.37501 -0.17578,0.78516 -0.17578,1.23047 l 0,3.25782 z"
       style="font-size:12px;text-align:center;text-anchor:middle"
       id="path3388" />
    <path
       d="m 167.20508,172.84961 1.08984,0.13476 c -0.17188,0.63672 -0.49024,1.13087 -0.95508,1.48243 -0.46484,0.35156 -1.05859,0.52734 -1.78125,0.52734 -0.91015,0 -1.63183,-0.28027 -2.16504,-0.84082 -0.5332,-0.56055 -0.7998,-1.34668 -0.7998,-2.3584 0,-1.04687 0.26953,-1.85937 0.80859,-2.4375 0.53906,-0.57812 1.23828,-0.86718 2.09766,-0.86719 0.83203,1e-5 1.51171,0.28321 2.03906,0.84961 0.52734,0.56641 0.79101,1.36329 0.79102,2.39063 -1e-5,0.0625 -0.002,0.15625 -0.006,0.28125 l -4.64063,0 c 0.0391,0.68359 0.23242,1.20703 0.58008,1.57031 0.34766,0.36328 0.78125,0.54492 1.30078,0.54492 0.38672,0 0.7168,-0.10156 0.99024,-0.30468 0.27343,-0.20313 0.49023,-0.52735 0.65039,-0.97266 z m -3.46289,-1.70508 3.47461,0 c -0.0469,-0.52343 -0.1797,-0.91601 -0.39844,-1.17773 -0.33594,-0.40625 -0.77149,-0.60937 -1.30664,-0.60938 -0.48438,1e-5 -0.89161,0.16212 -1.22168,0.48633 -0.33008,0.32422 -0.5127,0.75782 -0.54785,1.30078 z"
       style="font-size:12px;text-align:center;text-anchor:middle"
       id="path3390" />
    <path
       d="m 169.61328,174.85352 0,-6.22266 0.94922,0 0,0.94336 c 0.24219,-0.4414 0.46582,-0.73242 0.6709,-0.87305 0.20507,-0.14062 0.43066,-0.21093 0.67676,-0.21094 0.35546,1e-5 0.71679,0.11329 1.08398,0.33985 l -0.36328,0.97851 c -0.25782,-0.15233 -0.51563,-0.22851 -0.77344,-0.22851 -0.23047,0 -0.4375,0.0693 -0.62109,0.20801 -0.1836,0.13867 -0.31446,0.33106 -0.39258,0.57714 -0.11719,0.37501 -0.17578,0.78516 -0.17578,1.23047 l 0,3.25782 z"
       style="font-size:12px;text-align:center;text-anchor:middle"
       id="path3392" />
    <path
       d="m 93.419113,189.41647 0,0.21679 -3.404297,0 0,-0.21679 0.28125,0 c 0.328124,0 0.566405,-0.0957 0.714844,-0.28711 0.09375,-0.125 0.140624,-0.42578 0.140625,-0.90235 l 0,-5.13281 c -10e-7,-0.40234 -0.02539,-0.66796 -0.07617,-0.79687 -0.03906,-0.0976 -0.119142,-0.18164 -0.240234,-0.25196 -0.171876,-0.0937 -0.351563,-0.14061 -0.539063,-0.14062 l -0.28125,0 0,-0.2168 3.404297,0 0,0.2168 -0.287109,0 c -0.324222,1e-5 -0.56055,0.0957 -0.708985,0.28711 -0.09766,0.125 -0.146487,0.42579 -0.146484,0.90234 l 0,5.13281 c -3e-6,0.40235 0.02539,0.66797 0.07617,0.79688 0.03906,0.0977 0.121091,0.18164 0.246094,0.25195 0.167965,0.0937 0.3457,0.14063 0.533203,0.14063 z"
       style="font-size:12px;font-variant:normal;font-stretch:normal;text-align:center;text-anchor:middle;font-family:Serif;-inkscape-font-specification:Serif"
       id="path3394" />
    <path
       d="m 103.24529,185.80709 -6.304692,2.73047 0,-0.50391 5.431642,-2.35546 -5.431642,-2.37891 0,-0.5332 6.304692,2.7539 z"
       style="font-size:12px;font-variant:normal;font-stretch:normal;text-align:center;text-anchor:middle;font-family:Serif;-inkscape-font-specification:Serif"
       id="path3396" />
    <path
       d="m 106.93083,185.70748 c 0,-0.90624 0.13672,-1.68652 0.41016,-2.34082 0.27343,-0.65429 0.63672,-1.14159 1.08984,-1.46191 0.35156,-0.2539 0.71484,-0.38085 1.08985,-0.38086 0.60937,1e-5 1.15624,0.31055 1.64062,0.93164 0.60546,0.76954 0.9082,1.8125 0.9082,3.12891 0,0.92187 -0.13281,1.70508 -0.39843,2.3496 -0.26563,0.64454 -0.6045,1.11231 -1.01661,1.40333 -0.41211,0.29101 -0.80957,0.43652 -1.19238,0.43652 -0.75781,0 -1.38867,-0.44727 -1.89258,-1.3418 -0.42578,-0.7539 -0.63867,-1.6621 -0.63867,-2.72461 z m 1.14844,0.14649 c 0,1.09375 0.13476,1.98633 0.4043,2.67773 0.22265,0.58203 0.55468,0.87305 0.99609,0.87305 0.21093,0 0.42968,-0.0947 0.65625,-0.28418 0.22656,-0.18945 0.39843,-0.50684 0.51563,-0.95215 0.17968,-0.67187 0.26952,-1.61914 0.26953,-2.8418 -1e-5,-0.90624 -0.0938,-1.6621 -0.28125,-2.26758 -0.14063,-0.44921 -0.32227,-0.76757 -0.54493,-0.95507 -0.16016,-0.1289 -0.35351,-0.19335 -0.58007,-0.19336 -0.26563,1e-5 -0.50196,0.11915 -0.70899,0.35742 -0.28125,0.32423 -0.47266,0.83399 -0.57422,1.5293 -0.10156,0.69531 -0.15234,1.38086 -0.15234,2.05664 z"
       style="font-size:12px;font-variant:normal;font-stretch:normal;text-align:center;text-anchor:middle;font-family:Serif;-inkscape-font-specification:Serif"
       id="path3398" />
    <path
       d="m 124.60857,184.50045 c 0.51952,0.56641 0.96874,0.99708 1.34765,1.29199 0.3789,0.29493 0.73632,0.51466 1.07227,0.65918 l 0,0.26367 c -0.38673,0.18751 -0.76173,0.42677 -1.125,0.71778 -0.36329,0.29102 -0.79689,0.71777 -1.30078,1.28027 l -0.45117,0 c 0.36717,-0.78515 0.75194,-1.38867 1.15429,-1.81055 l -9.3457,0 0,-0.59179 9.3457,0 c -0.29688,-0.3789 -0.50391,-0.66015 -0.62109,-0.84375 -0.1172,-0.18359 -0.29103,-0.50586 -0.52149,-0.9668 z"
       style="font-size:12px;font-variant:normal;font-stretch:normal;text-align:center;text-anchor:middle;font-family:Serif;-inkscape-font-specification:Serif"
       id="path3400" />
    <path
       d="m 132.34294,185.19186 c 0.51953,-0.72265 1.08008,-1.08398 1.68164,-1.08399 0.55078,1e-5 1.03125,0.23536 1.44141,0.70606 0.41015,0.47071 0.61523,1.11426 0.61523,1.93066 0,0.95313 -0.31641,1.72071 -0.94922,2.30274 -0.54297,0.5 -1.14844,0.75 -1.8164,0.75 -0.3125,0 -0.62989,-0.0566 -0.95215,-0.16993 -0.32227,-0.11328 -0.65137,-0.2832 -0.98731,-0.50976 l 0,-5.56055 c 0,-0.60937 -0.0146,-0.98437 -0.0439,-1.125 -0.0293,-0.14062 -0.0752,-0.23632 -0.1377,-0.28711 -0.0625,-0.0508 -0.14062,-0.0762 -0.23437,-0.0762 -0.10938,10e-6 -0.2461,0.0313 -0.41016,0.0937 l -0.082,-0.20508 1.61133,-0.65625 0.26367,0 z m 0,0.375 0,3.21093 c 0.19922,0.19532 0.40527,0.34278 0.61817,0.44239 0.21288,0.0996 0.43066,0.14941 0.65332,0.14941 0.35546,0 0.68652,-0.19531 0.99316,-0.58594 0.30664,-0.39062 0.45996,-0.95898 0.45996,-1.70507 0,-0.6875 -0.15332,-1.21582 -0.45996,-1.58496 -0.30664,-0.36914 -0.65528,-0.55371 -1.0459,-0.55372 -0.20703,1e-5 -0.41406,0.0527 -0.62109,0.15821 -0.15625,0.0781 -0.35547,0.23438 -0.59766,0.46875 z"
       style="font-size:12px;font-variant:normal;font-stretch:normal;text-align:center;text-anchor:middle;font-family:Serif;-inkscape-font-specification:Serif"
       id="path3402" />
    <path
       d="m 137.41131,187.37529 1.25686,-0.61319 0.12568,0 0,4.3609 c 0,0.28945 0.0121,0.46973 0.0362,0.54083 0.0241,0.0711 0.0743,0.12568 0.15045,0.16377 0.0762,0.0381 0.23105,0.0597 0.46465,0.0647 l 0,0.14092 -1.94241,0 0,-0.14092 c 0.24375,-0.005 0.40118,-0.026 0.47227,-0.0628 0.0711,-0.0368 0.12061,-0.0863 0.14854,-0.14854 0.0279,-0.0622 0.0419,-0.24819 0.0419,-0.55796 l 0,-2.78793 c -10e-6,-0.37579 -0.0127,-0.617 -0.0381,-0.72365 -0.0178,-0.0812 -0.0502,-0.14091 -0.0971,-0.179 -0.047,-0.0381 -0.10347,-0.0571 -0.16949,-0.0571 -0.0939,0 -0.22471,0.0394 -0.39229,0.11807 z"
       style="font-size:65.00091553%;baseline-shift:sub"
       id="path3404" />
    <path
       d="m 143.61409,185.49654 6.30469,-2.73046 0,0.50976 -5.42578,2.35547 5.42578,2.37891 0,0.52734 -6.30469,-2.75391 z"
       style="font-size:12px;font-variant:normal;font-stretch:normal;text-align:center;text-anchor:middle;font-family:Serif;-inkscape-font-specification:Serif"
       id="path3406" />
    <path
       d="m 153.60432,185.70748 c 0,-0.90624 0.13672,-1.68652 0.41016,-2.34082 0.27344,-0.65429 0.63672,-1.14159 1.08984,-1.46191 0.35156,-0.2539 0.71485,-0.38085 1.08985,-0.38086 0.60937,1e-5 1.15624,0.31055 1.64062,0.93164 0.60547,0.76954 0.9082,1.8125 0.90821,3.12891 -1e-5,0.92187 -0.13282,1.70508 -0.39844,2.3496 -0.26563,0.64454 -0.6045,1.11231 -1.0166,1.40333 -0.41212,0.29101 -0.80958,0.43652 -1.19239,0.43652 -0.75781,0 -1.38867,-0.44727 -1.89257,-1.3418 -0.42579,-0.7539 -0.63868,-1.6621 -0.63868,-2.72461 z m 1.14844,0.14649 c 0,1.09375 0.13477,1.98633 0.4043,2.67773 0.22265,0.58203 0.55468,0.87305 0.99609,0.87305 0.21094,0 0.42969,-0.0947 0.65625,-0.28418 0.22656,-0.18945 0.39844,-0.50684 0.51563,-0.95215 0.17968,-0.67187 0.26952,-1.61914 0.26953,-2.8418 -1e-5,-0.90624 -0.0938,-1.6621 -0.28125,-2.26758 -0.14063,-0.44921 -0.32227,-0.76757 -0.54492,-0.95507 -0.16016,-0.1289 -0.35352,-0.19335 -0.58008,-0.19336 -0.26563,1e-5 -0.50196,0.11915 -0.70899,0.35742 -0.28125,0.32423 -0.47265,0.83399 -0.57421,1.5293 -0.10157,0.69531 -0.15235,1.38086 -0.15235,2.05664 z"
       style="font-size:12px;font-variant:normal;font-stretch:normal;text-align:center;text-anchor:middle;font-family:Serif;-inkscape-font-specification:Serif"
       id="path3408" />
  </g>
</svg>
