<?xml version="1.0" encoding="UTF-8" standalone="no"?>
<svg
   xmlns:dc="http://purl.org/dc/elements/1.1/"
   xmlns:cc="http://creativecommons.org/ns#"
   xmlns:rdf="http://www.w3.org/1999/02/22-rdf-syntax-ns#"
   xmlns:svg="http://www.w3.org/2000/svg"
   xmlns="http://www.w3.org/2000/svg"
   xmlns:sodipodi="http://sodipodi.sourceforge.net/DTD/sodipodi-0.dtd"
   xmlns:inkscape="http://www.inkscape.org/namespaces/inkscape"
   version="1.0"
   width="250"
   height="200"
   id="svg3572"
   inkscape:version="0.48.4 r9939"
   sodipodi:docname="quadrupole.svg">
  <metadata
     id="metadata3710">
    <rdf:RDF>
      <cc:Work
         rdf:about="">
        <dc:format>image/svg+xml</dc:format>
        <dc:type
           rdf:resource="http://purl.org/dc/dcmitype/StillImage" />
        <dc:title></dc:title>
      </cc:Work>
    </rdf:RDF>
  </metadata>
  <sodipodi:namedview
     pagecolor="#ffffff"
     bordercolor="#666666"
     borderopacity="1"
     objecttolerance="10"
     gridtolerance="10"
     guidetolerance="10"
     inkscape:pageopacity="0"
     inkscape:pageshadow="2"
     inkscape:window-width="1280"
     inkscape:window-height="738"
     id="namedview3708"
     showgrid="false"
     inkscape:zoom="2"
     inkscape:cx="178.77757"
     inkscape:cy="84.865385"
     inkscape:window-x="-8"
     inkscape:window-y="-8"
     inkscape:window-maximized="1"
     inkscape:current-layer="svg3572" />
  <defs
     id="defs3574" />
  <g
     id="g3576"
     transform="matrix(0.5,0,0,0.5,35.602198,0.4692487)">
    <path
       style="fill:#bfbfbf;fill-opacity:1;fill-rule:evenodd;stroke:none"
       d="m 134.29283,239.8535 13.27831,-32.85818 c 7.33308,-18.15453 17.69503,-31.08587 23.13389,-28.8822 5.44823,2.1943 3.91972,18.69841 -3.41335,36.84356 l -13.27831,32.86756 z"
       id="path3578"
       inkscape:connector-curvature="0" />
    <path
       style="fill:none;stroke:#000000;stroke-width:0.30945209px;stroke-linecap:butt;stroke-linejoin:round;stroke-opacity:1;stroke-dasharray:none"
       d="m 134.29283,239.8535 13.27831,-32.85818 c 7.33308,-18.15453 17.69503,-31.08587 23.13389,-28.8822 5.44823,2.1943 3.91972,18.69841 -3.41335,36.84356 l -13.27831,32.86756 z"
       id="path3580"
       inkscape:connector-curvature="0" />
    <path
       style="fill:#fac090;fill-opacity:1;fill-rule:evenodd;stroke:none"
       d="m 123.04003,258.25184 c -1.81921,-0.74081 -2.6913,-2.80383 -1.95987,-4.62303 l 5.30758,-13.13765 c 0.74081,-1.8192 2.80382,-2.69129 4.61365,-1.95986 l 26.29405,10.62452 c 1.8192,0.73143 2.69129,2.79445 1.95986,4.61365 l -5.30757,13.13765 c -0.74081,1.8192 -2.80383,2.70067 -4.61365,1.95986 z"
       id="path3582"
       inkscape:connector-curvature="0" />
    <path
       style="fill:none;stroke:#000000;stroke-width:0.30945209px;stroke-linecap:butt;stroke-linejoin:round;stroke-opacity:1;stroke-dasharray:none"
       d="m 123.04003,258.25184 c -1.81921,-0.74081 -2.6913,-2.80383 -1.95987,-4.62303 l 5.30758,-13.13765 c 0.74081,-1.8192 2.80382,-2.69129 4.61365,-1.95986 l 26.29405,10.62452 c 1.8192,0.73143 2.69129,2.79445 1.95986,4.61365 l -5.30757,13.13765 c -0.74081,1.8192 -2.80383,2.70067 -4.61365,1.95986 z"
       id="path3584"
       inkscape:connector-curvature="0" />
    <path
       style="fill:#bfbfbf;fill-opacity:1;fill-rule:evenodd;stroke:none"
       d="M 263.49377,185.01484 230.6262,171.73653 c -18.14514,-7.33307 -34.64925,-8.86158 -36.84355,-3.42272 -2.20367,5.44823 10.72767,15.81018 28.8822,23.14326 l 32.85818,13.27831 z"
       id="path3586"
       inkscape:connector-curvature="0" />
    <path
       style="fill:none;stroke:#000000;stroke-width:0.30945209px;stroke-linecap:butt;stroke-linejoin:round;stroke-opacity:1;stroke-dasharray:none"
       d="M 263.49377,185.01484 230.6262,171.73653 c -18.14514,-7.33307 -34.64925,-8.86158 -36.84355,-3.42272 -2.20367,5.44823 10.72767,15.81018 28.8822,23.14326 l 32.85818,13.27831 z"
       id="path3588"
       inkscape:connector-curvature="0" />
    <path
       style="fill:#fac090;fill-opacity:1;fill-rule:evenodd;stroke:none"
       d="m 284.53651,189.69413 c 0.73143,-1.8192 -0.14066,-3.88221 -1.95986,-4.61365 L 269.439,179.77291 c -1.8192,-0.74081 -3.88222,0.14066 -4.62303,1.95049 l -10.61514,26.29405 c -0.74081,1.8192 0.14066,3.88221 1.95986,4.61365 l 13.13765,5.31695 c 1.8192,0.73143 3.88222,-0.15004 4.61365,-1.95987 z"
       id="path3590"
       inkscape:connector-curvature="0" />
    <path
       style="fill:none;stroke:#000000;stroke-width:0.30945209px;stroke-linecap:butt;stroke-linejoin:round;stroke-opacity:1;stroke-dasharray:none"
       d="m 284.53651,189.69413 c 0.73143,-1.8192 -0.14066,-3.88221 -1.95986,-4.61365 L 269.439,179.77291 c -1.8192,-0.74081 -3.88222,0.14066 -4.62303,1.95049 l -10.61514,26.29405 c -0.74081,1.8192 0.14066,3.88221 1.95986,4.61365 l 13.13765,5.31695 c 1.8192,0.73143 3.88222,-0.15004 4.61365,-1.95987 z"
       id="path3592"
       inkscape:connector-curvature="0" />
    <path
       style="fill:#bfbfbf;fill-opacity:1;fill-rule:evenodd;stroke:none"
       d="m 99.16533,118.6233 32.86756,13.27831 c 18.15453,7.33308 31.08587,17.69503 28.8822,23.13389 -2.20368,5.44823 -18.69841,3.91972 -36.85293,-3.41335 L 91.203971,138.34384 z"
       id="path3594"
       inkscape:connector-curvature="0" />
    <path
       style="fill:none;stroke:#000000;stroke-width:0.30945209px;stroke-linecap:butt;stroke-linejoin:round;stroke-opacity:1;stroke-dasharray:none"
       d="m 99.16533,118.6233 32.86756,13.27831 c 18.15453,7.33308 31.08587,17.69503 28.8822,23.13389 -2.20368,5.44823 -18.69841,3.91972 -36.85293,-3.41335 L 91.203971,138.34384 z"
       id="path3596"
       inkscape:connector-curvature="0" />
    <path
       style="fill:#fac090;fill-opacity:1;fill-rule:evenodd;stroke:none"
       d="m 80.776373,107.3705 c 0.731433,-1.8192 2.803824,-2.6913 4.61365,-1.95986 l 13.147025,5.30757 c 1.819202,0.74081 2.691292,2.80382 1.959862,4.61365 l -10.624521,26.29405 c -0.731432,1.8192 -2.794446,2.69129 -4.613649,1.95986 L 72.111715,138.2782 c -1.809826,-0.73143 -2.691296,-2.80382 -1.959863,-4.61365 z"
       id="path3598"
       inkscape:connector-curvature="0" />
    <path
       style="fill:none;stroke:#000000;stroke-width:0.30945209px;stroke-linecap:butt;stroke-linejoin:round;stroke-opacity:1;stroke-dasharray:none"
       d="m 80.776373,107.3705 c 0.731433,-1.8192 2.803824,-2.6913 4.61365,-1.95986 l 13.147025,5.30757 c 1.819202,0.74081 2.691292,2.80382 1.959862,4.61365 l -10.624521,26.29405 c -0.731432,1.8192 -2.794446,2.69129 -4.613649,1.95986 L 72.111715,138.2782 c -1.809826,-0.73143 -2.691296,-2.80382 -1.959863,-4.61365 z"
       id="path3600"
       inkscape:connector-curvature="0" />
    <path
       style="fill:#bfbfbf;fill-opacity:1;fill-rule:evenodd;stroke:none"
       d="m 220.61121,82.97067 -13.27831,32.86756 c -7.33308,18.14515 -17.68565,31.0765 -23.13389,28.8822 -5.44823,-2.20368 -3.91035,-18.69841 3.42273,-36.85293 l 13.27831,-32.858188 z"
       id="path3602"
       inkscape:connector-curvature="0" />
    <path
       style="fill:none;stroke:#000000;stroke-width:0.30945209px;stroke-linecap:butt;stroke-linejoin:round;stroke-opacity:1;stroke-dasharray:none"
       d="m 220.61121,82.97067 -13.27831,32.86756 c -7.33308,18.14515 -17.68565,31.0765 -23.13389,28.8822 -5.44823,-2.20368 -3.91035,-18.69841 3.42273,-36.85293 l 13.27831,-32.858188 z"
       id="path3604"
       inkscape:connector-curvature="0" />
    <path
       style="fill:#fac090;fill-opacity:1;fill-rule:evenodd;stroke:none"
       d="m 231.86401,64.581714 c 1.81921,0.731432 2.70068,2.794446 1.95987,4.613649 l -5.30758,13.147026 c -0.73143,1.809825 -2.80382,2.691295 -4.61365,1.959863 L 197.6086,73.67773 c -1.80982,-0.731432 -2.69129,-2.803824 -1.95986,-4.613649 l 5.31695,-13.147026 c 0.73143,-1.819203 2.79445,-2.691295 4.61365,-1.959863 z"
       id="path3606"
       inkscape:connector-curvature="0" />
    <path
       style="fill:none;stroke:#000000;stroke-width:0.30945209px;stroke-linecap:butt;stroke-linejoin:round;stroke-opacity:1;stroke-dasharray:none"
       d="m 231.86401,64.581714 c 1.81921,0.731432 2.70068,2.794446 1.95987,4.613649 l -5.30758,13.147026 c -0.73143,1.809825 -2.80382,2.691295 -4.61365,1.959863 L 197.6086,73.67773 c -1.80982,-0.731432 -2.69129,-2.803824 -1.95986,-4.613649 l 5.31695,-13.147026 c 0.73143,-1.819203 2.79445,-2.691295 4.61365,-1.959863 z"
       id="path3608"
       inkscape:connector-curvature="0" />
    <path
       style="fill:#bfbfbf;fill-opacity:1;fill-rule:evenodd;stroke:none"
       d="m 91.466537,186.36518 32.623753,-13.85033 c 18.02324,-7.6519 34.48984,-9.47111 36.78729,-4.06038 2.29745,5.40134 -10.45573,15.98835 -28.46959,23.63088 l -32.633134,13.85033 z"
       id="path3610"
       inkscape:connector-curvature="0" />
    <path
       style="fill:none;stroke:#000000;stroke-width:0.30945209px;stroke-linecap:butt;stroke-linejoin:round;stroke-opacity:1;stroke-dasharray:none"
       d="m 91.466537,186.36518 32.623753,-13.85033 c 18.02324,-7.6519 34.48984,-9.47111 36.78729,-4.06038 2.29745,5.40134 -10.45573,15.98835 -28.46959,23.63088 l -32.633134,13.85033 z"
       id="path3612"
       inkscape:connector-curvature="0" />
    <path
       style="fill:#fac090;fill-opacity:1;fill-rule:evenodd;stroke:none"
       d="m 70.50819,191.41019 c -0.768941,-1.80045 0.07502,-3.88222 1.875468,-4.65116 l 13.053251,-5.54201 c 1.800449,-0.75956 3.882218,0.075 4.641782,1.88485 l 11.084009,26.09712 c 0.75957,1.80045 -0.075,3.88222 -1.875465,4.65116 l -13.053252,5.54201 c -1.800448,0.75956 -3.882217,-0.075 -4.651159,-1.88485 z"
       id="path3614"
       inkscape:connector-curvature="0" />
    <path
       style="fill:none;stroke:#000000;stroke-width:0.30945209px;stroke-linecap:butt;stroke-linejoin:round;stroke-opacity:1;stroke-dasharray:none"
       d="m 70.50819,191.41019 c -0.768941,-1.80045 0.07502,-3.88222 1.875468,-4.65116 l 13.053251,-5.54201 c 1.800449,-0.75956 3.882218,0.075 4.641782,1.88485 l 11.084009,26.09712 c 0.75957,1.80045 -0.075,3.88222 -1.875465,4.65116 l -13.053252,5.54201 c -1.800448,0.75956 -3.882217,-0.075 -4.651159,-1.88485 z"
       id="path3616"
       inkscape:connector-curvature="0" />
    <path
       style="fill:#bfbfbf;fill-opacity:1;fill-rule:evenodd;stroke:none"
       d="m 221.60521,238.9439 -13.85033,-32.63313 c -7.6519,-18.01386 -18.22954,-30.76704 -23.64026,-28.46959 -5.40135,2.29745 -3.58214,18.76405 4.06038,36.77791 l 13.85033,32.63313 z"
       id="path3618"
       inkscape:connector-curvature="0" />
    <path
       style="fill:none;stroke:#000000;stroke-width:0.30945209px;stroke-linecap:butt;stroke-linejoin:round;stroke-opacity:1;stroke-dasharray:none"
       d="m 221.60521,238.9439 -13.85033,-32.63313 c -7.6519,-18.01386 -18.22954,-30.76704 -23.64026,-28.46959 -5.40135,2.29745 -3.58214,18.76405 4.06038,36.77791 l 13.85033,32.63313 z"
       id="path3620"
       inkscape:connector-curvature="0" />
    <path
       style="fill:#fac090;fill-opacity:1;fill-rule:evenodd;stroke:none"
       d="m 233.17684,257.13593 c 1.80045,-0.76894 2.64441,-2.85071 1.87547,-4.65115 l -5.53263,-13.05326 c -0.76894,-1.80045 -2.85071,-2.64441 -4.65116,-1.87546 l -26.1065,11.08401 c -1.80045,0.75956 -2.64441,2.84133 -1.87547,4.64178 l 5.54201,13.05325 c 0.75956,1.80045 2.84133,2.64441 4.64178,1.87547 z"
       id="path3622"
       inkscape:connector-curvature="0" />
    <path
       style="fill:none;stroke:#000000;stroke-width:0.30945209px;stroke-linecap:butt;stroke-linejoin:round;stroke-opacity:1;stroke-dasharray:none"
       d="m 233.17684,257.13593 c 1.80045,-0.76894 2.64441,-2.85071 1.87547,-4.65115 l -5.53263,-13.05326 c -0.76894,-1.80045 -2.85071,-2.64441 -4.65116,-1.87546 l -26.1065,11.08401 c -1.80045,0.75956 -2.64441,2.84133 -1.87547,4.64178 l 5.54201,13.05325 c 0.75956,1.80045 2.84133,2.64441 4.64178,1.87547 z"
       id="path3624"
       inkscape:connector-curvature="0" />
    <path
       style="fill:#bfbfbf;fill-opacity:1;fill-rule:evenodd;stroke:none"
       d="m 152.35358,75.797008 13.85033,32.633132 c 7.6519,18.01386 9.47111,34.48984 4.06038,36.77791 -5.40134,2.29745 -15.98836,-10.44635 -23.64026,-28.46959 L 132.78308,84.105328 z"
       id="path3626"
       inkscape:connector-curvature="0" />
    <path
       style="fill:none;stroke:#000000;stroke-width:0.30945209px;stroke-linecap:butt;stroke-linejoin:round;stroke-opacity:1;stroke-dasharray:none"
       d="m 152.35358,75.797008 13.85033,32.633132 c 7.6519,18.01386 9.47111,34.48984 4.06038,36.77791 -5.40134,2.29745 -15.98836,-10.44635 -23.64026,-28.46959 L 132.78308,84.105328 z"
       id="path3628"
       inkscape:connector-curvature="0" />
    <path
       style="fill:#fac090;fill-opacity:1;fill-rule:evenodd;stroke:none"
       d="m 147.30857,54.838662 c 1.80045,-0.768942 3.88222,0.07502 4.65116,1.875467 l 5.53263,13.053252 c 0.76894,1.800448 -0.075,3.882217 -1.87547,4.651159 l -26.09712,11.074633 c -1.80983,0.768942 -3.8916,-0.07502 -4.65116,-1.875467 L 119.3266,70.564454 c -0.75956,-1.800448 0.075,-3.882217 1.87547,-4.641781 z"
       id="path3630"
       inkscape:connector-curvature="0" />
    <path
       style="fill:none;stroke:#000000;stroke-width:0.30945209px;stroke-linecap:butt;stroke-linejoin:round;stroke-opacity:1;stroke-dasharray:none"
       d="m 147.30857,54.838662 c 1.80045,-0.768942 3.88222,0.07502 4.65116,1.875467 l 5.53263,13.053252 c 0.76894,1.800448 -0.075,3.882217 -1.87547,4.651159 l -26.09712,11.074633 c -1.80983,0.768942 -3.8916,-0.07502 -4.65116,-1.875467 L 119.3266,70.564454 c -0.75956,-1.800448 0.075,-3.882217 1.87547,-4.641781 z"
       id="path3632"
       inkscape:connector-curvature="0" />
    <path
       style="fill:#bfbfbf;fill-opacity:1;fill-rule:evenodd;stroke:none"
       d="m 263.4375,136.46837 -32.62375,13.85033 c -18.02324,7.64253 -34.48984,9.46173 -36.78729,4.06038 -2.28807,-5.41072 10.45573,-15.98835 28.47897,-23.64026 l 32.62375,-13.85033 z"
       id="path3634"
       inkscape:connector-curvature="0" />
    <path
       style="fill:none;stroke:#000000;stroke-width:0.30945209px;stroke-linecap:butt;stroke-linejoin:round;stroke-opacity:1;stroke-dasharray:none"
       d="m 263.4375,136.46837 -32.62375,13.85033 c -18.02324,7.64253 -34.48984,9.46173 -36.78729,4.06038 -2.28807,-5.41072 10.45573,-15.98835 28.47897,-23.64026 l 32.62375,-13.85033 z"
       id="path3636"
       inkscape:connector-curvature="0" />
    <path
       style="fill:#fac090;fill-opacity:1;fill-rule:evenodd;stroke:none"
       d="m 284.40523,131.42337 c 0.75956,1.80044 -0.075,3.88221 -1.88485,4.64178 l -13.04387,5.542 c -1.80045,0.76894 -3.88222,-0.075 -4.65116,-1.87546 l -11.08401,-26.10651 c -0.75957,-1.80045 0.0844,-3.88222 1.88484,-4.64178 l 13.05325,-5.54201 c 1.80045,-0.76894 3.88222,0.075 4.64179,1.87547 z"
       id="path3638"
       inkscape:connector-curvature="0" />
    <path
       style="fill:none;stroke:#000000;stroke-width:0.30945209px;stroke-linecap:butt;stroke-linejoin:round;stroke-opacity:1;stroke-dasharray:none"
       d="m 284.40523,131.42337 c 0.75956,1.80044 -0.075,3.88221 -1.88485,4.64178 l -13.04387,5.542 c -1.80045,0.76894 -3.88222,-0.075 -4.65116,-1.87546 l -11.08401,-26.10651 c -0.75957,-1.80045 0.0844,-3.88222 1.88484,-4.64178 l 13.05325,-5.54201 c 1.80045,-0.76894 3.88222,0.075 4.64179,1.87547 z"
       id="path3640"
       inkscape:connector-curvature="0" />
    <path
       style="fill:none;stroke:#000000;stroke-width:0.62828153px;stroke-linecap:butt;stroke-linejoin:round;stroke-opacity:1;stroke-dasharray:none"
       d="m 170.36744,161.70278 c 0,-3.91972 3.16954,-7.08926 7.08927,-7.08926 3.91035,0 7.08927,3.16954 7.08927,7.08926 0,3.91035 -3.17892,7.08927 -7.08927,7.08927 -3.91973,0 -7.08927,-3.17892 -7.08927,-7.08927"
       id="path3642"
       inkscape:connector-curvature="0" />
    <path
       style="fill:#000000;fill-opacity:1;fill-rule:evenodd;stroke:none"
       d="m 175.20615,161.70278 c 0,-1.24718 1.00337,-2.25056 2.25056,-2.25056 1.23781,0 2.25056,1.00338 2.25056,2.25056 0,1.23781 -1.01275,2.25056 -2.25056,2.25056 -1.24719,0 -2.25056,-1.01275 -2.25056,-2.25056"
       id="path3644"
       inkscape:connector-curvature="0" />
    <path
       style="fill:none;stroke:#000000;stroke-width:0.62828153px;stroke-linecap:butt;stroke-linejoin:round;stroke-opacity:1;stroke-dasharray:none"
       d="m 175.20615,161.70278 c 0,-1.24718 1.00337,-2.25056 2.25056,-2.25056 1.23781,0 2.25056,1.00338 2.25056,2.25056 0,1.23781 -1.01275,2.25056 -2.25056,2.25056 -1.24719,0 -2.25056,-1.01275 -2.25056,-2.25056"
       id="path3646"
       inkscape:connector-curvature="0" />
    <text
       xml:space="preserve"
       x="316.85059"
       y="150.53848"
       style="font-size:13.20328903px;font-style:normal;font-weight:normal;text-align:start;text-anchor:start;fill:#000000;font-family:Calibri"
       id="text3648">PS V+</text>
    <text
       xml:space="preserve"
       x="316.85071"
       y="182.40155"
       style="font-size:13.20328903px;font-style:normal;font-weight:normal;text-align:start;text-anchor:start;fill:#000000;font-family:Calibri"
       id="text3650">PS V</text>
    <text
       xml:space="preserve"
       x="340.10648"
       y="182.40155"
       style="font-size:13.20328903px;font-style:normal;font-weight:normal;text-align:start;text-anchor:start;fill:#000000;font-family:Calibri"
       id="text3652">-</text>
    <path
       style="fill:#4a7ebb;fill-opacity:1;fill-rule:nonzero;stroke:#4a7ebb;stroke-width:0.00937734px;stroke-linecap:butt;stroke-linejoin:round;stroke-opacity:1;stroke-dasharray:none"
       d="m 258.73946,125.38436 -62.69687,26.61288 1.09715,2.58815 62.69687,-26.61288 z m -57.42681,19.23292 -7.28619,9.7618 12.07801,1.53789 c 0.77832,0.10315 1.48162,-0.44074 1.57539,-1.21906 0.10315,-0.76894 -0.45011,-1.47224 -1.21905,-1.56601 l -9.68679,-1.23781 0.94711,2.24118 5.84208,-7.83007 c 0.46887,-0.62828 0.33759,-1.50975 -0.28132,-1.96924 -0.62828,-0.46887 -1.50975,-0.33759 -1.96924,0.28132 z"
       id="path3654"
       inkscape:connector-curvature="0" />
    <path
       style="fill:#ff0000;fill-opacity:1;fill-rule:nonzero;stroke:#ff0000;stroke-width:0.00937734px;stroke-linecap:butt;stroke-linejoin:round;stroke-opacity:1;stroke-dasharray:none"
       d="m 274.69968,139.38472 -12.75317,-30.06374 2.58814,-1.09714 12.76256,30.06374 z m -14.09413,-21.099 1.53788,-12.07801 9.76181,7.28619 c 0.62828,0.45949 0.75019,1.34096 0.2907,1.96924 -0.46887,0.6189 -1.35034,0.75019 -1.96924,0.28132 l -7.83008,-5.84208 2.23181,-0.94711 -1.22844,9.68679 c -0.10315,0.76894 -0.80645,1.31282 -1.57539,1.21905 -0.76894,-0.10315 -1.31282,-0.80645 -1.21905,-1.57539 z"
       id="path3656"
       inkscape:connector-curvature="0" />
    <path
       style="fill:#4a7ebb;fill-opacity:1;fill-rule:nonzero;stroke:#4a7ebb;stroke-width:0.00937734px;stroke-linecap:butt;stroke-linejoin:round;stroke-opacity:1;stroke-dasharray:none"
       d="m 186.54335,142.66679 25.51573,-63.156357 -2.6069,-1.050262 -25.51573,63.146979 z m -4.0979,-9.99624 1.75356,12.04988 9.63053,-7.45498 c 0.6189,-0.47825 0.73143,-1.35972 0.25319,-1.96924 -0.47825,-0.61891 -1.35972,-0.73144 -1.97862,-0.25319 l -7.72693,5.98274 2.25994,0.9096 -1.4066,-9.66803 c -0.11253,-0.76895 -0.82521,-1.30345 -1.59415,-1.19093 -0.76894,0.11253 -1.30345,0.82521 -1.19092,1.59415 z"
       id="path3658"
       inkscape:connector-curvature="0" />
    <path
       style="fill:#ff0000;fill-opacity:1;fill-rule:nonzero;stroke:#ff0000;stroke-width:0.00937734px;stroke-linecap:butt;stroke-linejoin:round;stroke-opacity:1;stroke-dasharray:none"
       d="m 201.4158,62.228003 30.27942,12.237423 -1.05026,2.6069 -30.27942,-12.237424 z m 4.34171,9.893089 -7.45498,-9.630524 12.04987,-1.753562 c 0.76895,-0.112528 1.491,0.42198 1.59415,1.190922 0.11253,0.768941 -0.42198,1.481619 -1.18154,1.594147 l -9.67741,1.4066 0.9096,-2.259938 5.98274,7.726925 c 0.47824,0.618905 0.36571,1.500374 -0.25319,1.978618 -0.60953,0.468867 -1.491,0.356339 -1.96924,-0.253188 z"
       id="path3660"
       inkscape:connector-curvature="0" />
    <path
       style="fill:#4a7ebb;fill-opacity:1;fill-rule:nonzero;stroke:#4a7ebb;stroke-width:0.00937734px;stroke-linecap:butt;stroke-linejoin:round;stroke-opacity:1;stroke-dasharray:none"
       d="m 144.94548,81.967295 26.61288,62.696865 -2.58814,1.09715 -26.61288,-62.696867 z m -3.91972,10.061882 1.53788,-12.078009 9.76181,7.28619 c 0.6189,0.459489 0.75018,1.340959 0.2907,1.969241 -0.46887,0.618904 -1.35034,0.750186 -1.96925,0.28132 l -7.83007,-5.842081 2.23181,-0.947111 -1.22844,9.686789 c -0.10315,0.778318 -0.80645,1.322204 -1.57539,1.219053 -0.76894,-0.09377 -1.31283,-0.797073 -1.21905,-1.575392 z"
       id="path3662"
       inkscape:connector-curvature="0" />
    <path
       style="fill:#ff0000;fill-opacity:1;fill-rule:nonzero;stroke:#ff0000;stroke-width:0.00937734px;stroke-linecap:butt;stroke-linejoin:round;stroke-opacity:1;stroke-dasharray:none"
       d="m 151.61277,63.034453 -30.06374,12.762555 1.09715,2.588145 30.06374,-12.762555 z m -4.17291,9.968109 7.29556,-9.761807 -12.08738,-1.537883 0,0 c -0.76894,-0.103151 -1.47224,0.440735 -1.5754,1.219053 -0.0938,0.768942 0.45012,1.472242 1.21906,1.566016 l 9.69616,1.237808 -0.95648,-2.241183 -5.84208,7.830075 c -0.45949,0.628282 -0.33759,1.509751 0.29069,1.969241 0.61891,0.468867 1.50038,0.337584 1.95987,-0.28132 z"
       id="path3664"
       inkscape:connector-curvature="0" />
    <path
       style="fill:#4a7ebb;fill-opacity:1;fill-rule:nonzero;stroke:#4a7ebb;stroke-width:0.00937734px;stroke-linecap:butt;stroke-linejoin:round;stroke-opacity:1;stroke-dasharray:none"
       d="m 160.38996,156.33895 -63.146984,-25.50636 1.050261,-2.6069 63.146983,25.50636 z m -57.75502,-18.22954 -7.454978,-9.63053 12.049878,-1.74418 c 0.76894,-0.11253 1.491,0.4126 1.59415,1.18154 0.11252,0.76894 -0.41261,1.491 -1.18155,1.59415 l -9.677409,1.4066 0.918978,-2.25056 5.973361,7.72692 c 0.47825,0.60953 0.36572,1.491 -0.24381,1.96924 -0.6189,0.47825 -1.50037,0.36572 -1.97862,-0.25318 z"
       id="path3666"
       inkscape:connector-curvature="0" />
    <path
       style="fill:#ff0000;fill-opacity:1;fill-rule:nonzero;stroke:#ff0000;stroke-width:0.00937734px;stroke-linecap:butt;stroke-linejoin:round;stroke-opacity:1;stroke-dasharray:none"
       d="m 79.988677,141.45712 12.237424,-30.27942 -2.6069,-1.05964 -12.237423,30.28879 z m 13.72842,-21.34282 -1.753562,-12.04988 -9.630524,7.45498 c -0.609527,0.46887 -0.722055,1.35972 -0.253188,1.96924 0.478244,0.61891 1.359714,0.73144 1.978618,0.25319 l 7.726925,-5.98274 -2.259938,-0.9096 1.4066,9.66803 c 0.112528,0.76895 0.825206,1.30345 1.594148,1.19093 0.768941,-0.11253 1.303449,-0.82521 1.190921,-1.59415 z"
       id="path3668"
       inkscape:connector-curvature="0" />
    <path
       style="fill:#4a7ebb;fill-opacity:1;fill-rule:nonzero;stroke:#4a7ebb;stroke-width:0.00937734px;stroke-linecap:butt;stroke-linejoin:round;stroke-opacity:1;stroke-dasharray:none"
       d="m 96.173959,197.44919 62.687491,-26.61288 -1.09715,-2.59752 -62.696866,26.61288 z m 57.417431,-19.24229 7.29557,-9.76181 -12.08739,-1.53788 c -0.76894,-0.0938 -1.47224,0.45011 -1.57539,1.21905 -0.0938,0.76894 0.45011,1.47224 1.21905,1.57539 l 9.69617,1.22843 -0.95649,-2.2318 -5.84208,7.83007 c -0.45949,0.61891 -0.33759,1.50038 0.2907,1.96924 0.6189,0.45949 1.50037,0.33759 1.95986,-0.29069 z"
       id="path3670"
       inkscape:connector-curvature="0" />
    <path
       style="fill:#ff0000;fill-opacity:1;fill-rule:nonzero;stroke:#ff0000;stroke-width:0.00937734px;stroke-linecap:butt;stroke-linejoin:round;stroke-opacity:1;stroke-dasharray:none"
       d="m 80.204356,183.43945 12.762554,30.06374 -2.588144,1.09715 -12.762555,-30.06374 z m 14.094136,21.09901 -1.537883,12.08738 -9.761807,-7.28619 c -0.618904,-0.46887 -0.750187,-1.35033 -0.28132,-1.96924 0.459489,-0.62828 1.340959,-0.75019 1.959863,-0.2907 l 7.830076,5.85146 -2.231806,0.94711 1.228431,-9.69616 c 0.103151,-0.76894 0.806451,-1.31283 1.575392,-1.21906 0.768942,0.10315 1.322205,0.80645 1.219054,1.5754 z"
       id="path3672"
       inkscape:connector-curvature="0" />
    <path
       style="fill:#4a7ebb;fill-opacity:1;fill-rule:nonzero;stroke:#4a7ebb;stroke-width:0.00937734px;stroke-linecap:butt;stroke-linejoin:round;stroke-opacity:1;stroke-dasharray:none"
       d="m 168.36069,180.16676 -25.51573,63.14698 2.6069,1.05026 25.51573,-63.14698 z m 4.0979,9.99624 -1.74419,-12.05925 -9.6399,7.45498 c -0.60952,0.47824 -0.72205,1.35971 -0.24381,1.97862 0.46887,0.60952 1.35034,0.72205 1.96924,0.24381 l 7.72693,-5.97337 -2.25056,-0.9096 1.39722,9.66803 c 0.11253,0.76895 0.82521,1.30345 1.59415,1.19093 0.76894,-0.11253 1.30345,-0.82521 1.19092,-1.59415 z"
       id="path3674"
       inkscape:connector-curvature="0" />
    <path
       style="fill:#ff0000;fill-opacity:1;fill-rule:nonzero;stroke:#ff0000;stroke-width:0.00937734px;stroke-linecap:butt;stroke-linejoin:round;stroke-opacity:1;stroke-dasharray:none"
       d="m 153.48824,260.59617 -30.27942,-12.22805 1.05026,-2.61627 30.2888,12.23742 z m -4.34171,-9.88371 7.46436,9.63052 -12.05925,1.74419 c -0.76895,0.11253 -1.48162,-0.42198 -1.59415,-1.19092 -0.11253,-0.76895 0.42198,-1.48162 1.19092,-1.59415 l 9.66803,-1.39722 -0.9096,2.25056 -5.98274,-7.72693 c -0.47824,-0.60953 -0.36571,-1.50037 0.25319,-1.96924 0.60953,-0.47824 1.50037,-0.36572 1.96924,0.25319 z"
       id="path3676"
       inkscape:connector-curvature="0" />
    <path
       style="fill:#4a7ebb;fill-opacity:1;fill-rule:nonzero;stroke:#4a7ebb;stroke-width:0.00937734px;stroke-linecap:butt;stroke-linejoin:round;stroke-opacity:1;stroke-dasharray:none"
       d="m 194.30778,167.01036 63.14698,25.51573 -1.05964,2.6069 -63.14698,-25.51573 z m 57.74564,18.22954 7.46436,9.6399 -12.05926,1.74418 c -0.76894,0.11253 -1.48162,-0.42198 -1.59414,-1.19092 -0.11253,-0.76894 0.42198,-1.48162 1.19092,-1.59414 l 9.66803,-1.39723 -0.9096,2.25056 -5.98274,-7.72692 c -0.46887,-0.61891 -0.35634,-1.50038 0.25319,-1.96924 0.6189,-0.47825 1.50037,-0.36572 1.96924,0.24381 z"
       id="path3678"
       inkscape:connector-curvature="0" />
    <path
       style="fill:#ff0000;fill-opacity:1;fill-rule:nonzero;stroke:#ff0000;stroke-width:0.00937734px;stroke-linecap:butt;stroke-linejoin:round;stroke-opacity:1;stroke-dasharray:none"
       d="m 202.76614,260.01478 30.06374,-12.76256 -1.09715,-2.58814 -30.06374,12.76255 z m 4.17291,-9.96811 -7.28619,9.7618 12.07801,1.53789 c 0.77832,0.10315 1.48162,-0.44074 1.57539,-1.20968 0.10316,-0.77832 -0.44073,-1.48162 -1.21905,-1.57539 l 0,0 -9.68679,-1.23781 0.94711,2.24118 5.84208,-7.83007 c 0.46887,-0.62828 0.33759,-1.50975 -0.28132,-1.96924 -0.62828,-0.46887 -1.50037,-0.33759 -1.96924,0.28132 z"
       id="path3680"
       inkscape:connector-curvature="0" />
    <path
       style="fill:#4a7ebb;fill-opacity:1;fill-rule:nonzero;stroke:#4a7ebb;stroke-width:0.00937734px;stroke-linecap:butt;stroke-linejoin:round;stroke-opacity:1;stroke-dasharray:none"
       d="m 209.43343,241.08193 -26.61288,-62.69686 2.58814,-1.09715 26.61288,62.69687 z m 3.91972,-10.06188 -1.53788,12.07801 -9.76181,-7.28619 c -0.6189,-0.45949 -0.75019,-1.34096 -0.28132,-1.96924 0.45949,-0.6189 1.34096,-0.75019 1.96924,-0.28132 l 7.83008,5.84208 -2.24119,0.94711 1.23781,-9.68679 c 0.0938,-0.76894 0.79708,-1.3222 1.5754,-1.21905 0.76894,0.0938 1.31282,0.80645 1.20967,1.57539 z"
       id="path3682"
       inkscape:connector-curvature="0" />
    <path
       style="fill:#ff0000;fill-opacity:1;fill-rule:nonzero;stroke:#ff0000;stroke-width:0.00937734px;stroke-linecap:butt;stroke-linejoin:round;stroke-opacity:1;stroke-dasharray:none"
       d="m 274.69968,181.90157 -12.22804,30.27941 2.6069,1.05027 12.23742,-30.27942 z m -13.71904,21.34281 1.74419,12.04988 9.63052,-7.45498 c 0.6189,-0.47825 0.73143,-1.35972 0.25319,-1.97862 -0.46887,-0.60953 -1.35972,-0.72205 -1.96924,-0.24381 l -7.72693,5.97336 2.25056,0.91898 -1.39722,-9.67741 c -0.11253,-0.76894 -0.8252,-1.29407 -1.59415,-1.18154 -0.76894,0.10315 -1.30345,0.8252 -1.19092,1.59414 z"
       id="path3684"
       inkscape:connector-curvature="0" />
    <text
       xml:space="preserve"
       x="186.52631"
       y="168.3251"
       style="font-size:13.20328903px;font-style:italic;font-weight:normal;text-align:start;text-anchor:start;fill:#000000;font-family:Calibri"
       id="text3686">e</text>
    <text
       xml:space="preserve"
       x="192.82787"
       y="164.42413"
       style="font-size:8.70216751px;font-style:italic;font-weight:normal;text-align:start;text-anchor:start;fill:#000000;font-family:Calibri"
       id="text3688">-</text>
    <path
       style="fill:none;stroke:#4a7ebb;stroke-width:0.93773359px;stroke-linecap:butt;stroke-linejoin:round;stroke-opacity:1;stroke-dasharray:none"
       d="m 307.78293,146.17392 c -15.88521,0 -31.77042,-3.67592 -31.77042,-7.33308"
       id="path3690"
       inkscape:connector-curvature="0" />
    <path
       style="fill:none;stroke:#4a7ebb;stroke-width:0.93773359px;stroke-linecap:butt;stroke-linejoin:round;stroke-opacity:1;stroke-dasharray:none"
       d="m 262.7342,215.28488 c 0,11.25281 10.015,22.50561 20.04875,22.50561 10.01499,0 20.02999,-14.92872 20.02999,-29.87619 0,-14.94748 2.49437,-29.8762 4.96999,-29.8762"
       id="path3692"
       inkscape:connector-curvature="0" />
    <path
       style="fill:none;stroke:#4a7ebb;stroke-width:0.93773359px;stroke-linecap:butt;stroke-linejoin:round;stroke-opacity:1;stroke-dasharray:none"
       d="m 262.15281,106.20771 c 0,-15.219418 -15.49136,-30.438834 -30.98272,-30.438834"
       id="path3694"
       inkscape:connector-curvature="0" />
    <path
       style="fill:none;stroke:#4a7ebb;stroke-width:0.93773359px;stroke-linecap:butt;stroke-linejoin:round;stroke-opacity:1;stroke-dasharray:none"
       d="m 198.30253,62.490568 c -13.75655,0 -27.52248,-5.13878 -27.52248,-10.268183 0,-5.13878 -17.79819,-10.27756 -35.59637,-10.27756 -17.79819,0 -35.586993,8.786563 -35.586993,17.573127 0,8.786564 11.252803,17.573128 22.505603,17.573128"
       id="path3696"
       inkscape:connector-curvature="0" />
    <path
       style="fill:none;stroke:#4a7ebb;stroke-width:0.93773359px;stroke-linecap:butt;stroke-linejoin:round;stroke-opacity:1;stroke-dasharray:none"
       d="m 154.72605,63.240755 c -51.10649,0 -102.212968,20.161273 -102.212968,40.331925 0,20.16127 6.545381,40.32254 13.090762,40.32254 6.536003,0 13.081383,-1.48162 13.081383,-2.96324"
       id="path3698"
       inkscape:connector-curvature="0" />
    <path
       style="fill:none;stroke:#4a7ebb;stroke-width:0.93773359px;stroke-linecap:butt;stroke-linejoin:round;stroke-opacity:1;stroke-dasharray:none"
       d="m 91.963535,108.06442 c 0,-6.039 -6.798568,-12.087385 -13.58776,-12.087385 -6.798568,0 -13.58776,21.764795 -13.58776,43.529595 0,21.7648 3.525879,43.52959 7.061134,43.52959 3.525879,0 7.061135,0.47825 7.061135,0.95649"
       id="path3700"
       inkscape:connector-curvature="0" />
    <path
       style="fill:none;stroke:#4a7ebb;stroke-width:0.93773359px;stroke-linecap:butt;stroke-linejoin:round;stroke-opacity:1;stroke-dasharray:none"
       d="m 92.760609,216.61646 c 0,15.21942 15.481981,30.44822 30.973341,30.44822"
       id="path3702"
       inkscape:connector-curvature="0" />
    <path
       style="fill:none;stroke:#4a7ebb;stroke-width:0.93773359px;stroke-linecap:butt;stroke-linejoin:round;stroke-opacity:1;stroke-dasharray:none"
       d="m 156.60151,260.34298 c 13.63465,0 27.2693,4.06977 27.2693,8.14891 0,4.06976 17.72316,8.1489 35.4557,8.1489 17.73255,0 35.46509,-7.67066 35.46509,-15.34132 0,-7.67066 -11.2528,-15.34132 -22.50561,-15.34132"
       id="path3704"
       inkscape:connector-curvature="0" />
    <path
       style="fill:none;stroke:#4a7ebb;stroke-width:0.93773359px;stroke-linecap:butt;stroke-linejoin:round;stroke-opacity:1;stroke-dasharray:none"
       d="m 199.65286,259.80847 c 45.52697,0 91.05394,-20.64889 91.05394,-41.28841 0,-20.64889 -3.67592,-41.28841 -7.35183,-41.28841 -3.67592,0 -7.35184,2.59752 -7.35184,5.19505"
       id="path3706"
       inkscape:connector-curvature="0" />
  </g>
  <g
     style="font-size:40px;font-style:normal;font-weight:normal;line-height:125%;letter-spacing:0px;word-spacing:0px;fill:#000000;fill-opacity:1;stroke:none;font-family:Sans"
     id="text3339">
    <path
       d="m 101.11719,171.90033 c 0.52733,0.36328 1.01366,0.62891 1.45898,0.79687 l -0.33398,0.79102 c -0.6172,-0.22266 -1.23243,-0.57422 -1.84571,-1.05469 -0.63672,0.35547 -1.339845,0.53321 -2.109371,0.53321 -0.777347,0 -1.482425,-0.1875 -2.115234,-0.5625 -0.632814,-0.375 -1.120119,-0.90235 -1.461914,-1.58204 -0.341798,-0.67968 -0.512696,-1.4453 -0.512695,-2.29687 -10e-7,-0.84765 0.171874,-1.61914 0.515625,-2.31445 0.343748,-0.69531 0.833006,-1.22461 1.467773,-1.58789 0.634763,-0.36328 1.344723,-0.54492 2.129883,-0.54493 0.792963,1e-5 1.507806,0.18849 2.144533,0.56543 0.63671,0.37696 1.12206,0.90431 1.45605,1.58203 0.33398,0.67775 0.50097,1.44239 0.50098,2.29395 -1e-5,0.70704 -0.10743,1.34278 -0.32227,1.90723 -0.21485,0.56445 -0.53907,1.05566 -0.97265,1.47363 z m -2.501956,-1.45313 c 0.656245,0.1836 1.19726,0.45704 1.623046,0.82032 0.66796,-0.60938 1.00195,-1.52539 1.00195,-2.74805 0,-0.69531 -0.11817,-1.30273 -0.35449,-1.82227 -0.23633,-0.51952 -0.58204,-0.92284 -1.037107,-1.20996 -0.455084,-0.2871 -0.965826,-0.43065 -1.532227,-0.43066 -0.84766,1e-5 -1.550784,0.29005 -2.109375,0.87012 -0.558595,0.58008 -0.837892,1.44629 -0.83789,2.59863 -2e-6,1.11719 0.276365,1.97461 0.829101,2.57227 0.552731,0.59765 1.258785,0.89648 2.118164,0.89648 0.406245,0 0.789057,-0.0762 1.148438,-0.22852 -0.355474,-0.23046 -0.730474,-0.39453 -1.125,-0.49218 z"
       style="font-size:12px;text-align:center;text-anchor:middle"
       id="path4189" />
    <path
       d="m 107.87891,172.82025 0,-0.91406 c -0.48438,0.70312 -1.14259,1.05469 -1.97461,1.05469 -0.36719,0 -0.70997,-0.0703 -1.02832,-0.21094 -0.31836,-0.14063 -0.55469,-0.31738 -0.70899,-0.53027 -0.1543,-0.21289 -0.26269,-0.47364 -0.32519,-0.78223 -0.043,-0.20703 -0.0645,-0.53516 -0.0645,-0.98438 l 0,-3.85546 1.05469,0 0,3.45117 c 0,0.55078 0.0215,0.92187 0.0644,1.11328 0.0664,0.27734 0.20703,0.49512 0.42188,0.65332 0.21484,0.1582 0.48047,0.2373 0.79687,0.2373 0.31641,0 0.61328,-0.0811 0.89063,-0.24316 0.27734,-0.16211 0.47363,-0.38281 0.58887,-0.66211 0.11523,-0.2793 0.17284,-0.68457 0.17285,-1.21582 l 0,-3.33398 1.05469,0 0,6.22265 z"
       style="font-size:12px;text-align:center;text-anchor:middle"
       id="path4191" />
    <path
       d="m 114.54102,172.05267 c -0.39063,0.33204 -0.76661,0.56641 -1.12793,0.70313 -0.36134,0.13672 -0.74903,0.20508 -1.16309,0.20508 -0.6836,0 -1.20899,-0.167 -1.57617,-0.50098 -0.36719,-0.33398 -0.55078,-0.76074 -0.55078,-1.28027 0,-0.30469 0.0693,-0.58301 0.208,-0.83496 0.13868,-0.25195 0.32032,-0.4541 0.54493,-0.60645 0.2246,-0.15234 0.47753,-0.26757 0.75879,-0.3457 0.20702,-0.0547 0.51952,-0.10742 0.9375,-0.15821 0.85155,-0.10155 1.47851,-0.22265 1.88086,-0.36328 0.004,-0.14452 0.006,-0.23632 0.006,-0.27539 0,-0.42968 -0.0996,-0.73241 -0.29882,-0.9082 -0.26954,-0.23828 -0.66993,-0.35742 -1.20118,-0.35742 -0.49609,0 -0.8623,0.0869 -1.09863,0.26074 -0.23633,0.17383 -0.41113,0.48145 -0.52441,0.92285 l -1.03125,-0.14062 c 0.0937,-0.44141 0.24804,-0.79785 0.46289,-1.06934 0.21484,-0.27148 0.52539,-0.48046 0.93164,-0.62695 0.40625,-0.14648 0.87695,-0.21972 1.41211,-0.21973 0.53124,10e-6 0.96288,0.0625 1.29492,0.1875 0.33203,0.12501 0.57617,0.28223 0.73242,0.47168 0.15625,0.18946 0.26562,0.42872 0.32813,0.71777 0.0351,0.1797 0.0527,0.50391 0.0527,0.97266 l 0,1.40625 c 0,0.98047 0.0225,1.60059 0.0674,1.86035 0.0449,0.25977 0.13379,0.50879 0.26661,0.74707 l -1.10157,0 c -0.10938,-0.21875 -0.17969,-0.47461 -0.21093,-0.76758 z m -0.0879,-2.35547 c -0.38282,0.15626 -0.95704,0.28907 -1.72266,0.39844 -0.4336,0.0625 -0.74024,0.13282 -0.91992,0.21094 -0.17969,0.0781 -0.31836,0.19238 -0.41602,0.34277 -0.0977,0.1504 -0.14648,0.31739 -0.14648,0.50098 0,0.28125 0.10644,0.51563 0.31933,0.70312 0.21289,0.18751 0.52441,0.28126 0.93457,0.28125 0.40625,1e-5 0.76758,-0.0889 1.08399,-0.2666 0.3164,-0.17773 0.54882,-0.42089 0.69726,-0.72949 0.11328,-0.23828 0.16992,-0.58984 0.16993,-1.05469 z"
       style="font-size:12px;text-align:center;text-anchor:middle"
       id="path4193" />
    <path
       d="m 121.19727,172.82025 0,-0.78515 c -0.39454,0.61718 -0.97462,0.92578 -1.74024,0.92578 -0.4961,0 -0.95215,-0.13672 -1.36816,-0.41016 -0.41602,-0.27344 -0.73829,-0.65527 -0.9668,-1.14551 -0.22852,-0.49023 -0.34277,-1.05371 -0.34277,-1.69043 0,-0.62109 0.10351,-1.18456 0.31054,-1.69043 0.20703,-0.50585 0.51758,-0.89355 0.93164,-1.16308 0.41406,-0.26953 0.87695,-0.40429 1.38868,-0.4043 0.37499,10e-6 0.70898,0.0791 1.00195,0.2373 0.29296,0.15821 0.53124,0.36427 0.71484,0.61817 l 0,-3.08203 1.04883,0 0,8.58984 z m -3.33399,-3.10547 c 0,0.79688 0.16797,1.39258 0.50391,1.78711 0.33593,0.39453 0.73242,0.5918 1.18945,0.5918 0.46093,0 0.85254,-0.18848 1.17481,-0.56543 0.32226,-0.37695 0.48339,-0.95215 0.48339,-1.72559 0,-0.85156 -0.16406,-1.47655 -0.49218,-1.875 -0.32813,-0.39843 -0.73243,-0.59765 -1.21289,-0.59765 -0.46876,0 -0.86036,0.19141 -1.17481,0.57422 -0.31445,0.38281 -0.47168,0.98633 -0.47168,1.81054 z"
       style="font-size:12px;text-align:center;text-anchor:middle"
       id="path4195" />
    <path
       d="m 123.82813,172.82025 0,-6.22265 0.94921,0 0,0.94335 c 0.24219,-0.4414 0.46582,-0.73241 0.6709,-0.87304 0.20508,-0.14062 0.43066,-0.21093 0.67676,-0.21094 0.35547,10e-6 0.71679,0.11329 1.08398,0.33984 l -0.36328,0.97852 c -0.25781,-0.15234 -0.51563,-0.22851 -0.77343,-0.22852 -0.23048,1e-5 -0.43751,0.0694 -0.6211,0.20801 -0.18359,0.13868 -0.31445,0.33106 -0.39258,0.57715 -0.11719,0.375 -0.17578,0.78516 -0.17578,1.23047 l 0,3.25781 z"
       style="font-size:12px;text-align:center;text-anchor:middle"
       id="path4197" />
    <path
       d="m 131.92578,172.82025 0,-0.91406 c -0.48438,0.70312 -1.14258,1.05469 -1.97461,1.05469 -0.36719,0 -0.70996,-0.0703 -1.02832,-0.21094 -0.31836,-0.14063 -0.55469,-0.31738 -0.70898,-0.53027 -0.1543,-0.21289 -0.2627,-0.47364 -0.3252,-0.78223 -0.043,-0.20703 -0.0645,-0.53516 -0.0645,-0.98438 l 0,-3.85546 1.05469,0 0,3.45117 c -1e-5,0.55078 0.0215,0.92187 0.0645,1.11328 0.0664,0.27734 0.20703,0.49512 0.42187,0.65332 0.21485,0.1582 0.48047,0.2373 0.79688,0.2373 0.3164,0 0.61328,-0.0811 0.89062,-0.24316 0.27734,-0.16211 0.47363,-0.38281 0.58887,-0.66211 0.11523,-0.2793 0.17285,-0.68457 0.17285,-1.21582 l 0,-3.33398 1.05469,0 0,6.22265 z"
       style="font-size:12px;text-align:center;text-anchor:middle"
       id="path4199" />
    <path
       d="m 134.52734,175.20502 0,-8.60742 0.96094,0 0,0.80859 c 0.22656,-0.3164 0.48242,-0.55371 0.76758,-0.71192 0.28515,-0.15819 0.63086,-0.23729 1.03711,-0.2373 0.53124,10e-6 0.99999,0.13673 1.40625,0.41016 0.40624,0.27344 0.71288,0.65918 0.91992,1.15722 0.20703,0.49805 0.31054,1.04395 0.31055,1.6377 -1e-5,0.63672 -0.11427,1.20996 -0.34278,1.71972 -0.22852,0.50977 -0.56055,0.9004 -0.99609,1.17188 -0.43555,0.27148 -0.89356,0.40723 -1.37402,0.40723 -0.35157,0 -0.667,-0.0742 -0.94629,-0.22266 -0.2793,-0.14844 -0.50879,-0.33594 -0.68848,-0.5625 l 0,3.0293 z m 0.95508,-5.46094 c 0,0.80078 0.16211,1.39258 0.48633,1.77539 0.32422,0.38281 0.71679,0.57422 1.17773,0.57422 0.46875,0 0.87012,-0.19824 1.20411,-0.59473 0.33398,-0.39648 0.50097,-1.01074 0.50097,-1.84277 0,-0.79297 -0.16309,-1.38672 -0.48926,-1.78125 -0.32617,-0.39453 -0.71582,-0.59179 -1.16894,-0.5918 -0.44922,1e-5 -0.84668,0.20997 -1.19238,0.62988 -0.34571,0.41993 -0.51856,1.03028 -0.51856,1.83106 z"
       style="font-size:12px;text-align:center;text-anchor:middle"
       id="path4201" />
    <path
       d="m 140.81445,169.70892 c 0,-1.15234 0.32031,-2.00585 0.96094,-2.56054 0.53515,-0.46093 1.1875,-0.6914 1.95703,-0.69141 0.85547,10e-6 1.55468,0.28028 2.09766,0.84082 0.54296,0.56055 0.81445,1.33497 0.81445,2.32324 0,0.80079 -0.12012,1.43067 -0.36035,1.88965 -0.24024,0.45899 -0.58985,0.81543 -1.04883,1.06934 -0.45899,0.2539 -0.95996,0.38086 -1.50293,0.38086 -0.87109,0 -1.5752,-0.2793 -2.1123,-0.83789 -0.53711,-0.5586 -0.80567,-1.36328 -0.80567,-2.41407 z m 1.08399,0 c 0,0.79688 0.17382,1.39356 0.52148,1.79004 0.34766,0.39649 0.78516,0.59473 1.3125,0.59473 0.52344,0 0.95898,-0.19922 1.30664,-0.59766 0.34765,-0.39843 0.52148,-1.00585 0.52149,-1.82226 -1e-5,-0.76953 -0.17481,-1.35254 -0.52442,-1.74903 -0.34961,-0.39648 -0.78418,-0.59472 -1.30371,-0.59472 -0.52734,0 -0.96484,0.19727 -1.3125,0.59179 -0.34766,0.39454 -0.52148,0.99024 -0.52148,1.78711 z"
       style="font-size:12px;text-align:center;text-anchor:middle"
       id="path4203" />
    <path
       d="m 147.86328,172.82025 0,-8.58984 1.05469,0 0,8.58984 z"
       style="font-size:12px;text-align:center;text-anchor:middle"
       id="path4205" />
    <path
       d="m 154.81836,170.81635 1.08984,0.13476 c -0.17188,0.63672 -0.49024,1.13086 -0.95508,1.48242 -0.46484,0.35157 -1.05859,0.52735 -1.78125,0.52735 -0.91015,0 -1.63183,-0.28028 -2.16503,-0.84082 -0.53321,-0.56055 -0.79981,-1.34668 -0.79981,-2.3584 0,-1.04687 0.26953,-1.85937 0.80859,-2.4375 0.53907,-0.57812 1.23828,-0.86718 2.09766,-0.86719 0.83203,10e-6 1.51172,0.28321 2.03906,0.84961 0.52734,0.56641 0.79101,1.36328 0.79102,2.39062 -1e-5,0.0625 -0.002,0.15626 -0.006,0.28125 l -4.64063,0 c 0.0391,0.6836 0.23243,1.20704 0.58008,1.57032 0.34766,0.36328 0.78125,0.54492 1.30078,0.54492 0.38672,0 0.7168,-0.10156 0.99024,-0.30469 0.27343,-0.20312 0.49023,-0.52734 0.65039,-0.97265 z m -3.46289,-1.70508 3.47461,0 c -0.0469,-0.52344 -0.17969,-0.91601 -0.39844,-1.17774 -0.33594,-0.40624 -0.77149,-0.60937 -1.30664,-0.60937 -0.48438,0 -0.8916,0.16211 -1.22168,0.48633 -0.33008,0.32422 -0.5127,0.75781 -0.54785,1.30078 z"
       style="font-size:12px;text-align:center;text-anchor:middle"
       id="path4207" />
    <path
       d="m 94.040207,187.3832 0,0.2168 -3.404297,0 0,-0.2168 0.28125,0 c 0.328124,0 0.566405,-0.0957 0.714844,-0.28711 0.09375,-0.125 0.140623,-0.42578 0.140625,-0.90234 l 0,-5.13281 c -2e-6,-0.40234 -0.02539,-0.66796 -0.07617,-0.79688 -0.03906,-0.0976 -0.119142,-0.18163 -0.240234,-0.25195 -0.171876,-0.0937 -0.351564,-0.14062 -0.539063,-0.14063 l -0.28125,0 0,-0.21679 3.404297,0 0,0.21679 -0.287109,0 c -0.324222,1e-5 -0.56055,0.0957 -0.708985,0.28711 -0.09766,0.12501 -0.146487,0.42579 -0.146484,0.90235 l 0,5.13281 c -3e-6,0.40234 0.02539,0.66797 0.07617,0.79687 0.03906,0.0977 0.121091,0.18165 0.246093,0.25196 0.167966,0.0937 0.3457,0.14062 0.533204,0.14062 z"
       style="font-size:12px;font-variant:normal;font-stretch:normal;text-align:center;text-anchor:middle;font-family:Serif;-inkscape-font-specification:Serif"
       id="path4209" />
    <path
       d="m 103.86638,183.77383 -6.304689,2.73047 0,-0.50391 5.431639,-2.35547 -5.431639,-2.3789 0,-0.53321 6.304689,2.75391 z"
       style="font-size:12px;font-variant:normal;font-stretch:normal;text-align:center;text-anchor:middle;font-family:Serif;-inkscape-font-specification:Serif"
       id="path4211" />
    <path
       d="m 107.55193,183.67422 c 0,-0.90625 0.13671,-1.68652 0.41015,-2.34082 0.27344,-0.65429 0.63672,-1.1416 1.08985,-1.46192 0.35156,-0.25389 0.71484,-0.38085 1.08984,-0.38086 0.60937,1e-5 1.15625,0.31056 1.64062,0.93165 0.60547,0.76953 0.9082,1.8125 0.90821,3.1289 -1e-5,0.92188 -0.13282,1.70508 -0.39844,2.34961 -0.26563,0.64453 -0.6045,1.11231 -1.0166,1.40332 -0.41211,0.29102 -0.80958,0.43652 -1.19238,0.43652 -0.75782,0 -1.38868,-0.44726 -1.89258,-1.34179 -0.42578,-0.75391 -0.63867,-1.66211 -0.63867,-2.72461 z m 1.14843,0.14648 c 0,1.09376 0.13477,1.98633 0.4043,2.67774 0.22265,0.58203 0.55468,0.87304 0.99609,0.87304 0.21094,0 0.42969,-0.0947 0.65625,-0.28418 0.22656,-0.18945 0.39844,-0.50683 0.51563,-0.95214 0.17968,-0.67188 0.26953,-1.61914 0.26953,-2.8418 0,-0.90625 -0.0937,-1.6621 -0.28125,-2.26758 -0.14063,-0.44921 -0.32227,-0.76757 -0.54492,-0.95508 -0.16016,-0.1289 -0.35352,-0.19335 -0.58008,-0.19336 -0.26563,1e-5 -0.50196,0.11915 -0.70898,0.35743 -0.28126,0.32422 -0.47266,0.83399 -0.57422,1.52929 -0.10157,0.69532 -0.15235,1.38087 -0.15235,2.05664 z"
       style="font-size:12px;font-variant:normal;font-stretch:normal;text-align:center;text-anchor:middle;font-family:Serif;-inkscape-font-specification:Serif"
       id="path4213" />
    <path
       d="m 125.22966,182.46719 c 0.51952,0.56641 0.96874,0.99707 1.34766,1.29199 0.37889,0.29492 0.73631,0.51465 1.07226,0.65918 l 0,0.26367 c -0.38673,0.1875 -0.76173,0.42676 -1.125,0.71777 -0.36329,0.29102 -0.79688,0.71778 -1.30078,1.28028 l -0.45117,0 c 0.36718,-0.78516 0.75194,-1.38867 1.1543,-1.81055 l -9.34571,0 0,-0.5918 9.34571,0 c -0.29689,-0.3789 -0.50392,-0.66015 -0.6211,-0.84375 -0.11719,-0.18359 -0.29102,-0.50585 -0.52148,-0.96679 z"
       style="font-size:12px;font-variant:normal;font-stretch:normal;text-align:center;text-anchor:middle;font-family:Serif;-inkscape-font-specification:Serif"
       id="path4215" />
    <path
       d="m 132.96404,183.15859 c 0.51952,-0.72265 1.08007,-1.08398 1.68164,-1.08398 0.55077,0 1.03124,0.23536 1.4414,0.70605 0.41015,0.47071 0.61523,1.11427 0.61524,1.93067 -10e-6,0.95312 -0.31642,1.7207 -0.94922,2.30273 -0.54298,0.5 -1.14844,0.75 -1.81641,0.75 -0.3125,0 -0.62988,-0.0566 -0.95215,-0.16992 -0.32226,-0.11328 -0.65137,-0.2832 -0.9873,-0.50977 l 0,-5.56054 c 0,-0.60937 -0.0147,-0.98437 -0.0439,-1.125 -0.0293,-0.14062 -0.0752,-0.23632 -0.13769,-0.28711 -0.0625,-0.0508 -0.14063,-0.0762 -0.23438,-0.0762 -0.10937,0 -0.24609,0.0312 -0.41015,0.0937 l -0.082,-0.20508 1.61132,-0.65625 0.26368,0 z m 0,0.375 0,3.21094 c 0.19921,0.19531 0.40527,0.34277 0.61816,0.44238 0.21289,0.0996 0.43066,0.14942 0.65332,0.14942 0.35546,0 0.68652,-0.19531 0.99316,-0.58594 0.30664,-0.39062 0.45996,-0.95898 0.45996,-1.70508 0,-0.68749 -0.15332,-1.21581 -0.45996,-1.58496 -0.30664,-0.36913 -0.65527,-0.55371 -1.04589,-0.55371 -0.20704,0 -0.41407,0.0527 -0.6211,0.1582 -0.15625,0.0781 -0.35547,0.23438 -0.59765,0.46875 z"
       style="font-size:12px;font-variant:normal;font-stretch:normal;text-align:center;text-anchor:middle;font-family:Serif;-inkscape-font-specification:Serif"
       id="path4217" />
    <path
       d="M 140.69465,189.00594 140.33283,190 l -3.04692,0 0,-0.14092 c 0.8963,-0.81759 1.52727,-1.48537 1.8929,-2.00335 0.36563,-0.51797 0.54844,-0.99151 0.54845,-1.42062 -1e-5,-0.32754 -0.1003,-0.59669 -0.30089,-0.80744 -0.20059,-0.21074 -0.44053,-0.31611 -0.71983,-0.31612 -0.25391,10e-6 -0.4818,0.0743 -0.68365,0.22281 -0.20186,0.14854 -0.35104,0.36627 -0.44752,0.65318 l -0.14092,0 c 0.0635,-0.46973 0.22661,-0.83028 0.48941,-1.08165 0.2628,-0.25137 0.59097,-0.37705 0.98454,-0.37706 0.41895,1e-5 0.76871,0.13458 1.04928,0.40372 0.28057,0.26915 0.42085,0.58653 0.42085,0.95216 0,0.26153 -0.0609,0.52306 -0.18281,0.78458 -0.1879,0.41134 -0.49259,0.84679 -0.91408,1.30637 -0.63223,0.69063 -1.02706,1.10705 -1.18449,1.24923 l 1.34827,0 c 0.27422,0 0.46655,-0.0102 0.57701,-0.0305 0.11044,-0.0203 0.2101,-0.0616 0.29897,-0.12378 0.0889,-0.0622 0.16631,-0.15044 0.23233,-0.2647 z"
       style="font-size:65.00091553%;baseline-shift:sub"
       id="path4219" />
    <path
       d="m 144.23518,183.46328 6.30469,-2.73047 0,0.50977 -5.42578,2.35547 5.42578,2.3789 0,0.52735 -6.30469,-2.75391 z"
       style="font-size:12px;font-variant:normal;font-stretch:normal;text-align:center;text-anchor:middle;font-family:Serif;-inkscape-font-specification:Serif"
       id="path4221" />
    <path
       d="m 154.22542,183.67422 c 0,-0.90625 0.13672,-1.68652 0.41015,-2.34082 0.27344,-0.65429 0.63672,-1.1416 1.08985,-1.46192 0.35156,-0.25389 0.71484,-0.38085 1.08984,-0.38086 0.60937,1e-5 1.15625,0.31056 1.64063,0.93165 0.60546,0.76953 0.90819,1.8125 0.9082,3.1289 -1e-5,0.92188 -0.13282,1.70508 -0.39844,2.34961 -0.26563,0.64453 -0.60449,1.11231 -1.0166,1.40332 -0.41211,0.29102 -0.80957,0.43652 -1.19238,0.43652 -0.75782,0 -1.38868,-0.44726 -1.89258,-1.34179 -0.42578,-0.75391 -0.63867,-1.66211 -0.63867,-2.72461 z m 1.14844,0.14648 c -1e-5,1.09376 0.13476,1.98633 0.40429,2.67774 0.22266,0.58203 0.55469,0.87304 0.9961,0.87304 0.21093,0 0.42968,-0.0947 0.65625,-0.28418 0.22655,-0.18945 0.39843,-0.50683 0.51562,-0.95214 0.17968,-0.67188 0.26953,-1.61914 0.26953,-2.8418 0,-0.90625 -0.0937,-1.6621 -0.28125,-2.26758 -0.14063,-0.44921 -0.32227,-0.76757 -0.54492,-0.95508 -0.16016,-0.1289 -0.35352,-0.19335 -0.58008,-0.19336 -0.26563,1e-5 -0.50195,0.11915 -0.70898,0.35743 -0.28125,0.32422 -0.47266,0.83399 -0.57422,1.52929 -0.10156,0.69532 -0.15235,1.38087 -0.15234,2.05664 z"
       style="font-size:12px;font-variant:normal;font-stretch:normal;text-align:center;text-anchor:middle;font-family:Serif;-inkscape-font-specification:Serif"
       id="path4223" />
  </g>
</svg>
