<?xml version="1.0" encoding="UTF-8" standalone="no"?>
<svg
   xmlns:dc="http://purl.org/dc/elements/1.1/"
   xmlns:cc="http://creativecommons.org/ns#"
   xmlns:rdf="http://www.w3.org/1999/02/22-rdf-syntax-ns#"
   xmlns:svg="http://www.w3.org/2000/svg"
   xmlns="http://www.w3.org/2000/svg"
   xmlns:sodipodi="http://sodipodi.sourceforge.net/DTD/sodipodi-0.dtd"
   xmlns:inkscape="http://www.inkscape.org/namespaces/inkscape"
   version="1.0"
   width="250"
   height="200"
   id="svg2985"
   inkscape:version="0.48.4 r9939"
   sodipodi:docname="skew_quadrupole.emf">
  <metadata
     id="metadata3123">
    <rdf:RDF>
      <cc:Work
         rdf:about="">
        <dc:format>image/svg+xml</dc:format>
        <dc:type
           rdf:resource="http://purl.org/dc/dcmitype/StillImage" />
        <dc:title></dc:title>
      </cc:Work>
    </rdf:RDF>
  </metadata>
  <sodipodi:namedview
     pagecolor="#ffffff"
     bordercolor="#666666"
     borderopacity="1"
     objecttolerance="10"
     gridtolerance="10"
     guidetolerance="10"
     inkscape:pageopacity="0"
     inkscape:pageshadow="2"
     inkscape:window-width="1280"
     inkscape:window-height="738"
     id="namedview3121"
     showgrid="false"
     inkscape:zoom="1.7708995"
     inkscape:cx="130.16309"
     inkscape:cy="141.74325"
     inkscape:window-x="-8"
     inkscape:window-y="-8"
     inkscape:window-maximized="1"
     inkscape:current-layer="svg2985" />
  <defs
     id="defs2987" />
  <g
     id="g2989"
     transform="matrix(0.5,0,0,0.5,36.02608,-1.15658)">
    <path
       style="fill:#bfbfbf;fill-opacity:1;fill-rule:evenodd;stroke:none"
       d="m 134.29283,239.8535 13.27831,-32.85818 c 7.33308,-18.15453 17.69503,-31.08587 23.13389,-28.8822 5.44823,2.1943 3.91972,18.69841 -3.41335,36.84356 l -13.27831,32.86756 z"
       id="path2991"
       inkscape:connector-curvature="0" />
    <path
       style="fill:none;stroke:#000000;stroke-width:0.30945209px;stroke-linecap:butt;stroke-linejoin:round;stroke-opacity:1;stroke-dasharray:none"
       d="m 134.29283,239.8535 13.27831,-32.85818 c 7.33308,-18.15453 17.69503,-31.08587 23.13389,-28.8822 5.44823,2.1943 3.91972,18.69841 -3.41335,36.84356 l -13.27831,32.86756 z"
       id="path2993"
       inkscape:connector-curvature="0" />
    <path
       style="fill:#fac090;fill-opacity:1;fill-rule:evenodd;stroke:none"
       d="m 123.04003,258.25184 c -1.81921,-0.74081 -2.6913,-2.80383 -1.95987,-4.62303 l 5.30758,-13.13765 c 0.74081,-1.8192 2.80382,-2.69129 4.61365,-1.95986 l 26.29405,10.62452 c 1.8192,0.73143 2.69129,2.79445 1.95986,4.61365 l -5.30757,13.13765 c -0.74081,1.8192 -2.80383,2.70067 -4.61365,1.95986 z"
       id="path2995"
       inkscape:connector-curvature="0" />
    <path
       style="fill:none;stroke:#000000;stroke-width:0.30945209px;stroke-linecap:butt;stroke-linejoin:round;stroke-opacity:1;stroke-dasharray:none"
       d="m 123.04003,258.25184 c -1.81921,-0.74081 -2.6913,-2.80383 -1.95987,-4.62303 l 5.30758,-13.13765 c 0.74081,-1.8192 2.80382,-2.69129 4.61365,-1.95986 l 26.29405,10.62452 c 1.8192,0.73143 2.69129,2.79445 1.95986,4.61365 l -5.30757,13.13765 c -0.74081,1.8192 -2.80383,2.70067 -4.61365,1.95986 z"
       id="path2997"
       inkscape:connector-curvature="0" />
    <path
       style="fill:#bfbfbf;fill-opacity:1;fill-rule:evenodd;stroke:none"
       d="M 263.49377,185.01484 230.6262,171.73653 c -18.14514,-7.33307 -34.64925,-8.86158 -36.84355,-3.42272 -2.20367,5.44823 10.72767,15.81018 28.8822,23.14326 l 32.85818,13.27831 z"
       id="path2999"
       inkscape:connector-curvature="0" />
    <path
       style="fill:none;stroke:#000000;stroke-width:0.30945209px;stroke-linecap:butt;stroke-linejoin:round;stroke-opacity:1;stroke-dasharray:none"
       d="M 263.49377,185.01484 230.6262,171.73653 c -18.14514,-7.33307 -34.64925,-8.86158 -36.84355,-3.42272 -2.20367,5.44823 10.72767,15.81018 28.8822,23.14326 l 32.85818,13.27831 z"
       id="path3001"
       inkscape:connector-curvature="0" />
    <path
       style="fill:#fac090;fill-opacity:1;fill-rule:evenodd;stroke:none"
       d="m 284.53651,189.69413 c 0.73143,-1.8192 -0.14066,-3.88221 -1.95986,-4.61365 L 269.439,179.77291 c -1.8192,-0.74081 -3.88222,0.14066 -4.62303,1.95049 l -10.61514,26.29405 c -0.74081,1.8192 0.14066,3.88221 1.95986,4.61365 l 13.13765,5.31695 c 1.8192,0.73143 3.88222,-0.15004 4.61365,-1.95987 z"
       id="path3003"
       inkscape:connector-curvature="0" />
    <path
       style="fill:none;stroke:#000000;stroke-width:0.30945209px;stroke-linecap:butt;stroke-linejoin:round;stroke-opacity:1;stroke-dasharray:none"
       d="m 284.53651,189.69413 c 0.73143,-1.8192 -0.14066,-3.88221 -1.95986,-4.61365 L 269.439,179.77291 c -1.8192,-0.74081 -3.88222,0.14066 -4.62303,1.95049 l -10.61514,26.29405 c -0.74081,1.8192 0.14066,3.88221 1.95986,4.61365 l 13.13765,5.31695 c 1.8192,0.73143 3.88222,-0.15004 4.61365,-1.95987 z"
       id="path3005"
       inkscape:connector-curvature="0" />
    <path
       style="fill:#bfbfbf;fill-opacity:1;fill-rule:evenodd;stroke:none"
       d="m 99.16533,118.6233 32.86756,13.27831 c 18.15453,7.33308 31.08587,17.69503 28.8822,23.13389 -2.20368,5.44823 -18.69841,3.91972 -36.85293,-3.41335 L 91.203971,138.34384 z"
       id="path3007"
       inkscape:connector-curvature="0" />
    <path
       style="fill:none;stroke:#000000;stroke-width:0.30945209px;stroke-linecap:butt;stroke-linejoin:round;stroke-opacity:1;stroke-dasharray:none"
       d="m 99.16533,118.6233 32.86756,13.27831 c 18.15453,7.33308 31.08587,17.69503 28.8822,23.13389 -2.20368,5.44823 -18.69841,3.91972 -36.85293,-3.41335 L 91.203971,138.34384 z"
       id="path3009"
       inkscape:connector-curvature="0" />
    <path
       style="fill:#fac090;fill-opacity:1;fill-rule:evenodd;stroke:none"
       d="m 80.776373,107.3705 c 0.731433,-1.8192 2.803824,-2.6913 4.61365,-1.95986 l 13.147025,5.30757 c 1.819202,0.74081 2.691292,2.80382 1.959862,4.61365 l -10.624521,26.29405 c -0.731432,1.8192 -2.794446,2.69129 -4.613649,1.95986 L 72.111715,138.2782 c -1.809826,-0.73143 -2.691296,-2.80382 -1.959863,-4.61365 z"
       id="path3011"
       inkscape:connector-curvature="0" />
    <path
       style="fill:none;stroke:#000000;stroke-width:0.30945209px;stroke-linecap:butt;stroke-linejoin:round;stroke-opacity:1;stroke-dasharray:none"
       d="m 80.776373,107.3705 c 0.731433,-1.8192 2.803824,-2.6913 4.61365,-1.95986 l 13.147025,5.30757 c 1.819202,0.74081 2.691292,2.80382 1.959862,4.61365 l -10.624521,26.29405 c -0.731432,1.8192 -2.794446,2.69129 -4.613649,1.95986 L 72.111715,138.2782 c -1.809826,-0.73143 -2.691296,-2.80382 -1.959863,-4.61365 z"
       id="path3013"
       inkscape:connector-curvature="0" />
    <path
       style="fill:#bfbfbf;fill-opacity:1;fill-rule:evenodd;stroke:none"
       d="m 220.61121,82.97067 -13.27831,32.86756 c -7.33308,18.14515 -17.68565,31.0765 -23.13389,28.8822 -5.44823,-2.20368 -3.91035,-18.69841 3.42273,-36.85293 l 13.27831,-32.858188 z"
       id="path3015"
       inkscape:connector-curvature="0" />
    <path
       style="fill:none;stroke:#000000;stroke-width:0.30945209px;stroke-linecap:butt;stroke-linejoin:round;stroke-opacity:1;stroke-dasharray:none"
       d="m 220.61121,82.97067 -13.27831,32.86756 c -7.33308,18.14515 -17.68565,31.0765 -23.13389,28.8822 -5.44823,-2.20368 -3.91035,-18.69841 3.42273,-36.85293 l 13.27831,-32.858188 z"
       id="path3017"
       inkscape:connector-curvature="0" />
    <path
       style="fill:#fac090;fill-opacity:1;fill-rule:evenodd;stroke:none"
       d="m 231.86401,64.581714 c 1.81921,0.731432 2.70068,2.794446 1.95987,4.613649 l -5.30758,13.147026 c -0.73143,1.809825 -2.80382,2.691295 -4.61365,1.959863 L 197.6086,73.67773 c -1.80982,-0.731432 -2.69129,-2.803824 -1.95986,-4.613649 l 5.31695,-13.147026 c 0.73143,-1.819203 2.79445,-2.691295 4.61365,-1.959863 z"
       id="path3019"
       inkscape:connector-curvature="0" />
    <path
       style="fill:none;stroke:#000000;stroke-width:0.30945209px;stroke-linecap:butt;stroke-linejoin:round;stroke-opacity:1;stroke-dasharray:none"
       d="m 231.86401,64.581714 c 1.81921,0.731432 2.70068,2.794446 1.95987,4.613649 l -5.30758,13.147026 c -0.73143,1.809825 -2.80382,2.691295 -4.61365,1.959863 L 197.6086,73.67773 c -1.80982,-0.731432 -2.69129,-2.803824 -1.95986,-4.613649 l 5.31695,-13.147026 c 0.73143,-1.819203 2.79445,-2.691295 4.61365,-1.959863 z"
       id="path3021"
       inkscape:connector-curvature="0" />
    <path
       style="fill:#bfbfbf;fill-opacity:1;fill-rule:evenodd;stroke:none"
       d="m 91.466537,186.36518 32.623753,-13.85033 c 18.02324,-7.6519 34.48984,-9.47111 36.78729,-4.06038 2.29745,5.40134 -10.45573,15.98835 -28.46959,23.63088 l -32.633134,13.85033 z"
       id="path3023"
       inkscape:connector-curvature="0" />
    <path
       style="fill:none;stroke:#000000;stroke-width:0.30945209px;stroke-linecap:butt;stroke-linejoin:round;stroke-opacity:1;stroke-dasharray:none"
       d="m 91.466537,186.36518 32.623753,-13.85033 c 18.02324,-7.6519 34.48984,-9.47111 36.78729,-4.06038 2.29745,5.40134 -10.45573,15.98835 -28.46959,23.63088 l -32.633134,13.85033 z"
       id="path3025"
       inkscape:connector-curvature="0" />
    <path
       style="fill:#fac090;fill-opacity:1;fill-rule:evenodd;stroke:none"
       d="m 70.50819,191.41019 c -0.768941,-1.80045 0.07502,-3.88222 1.875468,-4.65116 l 13.053251,-5.54201 c 1.800449,-0.75956 3.882218,0.075 4.641782,1.88485 l 11.084009,26.09712 c 0.75957,1.80045 -0.075,3.88222 -1.875465,4.65116 l -13.053252,5.54201 c -1.800448,0.75956 -3.882217,-0.075 -4.651159,-1.88485 z"
       id="path3027"
       inkscape:connector-curvature="0" />
    <path
       style="fill:none;stroke:#000000;stroke-width:0.30945209px;stroke-linecap:butt;stroke-linejoin:round;stroke-opacity:1;stroke-dasharray:none"
       d="m 70.50819,191.41019 c -0.768941,-1.80045 0.07502,-3.88222 1.875468,-4.65116 l 13.053251,-5.54201 c 1.800449,-0.75956 3.882218,0.075 4.641782,1.88485 l 11.084009,26.09712 c 0.75957,1.80045 -0.075,3.88222 -1.875465,4.65116 l -13.053252,5.54201 c -1.800448,0.75956 -3.882217,-0.075 -4.651159,-1.88485 z"
       id="path3029"
       inkscape:connector-curvature="0" />
    <path
       style="fill:#bfbfbf;fill-opacity:1;fill-rule:evenodd;stroke:none"
       d="m 221.60521,238.9439 -13.85033,-32.63313 c -7.6519,-18.01386 -18.22954,-30.76704 -23.64026,-28.46959 -5.40135,2.29745 -3.58214,18.76405 4.06038,36.77791 l 13.85033,32.63313 z"
       id="path3031"
       inkscape:connector-curvature="0" />
    <path
       style="fill:none;stroke:#000000;stroke-width:0.30945209px;stroke-linecap:butt;stroke-linejoin:round;stroke-opacity:1;stroke-dasharray:none"
       d="m 221.60521,238.9439 -13.85033,-32.63313 c -7.6519,-18.01386 -18.22954,-30.76704 -23.64026,-28.46959 -5.40135,2.29745 -3.58214,18.76405 4.06038,36.77791 l 13.85033,32.63313 z"
       id="path3033"
       inkscape:connector-curvature="0" />
    <path
       style="fill:#fac090;fill-opacity:1;fill-rule:evenodd;stroke:none"
       d="m 233.17684,257.13593 c 1.80045,-0.76894 2.64441,-2.85071 1.87547,-4.65115 l -5.53263,-13.05326 c -0.76894,-1.80045 -2.85071,-2.64441 -4.65116,-1.87546 l -26.1065,11.08401 c -1.80045,0.75956 -2.64441,2.84133 -1.87547,4.64178 l 5.54201,13.05325 c 0.75956,1.80045 2.84133,2.64441 4.64178,1.87547 z"
       id="path3035"
       inkscape:connector-curvature="0" />
    <path
       style="fill:none;stroke:#000000;stroke-width:0.30945209px;stroke-linecap:butt;stroke-linejoin:round;stroke-opacity:1;stroke-dasharray:none"
       d="m 233.17684,257.13593 c 1.80045,-0.76894 2.64441,-2.85071 1.87547,-4.65115 l -5.53263,-13.05326 c -0.76894,-1.80045 -2.85071,-2.64441 -4.65116,-1.87546 l -26.1065,11.08401 c -1.80045,0.75956 -2.64441,2.84133 -1.87547,4.64178 l 5.54201,13.05325 c 0.75956,1.80045 2.84133,2.64441 4.64178,1.87547 z"
       id="path3037"
       inkscape:connector-curvature="0" />
    <path
       style="fill:#bfbfbf;fill-opacity:1;fill-rule:evenodd;stroke:none"
       d="m 152.35358,75.797008 13.85033,32.633132 c 7.6519,18.01386 9.47111,34.48984 4.06038,36.77791 -5.40134,2.29745 -15.98836,-10.44635 -23.64026,-28.46959 L 132.78308,84.105328 z"
       id="path3039"
       inkscape:connector-curvature="0" />
    <path
       style="fill:none;stroke:#000000;stroke-width:0.30945209px;stroke-linecap:butt;stroke-linejoin:round;stroke-opacity:1;stroke-dasharray:none"
       d="m 152.35358,75.797008 13.85033,32.633132 c 7.6519,18.01386 9.47111,34.48984 4.06038,36.77791 -5.40134,2.29745 -15.98836,-10.44635 -23.64026,-28.46959 L 132.78308,84.105328 z"
       id="path3041"
       inkscape:connector-curvature="0" />
    <path
       style="fill:#fac090;fill-opacity:1;fill-rule:evenodd;stroke:none"
       d="m 147.30857,54.838662 c 1.80045,-0.768942 3.88222,0.07502 4.65116,1.875467 l 5.53263,13.053252 c 0.76894,1.800448 -0.075,3.882217 -1.87547,4.651159 l -26.09712,11.074633 c -1.80983,0.768942 -3.8916,-0.07502 -4.65116,-1.875467 L 119.3266,70.564454 c -0.75956,-1.800448 0.075,-3.882217 1.87547,-4.641781 z"
       id="path3043"
       inkscape:connector-curvature="0" />
    <path
       style="fill:none;stroke:#000000;stroke-width:0.30945209px;stroke-linecap:butt;stroke-linejoin:round;stroke-opacity:1;stroke-dasharray:none"
       d="m 147.30857,54.838662 c 1.80045,-0.768942 3.88222,0.07502 4.65116,1.875467 l 5.53263,13.053252 c 0.76894,1.800448 -0.075,3.882217 -1.87547,4.651159 l -26.09712,11.074633 c -1.80983,0.768942 -3.8916,-0.07502 -4.65116,-1.875467 L 119.3266,70.564454 c -0.75956,-1.800448 0.075,-3.882217 1.87547,-4.641781 z"
       id="path3045"
       inkscape:connector-curvature="0" />
    <path
       style="fill:#bfbfbf;fill-opacity:1;fill-rule:evenodd;stroke:none"
       d="m 263.4375,136.46837 -32.62375,13.85033 c -18.02324,7.64253 -34.48984,9.46173 -36.78729,4.06038 -2.28807,-5.41072 10.45573,-15.98835 28.47897,-23.64026 l 32.62375,-13.85033 z"
       id="path3047"
       inkscape:connector-curvature="0" />
    <path
       style="fill:none;stroke:#000000;stroke-width:0.30945209px;stroke-linecap:butt;stroke-linejoin:round;stroke-opacity:1;stroke-dasharray:none"
       d="m 263.4375,136.46837 -32.62375,13.85033 c -18.02324,7.64253 -34.48984,9.46173 -36.78729,4.06038 -2.28807,-5.41072 10.45573,-15.98835 28.47897,-23.64026 l 32.62375,-13.85033 z"
       id="path3049"
       inkscape:connector-curvature="0" />
    <path
       style="fill:#fac090;fill-opacity:1;fill-rule:evenodd;stroke:none"
       d="m 284.40523,131.42337 c 0.75956,1.80044 -0.075,3.88221 -1.88485,4.64178 l -13.04387,5.542 c -1.80045,0.76894 -3.88222,-0.075 -4.65116,-1.87546 l -11.08401,-26.10651 c -0.75957,-1.80045 0.0844,-3.88222 1.88484,-4.64178 l 13.05325,-5.54201 c 1.80045,-0.76894 3.88222,0.075 4.64179,1.87547 z"
       id="path3051"
       inkscape:connector-curvature="0" />
    <path
       style="fill:none;stroke:#000000;stroke-width:0.30945209px;stroke-linecap:butt;stroke-linejoin:round;stroke-opacity:1;stroke-dasharray:none"
       d="m 284.40523,131.42337 c 0.75956,1.80044 -0.075,3.88221 -1.88485,4.64178 l -13.04387,5.542 c -1.80045,0.76894 -3.88222,-0.075 -4.65116,-1.87546 l -11.08401,-26.10651 c -0.75957,-1.80045 0.0844,-3.88222 1.88484,-4.64178 l 13.05325,-5.54201 c 1.80045,-0.76894 3.88222,0.075 4.64179,1.87547 z"
       id="path3053"
       inkscape:connector-curvature="0" />
    <path
       style="fill:none;stroke:#000000;stroke-width:0.62828153px;stroke-linecap:butt;stroke-linejoin:round;stroke-opacity:1;stroke-dasharray:none"
       d="m 170.36744,161.70278 c 0,-3.91972 3.16954,-7.08926 7.08927,-7.08926 3.91035,0 7.08927,3.16954 7.08927,7.08926 0,3.91035 -3.17892,7.08927 -7.08927,7.08927 -3.91973,0 -7.08927,-3.17892 -7.08927,-7.08927"
       id="path3055"
       inkscape:connector-curvature="0" />
    <path
       style="fill:#000000;fill-opacity:1;fill-rule:evenodd;stroke:none"
       d="m 175.20615,161.70278 c 0,-1.24718 1.00337,-2.25056 2.25056,-2.25056 1.23781,0 2.25056,1.00338 2.25056,2.25056 0,1.23781 -1.01275,2.25056 -2.25056,2.25056 -1.24719,0 -2.25056,-1.01275 -2.25056,-2.25056"
       id="path3057"
       inkscape:connector-curvature="0" />
    <path
       style="fill:none;stroke:#000000;stroke-width:0.62828153px;stroke-linecap:butt;stroke-linejoin:round;stroke-opacity:1;stroke-dasharray:none"
       d="m 175.20615,161.70278 c 0,-1.24718 1.00337,-2.25056 2.25056,-2.25056 1.23781,0 2.25056,1.00338 2.25056,2.25056 0,1.23781 -1.01275,2.25056 -2.25056,2.25056 -1.24719,0 -2.25056,-1.01275 -2.25056,-2.25056"
       id="path3059"
       inkscape:connector-curvature="0" />
    <text
       xml:space="preserve"
       x="316.85059"
       y="150.53848"
       style="font-size:13.20328903px;font-style:normal;font-weight:normal;text-align:start;text-anchor:start;fill:#000000;font-family:Calibri"
       id="text3061">PS V+</text>
    <text
       xml:space="preserve"
       x="316.85071"
       y="182.40155"
       style="font-size:13.20328903px;font-style:normal;font-weight:normal;text-align:start;text-anchor:start;fill:#000000;font-family:Calibri"
       id="text3063">PS V</text>
    <text
       xml:space="preserve"
       x="340.10648"
       y="182.40155"
       style="font-size:13.20328903px;font-style:normal;font-weight:normal;text-align:start;text-anchor:start;fill:#000000;font-family:Calibri"
       id="text3065">-</text>
    <path
       style="fill:#4a7ebb;fill-opacity:1;fill-rule:nonzero;stroke:#4a7ebb;stroke-width:0.00937734px;stroke-linecap:butt;stroke-linejoin:round;stroke-opacity:1;stroke-dasharray:none"
       d="m 258.73946,125.38436 -62.69687,26.61288 1.09715,2.58815 62.69687,-26.61288 z m -57.42681,19.23292 -7.28619,9.7618 12.07801,1.53789 c 0.77832,0.10315 1.48162,-0.44074 1.57539,-1.21906 0.10315,-0.76894 -0.45011,-1.47224 -1.21905,-1.56601 l -9.68679,-1.23781 0.94711,2.24118 5.84208,-7.83007 c 0.46887,-0.62828 0.33759,-1.50975 -0.28132,-1.96924 -0.62828,-0.46887 -1.50975,-0.33759 -1.96924,0.28132 z"
       id="path3067"
       inkscape:connector-curvature="0" />
    <path
       style="fill:#ff0000;fill-opacity:1;fill-rule:nonzero;stroke:#ff0000;stroke-width:0.00937734px;stroke-linecap:butt;stroke-linejoin:round;stroke-opacity:1;stroke-dasharray:none"
       d="m 274.69968,139.38472 -12.75317,-30.06374 2.58814,-1.09714 12.76256,30.06374 z m -14.09413,-21.099 1.53788,-12.07801 9.76181,7.28619 c 0.62828,0.45949 0.75019,1.34096 0.2907,1.96924 -0.46887,0.6189 -1.35034,0.75019 -1.96924,0.28132 l -7.83008,-5.84208 2.23181,-0.94711 -1.22844,9.68679 c -0.10315,0.76894 -0.80645,1.31282 -1.57539,1.21905 -0.76894,-0.10315 -1.31282,-0.80645 -1.21905,-1.57539 z"
       id="path3069"
       inkscape:connector-curvature="0" />
    <path
       style="fill:#4a7ebb;fill-opacity:1;fill-rule:nonzero;stroke:#4a7ebb;stroke-width:0.00937734px;stroke-linecap:butt;stroke-linejoin:round;stroke-opacity:1;stroke-dasharray:none"
       d="m 208.4113,81.038939 -25.51574,63.156361 2.6069,1.05026 25.51573,-63.146982 z m 4.09789,9.99624 -1.75356,-12.049877 -9.63052,7.454982 c -0.60953,0.478245 -0.72206,1.359714 -0.25319,1.969241 0.47824,0.618904 1.35971,0.731432 1.97862,0.253188 l 7.72692,-5.98274 -2.25994,-0.909602 1.4066,9.668034 c 0.11253,0.768941 0.82521,1.303449 1.59415,1.190921 0.76894,-0.112528 1.30345,-0.825205 1.19092,-1.594147 z"
       id="path3071"
       inkscape:connector-curvature="0" />
    <path
       style="fill:#ff0000;fill-opacity:1;fill-rule:nonzero;stroke:#ff0000;stroke-width:0.00937734px;stroke-linecap:butt;stroke-linejoin:round;stroke-opacity:1;stroke-dasharray:none"
       d="m 228.06619,76.031441 -30.28879,-12.237423 1.05964,-2.6069 30.27941,12.237424 z m -4.3417,-9.893089 7.45498,9.630524 -12.05926,1.753562 c -0.76894,0.112528 -1.48162,-0.42198 -1.59414,-1.190922 -0.11253,-0.768941 0.42198,-1.481619 1.19092,-1.594147 l 0,0 9.66803,-1.4066 -0.9096,2.25056 -5.98274,-7.717547 c -0.46887,-0.618905 -0.35634,-1.500374 0.25319,-1.978618 0.6189,-0.478244 1.50037,-0.365716 1.97862,0.253188 z"
       id="path3073"
       inkscape:connector-curvature="0" />
    <path
       style="fill:#4a7ebb;fill-opacity:1;fill-rule:nonzero;stroke:#4a7ebb;stroke-width:0.00937734px;stroke-linecap:butt;stroke-linejoin:round;stroke-opacity:1;stroke-dasharray:none"
       d="m 144.94548,81.967295 26.61288,62.696865 -2.58814,1.09715 -26.61288,-62.696867 z m -3.91972,10.061882 1.53788,-12.078009 9.76181,7.28619 c 0.6189,0.459489 0.75018,1.340959 0.2907,1.969241 -0.46887,0.618904 -1.35034,0.750186 -1.96925,0.28132 l -7.83007,-5.842081 2.23181,-0.947111 -1.22844,9.686789 c -0.10315,0.778318 -0.80645,1.322204 -1.57539,1.219053 -0.76894,-0.09377 -1.31283,-0.797073 -1.21905,-1.575392 z"
       id="path3075"
       inkscape:connector-curvature="0" />
    <path
       style="fill:#ff0000;fill-opacity:1;fill-rule:nonzero;stroke:#ff0000;stroke-width:0.00937734px;stroke-linecap:butt;stroke-linejoin:round;stroke-opacity:1;stroke-dasharray:none"
       d="m 151.61277,63.034453 -30.06374,12.762555 1.09715,2.588145 30.06374,-12.762555 z m -4.17291,9.968109 7.29556,-9.761807 -12.08738,-1.537883 0,0 c -0.76894,-0.103151 -1.47224,0.440735 -1.5754,1.219053 -0.0938,0.768942 0.45012,1.472242 1.21906,1.566016 l 9.69616,1.237808 -0.95648,-2.241183 -5.84208,7.830075 c -0.45949,0.628282 -0.33759,1.509751 0.29069,1.969241 0.61891,0.468867 1.50038,0.337584 1.95987,-0.28132 z"
       id="path3077"
       inkscape:connector-curvature="0" />
    <path
       style="fill:#4a7ebb;fill-opacity:1;fill-rule:nonzero;stroke:#4a7ebb;stroke-width:0.00937734px;stroke-linecap:butt;stroke-linejoin:round;stroke-opacity:1;stroke-dasharray:none"
       d="m 95.71447,127.17543 63.14698,25.51573 -1.05964,2.6069 -63.146979,-25.51573 z m 57.74564,18.22954 7.46436,9.63991 -12.05926,1.74418 c -0.76894,0.11253 -1.48162,-0.42198 -1.59415,-1.19092 -0.11252,-0.76894 0.42198,-1.48162 1.19093,-1.59415 l 9.66803,-1.39722 -0.9096,2.25056 -5.98274,-7.72693 c -0.47825,-0.6189 -0.36572,-1.50037 0.25319,-1.96924 0.60952,-0.47824 1.50037,-0.36571 1.96924,0.24381 z"
       id="path3079"
       inkscape:connector-curvature="0" />
    <path
       style="fill:#ff0000;fill-opacity:1;fill-rule:nonzero;stroke:#ff0000;stroke-width:0.00937734px;stroke-linecap:butt;stroke-linejoin:round;stroke-opacity:1;stroke-dasharray:none"
       d="m 90.660086,107.53929 -12.237424,30.27942 2.606899,1.05964 12.237424,-30.2888 z m -13.72842,21.34282 1.753561,12.05925 9.630525,-7.46436 c 0.618904,-0.46886 0.731432,-1.35971 0.253188,-1.96924 -0.478244,-0.6189 -1.359714,-0.73143 -1.978618,-0.25319 l -7.717548,5.98274 2.250561,0.90961 -1.406601,-9.66804 c -0.112528,-0.76894 -0.825205,-1.30345 -1.594147,-1.19092 -0.768941,0.11253 -1.303449,0.82521 -1.190921,1.59415 z"
       id="path3081"
       inkscape:connector-curvature="0" />
    <path
       style="fill:#4a7ebb;fill-opacity:1;fill-rule:nonzero;stroke:#4a7ebb;stroke-width:0.00937734px;stroke-linecap:butt;stroke-linejoin:round;stroke-opacity:1;stroke-dasharray:none"
       d="m 96.173959,197.44919 62.687491,-26.61288 -1.09715,-2.59752 -62.696866,26.61288 z m 57.417431,-19.24229 7.29557,-9.76181 -12.08739,-1.53788 c -0.76894,-0.0938 -1.47224,0.45011 -1.57539,1.21905 -0.0938,0.76894 0.45011,1.47224 1.21905,1.57539 l 9.69617,1.22843 -0.95649,-2.2318 -5.84208,7.83007 c -0.45949,0.61891 -0.33759,1.50038 0.2907,1.96924 0.6189,0.45949 1.50037,0.33759 1.95986,-0.29069 z"
       id="path3083"
       inkscape:connector-curvature="0" />
    <path
       style="fill:#ff0000;fill-opacity:1;fill-rule:nonzero;stroke:#ff0000;stroke-width:0.00937734px;stroke-linecap:butt;stroke-linejoin:round;stroke-opacity:1;stroke-dasharray:none"
       d="m 80.204356,183.43945 12.762554,30.06374 -2.588144,1.09715 -12.762555,-30.06374 z m 14.094136,21.09901 -1.537883,12.08738 -9.761807,-7.28619 c -0.618904,-0.46887 -0.750187,-1.35033 -0.28132,-1.96924 0.459489,-0.62828 1.340959,-0.75019 1.959863,-0.2907 l 7.830076,5.85146 -2.231806,0.94711 1.228431,-9.69616 c 0.103151,-0.76894 0.806451,-1.31283 1.575392,-1.21906 0.768942,0.10315 1.322205,0.80645 1.219054,1.5754 z"
       id="path3085"
       inkscape:connector-curvature="0" />
    <path
       style="fill:#4a7ebb;fill-opacity:1;fill-rule:nonzero;stroke:#4a7ebb;stroke-width:0.00937734px;stroke-linecap:butt;stroke-linejoin:round;stroke-opacity:1;stroke-dasharray:none"
       d="m 146.50212,241.78523 25.50636,-63.14698 -2.6069,-1.05026 -25.51573,63.14698 z m -4.10727,-9.99624 1.75356,12.05926 9.63053,-7.45498 c 0.6189,-0.47825 0.73143,-1.35972 0.25318,-1.97862 -0.47824,-0.60953 -1.35971,-0.72206 -1.96924,-0.25319 l -7.72692,5.98274 2.25056,0.9096 -1.4066,-9.66803 0,0 c -0.11253,-0.76894 -0.82521,-1.30345 -1.59415,-1.19092 -0.76894,0.11253 -1.29407,0.8252 -1.19092,1.59414 z"
       id="path3087"
       inkscape:connector-curvature="0" />
    <path
       style="fill:#ff0000;fill-opacity:1;fill-rule:nonzero;stroke:#ff0000;stroke-width:0.00937734px;stroke-linecap:butt;stroke-linejoin:round;stroke-opacity:1;stroke-dasharray:none"
       d="m 126.84723,246.80211 30.27941,12.22805 -1.05026,2.61627 -30.28879,-12.23742 z m 4.3417,9.89309 -7.46436,-9.6399 12.05926,-1.74419 c 0.76894,-0.11252 1.48162,0.42198 1.59414,1.19092 0.11253,0.76895 -0.42198,1.48162 -1.19092,1.59415 l 0,0 -9.66803,1.39723 0.9096,-2.25057 5.98274,7.72693 c 0.47825,0.60953 0.36572,1.50037 -0.25319,1.96924 -0.60952,0.47824 -1.50037,0.36572 -1.96924,-0.24381 z"
       id="path3089"
       inkscape:connector-curvature="0" />
    <path
       style="fill:#4a7ebb;fill-opacity:1;fill-rule:nonzero;stroke:#4a7ebb;stroke-width:0.00937734px;stroke-linecap:butt;stroke-linejoin:round;stroke-opacity:1;stroke-dasharray:none"
       d="m 258.98327,196.17387 -63.14698,-25.50635 1.05026,-2.6069 63.14698,25.50635 z m -57.75501,-18.22954 -7.45499,-9.63052 12.05926,-1.74419 c 0.76894,-0.11253 1.48162,0.4126 1.59415,1.18155 0.10315,0.76894 -0.42198,1.49099 -1.19093,1.59414 l -9.66803,1.4066 0.9096,-2.25056 5.97336,7.72693 c 0.47825,0.60952 0.36572,1.49099 -0.24381,1.96924 -0.6189,0.47824 -1.50037,0.36571 -1.97861,-0.25319 z"
       id="path3091"
       inkscape:connector-curvature="0" />
    <path
       style="fill:#ff0000;fill-opacity:1;fill-rule:nonzero;stroke:#ff0000;stroke-width:0.00937734px;stroke-linecap:butt;stroke-linejoin:round;stroke-opacity:1;stroke-dasharray:none"
       d="m 202.76614,260.01478 30.06374,-12.76256 -1.09715,-2.58814 -30.06374,12.76255 z m 4.17291,-9.96811 -7.28619,9.7618 12.07801,1.53789 c 0.77832,0.10315 1.48162,-0.44074 1.57539,-1.20968 0.10316,-0.77832 -0.44073,-1.48162 -1.21905,-1.57539 l 0,0 -9.68679,-1.23781 0.94711,2.24118 5.84208,-7.83007 c 0.46887,-0.62828 0.33759,-1.50975 -0.28132,-1.96924 -0.62828,-0.46887 -1.50037,-0.33759 -1.96924,0.28132 z"
       id="path3093"
       inkscape:connector-curvature="0" />
    <path
       style="fill:#4a7ebb;fill-opacity:1;fill-rule:nonzero;stroke:#4a7ebb;stroke-width:0.00937734px;stroke-linecap:butt;stroke-linejoin:round;stroke-opacity:1;stroke-dasharray:none"
       d="m 209.43343,241.08193 -26.61288,-62.69686 2.58814,-1.09715 26.61288,62.69687 z m 3.91972,-10.06188 -1.53788,12.07801 -9.76181,-7.28619 c -0.6189,-0.45949 -0.75019,-1.34096 -0.28132,-1.96924 0.45949,-0.6189 1.34096,-0.75019 1.96924,-0.28132 l 7.83008,5.84208 -2.24119,0.94711 1.23781,-9.68679 c 0.0938,-0.76894 0.79708,-1.3222 1.5754,-1.21905 0.76894,0.0938 1.31282,0.80645 1.20967,1.57539 z"
       id="path3095"
       inkscape:connector-curvature="0" />
    <path
       style="fill:#ff0000;fill-opacity:1;fill-rule:nonzero;stroke:#ff0000;stroke-width:0.00937734px;stroke-linecap:butt;stroke-linejoin:round;stroke-opacity:1;stroke-dasharray:none"
       d="m 264.03765,215.81939 12.22805,-30.28879 -2.6069,-1.05027 -12.23742,30.27942 z m 13.71905,-21.34282 -1.74419,-12.05925 -9.6399,7.45498 c -0.60953,0.47825 -0.72205,1.35972 -0.24381,1.97862 0.46887,0.60953 1.35971,0.72205 1.96924,0.25319 l 7.72692,-5.98274 -2.25056,-0.9096 1.39723,9.66803 c 0.11253,0.76894 0.8252,1.30345 1.59414,1.19092 0.76895,-0.11253 1.30345,-0.8252 1.19093,-1.59415 z"
       id="path3097"
       inkscape:connector-curvature="0" />
    <text
       xml:space="preserve"
       x="186.52631"
       y="168.3251"
       style="font-size:13.20328903px;font-style:italic;font-weight:normal;text-align:start;text-anchor:start;fill:#000000;font-family:Calibri"
       id="text3099">e</text>
    <text
       xml:space="preserve"
       x="192.82787"
       y="164.42413"
       style="font-size:8.70216751px;font-style:italic;font-weight:normal;text-align:start;text-anchor:start;fill:#000000;font-family:Calibri"
       id="text3101">-</text>
    <path
       style="fill:none;stroke:#4a7ebb;stroke-width:0.93773359px;stroke-linecap:butt;stroke-linejoin:round;stroke-opacity:1;stroke-dasharray:none"
       d="m 307.78293,146.17392 c -15.88521,0 -31.77042,-3.67592 -31.77042,-7.33308"
       id="path3103"
       inkscape:connector-curvature="0" />
    <path
       style="fill:none;stroke:#4a7ebb;stroke-width:0.93773359px;stroke-linecap:butt;stroke-linejoin:round;stroke-opacity:1;stroke-dasharray:none"
       d="m 276.01251,182.4267 c 0,-2.1943 15.88521,-4.3886 31.77042,-4.3886"
       id="path3105"
       inkscape:connector-curvature="0" />
    <path
       style="fill:none;stroke:#4a7ebb;stroke-width:0.93773359px;stroke-linecap:butt;stroke-linejoin:round;stroke-opacity:1;stroke-dasharray:none"
       d="m 262.15281,106.20771 c 0,-32.755036 -20.14252,-65.519449 -40.27566,-65.519449 -20.14252,0 -40.27566,5.45761 -40.27566,10.905842 0,5.448233 8.35521,10.896465 16.70104,10.896465"
       id="path3107"
       inkscape:connector-curvature="0" />
    <path
       style="fill:none;stroke:#4a7ebb;stroke-width:0.93773359px;stroke-linecap:butt;stroke-linejoin:round;stroke-opacity:1;stroke-dasharray:none"
       d="m 231.17009,75.768876 c 11.2528,0 22.50561,-14.778682 22.50561,-29.557364 0,-14.778681 -38.5221,-29.557363 -77.0442,-29.557363 -38.52209,0 -77.034813,15.106888 -77.034813,30.213777 0,15.116266 11.252803,30.223154 22.505603,30.223154"
       id="path3109"
       inkscape:connector-curvature="0" />
    <path
       style="fill:none;stroke:#4a7ebb;stroke-width:0.93773359px;stroke-linecap:butt;stroke-linejoin:round;stroke-opacity:1;stroke-dasharray:none"
       d="m 154.72605,63.240755 c 11.2528,0 22.5056,-5.795194 22.5056,-11.599765 0,-5.795194 -21.31468,-11.590387 -42.62937,-11.590387 -21.32406,0 -42.638745,34.00222 -42.638745,68.013817"
       id="path3111"
       inkscape:connector-curvature="0" />
    <path
       style="fill:none;stroke:#4a7ebb;stroke-width:0.93773359px;stroke-linecap:butt;stroke-linejoin:round;stroke-opacity:1;stroke-dasharray:none"
       d="m 78.685227,140.93198 c 0,10.76519 0.05626,21.53037 0.112528,21.53037 0.05627,0 0.112529,10.76518 0.112529,21.53036"
       id="path3113"
       inkscape:connector-curvature="0" />
    <path
       style="fill:none;stroke:#4a7ebb;stroke-width:0.93773359px;stroke-linecap:butt;stroke-linejoin:round;stroke-opacity:1;stroke-dasharray:none"
       d="m 92.760609,216.61646 c 0,31.27342 20.133141,62.54684 40.275661,62.54684 20.13314,0 40.26628,-4.70743 40.26628,-9.41485 0,-4.70742 -8.34583,-9.40547 -16.70104,-9.40547"
       id="path3115"
       inkscape:connector-curvature="0" />
    <path
       style="fill:none;stroke:#4a7ebb;stroke-width:0.93773359px;stroke-linecap:butt;stroke-linejoin:round;stroke-opacity:1;stroke-dasharray:none"
       d="m 123.73395,247.06468 c -11.2528,0 -22.50561,11.11214 -22.50561,22.22428 0,11.11214 38.39082,22.23367 76.78163,22.23367 38.39082,0 76.78163,-11.39347 76.78163,-22.78693 0,-11.38409 -11.2528,-22.77755 -22.50561,-22.77755"
       id="path3117"
       inkscape:connector-curvature="0" />
    <path
       style="fill:none;stroke:#4a7ebb;stroke-width:0.93773359px;stroke-linecap:butt;stroke-linejoin:round;stroke-opacity:1;stroke-dasharray:none"
       d="m 199.65286,259.80847 c -6.78919,0 -13.569,4.72618 -13.569,9.44298 0,4.7168 19.1579,9.44298 38.31579,9.44298 19.16728,0 38.32518,-31.70477 38.32518,-63.40017"
       id="path3119"
       inkscape:connector-curvature="0" />
  </g>
  <g
     style="font-size:40px;font-style:normal;font-weight:normal;line-height:125%;letter-spacing:0px;word-spacing:0px;fill:#000000;fill-opacity:1;stroke:none;font-family:Sans"
     id="text3345">
    <path
       d="m 77.791016,170.06049 1.072265,-0.0937 c 0.05078,0.42969 0.168944,0.78222 0.354492,1.05761 0.185545,0.2754 0.473631,0.49805 0.864258,0.66797 0.390622,0.16992 0.830075,0.25489 1.31836,0.25488 0.433589,1e-5 0.816401,-0.0645 1.148437,-0.19335 0.332026,-0.12891 0.579096,-0.30567 0.741211,-0.53028 0.162103,-0.22461 0.243158,-0.46972 0.243164,-0.73535 -6e-6,-0.26953 -0.07813,-0.50488 -0.234375,-0.70605 -0.156256,-0.20117 -0.414068,-0.37012 -0.773437,-0.50684 -0.230474,-0.0898 -0.740239,-0.22949 -1.529297,-0.41895 -0.789066,-0.18944 -1.3418,-0.36816 -1.658203,-0.53613 -0.410158,-0.21484 -0.715822,-0.48144 -0.916993,-0.7998 -0.201172,-0.31836 -0.301758,-0.6748 -0.301757,-1.06934 -10e-7,-0.43359 0.123046,-0.83886 0.36914,-1.21582 0.246093,-0.37694 0.605467,-0.66308 1.078125,-0.8584 0.472654,-0.1953 0.998044,-0.29296 1.576172,-0.29297 0.636714,1e-5 1.198237,0.10255 1.68457,0.30762 0.486323,0.20509 0.860346,0.50684 1.122071,0.90527 0.261712,0.39845 0.402336,0.84962 0.421875,1.35352 l -1.089844,0.082 c -0.0586,-0.54296 -0.256842,-0.95312 -0.594727,-1.23047 -0.337895,-0.27733 -0.836918,-0.41601 -1.49707,-0.41601 -0.687503,0 -1.188479,0.12598 -1.50293,0.37793 -0.314455,0.25196 -0.471681,0.55567 -0.471679,0.91113 -2e-6,0.3086 0.111326,0.5625 0.333984,0.76172 0.218748,0.19922 0.790036,0.40332 1.713867,0.6123 0.923824,0.20899 1.557612,0.39161 1.901367,0.54785 0.499994,0.23048 0.869134,0.52247 1.107422,0.87598 0.238274,0.35352 0.357415,0.76075 0.357422,1.22168 -7e-6,0.45703 -0.130866,0.8877 -0.392578,1.29199 -0.261725,0.4043 -0.637702,0.71875 -1.12793,0.94336 -0.490239,0.22461 -1.041997,0.33692 -1.655273,0.33692 -0.777347,0 -1.428714,-0.11329 -1.954102,-0.33985 -0.525392,-0.22656 -0.937501,-0.56738 -1.236328,-1.02246 -0.298829,-0.45508 -0.456055,-0.96972 -0.471679,-1.54394 z"
       style="font-size:12px;text-align:center;text-anchor:middle"
       id="path3354" />
    <path
       d="m 86.064453,172.82025 0,-8.58984 1.054688,0 0,4.89844 2.496093,-2.53125 1.365235,0 -2.378907,2.30859 2.619141,3.91406 -1.300781,0 -2.056641,-3.18164 -0.74414,0.71484 0,2.4668 z"
       style="font-size:12px;text-align:center;text-anchor:middle"
       id="path3356" />
    <path
       d="m 96.318359,170.81635 1.089844,0.13476 c -0.171881,0.63672 -0.49024,1.13086 -0.955078,1.48242 -0.464848,0.35157 -1.058598,0.52735 -1.78125,0.52735 -0.910159,0 -1.631838,-0.28028 -2.165039,-0.84082 -0.533204,-0.56055 -0.799805,-1.34668 -0.799805,-2.3584 0,-1.04687 0.269531,-1.85937 0.808594,-2.4375 0.539061,-0.57812 1.238279,-0.86718 2.097656,-0.86719 0.832027,10e-6 1.511714,0.28321 2.039063,0.84961 0.527338,0.56641 0.791009,1.36328 0.791015,2.39062 -6e-6,0.0625 -0.002,0.15626 -0.0059,0.28125 l -4.640625,0 c 0.03906,0.6836 0.23242,1.20704 0.580078,1.57032 0.347654,0.36328 0.781247,0.54492 1.300781,0.54492 0.386715,0 0.716793,-0.10156 0.990235,-0.30469 0.273433,-0.20312 0.490229,-0.52734 0.65039,-0.97265 z m -3.46289,-1.70508 3.474609,0 c -0.04688,-0.52344 -0.179692,-0.91601 -0.398437,-1.17774 -0.335942,-0.40624 -0.771489,-0.60937 -1.306641,-0.60937 -0.484378,0 -0.891604,0.16211 -1.22168,0.48633 -0.33008,0.32422 -0.512697,0.75781 -0.547851,1.30078 z"
       style="font-size:12px;text-align:center;text-anchor:middle"
       id="path3358" />
    <path
       d="m 99.886719,172.82025 -1.904297,-6.22265 1.089844,0 0.990234,3.59179 0.36914,1.33594 c 0.0156,-0.0664 0.12304,-0.49414 0.32227,-1.2832 l 0.99023,-3.64453 1.08399,0 0.93164,3.60937 0.31054,1.18945 0.35742,-1.20117 1.06641,-3.59765 1.02539,0 -1.94531,6.22265 -1.0957,0 -0.99024,-3.72656 -0.24023,-1.06055 -1.25977,4.78711 z"
       style="font-size:12px;text-align:center;text-anchor:middle"
       id="path3360" />
    <path
       d="m 117.38281,171.90033 c 0.52734,0.36328 1.01367,0.62891 1.45899,0.79687 l -0.33399,0.79102 c -0.61719,-0.22266 -1.23243,-0.57422 -1.8457,-1.05469 -0.63673,0.35547 -1.33985,0.53321 -2.10938,0.53321 -0.77734,0 -1.48242,-0.1875 -2.11523,-0.5625 -0.63281,-0.375 -1.12012,-0.90235 -1.46191,-1.58204 -0.3418,-0.67968 -0.5127,-1.4453 -0.5127,-2.29687 0,-0.84765 0.17187,-1.61914 0.51563,-2.31445 0.34374,-0.69531 0.833,-1.22461 1.46777,-1.58789 0.63476,-0.36328 1.34472,-0.54492 2.12988,-0.54493 0.79297,1e-5 1.50781,0.18849 2.14453,0.56543 0.63671,0.37696 1.12207,0.90431 1.45606,1.58203 0.33397,0.67775 0.50097,1.44239 0.50097,2.29395 0,0.70704 -0.10743,1.34278 -0.32226,1.90723 -0.21485,0.56445 -0.53907,1.05566 -0.97266,1.47363 z m -2.50195,-1.45313 c 0.65624,0.1836 1.19726,0.45704 1.62305,0.82032 0.66796,-0.60938 1.00194,-1.52539 1.00195,-2.74805 -1e-5,-0.69531 -0.11817,-1.30273 -0.35449,-1.82227 -0.23634,-0.51952 -0.58204,-0.92284 -1.03711,-1.20996 -0.45509,-0.2871 -0.96583,-0.43065 -1.53223,-0.43066 -0.84766,1e-5 -1.55078,0.29005 -2.10937,0.87012 -0.5586,0.58008 -0.8379,1.44629 -0.83789,2.59863 -1e-5,1.11719 0.27636,1.97461 0.8291,2.57227 0.55273,0.59765 1.25878,0.89648 2.11816,0.89648 0.40625,0 0.78906,-0.0762 1.14844,-0.22852 -0.35548,-0.23046 -0.73048,-0.39453 -1.125,-0.49218 z"
       style="font-size:12px;text-align:center;text-anchor:middle"
       id="path3362" />
    <path
       d="m 124.14453,172.82025 0,-0.91406 c -0.48438,0.70312 -1.14258,1.05469 -1.97461,1.05469 -0.36719,0 -0.70996,-0.0703 -1.02832,-0.21094 -0.31836,-0.14063 -0.55469,-0.31738 -0.70898,-0.53027 -0.1543,-0.21289 -0.2627,-0.47364 -0.3252,-0.78223 -0.043,-0.20703 -0.0645,-0.53516 -0.0645,-0.98438 l 0,-3.85546 1.05469,0 0,3.45117 c -1e-5,0.55078 0.0215,0.92187 0.0644,1.11328 0.0664,0.27734 0.20703,0.49512 0.42187,0.65332 0.21485,0.1582 0.48047,0.2373 0.79688,0.2373 0.3164,0 0.61328,-0.0811 0.89062,-0.24316 0.27734,-0.16211 0.47363,-0.38281 0.58887,-0.66211 0.11523,-0.2793 0.17285,-0.68457 0.17285,-1.21582 l 0,-3.33398 1.05469,0 0,6.22265 z"
       style="font-size:12px;text-align:center;text-anchor:middle"
       id="path3364" />
    <path
       d="m 130.80664,172.05267 c -0.39063,0.33204 -0.76661,0.56641 -1.12793,0.70313 -0.36133,0.13672 -0.74903,0.20508 -1.16309,0.20508 -0.68359,0 -1.20898,-0.167 -1.57617,-0.50098 -0.36718,-0.33398 -0.55078,-0.76074 -0.55078,-1.28027 0,-0.30469 0.0693,-0.58301 0.20801,-0.83496 0.13867,-0.25195 0.32031,-0.4541 0.54492,-0.60645 0.22461,-0.15234 0.47754,-0.26757 0.75879,-0.3457 0.20703,-0.0547 0.51953,-0.10742 0.9375,-0.15821 0.85156,-0.10155 1.47851,-0.22265 1.88086,-0.36328 0.004,-0.14452 0.006,-0.23632 0.006,-0.27539 -1e-5,-0.42968 -0.0996,-0.73241 -0.29883,-0.9082 -0.26953,-0.23828 -0.66992,-0.35742 -1.20117,-0.35742 -0.4961,0 -0.86231,0.0869 -1.09863,0.26074 -0.23633,0.17383 -0.41114,0.48145 -0.52442,0.92285 l -1.03125,-0.14062 c 0.0937,-0.44141 0.24805,-0.79785 0.46289,-1.06934 0.21485,-0.27148 0.52539,-0.48046 0.93164,-0.62695 0.40625,-0.14648 0.87695,-0.21972 1.41211,-0.21973 0.53125,10e-6 0.96289,0.0625 1.29492,0.1875 0.33203,0.12501 0.57617,0.28223 0.73243,0.47168 0.15624,0.18946 0.26562,0.42872 0.32812,0.71777 0.0352,0.1797 0.0527,0.50391 0.0527,0.97266 l 0,1.40625 c -1e-5,0.98047 0.0225,1.60059 0.0674,1.86035 0.0449,0.25977 0.13378,0.50879 0.2666,0.74707 l -1.10156,0 c -0.10938,-0.21875 -0.17969,-0.47461 -0.21094,-0.76758 z m -0.0879,-2.35547 c -0.38282,0.15626 -0.95704,0.28907 -1.72266,0.39844 -0.43359,0.0625 -0.74023,0.13282 -0.91992,0.21094 -0.17969,0.0781 -0.31836,0.19238 -0.41601,0.34277 -0.0977,0.1504 -0.14649,0.31739 -0.14649,0.50098 0,0.28125 0.10645,0.51563 0.31934,0.70312 0.21289,0.18751 0.52441,0.28126 0.93457,0.28125 0.40624,1e-5 0.76757,-0.0889 1.08398,-0.2666 0.3164,-0.17773 0.54883,-0.42089 0.69727,-0.72949 0.11327,-0.23828 0.16992,-0.58984 0.16992,-1.05469 z"
       style="font-size:12px;text-align:center;text-anchor:middle"
       id="path3366" />
    <path
       d="m 137.46289,172.82025 0,-0.78515 c -0.39454,0.61718 -0.97461,0.92578 -1.74023,0.92578 -0.4961,0 -0.95215,-0.13672 -1.36817,-0.41016 -0.41601,-0.27344 -0.73828,-0.65527 -0.96679,-1.14551 -0.22852,-0.49023 -0.34278,-1.05371 -0.34278,-1.69043 0,-0.62109 0.10352,-1.18456 0.31055,-1.69043 0.20703,-0.50585 0.51758,-0.89355 0.93164,-1.16308 0.41406,-0.26953 0.87695,-0.40429 1.38867,-0.4043 0.375,10e-6 0.70898,0.0791 1.00195,0.2373 0.29297,0.15821 0.53125,0.36427 0.71485,0.61817 l 0,-3.08203 1.04883,0 0,8.58984 z m -3.33398,-3.10547 c -1e-5,0.79688 0.16796,1.39258 0.5039,1.78711 0.33594,0.39453 0.73242,0.5918 1.18946,0.5918 0.46093,0 0.85253,-0.18848 1.1748,-0.56543 0.32226,-0.37695 0.48339,-0.95215 0.4834,-1.72559 -1e-5,-0.85156 -0.16407,-1.47655 -0.49219,-1.875 -0.32813,-0.39843 -0.73242,-0.59765 -1.21289,-0.59765 -0.46875,0 -0.86035,0.19141 -1.1748,0.57422 -0.31446,0.38281 -0.47169,0.98633 -0.47168,1.81054 z"
       style="font-size:12px;text-align:center;text-anchor:middle"
       id="path3368" />
    <path
       d="m 140.09375,172.82025 0,-6.22265 0.94922,0 0,0.94335 c 0.24218,-0.4414 0.46582,-0.73241 0.6709,-0.87304 0.20507,-0.14062 0.43066,-0.21093 0.67675,-0.21094 0.35547,10e-6 0.7168,0.11329 1.08399,0.33984 l -0.36328,0.97852 c -0.25782,-0.15234 -0.51563,-0.22851 -0.77344,-0.22852 -0.23047,1e-5 -0.4375,0.0694 -0.62109,0.20801 -0.1836,0.13868 -0.31446,0.33106 -0.39258,0.57715 -0.11719,0.375 -0.17578,0.78516 -0.17578,1.23047 l 0,3.25781 z"
       style="font-size:12px;text-align:center;text-anchor:middle"
       id="path3370" />
    <path
       d="m 148.19141,172.82025 0,-0.91406 c -0.48438,0.70312 -1.14259,1.05469 -1.97461,1.05469 -0.36719,0 -0.70997,-0.0703 -1.02832,-0.21094 -0.31836,-0.14063 -0.55469,-0.31738 -0.70899,-0.53027 -0.1543,-0.21289 -0.26269,-0.47364 -0.32519,-0.78223 -0.043,-0.20703 -0.0645,-0.53516 -0.0645,-0.98438 l 0,-3.85546 1.05469,0 0,3.45117 c 0,0.55078 0.0215,0.92187 0.0644,1.11328 0.0664,0.27734 0.20703,0.49512 0.42188,0.65332 0.21484,0.1582 0.48047,0.2373 0.79687,0.2373 0.31641,0 0.61328,-0.0811 0.89063,-0.24316 0.27734,-0.16211 0.47363,-0.38281 0.58887,-0.66211 0.11523,-0.2793 0.17284,-0.68457 0.17285,-1.21582 l 0,-3.33398 1.05469,0 0,6.22265 z"
       style="font-size:12px;text-align:center;text-anchor:middle"
       id="path3372" />
    <path
       d="m 150.79297,175.20502 0,-8.60742 0.96094,0 0,0.80859 c 0.22656,-0.3164 0.48242,-0.55371 0.76757,-0.71192 0.28516,-0.15819 0.63086,-0.23729 1.03711,-0.2373 0.53125,10e-6 1,0.13673 1.40625,0.41016 0.40625,0.27344 0.71289,0.65918 0.91993,1.15722 0.20702,0.49805 0.31054,1.04395 0.31054,1.6377 0,0.63672 -0.11426,1.20996 -0.34277,1.71972 -0.22852,0.50977 -0.56055,0.9004 -0.99609,1.17188 -0.43556,0.27148 -0.89356,0.40723 -1.37403,0.40723 -0.35156,0 -0.66699,-0.0742 -0.94629,-0.22266 -0.2793,-0.14844 -0.50879,-0.33594 -0.68847,-0.5625 l 0,3.0293 z m 0.95508,-5.46094 c 0,0.80078 0.1621,1.39258 0.48632,1.77539 0.32422,0.38281 0.7168,0.57422 1.17774,0.57422 0.46875,0 0.87011,-0.19824 1.2041,-0.59473 0.33398,-0.39648 0.50097,-1.01074 0.50098,-1.84277 -1e-5,-0.79297 -0.16309,-1.38672 -0.48926,-1.78125 -0.32618,-0.39453 -0.71582,-0.59179 -1.16895,-0.5918 -0.44922,1e-5 -0.84668,0.20997 -1.19238,0.62988 -0.3457,0.41993 -0.51855,1.03028 -0.51855,1.83106 z"
       style="font-size:12px;text-align:center;text-anchor:middle"
       id="path3374" />
    <path
       d="m 157.08008,169.70892 c 0,-1.15234 0.32031,-2.00585 0.96094,-2.56054 0.53515,-0.46093 1.18749,-0.6914 1.95703,-0.69141 0.85546,10e-6 1.55468,0.28028 2.09765,0.84082 0.54297,0.56055 0.81445,1.33497 0.81446,2.32324 -1e-5,0.80079 -0.12013,1.43067 -0.36036,1.88965 -0.24024,0.45899 -0.58984,0.81543 -1.04882,1.06934 -0.45899,0.2539 -0.95997,0.38086 -1.50293,0.38086 -0.8711,0 -1.5752,-0.2793 -2.11231,-0.83789 -0.53711,-0.5586 -0.80566,-1.36328 -0.80566,-2.41407 z m 1.08398,0 c 0,0.79688 0.17383,1.39356 0.52149,1.79004 0.34765,0.39649 0.78515,0.59473 1.3125,0.59473 0.52343,0 0.95898,-0.19922 1.30664,-0.59766 0.34765,-0.39843 0.52148,-1.00585 0.52148,-1.82226 0,-0.76953 -0.17481,-1.35254 -0.52441,-1.74903 -0.34962,-0.39648 -0.78419,-0.59472 -1.30371,-0.59472 -0.52735,0 -0.96485,0.19727 -1.3125,0.59179 -0.34766,0.39454 -0.52149,0.99024 -0.52149,1.78711 z"
       style="font-size:12px;text-align:center;text-anchor:middle"
       id="path3376" />
    <path
       d="m 164.12891,172.82025 0,-8.58984 1.05468,0 0,8.58984 z"
       style="font-size:12px;text-align:center;text-anchor:middle"
       id="path3378" />
    <path
       d="m 171.08398,170.81635 1.08985,0.13476 c -0.17188,0.63672 -0.49024,1.13086 -0.95508,1.48242 -0.46485,0.35157 -1.0586,0.52735 -1.78125,0.52735 -0.91016,0 -1.63184,-0.28028 -2.16504,-0.84082 -0.5332,-0.56055 -0.7998,-1.34668 -0.7998,-2.3584 0,-1.04687 0.26953,-1.85937 0.80859,-2.4375 0.53906,-0.57812 1.23828,-0.86718 2.09766,-0.86719 0.83202,10e-6 1.51171,0.28321 2.03906,0.84961 0.52734,0.56641 0.79101,1.36328 0.79101,2.39062 0,0.0625 -0.002,0.15626 -0.006,0.28125 l -4.64062,0 c 0.0391,0.6836 0.23242,1.20704 0.58008,1.57032 0.34765,0.36328 0.78125,0.54492 1.30078,0.54492 0.38671,0 0.71679,-0.10156 0.99023,-0.30469 0.27344,-0.20312 0.49023,-0.52734 0.65039,-0.97265 z m -3.46289,-1.70508 3.47461,0 c -0.0469,-0.52344 -0.17969,-0.91601 -0.39843,-1.17774 -0.33595,-0.40624 -0.77149,-0.60937 -1.30665,-0.60937 -0.48437,0 -0.8916,0.16211 -1.22167,0.48633 -0.33008,0.32422 -0.5127,0.75781 -0.54786,1.30078 z"
       style="font-size:12px;text-align:center;text-anchor:middle"
       id="path3380" />
    <path
       d="m 94.298019,187.3832 0,0.2168 -3.404296,0 0,-0.2168 0.28125,0 c 0.328124,0 0.566405,-0.0957 0.714843,-0.28711 0.09375,-0.125 0.140624,-0.42578 0.140625,-0.90234 l 0,-5.13281 c -10e-7,-0.40234 -0.02539,-0.66796 -0.07617,-0.79688 -0.03906,-0.0976 -0.119141,-0.18163 -0.240234,-0.25195 -0.171876,-0.0937 -0.351563,-0.14062 -0.539062,-0.14063 l -0.28125,0 0,-0.21679 3.404296,0 0,0.21679 -0.287109,0 c -0.324222,1e-5 -0.56055,0.0957 -0.708984,0.28711 -0.09766,0.12501 -0.146487,0.42579 -0.146485,0.90235 l 0,5.13281 c -2e-6,0.40234 0.02539,0.66797 0.07617,0.79687 0.03906,0.0977 0.121091,0.18165 0.246094,0.25196 0.167966,0.0937 0.3457,0.14062 0.533203,0.14062 z"
       style="font-size:12px;font-variant:normal;font-stretch:normal;text-align:center;text-anchor:middle;font-family:Serif;-inkscape-font-specification:Serif"
       id="path3382" />
    <path
       d="m 104.12419,183.77383 -6.304686,2.73047 0,-0.50391 5.431636,-2.35547 -5.431636,-2.3789 0,-0.53321 6.304686,2.75391 z"
       style="font-size:12px;font-variant:normal;font-stretch:normal;text-align:center;text-anchor:middle;font-family:Serif;-inkscape-font-specification:Serif"
       id="path3384" />
    <path
       d="m 107.80974,183.67422 c 0,-0.90625 0.13672,-1.68652 0.41015,-2.34082 0.27344,-0.65429 0.63672,-1.1416 1.08985,-1.46192 0.35156,-0.25389 0.71484,-0.38085 1.08984,-0.38086 0.60937,1e-5 1.15625,0.31056 1.64063,0.93165 0.60546,0.76953 0.90819,1.8125 0.9082,3.1289 -10e-6,0.92188 -0.13282,1.70508 -0.39844,2.34961 -0.26563,0.64453 -0.60449,1.11231 -1.0166,1.40332 -0.41211,0.29102 -0.80957,0.43652 -1.19238,0.43652 -0.75782,0 -1.38868,-0.44726 -1.89258,-1.34179 -0.42578,-0.75391 -0.63867,-1.66211 -0.63867,-2.72461 z m 1.14844,0.14648 c -1e-5,1.09376 0.13476,1.98633 0.40429,2.67774 0.22266,0.58203 0.55469,0.87304 0.9961,0.87304 0.21093,0 0.42968,-0.0947 0.65625,-0.28418 0.22655,-0.18945 0.39843,-0.50683 0.51562,-0.95214 0.17968,-0.67188 0.26953,-1.61914 0.26953,-2.8418 0,-0.90625 -0.0937,-1.6621 -0.28125,-2.26758 -0.14063,-0.44921 -0.32227,-0.76757 -0.54492,-0.95508 -0.16016,-0.1289 -0.35352,-0.19335 -0.58008,-0.19336 -0.26563,1e-5 -0.50195,0.11915 -0.70898,0.35743 -0.28125,0.32422 -0.47266,0.83399 -0.57422,1.52929 -0.10156,0.69532 -0.15235,1.38087 -0.15234,2.05664 z"
       style="font-size:12px;font-variant:normal;font-stretch:normal;text-align:center;text-anchor:middle;font-family:Serif;-inkscape-font-specification:Serif"
       id="path3386" />
    <path
       d="m 125.48747,182.46719 c 0.51952,0.56641 0.96874,0.99707 1.34766,1.29199 0.37889,0.29492 0.73632,0.51465 1.07226,0.65918 l 0,0.26367 c -0.38673,0.1875 -0.76173,0.42676 -1.125,0.71777 -0.36329,0.29102 -0.79688,0.71778 -1.30078,1.28028 l -0.45117,0 c 0.36718,-0.78516 0.75195,-1.38867 1.1543,-1.81055 l -9.3457,0 0,-0.5918 9.3457,0 c -0.29689,-0.3789 -0.50392,-0.66015 -0.6211,-0.84375 -0.11719,-0.18359 -0.29102,-0.50585 -0.52148,-0.96679 z"
       style="font-size:12px;font-variant:normal;font-stretch:normal;text-align:center;text-anchor:middle;font-family:Serif;-inkscape-font-specification:Serif"
       id="path3388" />
    <path
       d="m 134.79216,186.82656 c -0.55078,0.42578 -0.89649,0.67188 -1.03711,0.73828 -0.21094,0.0977 -0.43555,0.14649 -0.67383,0.14649 -0.37109,0 -0.67676,-0.12696 -0.91699,-0.38086 -0.24023,-0.25391 -0.36035,-0.58789 -0.36035,-1.00195 0,-0.26172 0.0586,-0.48828 0.17578,-0.67969 0.16016,-0.26563 0.43848,-0.51562 0.83496,-0.75 0.39648,-0.23437 1.05566,-0.51953 1.97754,-0.85547 l 0,-0.21094 c 0,-0.53515 -0.085,-0.90234 -0.25488,-1.10156 -0.16993,-0.19921 -0.417,-0.29882 -0.74121,-0.29883 -0.2461,1e-5 -0.44141,0.0664 -0.58594,0.19922 -0.14844,0.13282 -0.22266,0.28516 -0.22266,0.45703 l 0.0117,0.33984 c 0,0.1797 -0.0459,0.31837 -0.13769,0.41602 -0.0918,0.0977 -0.21192,0.14649 -0.36036,0.14648 -0.14453,1e-5 -0.26269,-0.0508 -0.35449,-0.15234 -0.0918,-0.10156 -0.13769,-0.24023 -0.13769,-0.41601 0,-0.33594 0.17187,-0.64453 0.51562,-0.92579 0.34375,-0.28124 0.82617,-0.42187 1.44727,-0.42187 0.47656,0 0.86718,0.0801 1.17187,0.24023 0.23047,0.1211 0.40039,0.31056 0.50977,0.56836 0.0703,0.16798 0.10546,0.51173 0.10547,1.03125 l 0,1.82227 c -1e-5,0.51172 0.01,0.82519 0.0293,0.94043 0.0195,0.11523 0.0518,0.19238 0.0967,0.23144 0.0449,0.0391 0.0967,0.0586 0.15528,0.0586 0.0625,0 0.11718,-0.0137 0.16406,-0.041 0.082,-0.0508 0.24023,-0.19336 0.47461,-0.42773 l 0,0.32812 c -0.43751,0.58594 -0.85547,0.87891 -1.25391,0.87891 -0.19141,0 -0.34375,-0.0664 -0.45703,-0.19922 -0.11328,-0.13281 -0.17188,-0.35937 -0.17578,-0.67969 z m 0,-0.38086 0,-2.04492 c -0.58985,0.23438 -0.97071,0.40039 -1.14258,0.49805 -0.30859,0.17188 -0.5293,0.35156 -0.66211,0.53906 -0.13281,0.1875 -0.19922,0.39258 -0.19922,0.61523 0,0.28126 0.084,0.51465 0.25196,0.7002 0.16796,0.18555 0.36132,0.27832 0.58008,0.27832 0.29687,0 0.68749,-0.19531 1.17187,-0.58594 z"
       style="font-size:12px;font-variant:normal;font-stretch:normal;text-align:center;text-anchor:middle;font-family:Serif;-inkscape-font-specification:Serif"
       id="path3390" />
    <path
       d="M 140.27278,189.00594 139.91096,190 l -3.04692,0 0,-0.14092 c 0.8963,-0.81759 1.52726,-1.48537 1.8929,-2.00335 0.36562,-0.51797 0.54844,-0.99151 0.54844,-1.42062 0,-0.32754 -0.1003,-0.59669 -0.30088,-0.80744 -0.20059,-0.21074 -0.44054,-0.31611 -0.71984,-0.31612 -0.25391,10e-6 -0.48179,0.0743 -0.68365,0.22281 -0.20186,0.14854 -0.35103,0.36627 -0.44752,0.65318 l -0.14092,0 c 0.0635,-0.46973 0.22662,-0.83028 0.48942,-1.08165 0.26279,-0.25137 0.59097,-0.37705 0.98453,-0.37706 0.41895,1e-5 0.76871,0.13458 1.04928,0.40372 0.28057,0.26915 0.42086,0.58653 0.42086,0.95216 0,0.26153 -0.0609,0.52306 -0.18282,0.78458 -0.18789,0.41134 -0.49258,0.84679 -0.91407,1.30637 -0.63224,0.69063 -1.02707,1.10705 -1.18449,1.24923 l 1.34826,0 c 0.27422,0 0.46656,-0.0102 0.57701,-0.0305 0.11045,-0.0203 0.21011,-0.0616 0.29898,-0.12378 0.0889,-0.0622 0.16631,-0.15044 0.23233,-0.2647 z"
       style="font-size:65.00091553%;baseline-shift:sub"
       id="path3392" />
    <path
       d="m 143.81331,183.46328 6.30469,-2.73047 0,0.50977 -5.42579,2.35547 5.42579,2.3789 0,0.52735 -6.30469,-2.75391 z"
       style="font-size:12px;font-variant:normal;font-stretch:normal;text-align:center;text-anchor:middle;font-family:Serif;-inkscape-font-specification:Serif"
       id="path3394" />
    <path
       d="m 153.80354,183.67422 c 0,-0.90625 0.13672,-1.68652 0.41016,-2.34082 0.27344,-0.65429 0.63672,-1.1416 1.08984,-1.46192 0.35156,-0.25389 0.71484,-0.38085 1.08985,-0.38086 0.60937,1e-5 1.15624,0.31056 1.64062,0.93165 0.60547,0.76953 0.9082,1.8125 0.9082,3.1289 0,0.92188 -0.13281,1.70508 -0.39843,2.34961 -0.26563,0.64453 -0.6045,1.11231 -1.0166,1.40332 -0.41212,0.29102 -0.80958,0.43652 -1.19239,0.43652 -0.75781,0 -1.38867,-0.44726 -1.89258,-1.34179 -0.42578,-0.75391 -0.63867,-1.66211 -0.63867,-2.72461 z m 1.14844,0.14648 c 0,1.09376 0.13476,1.98633 0.4043,2.67774 0.22265,0.58203 0.55468,0.87304 0.99609,0.87304 0.21094,0 0.42969,-0.0947 0.65625,-0.28418 0.22656,-0.18945 0.39843,-0.50683 0.51563,-0.95214 0.17968,-0.67188 0.26952,-1.61914 0.26953,-2.8418 -1e-5,-0.90625 -0.0938,-1.6621 -0.28125,-2.26758 -0.14063,-0.44921 -0.32227,-0.76757 -0.54492,-0.95508 -0.16016,-0.1289 -0.35352,-0.19335 -0.58008,-0.19336 -0.26563,1e-5 -0.50196,0.11915 -0.70899,0.35743 -0.28125,0.32422 -0.47265,0.83399 -0.57422,1.52929 -0.10156,0.69532 -0.15234,1.38087 -0.15234,2.05664 z"
       style="font-size:12px;font-variant:normal;font-stretch:normal;text-align:center;text-anchor:middle;font-family:Serif;-inkscape-font-specification:Serif"
       id="path3396" />
  </g>
</svg>
