<?xml version="1.0" encoding="UTF-8" standalone="no"?>
<svg
   xmlns:dc="http://purl.org/dc/elements/1.1/"
   xmlns:cc="http://creativecommons.org/ns#"
   xmlns:rdf="http://www.w3.org/1999/02/22-rdf-syntax-ns#"
   xmlns:svg="http://www.w3.org/2000/svg"
   xmlns="http://www.w3.org/2000/svg"
   xmlns:sodipodi="http://sodipodi.sourceforge.net/DTD/sodipodi-0.dtd"
   xmlns:inkscape="http://www.inkscape.org/namespaces/inkscape"
   version="1.0"
   width="250"
   height="200"
   id="svg3759"
   inkscape:version="0.48.4 r9939"
   sodipodi:docname="vertical_steerer.svg">
  <metadata
     id="metadata3897">
    <rdf:RDF>
      <cc:Work
         rdf:about="">
        <dc:format>image/svg+xml</dc:format>
        <dc:type
           rdf:resource="http://purl.org/dc/dcmitype/StillImage" />
        <dc:title></dc:title>
      </cc:Work>
    </rdf:RDF>
  </metadata>
  <sodipodi:namedview
     pagecolor="#ffffff"
     bordercolor="#666666"
     borderopacity="1"
     objecttolerance="10"
     gridtolerance="10"
     guidetolerance="10"
     inkscape:pageopacity="0"
     inkscape:pageshadow="2"
     inkscape:window-width="1280"
     inkscape:window-height="738"
     id="namedview3895"
     showgrid="false"
     inkscape:zoom="2"
     inkscape:cx="178.77757"
     inkscape:cy="96.709866"
     inkscape:window-x="-8"
     inkscape:window-y="-8"
     inkscape:window-maximized="1"
     inkscape:current-layer="svg3759" />
  <defs
     id="defs3761" />
  <g
     id="g3763"
     transform="matrix(0.5,0,0,0.5,36.461074,1.2090388)">
    <path
       style="fill:#bfbfbf;fill-opacity:1;fill-rule:evenodd;stroke:none"
       d="m 134.29283,239.8535 13.27831,-32.85818 c 7.33308,-18.15453 17.69503,-31.08587 23.13389,-28.8822 5.44823,2.1943 3.91972,18.69841 -3.41335,36.84356 l -13.27831,32.86756 z"
       id="path3765"
       inkscape:connector-curvature="0" />
    <path
       style="fill:none;stroke:#000000;stroke-width:0.30945209px;stroke-linecap:butt;stroke-linejoin:round;stroke-opacity:1;stroke-dasharray:none"
       d="m 134.29283,239.8535 13.27831,-32.85818 c 7.33308,-18.15453 17.69503,-31.08587 23.13389,-28.8822 5.44823,2.1943 3.91972,18.69841 -3.41335,36.84356 l -13.27831,32.86756 z"
       id="path3767"
       inkscape:connector-curvature="0" />
    <path
       style="fill:#fac090;fill-opacity:1;fill-rule:evenodd;stroke:none"
       d="m 123.04003,258.25184 c -1.81921,-0.74081 -2.6913,-2.80383 -1.95987,-4.62303 l 5.30758,-13.13765 c 0.74081,-1.8192 2.80382,-2.69129 4.61365,-1.95986 l 26.29405,10.62452 c 1.8192,0.73143 2.69129,2.79445 1.95986,4.61365 l -5.30757,13.13765 c -0.74081,1.8192 -2.80383,2.70067 -4.61365,1.95986 z"
       id="path3769"
       inkscape:connector-curvature="0" />
    <path
       style="fill:none;stroke:#000000;stroke-width:0.30945209px;stroke-linecap:butt;stroke-linejoin:round;stroke-opacity:1;stroke-dasharray:none"
       d="m 123.04003,258.25184 c -1.81921,-0.74081 -2.6913,-2.80383 -1.95987,-4.62303 l 5.30758,-13.13765 c 0.74081,-1.8192 2.80382,-2.69129 4.61365,-1.95986 l 26.29405,10.62452 c 1.8192,0.73143 2.69129,2.79445 1.95986,4.61365 l -5.30757,13.13765 c -0.74081,1.8192 -2.80383,2.70067 -4.61365,1.95986 z"
       id="path3771"
       inkscape:connector-curvature="0" />
    <path
       style="fill:#bfbfbf;fill-opacity:1;fill-rule:evenodd;stroke:none"
       d="M 263.49377,185.01484 230.6262,171.73653 c -18.14514,-7.33307 -34.64925,-8.86158 -36.84355,-3.42272 -2.20367,5.44823 10.72767,15.81018 28.8822,23.14326 l 32.85818,13.27831 z"
       id="path3773"
       inkscape:connector-curvature="0" />
    <path
       style="fill:none;stroke:#000000;stroke-width:0.30945209px;stroke-linecap:butt;stroke-linejoin:round;stroke-opacity:1;stroke-dasharray:none"
       d="M 263.49377,185.01484 230.6262,171.73653 c -18.14514,-7.33307 -34.64925,-8.86158 -36.84355,-3.42272 -2.20367,5.44823 10.72767,15.81018 28.8822,23.14326 l 32.85818,13.27831 z"
       id="path3775"
       inkscape:connector-curvature="0" />
    <path
       style="fill:#fac090;fill-opacity:1;fill-rule:evenodd;stroke:none"
       d="m 284.53651,189.69413 c 0.73143,-1.8192 -0.14066,-3.88221 -1.95986,-4.61365 L 269.439,179.77291 c -1.8192,-0.74081 -3.88222,0.14066 -4.62303,1.95049 l -10.61514,26.29405 c -0.74081,1.8192 0.14066,3.88221 1.95986,4.61365 l 13.13765,5.31695 c 1.8192,0.73143 3.88222,-0.15004 4.61365,-1.95987 z"
       id="path3777"
       inkscape:connector-curvature="0" />
    <path
       style="fill:none;stroke:#000000;stroke-width:0.30945209px;stroke-linecap:butt;stroke-linejoin:round;stroke-opacity:1;stroke-dasharray:none"
       d="m 284.53651,189.69413 c 0.73143,-1.8192 -0.14066,-3.88221 -1.95986,-4.61365 L 269.439,179.77291 c -1.8192,-0.74081 -3.88222,0.14066 -4.62303,1.95049 l -10.61514,26.29405 c -0.74081,1.8192 0.14066,3.88221 1.95986,4.61365 l 13.13765,5.31695 c 1.8192,0.73143 3.88222,-0.15004 4.61365,-1.95987 z"
       id="path3779"
       inkscape:connector-curvature="0" />
    <path
       style="fill:#bfbfbf;fill-opacity:1;fill-rule:evenodd;stroke:none"
       d="m 99.16533,118.6233 32.86756,13.27831 c 18.15453,7.33308 31.08587,17.69503 28.8822,23.13389 -2.20368,5.44823 -18.69841,3.91972 -36.85293,-3.41335 L 91.203971,138.34384 z"
       id="path3781"
       inkscape:connector-curvature="0" />
    <path
       style="fill:none;stroke:#000000;stroke-width:0.30945209px;stroke-linecap:butt;stroke-linejoin:round;stroke-opacity:1;stroke-dasharray:none"
       d="m 99.16533,118.6233 32.86756,13.27831 c 18.15453,7.33308 31.08587,17.69503 28.8822,23.13389 -2.20368,5.44823 -18.69841,3.91972 -36.85293,-3.41335 L 91.203971,138.34384 z"
       id="path3783"
       inkscape:connector-curvature="0" />
    <path
       style="fill:#fac090;fill-opacity:1;fill-rule:evenodd;stroke:none"
       d="m 80.776373,107.3705 c 0.731433,-1.8192 2.803824,-2.6913 4.61365,-1.95986 l 13.147025,5.30757 c 1.819202,0.74081 2.691292,2.80382 1.959862,4.61365 l -10.624521,26.29405 c -0.731432,1.8192 -2.794446,2.69129 -4.613649,1.95986 L 72.111715,138.2782 c -1.809826,-0.73143 -2.691296,-2.80382 -1.959863,-4.61365 z"
       id="path3785"
       inkscape:connector-curvature="0" />
    <path
       style="fill:none;stroke:#000000;stroke-width:0.30945209px;stroke-linecap:butt;stroke-linejoin:round;stroke-opacity:1;stroke-dasharray:none"
       d="m 80.776373,107.3705 c 0.731433,-1.8192 2.803824,-2.6913 4.61365,-1.95986 l 13.147025,5.30757 c 1.819202,0.74081 2.691292,2.80382 1.959862,4.61365 l -10.624521,26.29405 c -0.731432,1.8192 -2.794446,2.69129 -4.613649,1.95986 L 72.111715,138.2782 c -1.809826,-0.73143 -2.691296,-2.80382 -1.959863,-4.61365 z"
       id="path3787"
       inkscape:connector-curvature="0" />
    <path
       style="fill:#bfbfbf;fill-opacity:1;fill-rule:evenodd;stroke:none"
       d="m 220.61121,82.97067 -13.27831,32.86756 c -7.33308,18.14515 -17.68565,31.0765 -23.13389,28.8822 -5.44823,-2.20368 -3.91035,-18.69841 3.42273,-36.85293 l 13.27831,-32.858188 z"
       id="path3789"
       inkscape:connector-curvature="0" />
    <path
       style="fill:none;stroke:#000000;stroke-width:0.30945209px;stroke-linecap:butt;stroke-linejoin:round;stroke-opacity:1;stroke-dasharray:none"
       d="m 220.61121,82.97067 -13.27831,32.86756 c -7.33308,18.14515 -17.68565,31.0765 -23.13389,28.8822 -5.44823,-2.20368 -3.91035,-18.69841 3.42273,-36.85293 l 13.27831,-32.858188 z"
       id="path3791"
       inkscape:connector-curvature="0" />
    <path
       style="fill:#fac090;fill-opacity:1;fill-rule:evenodd;stroke:none"
       d="m 231.86401,64.581714 c 1.81921,0.731432 2.70068,2.794446 1.95987,4.613649 l -5.30758,13.147026 c -0.73143,1.809825 -2.80382,2.691295 -4.61365,1.959863 L 197.6086,73.67773 c -1.80982,-0.731432 -2.69129,-2.803824 -1.95986,-4.613649 l 5.31695,-13.147026 c 0.73143,-1.819203 2.79445,-2.691295 4.61365,-1.959863 z"
       id="path3793"
       inkscape:connector-curvature="0" />
    <path
       style="fill:none;stroke:#000000;stroke-width:0.30945209px;stroke-linecap:butt;stroke-linejoin:round;stroke-opacity:1;stroke-dasharray:none"
       d="m 231.86401,64.581714 c 1.81921,0.731432 2.70068,2.794446 1.95987,4.613649 l -5.30758,13.147026 c -0.73143,1.809825 -2.80382,2.691295 -4.61365,1.959863 L 197.6086,73.67773 c -1.80982,-0.731432 -2.69129,-2.803824 -1.95986,-4.613649 l 5.31695,-13.147026 c 0.73143,-1.819203 2.79445,-2.691295 4.61365,-1.959863 z"
       id="path3795"
       inkscape:connector-curvature="0" />
    <path
       style="fill:#bfbfbf;fill-opacity:1;fill-rule:evenodd;stroke:none"
       d="m 91.466537,186.36518 32.623753,-13.85033 c 18.02324,-7.6519 34.48984,-9.47111 36.78729,-4.06038 2.29745,5.40134 -10.45573,15.98835 -28.46959,23.63088 l -32.633134,13.85033 z"
       id="path3797"
       inkscape:connector-curvature="0" />
    <path
       style="fill:none;stroke:#000000;stroke-width:0.30945209px;stroke-linecap:butt;stroke-linejoin:round;stroke-opacity:1;stroke-dasharray:none"
       d="m 91.466537,186.36518 32.623753,-13.85033 c 18.02324,-7.6519 34.48984,-9.47111 36.78729,-4.06038 2.29745,5.40134 -10.45573,15.98835 -28.46959,23.63088 l -32.633134,13.85033 z"
       id="path3799"
       inkscape:connector-curvature="0" />
    <path
       style="fill:#fac090;fill-opacity:1;fill-rule:evenodd;stroke:none"
       d="m 70.50819,191.41019 c -0.768941,-1.80045 0.07502,-3.88222 1.875468,-4.65116 l 13.053251,-5.54201 c 1.800449,-0.75956 3.882218,0.075 4.641782,1.88485 l 11.084009,26.09712 c 0.75957,1.80045 -0.075,3.88222 -1.875465,4.65116 l -13.053252,5.54201 c -1.800448,0.75956 -3.882217,-0.075 -4.651159,-1.88485 z"
       id="path3801"
       inkscape:connector-curvature="0" />
    <path
       style="fill:none;stroke:#000000;stroke-width:0.30945209px;stroke-linecap:butt;stroke-linejoin:round;stroke-opacity:1;stroke-dasharray:none"
       d="m 70.50819,191.41019 c -0.768941,-1.80045 0.07502,-3.88222 1.875468,-4.65116 l 13.053251,-5.54201 c 1.800449,-0.75956 3.882218,0.075 4.641782,1.88485 l 11.084009,26.09712 c 0.75957,1.80045 -0.075,3.88222 -1.875465,4.65116 l -13.053252,5.54201 c -1.800448,0.75956 -3.882217,-0.075 -4.651159,-1.88485 z"
       id="path3803"
       inkscape:connector-curvature="0" />
    <path
       style="fill:#bfbfbf;fill-opacity:1;fill-rule:evenodd;stroke:none"
       d="m 221.60521,238.9439 -13.85033,-32.63313 c -7.6519,-18.01386 -18.22954,-30.76704 -23.64026,-28.46959 -5.40135,2.29745 -3.58214,18.76405 4.06038,36.77791 l 13.85033,32.63313 z"
       id="path3805"
       inkscape:connector-curvature="0" />
    <path
       style="fill:none;stroke:#000000;stroke-width:0.30945209px;stroke-linecap:butt;stroke-linejoin:round;stroke-opacity:1;stroke-dasharray:none"
       d="m 221.60521,238.9439 -13.85033,-32.63313 c -7.6519,-18.01386 -18.22954,-30.76704 -23.64026,-28.46959 -5.40135,2.29745 -3.58214,18.76405 4.06038,36.77791 l 13.85033,32.63313 z"
       id="path3807"
       inkscape:connector-curvature="0" />
    <path
       style="fill:#fac090;fill-opacity:1;fill-rule:evenodd;stroke:none"
       d="m 233.17684,257.13593 c 1.80045,-0.76894 2.64441,-2.85071 1.87547,-4.65115 l -5.53263,-13.05326 c -0.76894,-1.80045 -2.85071,-2.64441 -4.65116,-1.87546 l -26.1065,11.08401 c -1.80045,0.75956 -2.64441,2.84133 -1.87547,4.64178 l 5.54201,13.05325 c 0.75956,1.80045 2.84133,2.64441 4.64178,1.87547 z"
       id="path3809"
       inkscape:connector-curvature="0" />
    <path
       style="fill:none;stroke:#000000;stroke-width:0.30945209px;stroke-linecap:butt;stroke-linejoin:round;stroke-opacity:1;stroke-dasharray:none"
       d="m 233.17684,257.13593 c 1.80045,-0.76894 2.64441,-2.85071 1.87547,-4.65115 l -5.53263,-13.05326 c -0.76894,-1.80045 -2.85071,-2.64441 -4.65116,-1.87546 l -26.1065,11.08401 c -1.80045,0.75956 -2.64441,2.84133 -1.87547,4.64178 l 5.54201,13.05325 c 0.75956,1.80045 2.84133,2.64441 4.64178,1.87547 z"
       id="path3811"
       inkscape:connector-curvature="0" />
    <path
       style="fill:#bfbfbf;fill-opacity:1;fill-rule:evenodd;stroke:none"
       d="m 152.35358,75.797008 13.85033,32.633132 c 7.6519,18.01386 9.47111,34.48984 4.06038,36.77791 -5.40134,2.29745 -15.98836,-10.44635 -23.64026,-28.46959 L 132.78308,84.105328 z"
       id="path3813"
       inkscape:connector-curvature="0" />
    <path
       style="fill:none;stroke:#000000;stroke-width:0.30945209px;stroke-linecap:butt;stroke-linejoin:round;stroke-opacity:1;stroke-dasharray:none"
       d="m 152.35358,75.797008 13.85033,32.633132 c 7.6519,18.01386 9.47111,34.48984 4.06038,36.77791 -5.40134,2.29745 -15.98836,-10.44635 -23.64026,-28.46959 L 132.78308,84.105328 z"
       id="path3815"
       inkscape:connector-curvature="0" />
    <path
       style="fill:#fac090;fill-opacity:1;fill-rule:evenodd;stroke:none"
       d="m 147.30857,54.838662 c 1.80045,-0.768942 3.88222,0.07502 4.65116,1.875467 l 5.53263,13.053252 c 0.76894,1.800448 -0.075,3.882217 -1.87547,4.651159 l -26.09712,11.074633 c -1.80983,0.768942 -3.8916,-0.07502 -4.65116,-1.875467 L 119.3266,70.564454 c -0.75956,-1.800448 0.075,-3.882217 1.87547,-4.641781 z"
       id="path3817"
       inkscape:connector-curvature="0" />
    <path
       style="fill:none;stroke:#000000;stroke-width:0.30945209px;stroke-linecap:butt;stroke-linejoin:round;stroke-opacity:1;stroke-dasharray:none"
       d="m 147.30857,54.838662 c 1.80045,-0.768942 3.88222,0.07502 4.65116,1.875467 l 5.53263,13.053252 c 0.76894,1.800448 -0.075,3.882217 -1.87547,4.651159 l -26.09712,11.074633 c -1.80983,0.768942 -3.8916,-0.07502 -4.65116,-1.875467 L 119.3266,70.564454 c -0.75956,-1.800448 0.075,-3.882217 1.87547,-4.641781 z"
       id="path3819"
       inkscape:connector-curvature="0" />
    <path
       style="fill:#bfbfbf;fill-opacity:1;fill-rule:evenodd;stroke:none"
       d="m 263.4375,136.46837 -32.62375,13.85033 c -18.02324,7.64253 -34.48984,9.46173 -36.78729,4.06038 -2.28807,-5.41072 10.45573,-15.98835 28.47897,-23.64026 l 32.62375,-13.85033 z"
       id="path3821"
       inkscape:connector-curvature="0" />
    <path
       style="fill:none;stroke:#000000;stroke-width:0.30945209px;stroke-linecap:butt;stroke-linejoin:round;stroke-opacity:1;stroke-dasharray:none"
       d="m 263.4375,136.46837 -32.62375,13.85033 c -18.02324,7.64253 -34.48984,9.46173 -36.78729,4.06038 -2.28807,-5.41072 10.45573,-15.98835 28.47897,-23.64026 l 32.62375,-13.85033 z"
       id="path3823"
       inkscape:connector-curvature="0" />
    <path
       style="fill:#fac090;fill-opacity:1;fill-rule:evenodd;stroke:none"
       d="m 284.40523,131.42337 c 0.75956,1.80044 -0.075,3.88221 -1.88485,4.64178 l -13.04387,5.542 c -1.80045,0.76894 -3.88222,-0.075 -4.65116,-1.87546 l -11.08401,-26.10651 c -0.75957,-1.80045 0.0844,-3.88222 1.88484,-4.64178 l 13.05325,-5.54201 c 1.80045,-0.76894 3.88222,0.075 4.64179,1.87547 z"
       id="path3825"
       inkscape:connector-curvature="0" />
    <path
       style="fill:none;stroke:#000000;stroke-width:0.30945209px;stroke-linecap:butt;stroke-linejoin:round;stroke-opacity:1;stroke-dasharray:none"
       d="m 284.40523,131.42337 c 0.75956,1.80044 -0.075,3.88221 -1.88485,4.64178 l -13.04387,5.542 c -1.80045,0.76894 -3.88222,-0.075 -4.65116,-1.87546 l -11.08401,-26.10651 c -0.75957,-1.80045 0.0844,-3.88222 1.88484,-4.64178 l 13.05325,-5.54201 c 1.80045,-0.76894 3.88222,0.075 4.64179,1.87547 z"
       id="path3827"
       inkscape:connector-curvature="0" />
    <path
       style="fill:none;stroke:#000000;stroke-width:0.62828153px;stroke-linecap:butt;stroke-linejoin:round;stroke-opacity:1;stroke-dasharray:none"
       d="m 170.36744,161.70278 c 0,-3.91972 3.16954,-7.08926 7.08927,-7.08926 3.91035,0 7.08927,3.16954 7.08927,7.08926 0,3.91035 -3.17892,7.08927 -7.08927,7.08927 -3.91973,0 -7.08927,-3.17892 -7.08927,-7.08927"
       id="path3829"
       inkscape:connector-curvature="0" />
    <path
       style="fill:#000000;fill-opacity:1;fill-rule:evenodd;stroke:none"
       d="m 175.20615,161.70278 c 0,-1.24718 1.00337,-2.25056 2.25056,-2.25056 1.23781,0 2.25056,1.00338 2.25056,2.25056 0,1.23781 -1.01275,2.25056 -2.25056,2.25056 -1.24719,0 -2.25056,-1.01275 -2.25056,-2.25056"
       id="path3831"
       inkscape:connector-curvature="0" />
    <path
       style="fill:none;stroke:#000000;stroke-width:0.62828153px;stroke-linecap:butt;stroke-linejoin:round;stroke-opacity:1;stroke-dasharray:none"
       d="m 175.20615,161.70278 c 0,-1.24718 1.00337,-2.25056 2.25056,-2.25056 1.23781,0 2.25056,1.00338 2.25056,2.25056 0,1.23781 -1.01275,2.25056 -2.25056,2.25056 -1.24719,0 -2.25056,-1.01275 -2.25056,-2.25056"
       id="path3833"
       inkscape:connector-curvature="0" />
    <text
       xml:space="preserve"
       x="316.85059"
       y="150.53848"
       style="font-size:13.20328903px;font-style:normal;font-weight:normal;text-align:start;text-anchor:start;fill:#000000;font-family:Calibri"
       id="text3835">PS V+</text>
    <text
       xml:space="preserve"
       x="316.85071"
       y="182.40155"
       style="font-size:13.20328903px;font-style:normal;font-weight:normal;text-align:start;text-anchor:start;fill:#000000;font-family:Calibri"
       id="text3837">PS V</text>
    <text
       xml:space="preserve"
       x="340.10648"
       y="182.40155"
       style="font-size:13.20328903px;font-style:normal;font-weight:normal;text-align:start;text-anchor:start;fill:#000000;font-family:Calibri"
       id="text3839">-</text>
    <path
       style="fill:#4a7ebb;fill-opacity:1;fill-rule:nonzero;stroke:#4a7ebb;stroke-width:0.00937734px;stroke-linecap:butt;stroke-linejoin:round;stroke-opacity:1;stroke-dasharray:none"
       d="m 258.73946,125.38436 -62.69687,26.61288 1.09715,2.58815 62.69687,-26.61288 z m -57.42681,19.23292 -7.28619,9.7618 12.07801,1.53789 c 0.77832,0.10315 1.48162,-0.44074 1.57539,-1.21906 0.10315,-0.76894 -0.45011,-1.47224 -1.21905,-1.56601 l -9.68679,-1.23781 0.94711,2.24118 5.84208,-7.83007 c 0.46887,-0.62828 0.33759,-1.50975 -0.28132,-1.96924 -0.62828,-0.46887 -1.50975,-0.33759 -1.96924,0.28132 z"
       id="path3841"
       inkscape:connector-curvature="0" />
    <path
       style="fill:#ff0000;fill-opacity:1;fill-rule:nonzero;stroke:#ff0000;stroke-width:0.00937734px;stroke-linecap:butt;stroke-linejoin:round;stroke-opacity:1;stroke-dasharray:none"
       d="m 274.69968,139.38472 -12.75317,-30.06374 2.58814,-1.09714 12.76256,30.06374 z m -14.09413,-21.099 1.53788,-12.07801 9.76181,7.28619 c 0.62828,0.45949 0.75019,1.34096 0.2907,1.96924 -0.46887,0.6189 -1.35034,0.75019 -1.96924,0.28132 l -7.83008,-5.84208 2.23181,-0.94711 -1.22844,9.68679 c -0.10315,0.76894 -0.80645,1.31282 -1.57539,1.21905 -0.76894,-0.10315 -1.31282,-0.80645 -1.21905,-1.57539 z"
       id="path3843"
       inkscape:connector-curvature="0" />
    <path
       style="fill:#4a7ebb;fill-opacity:1;fill-rule:nonzero;stroke:#4a7ebb;stroke-width:0.00937734px;stroke-linecap:butt;stroke-linejoin:round;stroke-opacity:1;stroke-dasharray:none"
       d="m 186.54335,142.66679 25.51573,-63.156357 -2.6069,-1.050262 -25.51573,63.146979 z m -4.0979,-9.99624 1.75356,12.04988 9.63053,-7.45498 c 0.6189,-0.47825 0.73143,-1.35972 0.25319,-1.96924 -0.47825,-0.61891 -1.35972,-0.73144 -1.97862,-0.25319 l -7.72693,5.98274 2.25994,0.9096 -1.4066,-9.66803 c -0.11253,-0.76895 -0.82521,-1.30345 -1.59415,-1.19093 -0.76894,0.11253 -1.30345,0.82521 -1.19092,1.59415 z"
       id="path3845"
       inkscape:connector-curvature="0" />
    <path
       style="fill:#ff0000;fill-opacity:1;fill-rule:nonzero;stroke:#ff0000;stroke-width:0.00937734px;stroke-linecap:butt;stroke-linejoin:round;stroke-opacity:1;stroke-dasharray:none"
       d="m 201.4158,62.228003 30.27942,12.237423 -1.05026,2.6069 -30.27942,-12.237424 z m 4.34171,9.893089 -7.45498,-9.630524 12.04987,-1.753562 c 0.76895,-0.112528 1.491,0.42198 1.59415,1.190922 0.11253,0.768941 -0.42198,1.481619 -1.18154,1.594147 l -9.67741,1.4066 0.9096,-2.259938 5.98274,7.726925 c 0.47824,0.618905 0.36571,1.500374 -0.25319,1.978618 -0.60953,0.468867 -1.491,0.356339 -1.96924,-0.253188 z"
       id="path3847"
       inkscape:connector-curvature="0" />
    <path
       style="fill:#4a7ebb;fill-opacity:1;fill-rule:nonzero;stroke:#4a7ebb;stroke-width:0.00937734px;stroke-linecap:butt;stroke-linejoin:round;stroke-opacity:1;stroke-dasharray:none"
       d="m 144.94548,81.967295 26.61288,62.696865 -2.58814,1.09715 -26.61288,-62.696867 z m -3.91972,10.061882 1.53788,-12.078009 9.76181,7.28619 c 0.6189,0.459489 0.75018,1.340959 0.2907,1.969241 -0.46887,0.618904 -1.35034,0.750186 -1.96925,0.28132 l -7.83007,-5.842081 2.23181,-0.947111 -1.22844,9.686789 c -0.10315,0.778318 -0.80645,1.322204 -1.57539,1.219053 -0.76894,-0.09377 -1.31283,-0.797073 -1.21905,-1.575392 z"
       id="path3849"
       inkscape:connector-curvature="0" />
    <path
       style="fill:#ff0000;fill-opacity:1;fill-rule:nonzero;stroke:#ff0000;stroke-width:0.00937734px;stroke-linecap:butt;stroke-linejoin:round;stroke-opacity:1;stroke-dasharray:none"
       d="m 151.61277,63.034453 -30.06374,12.762555 1.09715,2.588145 30.06374,-12.762555 z m -4.17291,9.968109 7.29556,-9.761807 -12.08738,-1.537883 0,0 c -0.76894,-0.103151 -1.47224,0.440735 -1.5754,1.219053 -0.0938,0.768942 0.45012,1.472242 1.21906,1.566016 l 9.69616,1.237808 -0.95648,-2.241183 -5.84208,7.830075 c -0.45949,0.628282 -0.33759,1.509751 0.29069,1.969241 0.61891,0.468867 1.50038,0.337584 1.95987,-0.28132 z"
       id="path3851"
       inkscape:connector-curvature="0" />
    <path
       style="fill:#4a7ebb;fill-opacity:1;fill-rule:nonzero;stroke:#4a7ebb;stroke-width:0.00937734px;stroke-linecap:butt;stroke-linejoin:round;stroke-opacity:1;stroke-dasharray:none"
       d="m 160.38996,156.33895 -63.146984,-25.50636 1.050261,-2.6069 63.146983,25.50636 z m -57.75502,-18.22954 -7.454978,-9.63053 12.049878,-1.74418 c 0.76894,-0.11253 1.491,0.4126 1.59415,1.18154 0.11252,0.76894 -0.41261,1.491 -1.18155,1.59415 l -9.677409,1.4066 0.918978,-2.25056 5.973361,7.72692 c 0.47825,0.60953 0.36572,1.491 -0.24381,1.96924 -0.6189,0.47825 -1.50037,0.36572 -1.97862,-0.25318 z"
       id="path3853"
       inkscape:connector-curvature="0" />
    <path
       style="fill:#ff0000;fill-opacity:1;fill-rule:nonzero;stroke:#ff0000;stroke-width:0.00937734px;stroke-linecap:butt;stroke-linejoin:round;stroke-opacity:1;stroke-dasharray:none"
       d="m 79.988677,141.45712 12.237424,-30.27942 -2.6069,-1.05964 -12.237423,30.28879 z m 13.72842,-21.34282 -1.753562,-12.04988 -9.630524,7.45498 c -0.609527,0.46887 -0.722055,1.35972 -0.253188,1.96924 0.478244,0.61891 1.359714,0.73144 1.978618,0.25319 l 7.726925,-5.98274 -2.259938,-0.9096 1.4066,9.66803 c 0.112528,0.76895 0.825206,1.30345 1.594148,1.19093 0.768941,-0.11253 1.303449,-0.82521 1.190921,-1.59415 z"
       id="path3855"
       inkscape:connector-curvature="0" />
    <path
       style="fill:#4a7ebb;fill-opacity:1;fill-rule:nonzero;stroke:#4a7ebb;stroke-width:0.00937734px;stroke-linecap:butt;stroke-linejoin:round;stroke-opacity:1;stroke-dasharray:none"
       d="m 160.32432,167.15102 -62.687496,26.61288 1.097148,2.58814 62.696868,-26.6035 z m -57.41743,19.24229 -7.295571,9.76181 12.087391,1.53788 c 0.76894,0.0938 1.47224,-0.45011 1.57539,-1.21905 0.0938,-0.76894 -0.45011,-1.47225 -1.21906,-1.5754 l -9.696161,-1.22843 0.956488,2.23181 5.842083,-7.83008 c 0.46886,-0.6189 0.33758,-1.50037 -0.28132,-1.96924 -0.62828,-0.45949 -1.50975,-0.33758 -1.96924,0.2907 z"
       id="path3857"
       inkscape:connector-curvature="0" />
    <path
       style="fill:#ff0000;fill-opacity:1;fill-rule:nonzero;stroke:#ff0000;stroke-width:0.00937734px;stroke-linecap:butt;stroke-linejoin:round;stroke-opacity:1;stroke-dasharray:none"
       d="m 91.466537,217.16973 -12.762555,-30.06374 2.588145,-1.09715 12.762554,30.06374 z m -14.103514,-21.09901 1.537883,-12.08739 9.761807,7.2862 c 0.628282,0.46886 0.750187,1.35033 0.290698,1.96924 -0.468867,0.62828 -1.350337,0.75018 -1.969241,0.29069 l -7.830076,-5.85145 2.241184,-0.94712 -1.237809,9.69617 c -0.09377,0.76894 -0.806451,1.31283 -1.575392,1.21905 -0.768942,-0.10315 -1.312827,-0.80645 -1.219054,-1.57539 z"
       id="path3859"
       inkscape:connector-curvature="0" />
    <path
       style="fill:#4a7ebb;fill-opacity:1;fill-rule:nonzero;stroke:#4a7ebb;stroke-width:0.00937734px;stroke-linecap:butt;stroke-linejoin:round;stroke-opacity:1;stroke-dasharray:none"
       d="m 146.50212,241.78523 25.50636,-63.14698 -2.6069,-1.05026 -25.51573,63.14698 z m -4.10727,-9.99624 1.75356,12.05926 9.63053,-7.45498 c 0.6189,-0.47825 0.73143,-1.35972 0.25318,-1.97862 -0.47824,-0.60953 -1.35971,-0.72206 -1.96924,-0.25319 l -7.72692,5.98274 2.25056,0.9096 -1.4066,-9.66803 0,0 c -0.11253,-0.76894 -0.82521,-1.30345 -1.59415,-1.19092 -0.76894,0.11253 -1.29407,0.8252 -1.19092,1.59414 z"
       id="path3861"
       inkscape:connector-curvature="0" />
    <path
       style="fill:#ff0000;fill-opacity:1;fill-rule:nonzero;stroke:#ff0000;stroke-width:0.00937734px;stroke-linecap:butt;stroke-linejoin:round;stroke-opacity:1;stroke-dasharray:none"
       d="m 126.84723,246.80211 30.27941,12.22805 -1.05026,2.61627 -30.28879,-12.23742 z m 4.3417,9.89309 -7.46436,-9.6399 12.05926,-1.74419 c 0.76894,-0.11252 1.48162,0.42198 1.59414,1.19092 0.11253,0.76895 -0.42198,1.48162 -1.19092,1.59415 l 0,0 -9.66803,1.39723 0.9096,-2.25057 5.98274,7.72693 c 0.47825,0.60953 0.36572,1.50037 -0.25319,1.96924 -0.60952,0.47824 -1.50037,0.36572 -1.96924,-0.24381 z"
       id="path3863"
       inkscape:connector-curvature="0" />
    <path
       style="fill:#4a7ebb;fill-opacity:1;fill-rule:nonzero;stroke:#4a7ebb;stroke-width:0.00937734px;stroke-linecap:butt;stroke-linejoin:round;stroke-opacity:1;stroke-dasharray:none"
       d="m 258.98327,196.17387 -63.14698,-25.50635 1.05026,-2.6069 63.14698,25.50635 z m -57.75501,-18.22954 -7.45499,-9.63052 12.05926,-1.74419 c 0.76894,-0.11253 1.48162,0.4126 1.59415,1.18155 0.10315,0.76894 -0.42198,1.49099 -1.19093,1.59414 l -9.66803,1.4066 0.9096,-2.25056 5.97336,7.72693 c 0.47825,0.60952 0.36572,1.49099 -0.24381,1.96924 -0.6189,0.47824 -1.50037,0.36571 -1.97861,-0.25319 z"
       id="path3865"
       inkscape:connector-curvature="0" />
    <path
       style="fill:#ff0000;fill-opacity:1;fill-rule:nonzero;stroke:#ff0000;stroke-width:0.00937734px;stroke-linecap:butt;stroke-linejoin:round;stroke-opacity:1;stroke-dasharray:none"
       d="m 229.17272,245.75185 -30.06374,12.76255 1.09715,2.58815 30.06374,-12.76256 z m -4.17292,9.96811 7.29557,-9.76181 -12.08739,-1.53788 c -0.76894,-0.10315 -1.47224,0.44073 -1.57539,1.21905 -0.0938,0.76894 0.45011,1.47224 1.21906,1.56602 l 9.69616,1.2378 -0.95649,-2.24118 -5.84208,7.83008 c -0.46886,0.62828 -0.33758,1.50975 0.28132,1.96924 0.62828,0.46886 1.50975,0.33758 1.96924,-0.28132 z"
       id="path3867"
       inkscape:connector-curvature="0" />
    <path
       style="fill:#4a7ebb;fill-opacity:1;fill-rule:nonzero;stroke:#4a7ebb;stroke-width:0.00937734px;stroke-linecap:butt;stroke-linejoin:round;stroke-opacity:1;stroke-dasharray:none"
       d="m 186.49646,179.85731 26.61288,62.68749 -2.58814,1.09715 -26.61288,-62.68749 z m -3.91973,10.06188 1.53789,-12.08739 9.7618,7.28619 c 0.61891,0.46887 0.75019,1.35034 0.28132,1.96924 -0.45948,0.62828 -1.34095,0.75019 -1.96924,0.2907 l -7.83007,-5.85146 2.24118,-0.94711 -1.23781,9.69617 c -0.0938,0.76894 -0.79707,1.31282 -1.56601,1.21905 -0.77832,-0.10315 -1.32221,-0.80645 -1.21906,-1.57539 z"
       id="path3869"
       inkscape:connector-curvature="0" />
    <path
       style="fill:#ff0000;fill-opacity:1;fill-rule:nonzero;stroke:#ff0000;stroke-width:0.00937734px;stroke-linecap:butt;stroke-linejoin:round;stroke-opacity:1;stroke-dasharray:none"
       d="m 264.03765,215.81939 12.22805,-30.28879 -2.6069,-1.05027 -12.23742,30.27942 z m 13.71905,-21.34282 -1.74419,-12.05925 -9.6399,7.45498 c -0.60953,0.47825 -0.72205,1.35972 -0.24381,1.97862 0.46887,0.60953 1.35971,0.72205 1.96924,0.25319 l 7.72692,-5.98274 -2.25056,-0.9096 1.39723,9.66803 c 0.11253,0.76894 0.8252,1.30345 1.59414,1.19092 0.76895,-0.11253 1.30345,-0.8252 1.19093,-1.59415 z"
       id="path3871"
       inkscape:connector-curvature="0" />
    <text
       xml:space="preserve"
       x="186.52631"
       y="168.3251"
       style="font-size:13.20328903px;font-style:italic;font-weight:normal;text-align:start;text-anchor:start;fill:#000000;font-family:Calibri"
       id="text3873">e</text>
    <text
       xml:space="preserve"
       x="192.82787"
       y="164.42413"
       style="font-size:8.70216751px;font-style:italic;font-weight:normal;text-align:start;text-anchor:start;fill:#000000;font-family:Calibri"
       id="text3875">-</text>
    <path
       style="fill:none;stroke:#4a7ebb;stroke-width:0.93773359px;stroke-linecap:butt;stroke-linejoin:round;stroke-opacity:1;stroke-dasharray:none"
       d="m 307.78293,146.17392 c -15.88521,0 -31.77042,-3.67592 -31.77042,-7.33308"
       id="path3877"
       inkscape:connector-curvature="0" />
    <path
       style="fill:none;stroke:#4a7ebb;stroke-width:0.93773359px;stroke-linecap:butt;stroke-linejoin:round;stroke-opacity:1;stroke-dasharray:none"
       d="m 276.01251,182.4267 c 0,-2.1943 15.88521,-4.3886 31.77042,-4.3886"
       id="path3879"
       inkscape:connector-curvature="0" />
    <path
       style="fill:none;stroke:#4a7ebb;stroke-width:0.93773359px;stroke-linecap:butt;stroke-linejoin:round;stroke-opacity:1;stroke-dasharray:none"
       d="m 262.15281,106.20771 c 0,-15.219418 -15.49136,-30.438834 -30.98272,-30.438834"
       id="path3881"
       inkscape:connector-curvature="0" />
    <path
       style="fill:none;stroke:#4a7ebb;stroke-width:0.93773359px;stroke-linecap:butt;stroke-linejoin:round;stroke-opacity:1;stroke-dasharray:none"
       d="m 198.30253,62.490568 c 0.37509,0 0.75018,-4.210424 0.75018,-8.411471 0,-4.201046 -24.86869,-8.41147 -49.72801,-8.41147 -24.86869,0 -49.728013,7.858208 -49.728013,15.716415 0,7.848831 11.252803,15.707038 22.505603,15.707038"
       id="path3883"
       inkscape:connector-curvature="0" />
    <path
       style="fill:none;stroke:#4a7ebb;stroke-width:0.93773359px;stroke-linecap:butt;stroke-linejoin:round;stroke-opacity:1;stroke-dasharray:none"
       d="m 154.72605,63.240755 c -58.542713,0 -117.0948,21.464722 -117.0948,42.929445 0,21.46472 10.268183,42.92944 20.526989,42.92944 10.268183,0 20.526988,-4.07914 20.526988,-8.16766"
       id="path3885"
       inkscape:connector-curvature="0" />
    <path
       style="fill:none;stroke:#4a7ebb;stroke-width:0.93773359px;stroke-linecap:butt;stroke-linejoin:round;stroke-opacity:1;stroke-dasharray:none"
       d="m 156.60151,260.34298 c -62.33115,0 -124.652926,-20.9771 -124.652926,-41.9542 0,-20.96772 11.740425,-41.94482 23.48085,-41.94482 11.740425,0 23.48085,3.76969 23.48085,7.54875"
       id="path3887"
       inkscape:connector-curvature="0" />
    <path
       style="fill:none;stroke:#4a7ebb;stroke-width:0.93773359px;stroke-linecap:butt;stroke-linejoin:round;stroke-opacity:1;stroke-dasharray:none"
       d="m 92.760609,216.61646 c 0,11.25281 -10.146278,22.50561 -20.292555,22.50561 -10.136901,0 -20.283178,-38.39081 -20.283178,-76.78163 0,-38.39081 9.949353,-76.781625 19.889329,-76.781625 9.949354,0 19.88933,11.252803 19.88933,22.505605"
       id="path3889"
       inkscape:connector-curvature="0" />
    <path
       style="fill:none;stroke:#4a7ebb;stroke-width:0.93773359px;stroke-linecap:butt;stroke-linejoin:round;stroke-opacity:1;stroke-dasharray:none"
       d="m 123.73395,247.06468 c -11.2528,0 -22.50561,6.50787 -22.50561,13.01574 0,6.50787 23.90283,13.02512 47.79629,13.02512 23.90283,0 47.79628,-3.32896 47.79628,-6.64853 0,-3.32896 1.41598,-6.64854 2.83195,-6.64854"
       id="path3891"
       inkscape:connector-curvature="0" />
    <path
       style="fill:none;stroke:#4a7ebb;stroke-width:0.93773359px;stroke-linecap:butt;stroke-linejoin:round;stroke-opacity:1;stroke-dasharray:none"
       d="m 232.28599,245.95815 c 15.21942,0 30.43884,-15.33195 30.43884,-30.67327"
       id="path3893"
       inkscape:connector-curvature="0" />
  </g>
  <g
     style="font-size:40px;font-style:normal;font-weight:normal;line-height:125%;letter-spacing:0px;word-spacing:0px;fill:#000000;fill-opacity:1;stroke:none;font-family:Sans"
     id="text3339">
    <path
       d="m 86.887695,172.82025 -3.328125,-8.58984 1.230469,0 2.232422,6.24023 c 0.179684,0.5 0.330074,0.96875 0.451172,1.40625 0.132808,-0.46875 0.287105,-0.9375 0.46289,-1.40625 l 2.320313,-6.24023 1.160156,0 -3.363281,8.58984 z"
       style="font-size:12px;text-align:center;text-anchor:middle"
       id="path4142" />
    <path
       d="m 96.573242,170.81635 1.089844,0.13476 c -0.171881,0.63672 -0.49024,1.13086 -0.955078,1.48242 -0.464849,0.35157 -1.058598,0.52735 -1.78125,0.52735 -0.910159,0 -1.631838,-0.28028 -2.165039,-0.84082 -0.533204,-0.56055 -0.799805,-1.34668 -0.799805,-2.3584 0,-1.04687 0.269531,-1.85937 0.808594,-2.4375 0.539061,-0.57812 1.238279,-0.86718 2.097656,-0.86719 0.832027,10e-6 1.511714,0.28321 2.039063,0.84961 0.527337,0.56641 0.791009,1.36328 0.791015,2.39062 -6e-6,0.0625 -0.002,0.15626 -0.0059,0.28125 l -4.640625,0 c 0.03906,0.6836 0.23242,1.20704 0.580078,1.57032 0.347654,0.36328 0.781247,0.54492 1.300781,0.54492 0.386715,0 0.716793,-0.10156 0.990235,-0.30469 0.273432,-0.20312 0.490229,-0.52734 0.65039,-0.97265 z m -3.46289,-1.70508 3.474609,0 c -0.04688,-0.52344 -0.179692,-0.91601 -0.398438,-1.17774 -0.335941,-0.40624 -0.771488,-0.60937 -1.30664,-0.60937 -0.484378,0 -0.891604,0.16211 -1.22168,0.48633 -0.33008,0.32422 -0.512697,0.75781 -0.547851,1.30078 z"
       style="font-size:12px;text-align:center;text-anchor:middle"
       id="path4144" />
    <path
       d="m 98.981445,172.82025 0,-6.22265 0.949219,0 0,0.94335 c 0.242186,-0.4414 0.465816,-0.73241 0.670896,-0.87304 0.20508,-0.14062 0.43066,-0.21093 0.67676,-0.21094 0.35547,10e-6 0.71679,0.11329 1.08398,0.33984 l -0.36328,0.97852 c -0.25781,-0.15234 -0.51562,-0.22851 -0.77343,-0.22852 -0.23048,1e-5 -0.43751,0.0694 -0.6211,0.20801 -0.18359,0.13868 -0.31445,0.33106 -0.39258,0.57715 -0.11719,0.375 -0.17578,0.78516 -0.17578,1.23047 l 0,3.25781 z"
       style="font-size:12px;text-align:center;text-anchor:middle"
       id="path4146" />
    <path
       d="m 105.30371,171.87689 0.15234,0.93164 c -0.29687,0.0625 -0.5625,0.0937 -0.79687,0.0937 -0.38281,0 -0.67969,-0.0605 -0.89063,-0.18164 -0.21093,-0.12109 -0.35937,-0.28027 -0.44531,-0.47754 -0.0859,-0.19726 -0.12891,-0.6123 -0.1289,-1.24511 l 0,-3.58008 -0.77344,0 0,-0.82031 0.77344,0 0,-1.54102 1.04882,-0.63281 0,2.17383 1.06055,0 0,0.82031 -1.06055,0 0,3.63867 c 0,0.30078 0.0186,0.49414 0.0557,0.58008 0.0371,0.0859 0.0977,0.1543 0.18164,0.20508 0.084,0.0508 0.2041,0.0762 0.36035,0.0762 0.11719,0 0.27148,-0.0137 0.46289,-0.041 z"
       style="font-size:12px;text-align:center;text-anchor:middle"
       id="path4148" />
    <path
       d="m 106.33496,165.4433 0,-1.21289 1.05469,0 0,1.21289 z m 0,7.37695 0,-6.22265 1.05469,0 0,6.22265 z"
       style="font-size:12px;text-align:center;text-anchor:middle"
       id="path4150" />
    <path
       d="m 113.06152,170.54095 1.03711,0.13477 c -0.11328,0.71485 -0.40332,1.27442 -0.87011,1.67871 -0.46681,0.4043 -1.04005,0.60645 -1.71973,0.60645 -0.85157,0 -1.53614,-0.27832 -2.05371,-0.83496 -0.51758,-0.55664 -0.77637,-1.35449 -0.77637,-2.39356 0,-0.67187 0.11133,-1.25976 0.33399,-1.76367 0.22265,-0.5039 0.56152,-0.88183 1.0166,-1.13379 0.45507,-0.25195 0.95019,-0.37792 1.48535,-0.37793 0.67578,10e-6 1.22851,0.1709 1.6582,0.5127 0.42968,0.3418 0.70507,0.82715 0.82617,1.45605 l -1.02539,0.1582 c -0.0977,-0.41796 -0.27051,-0.73241 -0.51855,-0.94336 -0.24805,-0.21093 -0.54786,-0.3164 -0.89942,-0.3164 -0.53125,0 -0.96289,0.19043 -1.29492,0.57129 -0.33203,0.38086 -0.49805,0.9834 -0.49804,1.80761 -10e-6,0.83594 0.16015,1.44337 0.48046,1.82227 0.32031,0.37891 0.73828,0.56836 1.25391,0.56836 0.41406,0 0.75976,-0.12695 1.03711,-0.38086 0.27734,-0.25391 0.45312,-0.64453 0.52734,-1.17188 z"
       style="font-size:12px;text-align:center;text-anchor:middle"
       id="path4152" />
    <path
       d="m 119.06152,172.05267 c -0.39063,0.33204 -0.7666,0.56641 -1.12793,0.70313 -0.36133,0.13672 -0.74902,0.20508 -1.16308,0.20508 -0.6836,0 -1.20899,-0.167 -1.57617,-0.50098 -0.36719,-0.33398 -0.55079,-0.76074 -0.55079,-1.28027 0,-0.30469 0.0693,-0.58301 0.20801,-0.83496 0.13867,-0.25195 0.32031,-0.4541 0.54492,-0.60645 0.22461,-0.15234 0.47754,-0.26757 0.75879,-0.3457 0.20703,-0.0547 0.51953,-0.10742 0.9375,-0.15821 0.85156,-0.10155 1.47851,-0.22265 1.88086,-0.36328 0.004,-0.14452 0.006,-0.23632 0.006,-0.27539 0,-0.42968 -0.0996,-0.73241 -0.29883,-0.9082 -0.26953,-0.23828 -0.66992,-0.35742 -1.20117,-0.35742 -0.49609,0 -0.8623,0.0869 -1.09863,0.26074 -0.23633,0.17383 -0.41114,0.48145 -0.52441,0.92285 l -1.03125,-0.14062 c 0.0937,-0.44141 0.24804,-0.79785 0.46289,-1.06934 0.21484,-0.27148 0.52538,-0.48046 0.93164,-0.62695 0.40624,-0.14648 0.87695,-0.21972 1.41211,-0.21973 0.53124,10e-6 0.96288,0.0625 1.29492,0.1875 0.33202,0.12501 0.57616,0.28223 0.73242,0.47168 0.15624,0.18946 0.26562,0.42872 0.32812,0.71777 0.0352,0.1797 0.0527,0.50391 0.0527,0.97266 l 0,1.40625 c -1e-5,0.98047 0.0224,1.60059 0.0674,1.86035 0.0449,0.25977 0.13378,0.50879 0.2666,0.74707 l -1.10156,0 c -0.10938,-0.21875 -0.17969,-0.47461 -0.21094,-0.76758 z m -0.0879,-2.35547 c -0.38281,0.15626 -0.95703,0.28907 -1.72265,0.39844 -0.4336,0.0625 -0.74024,0.13282 -0.91993,0.21094 -0.17968,0.0781 -0.31836,0.19238 -0.41601,0.34277 -0.0977,0.1504 -0.14649,0.31739 -0.14649,0.50098 0,0.28125 0.10645,0.51563 0.31934,0.70312 0.21289,0.18751 0.52441,0.28126 0.93457,0.28125 0.40625,1e-5 0.76758,-0.0889 1.08399,-0.2666 0.3164,-0.17773 0.54882,-0.42089 0.69726,-0.72949 0.11328,-0.23828 0.16992,-0.58984 0.16992,-1.05469 z"
       style="font-size:12px;text-align:center;text-anchor:middle"
       id="path4154" />
    <path
       d="m 121.65723,172.82025 0,-8.58984 1.05468,0 0,8.58984 z"
       style="font-size:12px;text-align:center;text-anchor:middle"
       id="path4156" />
    <path
       d="m 127.42871,170.06049 1.07227,-0.0937 c 0.0508,0.42969 0.16894,0.78222 0.35449,1.05761 0.18554,0.2754 0.47363,0.49805 0.86426,0.66797 0.39062,0.16992 0.83007,0.25489 1.31836,0.25488 0.43359,1e-5 0.8164,-0.0645 1.14843,-0.19335 0.33203,-0.12891 0.5791,-0.30567 0.74121,-0.53028 0.16211,-0.22461 0.24316,-0.46972 0.24317,-0.73535 -10e-6,-0.26953 -0.0781,-0.50488 -0.23438,-0.70605 -0.15625,-0.20117 -0.41406,-0.37012 -0.77343,-0.50684 -0.23048,-0.0898 -0.74024,-0.22949 -1.5293,-0.41895 -0.78907,-0.18944 -1.3418,-0.36816 -1.6582,-0.53613 -0.41016,-0.21484 -0.71583,-0.48144 -0.917,-0.7998 -0.20117,-0.31836 -0.30175,-0.6748 -0.30175,-1.06934 0,-0.43359 0.12304,-0.83886 0.36914,-1.21582 0.24609,-0.37694 0.60546,-0.66308 1.07812,-0.8584 0.47266,-0.1953 0.99805,-0.29296 1.57617,-0.29297 0.63672,1e-5 1.19824,0.10255 1.68457,0.30762 0.48633,0.20509 0.86035,0.50684 1.12207,0.90527 0.26172,0.39845 0.40234,0.84962 0.42188,1.35352 l -1.08984,0.082 c -0.0586,-0.54296 -0.25685,-0.95312 -0.59473,-1.23047 -0.3379,-0.27733 -0.83692,-0.41601 -1.49707,-0.41601 -0.6875,0 -1.18848,0.12598 -1.50293,0.37793 -0.31446,0.25196 -0.47168,0.55567 -0.47168,0.91113 0,0.3086 0.11133,0.5625 0.33398,0.76172 0.21875,0.19922 0.79004,0.40332 1.71387,0.6123 0.92382,0.20899 1.55761,0.39161 1.90137,0.54785 0.49999,0.23048 0.86913,0.52247 1.10742,0.87598 0.23827,0.35352 0.35741,0.76075 0.35742,1.22168 -1e-5,0.45703 -0.13087,0.8877 -0.39258,1.29199 -0.26172,0.4043 -0.6377,0.71875 -1.12793,0.94336 -0.49024,0.22461 -1.04199,0.33692 -1.65527,0.33692 -0.77735,0 -1.42871,-0.11329 -1.9541,-0.33985 -0.52539,-0.22656 -0.9375,-0.56738 -1.23633,-1.02246 -0.29883,-0.45508 -0.45605,-0.96972 -0.47168,-1.54394 z"
       style="font-size:12px;text-align:center;text-anchor:middle"
       id="path4158" />
    <path
       d="m 137.99902,171.87689 0.15235,0.93164 c -0.29688,0.0625 -0.56251,0.0937 -0.79688,0.0937 -0.38281,0 -0.67969,-0.0605 -0.89062,-0.18164 -0.21094,-0.12109 -0.35938,-0.28027 -0.44532,-0.47754 -0.0859,-0.19726 -0.1289,-0.6123 -0.1289,-1.24511 l 0,-3.58008 -0.77344,0 0,-0.82031 0.77344,0 0,-1.54102 1.04883,-0.63281 0,2.17383 1.06054,0 0,0.82031 -1.06054,0 0,3.63867 c -1e-5,0.30078 0.0186,0.49414 0.0557,0.58008 0.0371,0.0859 0.0977,0.1543 0.18164,0.20508 0.084,0.0508 0.2041,0.0762 0.36035,0.0762 0.11719,0 0.27148,-0.0137 0.46289,-0.041 z"
       style="font-size:12px;text-align:center;text-anchor:middle"
       id="path4160" />
    <path
       d="m 143.28418,170.81635 1.08984,0.13476 c -0.17188,0.63672 -0.49024,1.13086 -0.95507,1.48242 -0.46485,0.35157 -1.0586,0.52735 -1.78125,0.52735 -0.91016,0 -1.63184,-0.28028 -2.16504,-0.84082 -0.53321,-0.56055 -0.79981,-1.34668 -0.79981,-2.3584 0,-1.04687 0.26953,-1.85937 0.8086,-2.4375 0.53906,-0.57812 1.23827,-0.86718 2.09765,-0.86719 0.83203,10e-6 1.51172,0.28321 2.03906,0.84961 0.52734,0.56641 0.79101,1.36328 0.79102,2.39062 -1e-5,0.0625 -0.002,0.15626 -0.006,0.28125 l -4.64062,0 c 0.0391,0.6836 0.23242,1.20704 0.58007,1.57032 0.34766,0.36328 0.78125,0.54492 1.30078,0.54492 0.38672,0 0.7168,-0.10156 0.99024,-0.30469 0.27343,-0.20312 0.49023,-0.52734 0.65039,-0.97265 z m -3.46289,-1.70508 3.47461,0 c -0.0469,-0.52344 -0.17969,-0.91601 -0.39844,-1.17774 -0.33594,-0.40624 -0.77149,-0.60937 -1.30664,-0.60937 -0.48438,0 -0.8916,0.16211 -1.22168,0.48633 -0.33008,0.32422 -0.5127,0.75781 -0.54785,1.30078 z"
       style="font-size:12px;text-align:center;text-anchor:middle"
       id="path4162" />
    <path
       d="m 149.96387,170.81635 1.08984,0.13476 c -0.17188,0.63672 -0.49024,1.13086 -0.95508,1.48242 -0.46485,0.35157 -1.0586,0.52735 -1.78125,0.52735 -0.91016,0 -1.63183,-0.28028 -2.16504,-0.84082 -0.5332,-0.56055 -0.7998,-1.34668 -0.7998,-2.3584 0,-1.04687 0.26953,-1.85937 0.80859,-2.4375 0.53906,-0.57812 1.23828,-0.86718 2.09766,-0.86719 0.83203,10e-6 1.51171,0.28321 2.03906,0.84961 0.52734,0.56641 0.79101,1.36328 0.79102,2.39062 -10e-6,0.0625 -0.002,0.15626 -0.006,0.28125 l -4.64063,0 c 0.0391,0.6836 0.23242,1.20704 0.58008,1.57032 0.34765,0.36328 0.78125,0.54492 1.30078,0.54492 0.38672,0 0.71679,-0.10156 0.99024,-0.30469 0.27343,-0.20312 0.49023,-0.52734 0.65039,-0.97265 z m -3.46289,-1.70508 3.47461,0 c -0.0469,-0.52344 -0.1797,-0.91601 -0.39844,-1.17774 -0.33594,-0.40624 -0.77149,-0.60937 -1.30664,-0.60937 -0.48438,0 -0.89161,0.16211 -1.22168,0.48633 -0.33008,0.32422 -0.5127,0.75781 -0.54785,1.30078 z"
       style="font-size:12px;text-align:center;text-anchor:middle"
       id="path4164" />
    <path
       d="m 152.37207,172.82025 0,-6.22265 0.94922,0 0,0.94335 c 0.24218,-0.4414 0.46582,-0.73241 0.6709,-0.87304 0.20507,-0.14062 0.43066,-0.21093 0.67676,-0.21094 0.35546,10e-6 0.71679,0.11329 1.08398,0.33984 l -0.36328,0.97852 c -0.25782,-0.15234 -0.51563,-0.22851 -0.77344,-0.22852 -0.23047,1e-5 -0.4375,0.0694 -0.62109,0.20801 -0.1836,0.13868 -0.31446,0.33106 -0.39258,0.57715 -0.11719,0.375 -0.17578,0.78516 -0.17578,1.23047 l 0,3.25781 z"
       style="font-size:12px;text-align:center;text-anchor:middle"
       id="path4166" />
    <path
       d="m 160.65137,170.81635 1.08984,0.13476 c -0.17188,0.63672 -0.49024,1.13086 -0.95508,1.48242 -0.46485,0.35157 -1.0586,0.52735 -1.78125,0.52735 -0.91016,0 -1.63183,-0.28028 -2.16504,-0.84082 -0.5332,-0.56055 -0.7998,-1.34668 -0.7998,-2.3584 0,-1.04687 0.26953,-1.85937 0.80859,-2.4375 0.53906,-0.57812 1.23828,-0.86718 2.09766,-0.86719 0.83203,10e-6 1.51171,0.28321 2.03906,0.84961 0.52734,0.56641 0.79101,1.36328 0.79102,2.39062 -10e-6,0.0625 -0.002,0.15626 -0.006,0.28125 l -4.64063,0 c 0.0391,0.6836 0.23242,1.20704 0.58008,1.57032 0.34765,0.36328 0.78125,0.54492 1.30078,0.54492 0.38672,0 0.71679,-0.10156 0.99024,-0.30469 0.27343,-0.20312 0.49023,-0.52734 0.65039,-0.97265 z m -3.46289,-1.70508 3.47461,0 c -0.0469,-0.52344 -0.1797,-0.91601 -0.39844,-1.17774 -0.33594,-0.40624 -0.77149,-0.60937 -1.30664,-0.60937 -0.48438,0 -0.89161,0.16211 -1.22168,0.48633 -0.33008,0.32422 -0.5127,0.75781 -0.54785,1.30078 z"
       style="font-size:12px;text-align:center;text-anchor:middle"
       id="path4168" />
    <path
       d="m 163.05957,172.82025 0,-6.22265 0.94922,0 0,0.94335 c 0.24218,-0.4414 0.46582,-0.73241 0.6709,-0.87304 0.20507,-0.14062 0.43066,-0.21093 0.67676,-0.21094 0.35546,10e-6 0.71679,0.11329 1.08398,0.33984 l -0.36328,0.97852 c -0.25782,-0.15234 -0.51563,-0.22851 -0.77344,-0.22852 -0.23047,1e-5 -0.4375,0.0694 -0.62109,0.20801 -0.1836,0.13868 -0.31446,0.33106 -0.39258,0.57715 -0.11719,0.375 -0.17578,0.78516 -0.17578,1.23047 l 0,3.25781 z"
       style="font-size:12px;text-align:center;text-anchor:middle"
       id="path4170" />
    <path
       d="m 94.213058,187.3832 0,0.2168 -3.404296,0 0,-0.2168 0.28125,0 c 0.328124,0 0.566405,-0.0957 0.714843,-0.28711 0.09375,-0.125 0.140624,-0.42578 0.140625,-0.90234 l 0,-5.13281 c -10e-7,-0.40234 -0.02539,-0.66796 -0.07617,-0.79688 -0.03906,-0.0976 -0.119141,-0.18163 -0.240234,-0.25195 -0.171876,-0.0937 -0.351563,-0.14062 -0.539062,-0.14063 l -0.28125,0 0,-0.21679 3.404296,0 0,0.21679 -0.287109,0 c -0.324222,1e-5 -0.56055,0.0957 -0.708984,0.28711 -0.09766,0.12501 -0.146487,0.42579 -0.146485,0.90235 l 0,5.13281 c -2e-6,0.40234 0.02539,0.66797 0.07617,0.79687 0.03906,0.0977 0.121091,0.18165 0.246094,0.25196 0.167966,0.0937 0.3457,0.14062 0.533203,0.14062 z"
       style="font-size:12px;font-variant:normal;font-stretch:normal;text-align:center;text-anchor:middle;font-family:Serif;-inkscape-font-specification:Serif"
       id="path4172" />
    <path
       d="m 104.03923,183.77383 -6.304687,2.73047 0,-0.50391 5.431637,-2.35547 -5.431637,-2.3789 0,-0.53321 6.304687,2.75391 z"
       style="font-size:12px;font-variant:normal;font-stretch:normal;text-align:center;text-anchor:middle;font-family:Serif;-inkscape-font-specification:Serif"
       id="path4174" />
    <path
       d="m 107.72478,183.67422 c 0,-0.90625 0.13672,-1.68652 0.41015,-2.34082 0.27344,-0.65429 0.63672,-1.1416 1.08985,-1.46192 0.35156,-0.25389 0.71484,-0.38085 1.08984,-0.38086 0.60937,1e-5 1.15625,0.31056 1.64063,0.93165 0.60546,0.76953 0.90819,1.8125 0.9082,3.1289 -1e-5,0.92188 -0.13282,1.70508 -0.39844,2.34961 -0.26563,0.64453 -0.6045,1.11231 -1.0166,1.40332 -0.41211,0.29102 -0.80957,0.43652 -1.19238,0.43652 -0.75782,0 -1.38868,-0.44726 -1.89258,-1.34179 -0.42578,-0.75391 -0.63867,-1.66211 -0.63867,-2.72461 z m 1.14843,0.14648 c 0,1.09376 0.13477,1.98633 0.4043,2.67774 0.22266,0.58203 0.55469,0.87304 0.9961,0.87304 0.21093,0 0.42968,-0.0947 0.65625,-0.28418 0.22655,-0.18945 0.39843,-0.50683 0.51562,-0.95214 0.17968,-0.67188 0.26953,-1.61914 0.26953,-2.8418 0,-0.90625 -0.0937,-1.6621 -0.28125,-2.26758 -0.14063,-0.44921 -0.32227,-0.76757 -0.54492,-0.95508 -0.16016,-0.1289 -0.35352,-0.19335 -0.58008,-0.19336 -0.26563,1e-5 -0.50195,0.11915 -0.70898,0.35743 -0.28125,0.32422 -0.47266,0.83399 -0.57422,1.52929 -0.10157,0.69532 -0.15235,1.38087 -0.15235,2.05664 z"
       style="font-size:12px;font-variant:normal;font-stretch:normal;text-align:center;text-anchor:middle;font-family:Serif;-inkscape-font-specification:Serif"
       id="path4176" />
    <path
       d="m 125.40251,182.46719 c 0.51952,0.56641 0.96874,0.99707 1.34766,1.29199 0.37889,0.29492 0.73631,0.51465 1.07226,0.65918 l 0,0.26367 c -0.38673,0.1875 -0.76173,0.42676 -1.125,0.71777 -0.36329,0.29102 -0.79688,0.71778 -1.30078,1.28028 l -0.45117,0 c 0.36718,-0.78516 0.75194,-1.38867 1.1543,-1.81055 l -9.34571,0 0,-0.5918 9.34571,0 c -0.29689,-0.3789 -0.50392,-0.66015 -0.6211,-0.84375 -0.11719,-0.18359 -0.29102,-0.50585 -0.52148,-0.96679 z"
       style="font-size:12px;font-variant:normal;font-stretch:normal;text-align:center;text-anchor:middle;font-family:Serif;-inkscape-font-specification:Serif"
       id="path4178" />
    <path
       d="m 134.7072,186.82656 c -0.55079,0.42578 -0.89649,0.67188 -1.03711,0.73828 -0.21094,0.0977 -0.43555,0.14649 -0.67383,0.14649 -0.37109,0 -0.67676,-0.12696 -0.91699,-0.38086 -0.24024,-0.25391 -0.36035,-0.58789 -0.36035,-1.00195 0,-0.26172 0.0586,-0.48828 0.17578,-0.67969 0.16015,-0.26563 0.43847,-0.51562 0.83496,-0.75 0.39648,-0.23437 1.05566,-0.51953 1.97754,-0.85547 l 0,-0.21094 c 0,-0.53515 -0.085,-0.90234 -0.25488,-1.10156 -0.16993,-0.19921 -0.417,-0.29882 -0.74121,-0.29883 -0.2461,1e-5 -0.44141,0.0664 -0.58594,0.19922 -0.14844,0.13282 -0.22266,0.28516 -0.22266,0.45703 l 0.0117,0.33984 c 0,0.1797 -0.0459,0.31837 -0.13769,0.41602 -0.0918,0.0977 -0.21192,0.14649 -0.36036,0.14648 -0.14453,1e-5 -0.26269,-0.0508 -0.35449,-0.15234 -0.0918,-0.10156 -0.13769,-0.24023 -0.13769,-0.41601 0,-0.33594 0.17187,-0.64453 0.51562,-0.92579 0.34375,-0.28124 0.82617,-0.42187 1.44727,-0.42187 0.47656,0 0.86718,0.0801 1.17187,0.24023 0.23047,0.1211 0.40039,0.31056 0.50977,0.56836 0.0703,0.16798 0.10546,0.51173 0.10547,1.03125 l 0,1.82227 c -1e-5,0.51172 0.01,0.82519 0.0293,0.94043 0.0195,0.11523 0.0518,0.19238 0.0967,0.23144 0.0449,0.0391 0.0967,0.0586 0.15528,0.0586 0.0625,0 0.11718,-0.0137 0.16406,-0.041 0.082,-0.0508 0.24023,-0.19336 0.47461,-0.42773 l 0,0.32812 c -0.43751,0.58594 -0.85548,0.87891 -1.25391,0.87891 -0.19141,0 -0.34375,-0.0664 -0.45703,-0.19922 -0.11328,-0.13281 -0.17188,-0.35937 -0.17578,-0.67969 z m 0,-0.38086 0,-2.04492 c -0.58985,0.23438 -0.97071,0.40039 -1.14258,0.49805 -0.30859,0.17188 -0.5293,0.35156 -0.66211,0.53906 -0.13281,0.1875 -0.19922,0.39258 -0.19922,0.61523 0,0.28126 0.084,0.51465 0.25196,0.7002 0.16796,0.18555 0.36132,0.27832 0.58007,0.27832 0.29688,0 0.6875,-0.19531 1.17188,-0.58594 z"
       style="font-size:12px;font-variant:normal;font-stretch:normal;text-align:center;text-anchor:middle;font-family:Serif;-inkscape-font-specification:Serif"
       id="path4180" />
    <path
       d="m 137.52557,185.34202 1.25685,-0.61319 0.12569,0 0,4.3609 c 0,0.28946 0.0121,0.46974 0.0362,0.54083 0.0241,0.0711 0.0743,0.12569 0.15044,0.16377 0.0762,0.0381 0.23106,0.0597 0.46466,0.0648 l 0,0.14092 -1.94241,0 0,-0.14092 c 0.24375,-0.005 0.40118,-0.026 0.47227,-0.0628 0.0711,-0.0368 0.12061,-0.0863 0.14854,-0.14854 0.0279,-0.0622 0.0419,-0.2482 0.0419,-0.55797 l 0,-2.78793 c 0,-0.37578 -0.0127,-0.61699 -0.0381,-0.72364 -0.0178,-0.0812 -0.0502,-0.14092 -0.0971,-0.17901 -0.047,-0.0381 -0.10347,-0.0571 -0.16949,-0.0571 -0.0939,1e-5 -0.22471,0.0394 -0.39229,0.11807 z"
       style="font-size:65.00091553%;baseline-shift:sub"
       id="path4182" />
    <path
       d="m 143.72835,183.46328 6.30469,-2.73047 0,0.50977 -5.42579,2.35547 5.42579,2.3789 0,0.52735 -6.30469,-2.75391 z"
       style="font-size:12px;font-variant:normal;font-stretch:normal;text-align:center;text-anchor:middle;font-family:Serif;-inkscape-font-specification:Serif"
       id="path4184" />
    <path
       d="m 153.71858,183.67422 c 0,-0.90625 0.13672,-1.68652 0.41016,-2.34082 0.27343,-0.65429 0.63672,-1.1416 1.08984,-1.46192 0.35156,-0.25389 0.71484,-0.38085 1.08985,-0.38086 0.60937,1e-5 1.15624,0.31056 1.64062,0.93165 0.60546,0.76953 0.9082,1.8125 0.9082,3.1289 0,0.92188 -0.13281,1.70508 -0.39843,2.34961 -0.26563,0.64453 -0.6045,1.11231 -1.01661,1.40332 -0.41211,0.29102 -0.80957,0.43652 -1.19238,0.43652 -0.75781,0 -1.38867,-0.44726 -1.89258,-1.34179 -0.42578,-0.75391 -0.63867,-1.66211 -0.63867,-2.72461 z m 1.14844,0.14648 c 0,1.09376 0.13476,1.98633 0.4043,2.67774 0.22265,0.58203 0.55468,0.87304 0.99609,0.87304 0.21093,0 0.42968,-0.0947 0.65625,-0.28418 0.22656,-0.18945 0.39843,-0.50683 0.51563,-0.95214 0.17968,-0.67188 0.26952,-1.61914 0.26953,-2.8418 -1e-5,-0.90625 -0.0938,-1.6621 -0.28125,-2.26758 -0.14063,-0.44921 -0.32227,-0.76757 -0.54493,-0.95508 -0.16016,-0.1289 -0.35351,-0.19335 -0.58007,-0.19336 -0.26563,1e-5 -0.50196,0.11915 -0.70899,0.35743 -0.28125,0.32422 -0.47266,0.83399 -0.57422,1.52929 -0.10156,0.69532 -0.15234,1.38087 -0.15234,2.05664 z"
       style="font-size:12px;font-variant:normal;font-stretch:normal;text-align:center;text-anchor:middle;font-family:Serif;-inkscape-font-specification:Serif"
       id="path4186" />
  </g>
</svg>
